<?xml version="1.0" encoding="utf-8"?>
<svg xmlns="http://www.w3.org/2000/svg" xmlns:xlink="http://www.w3.org/1999/xlink" width="800" height="400" viewBox="0 0 3200 1600">
<defs>
  <clipPath id="clip690">
    <rect x="0" y="0" width="3200" height="1600"/>
  </clipPath>
</defs>
<path clip-path="url(#clip690)" d="M0 1600 L3200 1600 L3200 0 L0 0  Z" fill="#ffffff" fill-rule="evenodd" fill-opacity="1"/>
<defs>
  <clipPath id="clip691">
    <rect x="640" y="0" width="2241" height="1600"/>
  </clipPath>
</defs>
<path clip-path="url(#clip690)" d="M201.241 1443.7 L3152.76 1443.7 L3152.76 108.352 L201.241 108.352  Z" fill="#ffffff" fill-rule="evenodd" fill-opacity="1"/>
<defs>
  <clipPath id="clip692">
    <rect x="201" y="108" width="2953" height="1336"/>
  </clipPath>
</defs>
<polyline clip-path="url(#clip692)" style="stroke:#000000; stroke-linecap:round; stroke-linejoin:round; stroke-width:2; stroke-opacity:0.1; fill:none" points="568.729,1443.7 568.729,108.352 "/>
<polyline clip-path="url(#clip692)" style="stroke:#000000; stroke-linecap:round; stroke-linejoin:round; stroke-width:2; stroke-opacity:0.1; fill:none" points="1090.9,1443.7 1090.9,108.352 "/>
<polyline clip-path="url(#clip692)" style="stroke:#000000; stroke-linecap:round; stroke-linejoin:round; stroke-width:2; stroke-opacity:0.1; fill:none" points="1613.08,1443.7 1613.08,108.352 "/>
<polyline clip-path="url(#clip692)" style="stroke:#000000; stroke-linecap:round; stroke-linejoin:round; stroke-width:2; stroke-opacity:0.1; fill:none" points="2135.26,1443.7 2135.26,108.352 "/>
<polyline clip-path="url(#clip692)" style="stroke:#000000; stroke-linecap:round; stroke-linejoin:round; stroke-width:2; stroke-opacity:0.1; fill:none" points="2657.43,1443.7 2657.43,108.352 "/>
<polyline clip-path="url(#clip692)" style="stroke:#000000; stroke-linecap:round; stroke-linejoin:round; stroke-width:2; stroke-opacity:0.1; fill:none" points="201.241,1277.44 3152.76,1277.44 "/>
<polyline clip-path="url(#clip692)" style="stroke:#000000; stroke-linecap:round; stroke-linejoin:round; stroke-width:2; stroke-opacity:0.1; fill:none" points="201.241,1041.19 3152.76,1041.19 "/>
<polyline clip-path="url(#clip692)" style="stroke:#000000; stroke-linecap:round; stroke-linejoin:round; stroke-width:2; stroke-opacity:0.1; fill:none" points="201.241,804.944 3152.76,804.944 "/>
<polyline clip-path="url(#clip692)" style="stroke:#000000; stroke-linecap:round; stroke-linejoin:round; stroke-width:2; stroke-opacity:0.1; fill:none" points="201.241,568.697 3152.76,568.697 "/>
<polyline clip-path="url(#clip692)" style="stroke:#000000; stroke-linecap:round; stroke-linejoin:round; stroke-width:2; stroke-opacity:0.1; fill:none" points="201.241,332.451 3152.76,332.451 "/>
<polyline clip-path="url(#clip690)" style="stroke:#000000; stroke-linecap:round; stroke-linejoin:round; stroke-width:4; stroke-opacity:1; fill:none" points="201.241,1443.7 3152.76,1443.7 "/>
<polyline clip-path="url(#clip690)" style="stroke:#000000; stroke-linecap:round; stroke-linejoin:round; stroke-width:4; stroke-opacity:1; fill:none" points="568.729,1443.7 568.729,1424.8 "/>
<polyline clip-path="url(#clip690)" style="stroke:#000000; stroke-linecap:round; stroke-linejoin:round; stroke-width:4; stroke-opacity:1; fill:none" points="1090.9,1443.7 1090.9,1424.8 "/>
<polyline clip-path="url(#clip690)" style="stroke:#000000; stroke-linecap:round; stroke-linejoin:round; stroke-width:4; stroke-opacity:1; fill:none" points="1613.08,1443.7 1613.08,1424.8 "/>
<polyline clip-path="url(#clip690)" style="stroke:#000000; stroke-linecap:round; stroke-linejoin:round; stroke-width:4; stroke-opacity:1; fill:none" points="2135.26,1443.7 2135.26,1424.8 "/>
<polyline clip-path="url(#clip690)" style="stroke:#000000; stroke-linecap:round; stroke-linejoin:round; stroke-width:4; stroke-opacity:1; fill:none" points="2657.43,1443.7 2657.43,1424.8 "/>
<path clip-path="url(#clip690)" d="M557.571 1493.87 Q560.928 1494.58 562.803 1496.85 Q564.701 1499.12 564.701 1502.45 Q564.701 1507.57 561.182 1510.37 Q557.664 1513.17 551.182 1513.17 Q549.007 1513.17 546.692 1512.73 Q544.4 1512.31 541.946 1511.46 L541.946 1506.94 Q543.891 1508.08 546.206 1508.66 Q548.52 1509.24 551.044 1509.24 Q555.442 1509.24 557.733 1507.5 Q560.048 1505.76 560.048 1502.45 Q560.048 1499.4 557.895 1497.69 Q555.766 1495.95 551.946 1495.95 L547.919 1495.95 L547.919 1492.11 L552.132 1492.11 Q555.581 1492.11 557.409 1490.74 Q559.238 1489.35 559.238 1486.76 Q559.238 1484.1 557.34 1482.69 Q555.465 1481.25 551.946 1481.25 Q550.025 1481.25 547.826 1481.67 Q545.627 1482.08 542.988 1482.96 L542.988 1478.8 Q545.65 1478.06 547.965 1477.69 Q550.303 1477.31 552.363 1477.31 Q557.687 1477.31 560.789 1479.75 Q563.891 1482.15 563.891 1486.27 Q563.891 1489.14 562.247 1491.13 Q560.604 1493.1 557.571 1493.87 Z" fill="#000000" fill-rule="nonzero" fill-opacity="1" /><path clip-path="url(#clip690)" d="M583.567 1481.02 Q579.955 1481.02 578.127 1484.58 Q576.321 1488.12 576.321 1495.25 Q576.321 1502.36 578.127 1505.93 Q579.955 1509.47 583.567 1509.47 Q587.201 1509.47 589.006 1505.93 Q590.835 1502.36 590.835 1495.25 Q590.835 1488.12 589.006 1484.58 Q587.201 1481.02 583.567 1481.02 M583.567 1477.31 Q589.377 1477.31 592.432 1481.92 Q595.511 1486.5 595.511 1495.25 Q595.511 1503.98 592.432 1508.59 Q589.377 1513.17 583.567 1513.17 Q577.756 1513.17 574.678 1508.59 Q571.622 1503.98 571.622 1495.25 Q571.622 1486.5 574.678 1481.92 Q577.756 1477.31 583.567 1477.31 Z" fill="#000000" fill-rule="nonzero" fill-opacity="1" /><path clip-path="url(#clip690)" d="M1079.08 1482.01 L1067.27 1500.46 L1079.08 1500.46 L1079.08 1482.01 M1077.85 1477.94 L1083.73 1477.94 L1083.73 1500.46 L1088.66 1500.46 L1088.66 1504.35 L1083.73 1504.35 L1083.73 1512.5 L1079.08 1512.5 L1079.08 1504.35 L1063.47 1504.35 L1063.47 1499.84 L1077.85 1477.94 Z" fill="#000000" fill-rule="nonzero" fill-opacity="1" /><path clip-path="url(#clip690)" d="M1106.39 1481.02 Q1102.78 1481.02 1100.95 1484.58 Q1099.15 1488.12 1099.15 1495.25 Q1099.15 1502.36 1100.95 1505.93 Q1102.78 1509.47 1106.39 1509.47 Q1110.02 1509.47 1111.83 1505.93 Q1113.66 1502.36 1113.66 1495.25 Q1113.66 1488.12 1111.83 1484.58 Q1110.02 1481.02 1106.39 1481.02 M1106.39 1477.31 Q1112.2 1477.31 1115.26 1481.92 Q1118.33 1486.5 1118.33 1495.25 Q1118.33 1503.98 1115.26 1508.59 Q1112.2 1513.17 1106.39 1513.17 Q1100.58 1513.17 1097.5 1508.59 Q1094.45 1503.98 1094.45 1495.25 Q1094.45 1486.5 1097.5 1481.92 Q1100.58 1477.31 1106.39 1477.31 Z" fill="#000000" fill-rule="nonzero" fill-opacity="1" /><path clip-path="url(#clip690)" d="M1587.78 1477.94 L1606.14 1477.94 L1606.14 1481.88 L1592.06 1481.88 L1592.06 1490.35 Q1593.08 1490 1594.1 1489.84 Q1595.12 1489.65 1596.14 1489.65 Q1601.92 1489.65 1605.3 1492.82 Q1608.68 1496 1608.68 1501.41 Q1608.68 1506.99 1605.21 1510.09 Q1601.74 1513.17 1595.42 1513.17 Q1593.24 1513.17 1590.97 1512.8 Q1588.73 1512.43 1586.32 1511.69 L1586.32 1506.99 Q1588.4 1508.12 1590.63 1508.68 Q1592.85 1509.24 1595.33 1509.24 Q1599.33 1509.24 1601.67 1507.13 Q1604.01 1505.02 1604.01 1501.41 Q1604.01 1497.8 1601.67 1495.69 Q1599.33 1493.59 1595.33 1493.59 Q1593.45 1493.59 1591.58 1494 Q1589.72 1494.42 1587.78 1495.3 L1587.78 1477.94 Z" fill="#000000" fill-rule="nonzero" fill-opacity="1" /><path clip-path="url(#clip690)" d="M1627.9 1481.02 Q1624.28 1481.02 1622.46 1484.58 Q1620.65 1488.12 1620.65 1495.25 Q1620.65 1502.36 1622.46 1505.93 Q1624.28 1509.47 1627.9 1509.47 Q1631.53 1509.47 1633.33 1505.93 Q1635.16 1502.36 1635.16 1495.25 Q1635.16 1488.12 1633.33 1484.58 Q1631.53 1481.02 1627.9 1481.02 M1627.9 1477.31 Q1633.71 1477.31 1636.76 1481.92 Q1639.84 1486.5 1639.84 1495.25 Q1639.84 1503.98 1636.76 1508.59 Q1633.71 1513.17 1627.9 1513.17 Q1622.08 1513.17 1619.01 1508.59 Q1615.95 1503.98 1615.95 1495.25 Q1615.95 1486.5 1619.01 1481.92 Q1622.08 1477.31 1627.9 1477.31 Z" fill="#000000" fill-rule="nonzero" fill-opacity="1" /><path clip-path="url(#clip690)" d="M2120.66 1493.36 Q2117.51 1493.36 2115.66 1495.51 Q2113.83 1497.66 2113.83 1501.41 Q2113.83 1505.14 2115.66 1507.31 Q2117.51 1509.47 2120.66 1509.47 Q2123.81 1509.47 2125.64 1507.31 Q2127.49 1505.14 2127.49 1501.41 Q2127.49 1497.66 2125.64 1495.51 Q2123.81 1493.36 2120.66 1493.36 M2129.94 1478.7 L2129.94 1482.96 Q2128.18 1482.13 2126.38 1481.69 Q2124.6 1481.25 2122.84 1481.25 Q2118.21 1481.25 2115.75 1484.37 Q2113.32 1487.5 2112.98 1493.82 Q2114.34 1491.81 2116.4 1490.74 Q2118.46 1489.65 2120.94 1489.65 Q2126.15 1489.65 2129.16 1492.82 Q2132.19 1495.97 2132.19 1501.41 Q2132.19 1506.74 2129.04 1509.95 Q2125.89 1513.17 2120.66 1513.17 Q2114.67 1513.17 2111.49 1508.59 Q2108.32 1503.98 2108.32 1495.25 Q2108.32 1487.06 2112.21 1482.2 Q2116.1 1477.31 2122.65 1477.31 Q2124.41 1477.31 2126.19 1477.66 Q2128 1478.01 2129.94 1478.7 Z" fill="#000000" fill-rule="nonzero" fill-opacity="1" /><path clip-path="url(#clip690)" d="M2150.24 1481.02 Q2146.63 1481.02 2144.8 1484.58 Q2143 1488.12 2143 1495.25 Q2143 1502.36 2144.8 1505.93 Q2146.63 1509.47 2150.24 1509.47 Q2153.88 1509.47 2155.68 1505.93 Q2157.51 1502.36 2157.51 1495.25 Q2157.51 1488.12 2155.68 1484.58 Q2153.88 1481.02 2150.24 1481.02 M2150.24 1477.31 Q2156.05 1477.31 2159.11 1481.92 Q2162.19 1486.5 2162.19 1495.25 Q2162.19 1503.98 2159.11 1508.59 Q2156.05 1513.17 2150.24 1513.17 Q2144.43 1513.17 2141.36 1508.59 Q2138.3 1503.98 2138.3 1495.25 Q2138.3 1486.5 2141.36 1481.92 Q2144.43 1477.31 2150.24 1477.31 Z" fill="#000000" fill-rule="nonzero" fill-opacity="1" /><path clip-path="url(#clip690)" d="M2630.79 1477.94 L2653.01 1477.94 L2653.01 1479.93 L2640.46 1512.5 L2635.58 1512.5 L2647.39 1481.88 L2630.79 1481.88 L2630.79 1477.94 Z" fill="#000000" fill-rule="nonzero" fill-opacity="1" /><path clip-path="url(#clip690)" d="M2672.13 1481.02 Q2668.52 1481.02 2666.69 1484.58 Q2664.89 1488.12 2664.89 1495.25 Q2664.89 1502.36 2666.69 1505.93 Q2668.52 1509.47 2672.13 1509.47 Q2675.77 1509.47 2677.57 1505.93 Q2679.4 1502.36 2679.4 1495.25 Q2679.4 1488.12 2677.57 1484.58 Q2675.77 1481.02 2672.13 1481.02 M2672.13 1477.31 Q2677.94 1477.31 2681 1481.92 Q2684.08 1486.5 2684.08 1495.25 Q2684.08 1503.98 2681 1508.59 Q2677.94 1513.17 2672.13 1513.17 Q2666.32 1513.17 2663.24 1508.59 Q2660.19 1503.98 2660.19 1495.25 Q2660.19 1486.5 2663.24 1481.92 Q2666.32 1477.31 2672.13 1477.31 Z" fill="#000000" fill-rule="nonzero" fill-opacity="1" /><path clip-path="url(#clip690)" d="M1495.4 1556.7 L1495.4 1563.48 Q1492.15 1560.46 1488.46 1558.96 Q1484.8 1557.47 1480.66 1557.47 Q1472.52 1557.47 1468.19 1562.47 Q1463.86 1567.43 1463.86 1576.85 Q1463.86 1586.24 1468.19 1591.24 Q1472.52 1596.2 1480.66 1596.2 Q1484.8 1596.2 1488.46 1594.71 Q1492.15 1593.21 1495.4 1590.19 L1495.4 1596.9 Q1492.03 1599.2 1488.24 1600.34 Q1484.48 1601.49 1480.28 1601.49 Q1469.49 1601.49 1463.29 1594.9 Q1457.08 1588.28 1457.08 1576.85 Q1457.08 1565.39 1463.29 1558.8 Q1469.49 1552.18 1480.28 1552.18 Q1484.55 1552.18 1488.3 1553.33 Q1492.09 1554.44 1495.4 1556.7 Z" fill="#000000" fill-rule="nonzero" fill-opacity="1" /><path clip-path="url(#clip690)" d="M1518.89 1569.02 Q1514.18 1569.02 1511.44 1572.71 Q1508.71 1576.37 1508.71 1582.77 Q1508.71 1589.17 1511.41 1592.86 Q1514.15 1596.52 1518.89 1596.52 Q1523.57 1596.52 1526.31 1592.83 Q1529.04 1589.14 1529.04 1582.77 Q1529.04 1576.44 1526.31 1572.75 Q1523.57 1569.02 1518.89 1569.02 M1518.89 1564.06 Q1526.53 1564.06 1530.89 1569.02 Q1535.25 1573.99 1535.25 1582.77 Q1535.25 1591.52 1530.89 1596.52 Q1526.53 1601.49 1518.89 1601.49 Q1511.22 1601.49 1506.86 1596.52 Q1502.53 1591.52 1502.53 1582.77 Q1502.53 1573.99 1506.86 1569.02 Q1511.22 1564.06 1518.89 1564.06 Z" fill="#000000" fill-rule="nonzero" fill-opacity="1" /><path clip-path="url(#clip690)" d="M1574.59 1579.05 L1574.59 1600.56 L1568.73 1600.56 L1568.73 1579.24 Q1568.73 1574.18 1566.76 1571.66 Q1564.79 1569.15 1560.84 1569.15 Q1556.1 1569.15 1553.36 1572.17 Q1550.62 1575.2 1550.62 1580.42 L1550.62 1600.56 L1544.73 1600.56 L1544.73 1564.92 L1550.62 1564.92 L1550.62 1570.45 Q1552.72 1567.24 1555.56 1565.65 Q1558.42 1564.06 1562.15 1564.06 Q1568.29 1564.06 1571.44 1567.88 Q1574.59 1571.66 1574.59 1579.05 Z" fill="#000000" fill-rule="nonzero" fill-opacity="1" /><path clip-path="url(#clip690)" d="M1609 1565.97 L1609 1571.5 Q1606.51 1570.23 1603.84 1569.59 Q1601.17 1568.96 1598.3 1568.96 Q1593.94 1568.96 1591.75 1570.29 Q1589.58 1571.63 1589.58 1574.31 Q1589.58 1576.34 1591.14 1577.52 Q1592.7 1578.67 1597.41 1579.72 L1599.42 1580.16 Q1605.65 1581.5 1608.26 1583.95 Q1610.91 1586.37 1610.91 1590.73 Q1610.91 1595.69 1606.96 1598.59 Q1603.04 1601.49 1596.17 1601.49 Q1593.31 1601.49 1590.19 1600.91 Q1587.1 1600.37 1583.66 1599.26 L1583.66 1593.21 Q1586.91 1594.9 1590.06 1595.76 Q1593.21 1596.59 1596.3 1596.59 Q1600.43 1596.59 1602.66 1595.18 Q1604.89 1593.75 1604.89 1591.17 Q1604.89 1588.79 1603.27 1587.51 Q1601.68 1586.24 1596.23 1585.06 L1594.2 1584.59 Q1588.75 1583.44 1586.33 1581.08 Q1583.92 1578.7 1583.92 1574.56 Q1583.92 1569.53 1587.48 1566.79 Q1591.05 1564.06 1597.6 1564.06 Q1600.85 1564.06 1603.71 1564.53 Q1606.58 1565.01 1609 1565.97 Z" fill="#000000" fill-rule="nonzero" fill-opacity="1" /><path clip-path="url(#clip690)" d="M1619.63 1586.5 L1619.63 1564.92 L1625.48 1564.92 L1625.48 1586.27 Q1625.48 1591.33 1627.46 1593.88 Q1629.43 1596.39 1633.38 1596.39 Q1638.12 1596.39 1640.86 1593.37 Q1643.63 1590.35 1643.63 1585.13 L1643.63 1564.92 L1649.48 1564.92 L1649.48 1600.56 L1643.63 1600.56 L1643.63 1595.09 Q1641.49 1598.34 1638.66 1599.93 Q1635.86 1601.49 1632.14 1601.49 Q1625.99 1601.49 1622.81 1597.67 Q1619.63 1593.85 1619.63 1586.5 M1634.36 1564.06 L1634.36 1564.06 Z" fill="#000000" fill-rule="nonzero" fill-opacity="1" /><path clip-path="url(#clip690)" d="M1689.3 1571.76 Q1691.5 1567.81 1694.55 1565.93 Q1697.61 1564.06 1701.75 1564.06 Q1707.32 1564.06 1710.34 1567.97 Q1713.36 1571.85 1713.36 1579.05 L1713.36 1600.56 L1707.47 1600.56 L1707.47 1579.24 Q1707.47 1574.11 1705.66 1571.63 Q1703.85 1569.15 1700.12 1569.15 Q1695.57 1569.15 1692.93 1572.17 Q1690.29 1575.2 1690.29 1580.42 L1690.29 1600.56 L1684.4 1600.56 L1684.4 1579.24 Q1684.4 1574.08 1682.58 1571.63 Q1680.77 1569.15 1676.98 1569.15 Q1672.49 1569.15 1669.85 1572.2 Q1667.21 1575.23 1667.21 1580.42 L1667.21 1600.56 L1661.32 1600.56 L1661.32 1564.92 L1667.21 1564.92 L1667.21 1570.45 Q1669.22 1567.18 1672.02 1565.62 Q1674.82 1564.06 1678.67 1564.06 Q1682.55 1564.06 1685.26 1566.03 Q1688 1568 1689.3 1571.76 Z" fill="#000000" fill-rule="nonzero" fill-opacity="1" /><path clip-path="url(#clip690)" d="M1738.86 1569.02 Q1734.15 1569.02 1731.41 1572.71 Q1728.67 1576.37 1728.67 1582.77 Q1728.67 1589.17 1731.38 1592.86 Q1734.11 1596.52 1738.86 1596.52 Q1743.54 1596.52 1746.27 1592.83 Q1749.01 1589.14 1749.01 1582.77 Q1749.01 1576.44 1746.27 1572.75 Q1743.54 1569.02 1738.86 1569.02 M1738.86 1564.06 Q1746.5 1564.06 1750.86 1569.02 Q1755.22 1573.99 1755.22 1582.77 Q1755.22 1591.52 1750.86 1596.52 Q1746.5 1601.49 1738.86 1601.49 Q1731.19 1601.49 1726.83 1596.52 Q1722.5 1591.52 1722.5 1582.77 Q1722.5 1573.99 1726.83 1569.02 Q1731.19 1564.06 1738.86 1564.06 Z" fill="#000000" fill-rule="nonzero" fill-opacity="1" /><path clip-path="url(#clip690)" d="M1806.3 1570.39 Q1805.32 1569.82 1804.14 1569.56 Q1802.99 1569.28 1801.59 1569.28 Q1796.63 1569.28 1793.95 1572.52 Q1791.31 1575.74 1791.31 1581.79 L1791.31 1600.56 L1785.42 1600.56 L1785.42 1564.92 L1791.31 1564.92 L1791.31 1570.45 Q1793.16 1567.21 1796.12 1565.65 Q1799.08 1564.06 1803.31 1564.06 Q1803.91 1564.06 1804.65 1564.15 Q1805.38 1564.22 1806.27 1564.37 L1806.3 1570.39 Z" fill="#000000" fill-rule="nonzero" fill-opacity="1" /><path clip-path="url(#clip690)" d="M1841.5 1581.28 L1841.5 1584.14 L1814.58 1584.14 Q1814.96 1590.19 1818.21 1593.37 Q1821.48 1596.52 1827.31 1596.52 Q1830.68 1596.52 1833.83 1595.69 Q1837.02 1594.87 1840.14 1593.21 L1840.14 1598.75 Q1836.98 1600.09 1833.67 1600.79 Q1830.36 1601.49 1826.96 1601.49 Q1818.43 1601.49 1813.43 1596.52 Q1808.47 1591.56 1808.47 1583.09 Q1808.47 1574.34 1813.18 1569.21 Q1817.92 1564.06 1825.94 1564.06 Q1833.13 1564.06 1837.3 1568.7 Q1841.5 1573.32 1841.5 1581.28 M1835.65 1579.56 Q1835.58 1574.75 1832.94 1571.89 Q1830.33 1569.02 1826 1569.02 Q1821.1 1569.02 1818.14 1571.79 Q1815.21 1574.56 1814.77 1579.59 L1835.65 1579.56 Z" fill="#000000" fill-rule="nonzero" fill-opacity="1" /><path clip-path="url(#clip690)" d="M1867.32 1582.64 Q1860.22 1582.64 1857.48 1584.27 Q1854.74 1585.89 1854.74 1589.81 Q1854.74 1592.92 1856.78 1594.77 Q1858.85 1596.59 1862.38 1596.59 Q1867.25 1596.59 1870.18 1593.15 Q1873.14 1589.68 1873.14 1583.95 L1873.14 1582.64 L1867.32 1582.64 M1879 1580.23 L1879 1600.56 L1873.14 1600.56 L1873.14 1595.15 Q1871.14 1598.4 1868.14 1599.96 Q1865.15 1601.49 1860.82 1601.49 Q1855.35 1601.49 1852.1 1598.43 Q1848.89 1595.34 1848.89 1590.19 Q1848.89 1584.17 1852.9 1581.12 Q1856.94 1578.06 1864.93 1578.06 L1873.14 1578.06 L1873.14 1577.49 Q1873.14 1573.45 1870.47 1571.25 Q1867.83 1569.02 1863.02 1569.02 Q1859.96 1569.02 1857.07 1569.75 Q1854.17 1570.49 1851.5 1571.95 L1851.5 1566.54 Q1854.71 1565.3 1857.74 1564.69 Q1860.76 1564.06 1863.63 1564.06 Q1871.36 1564.06 1875.18 1568.07 Q1879 1572.08 1879 1580.23 Z" fill="#000000" fill-rule="nonzero" fill-opacity="1" /><path clip-path="url(#clip690)" d="M1891.06 1551.04 L1896.92 1551.04 L1896.92 1600.56 L1891.06 1600.56 L1891.06 1551.04 Z" fill="#000000" fill-rule="nonzero" fill-opacity="1" /><polyline clip-path="url(#clip690)" style="stroke:#000000; stroke-linecap:round; stroke-linejoin:round; stroke-width:4; stroke-opacity:1; fill:none" points="201.241,1443.7 201.241,108.352 "/>
<polyline clip-path="url(#clip690)" style="stroke:#000000; stroke-linecap:round; stroke-linejoin:round; stroke-width:4; stroke-opacity:1; fill:none" points="201.241,1277.44 220.139,1277.44 "/>
<polyline clip-path="url(#clip690)" style="stroke:#000000; stroke-linecap:round; stroke-linejoin:round; stroke-width:4; stroke-opacity:1; fill:none" points="201.241,1041.19 220.139,1041.19 "/>
<polyline clip-path="url(#clip690)" style="stroke:#000000; stroke-linecap:round; stroke-linejoin:round; stroke-width:4; stroke-opacity:1; fill:none" points="201.241,804.944 220.139,804.944 "/>
<polyline clip-path="url(#clip690)" style="stroke:#000000; stroke-linecap:round; stroke-linejoin:round; stroke-width:4; stroke-opacity:1; fill:none" points="201.241,568.697 220.139,568.697 "/>
<polyline clip-path="url(#clip690)" style="stroke:#000000; stroke-linecap:round; stroke-linejoin:round; stroke-width:4; stroke-opacity:1; fill:none" points="201.241,332.451 220.139,332.451 "/>
<path clip-path="url(#clip690)" d="M115.301 1276.08 Q118.658 1276.8 120.533 1279.07 Q122.431 1281.34 122.431 1284.67 Q122.431 1289.79 118.912 1292.59 Q115.394 1295.39 108.913 1295.39 Q106.737 1295.39 104.422 1294.95 Q102.13 1294.53 99.6764 1293.68 L99.6764 1289.16 Q101.621 1290.3 103.936 1290.88 Q106.25 1291.45 108.774 1291.45 Q113.172 1291.45 115.463 1289.72 Q117.778 1287.98 117.778 1284.67 Q117.778 1281.62 115.625 1279.9 Q113.496 1278.17 109.676 1278.17 L105.649 1278.17 L105.649 1274.32 L109.862 1274.32 Q113.311 1274.32 115.139 1272.96 Q116.968 1271.57 116.968 1268.98 Q116.968 1266.32 115.07 1264.9 Q113.195 1263.47 109.676 1263.47 Q107.755 1263.47 105.556 1263.88 Q103.357 1264.3 100.718 1265.18 L100.718 1261.01 Q103.38 1260.27 105.695 1259.9 Q108.033 1259.53 110.093 1259.53 Q115.417 1259.53 118.519 1261.96 Q121.621 1264.37 121.621 1268.49 Q121.621 1271.36 119.977 1273.35 Q118.334 1275.32 115.301 1276.08 Z" fill="#000000" fill-rule="nonzero" fill-opacity="1" /><path clip-path="url(#clip690)" d="M141.297 1263.24 Q137.686 1263.24 135.857 1266.8 Q134.051 1270.34 134.051 1277.47 Q134.051 1284.58 135.857 1288.14 Q137.686 1291.69 141.297 1291.69 Q144.931 1291.69 146.736 1288.14 Q148.565 1284.58 148.565 1277.47 Q148.565 1270.34 146.736 1266.8 Q144.931 1263.24 141.297 1263.24 M141.297 1259.53 Q147.107 1259.53 150.162 1264.14 Q153.241 1268.72 153.241 1277.47 Q153.241 1286.2 150.162 1290.81 Q147.107 1295.39 141.297 1295.39 Q135.486 1295.39 132.408 1290.81 Q129.352 1286.2 129.352 1277.47 Q129.352 1268.72 132.408 1264.14 Q135.486 1259.53 141.297 1259.53 Z" fill="#000000" fill-rule="nonzero" fill-opacity="1" /><path clip-path="url(#clip690)" d="M113.982 1027.99 L102.176 1046.43 L113.982 1046.43 L113.982 1027.99 M112.755 1023.91 L118.635 1023.91 L118.635 1046.43 L123.565 1046.43 L123.565 1050.32 L118.635 1050.32 L118.635 1058.47 L113.982 1058.47 L113.982 1050.32 L98.3802 1050.32 L98.3802 1045.81 L112.755 1023.91 Z" fill="#000000" fill-rule="nonzero" fill-opacity="1" /><path clip-path="url(#clip690)" d="M141.297 1026.99 Q137.686 1026.99 135.857 1030.55 Q134.051 1034.1 134.051 1041.23 Q134.051 1048.33 135.857 1051.9 Q137.686 1055.44 141.297 1055.44 Q144.931 1055.44 146.736 1051.9 Q148.565 1048.33 148.565 1041.23 Q148.565 1034.1 146.736 1030.55 Q144.931 1026.99 141.297 1026.99 M141.297 1023.29 Q147.107 1023.29 150.162 1027.89 Q153.241 1032.48 153.241 1041.23 Q153.241 1049.95 150.162 1054.56 Q147.107 1059.14 141.297 1059.14 Q135.486 1059.14 132.408 1054.56 Q129.352 1049.95 129.352 1041.23 Q129.352 1032.48 132.408 1027.89 Q135.486 1023.29 141.297 1023.29 Z" fill="#000000" fill-rule="nonzero" fill-opacity="1" /><path clip-path="url(#clip690)" d="M101.181 787.664 L119.537 787.664 L119.537 791.599 L105.463 791.599 L105.463 800.072 Q106.482 799.724 107.5 799.562 Q108.519 799.377 109.538 799.377 Q115.325 799.377 118.704 802.549 Q122.084 805.72 122.084 811.136 Q122.084 816.715 118.612 819.817 Q115.139 822.896 108.82 822.896 Q106.644 822.896 104.375 822.525 Q102.13 822.155 99.7227 821.414 L99.7227 816.715 Q101.806 817.849 104.028 818.405 Q106.25 818.96 108.727 818.96 Q112.732 818.96 115.07 816.854 Q117.408 814.748 117.408 811.136 Q117.408 807.525 115.07 805.419 Q112.732 803.312 108.727 803.312 Q106.852 803.312 104.977 803.729 Q103.126 804.146 101.181 805.025 L101.181 787.664 Z" fill="#000000" fill-rule="nonzero" fill-opacity="1" /><path clip-path="url(#clip690)" d="M141.297 790.743 Q137.686 790.743 135.857 794.308 Q134.051 797.849 134.051 804.979 Q134.051 812.085 135.857 815.65 Q137.686 819.192 141.297 819.192 Q144.931 819.192 146.736 815.65 Q148.565 812.085 148.565 804.979 Q148.565 797.849 146.736 794.308 Q144.931 790.743 141.297 790.743 M141.297 787.039 Q147.107 787.039 150.162 791.646 Q153.241 796.229 153.241 804.979 Q153.241 813.706 150.162 818.312 Q147.107 822.896 141.297 822.896 Q135.486 822.896 132.408 818.312 Q129.352 813.706 129.352 804.979 Q129.352 796.229 132.408 791.646 Q135.486 787.039 141.297 787.039 Z" fill="#000000" fill-rule="nonzero" fill-opacity="1" /><path clip-path="url(#clip690)" d="M111.713 566.834 Q108.565 566.834 106.713 568.987 Q104.885 571.14 104.885 574.89 Q104.885 578.616 106.713 580.792 Q108.565 582.945 111.713 582.945 Q114.862 582.945 116.69 580.792 Q118.542 578.616 118.542 574.89 Q118.542 571.14 116.69 568.987 Q114.862 566.834 111.713 566.834 M120.996 552.181 L120.996 556.441 Q119.237 555.607 117.431 555.167 Q115.649 554.728 113.889 554.728 Q109.26 554.728 106.806 557.853 Q104.375 560.978 104.028 567.297 Q105.394 565.283 107.454 564.218 Q109.514 563.13 111.991 563.13 Q117.2 563.13 120.209 566.302 Q123.241 569.45 123.241 574.89 Q123.241 580.214 120.093 583.431 Q116.945 586.649 111.713 586.649 Q105.718 586.649 102.547 582.065 Q99.3755 577.459 99.3755 568.732 Q99.3755 560.538 103.264 555.677 Q107.153 550.792 113.704 550.792 Q115.463 550.792 117.246 551.14 Q119.051 551.487 120.996 552.181 Z" fill="#000000" fill-rule="nonzero" fill-opacity="1" /><path clip-path="url(#clip690)" d="M141.297 554.496 Q137.686 554.496 135.857 558.061 Q134.051 561.603 134.051 568.732 Q134.051 575.839 135.857 579.403 Q137.686 582.945 141.297 582.945 Q144.931 582.945 146.736 579.403 Q148.565 575.839 148.565 568.732 Q148.565 561.603 146.736 558.061 Q144.931 554.496 141.297 554.496 M141.297 550.792 Q147.107 550.792 150.162 555.399 Q153.241 559.982 153.241 568.732 Q153.241 577.459 150.162 582.065 Q147.107 586.649 141.297 586.649 Q135.486 586.649 132.408 582.065 Q129.352 577.459 129.352 568.732 Q129.352 559.982 132.408 555.399 Q135.486 550.792 141.297 550.792 Z" fill="#000000" fill-rule="nonzero" fill-opacity="1" /><path clip-path="url(#clip690)" d="M99.9542 315.171 L122.176 315.171 L122.176 317.161 L109.63 349.731 L104.746 349.731 L116.551 319.106 L99.9542 319.106 L99.9542 315.171 Z" fill="#000000" fill-rule="nonzero" fill-opacity="1" /><path clip-path="url(#clip690)" d="M141.297 318.249 Q137.686 318.249 135.857 321.814 Q134.051 325.356 134.051 332.485 Q134.051 339.592 135.857 343.156 Q137.686 346.698 141.297 346.698 Q144.931 346.698 146.736 343.156 Q148.565 339.592 148.565 332.485 Q148.565 325.356 146.736 321.814 Q144.931 318.249 141.297 318.249 M141.297 314.546 Q147.107 314.546 150.162 319.152 Q153.241 323.735 153.241 332.485 Q153.241 341.212 150.162 345.818 Q147.107 350.402 141.297 350.402 Q135.486 350.402 132.408 345.818 Q129.352 341.212 129.352 332.485 Q129.352 323.735 132.408 319.152 Q135.486 314.546 141.297 314.546 Z" fill="#000000" fill-rule="nonzero" fill-opacity="1" /><path clip-path="url(#clip690)" d="M-7.73556 1038.82 L-0.956084 1038.82 Q-3.97979 1042.06 -5.47574 1045.76 Q-6.97168 1049.42 -6.97168 1053.55 Q-6.97168 1061.7 -1.9746 1066.03 Q2.99065 1070.36 12.4119 1070.36 Q21.8013 1070.36 26.7984 1066.03 Q31.7636 1061.7 31.7636 1053.55 Q31.7636 1049.42 30.2677 1045.76 Q28.7718 1042.06 25.7481 1038.82 L32.4639 1038.82 Q34.7555 1042.19 35.9014 1045.98 Q37.0472 1049.74 37.0472 1053.94 Q37.0472 1064.73 30.4587 1070.93 Q23.8383 1077.14 12.4119 1077.14 Q0.953628 1077.14 -5.63488 1070.93 Q-12.2552 1064.73 -12.2552 1053.94 Q-12.2552 1049.67 -11.1094 1045.92 Q-9.99539 1042.13 -7.73556 1038.82 Z" fill="#000000" fill-rule="nonzero" fill-opacity="1" /><path clip-path="url(#clip690)" d="M4.58208 1015.33 Q4.58208 1020.04 8.27419 1022.78 Q11.9345 1025.51 18.332 1025.51 Q24.7295 1025.51 28.4217 1022.81 Q32.0819 1020.07 32.0819 1015.33 Q32.0819 1010.65 28.3898 1007.91 Q24.6977 1005.18 18.332 1005.18 Q11.9981 1005.18 8.30602 1007.91 Q4.58208 1010.65 4.58208 1015.33 M-0.38317 1015.33 Q-0.38317 1007.69 4.58208 1003.33 Q9.54733 998.969 18.332 998.969 Q27.0849 998.969 32.0819 1003.33 Q37.0472 1007.69 37.0472 1015.33 Q37.0472 1023 32.0819 1027.36 Q27.0849 1031.69 18.332 1031.69 Q9.54733 1031.69 4.58208 1027.36 Q-0.38317 1023 -0.38317 1015.33 Z" fill="#000000" fill-rule="nonzero" fill-opacity="1" /><path clip-path="url(#clip690)" d="M14.6081 959.629 L36.1242 959.629 L36.1242 965.485 L14.799 965.485 Q9.7383 965.485 7.22385 967.459 Q4.7094 969.432 4.7094 973.379 Q4.7094 978.121 7.73311 980.859 Q10.7568 983.596 15.9767 983.596 L36.1242 983.596 L36.1242 989.484 L0.4762 989.484 L0.4762 983.596 L6.01437 983.596 Q2.79968 981.495 1.20826 978.662 Q-0.38317 975.798 -0.38317 972.074 Q-0.38317 965.931 3.43625 962.78 Q7.22385 959.629 14.6081 959.629 Z" fill="#000000" fill-rule="nonzero" fill-opacity="1" /><path clip-path="url(#clip690)" d="M1.52654 925.222 L7.06471 925.222 Q5.79157 927.705 5.15499 930.378 Q4.51842 933.052 4.51842 935.917 Q4.51842 940.277 5.85522 942.473 Q7.19202 944.638 9.86562 944.638 Q11.9026 944.638 13.0803 943.078 Q14.2261 941.518 15.2765 936.808 L15.7221 934.803 Q17.0589 928.564 19.5097 925.954 Q21.9286 923.313 26.2891 923.313 Q31.2544 923.313 34.1508 927.259 Q37.0472 931.174 37.0472 938.049 Q37.0472 940.914 36.4743 944.033 Q35.9332 947.12 34.8192 950.558 L28.7718 950.558 Q30.4587 947.311 31.318 944.16 Q32.1456 941.009 32.1456 937.922 Q32.1456 933.784 30.7451 931.556 Q29.3129 929.328 26.7347 929.328 Q24.3476 929.328 23.0745 930.951 Q21.8013 932.543 20.6237 937.985 L20.1462 940.023 Q19.0004 945.465 16.6451 947.884 Q14.258 950.303 10.1202 950.303 Q5.09134 950.303 2.35408 946.738 Q-0.38317 943.174 -0.38317 936.617 Q-0.38317 933.37 0.0942579 930.506 Q0.571686 927.641 1.52654 925.222 Z" fill="#000000" fill-rule="nonzero" fill-opacity="1" /><path clip-path="url(#clip690)" d="M22.0559 914.592 L0.4762 914.592 L0.4762 908.735 L21.8331 908.735 Q26.8939 908.735 29.4402 906.762 Q31.9546 904.788 31.9546 900.842 Q31.9546 896.099 28.9309 893.362 Q25.9072 890.593 20.6873 890.593 L0.4762 890.593 L0.4762 884.736 L36.1242 884.736 L36.1242 890.593 L30.6496 890.593 Q33.8962 892.725 35.4876 895.558 Q37.0472 898.359 37.0472 902.083 Q37.0472 908.226 33.2278 911.409 Q29.4083 914.592 22.0559 914.592 M-0.38317 899.855 L-0.38317 899.855 Z" fill="#000000" fill-rule="nonzero" fill-opacity="1" /><path clip-path="url(#clip690)" d="M7.31933 844.919 Q3.3726 842.723 1.49471 839.667 Q-0.38317 836.612 -0.38317 832.474 Q-0.38317 826.904 3.53174 823.88 Q7.41482 820.856 14.6081 820.856 L36.1242 820.856 L36.1242 826.745 L14.799 826.745 Q9.67465 826.745 7.19202 828.559 Q4.7094 830.373 4.7094 834.097 Q4.7094 838.649 7.73311 841.29 Q10.7568 843.932 15.9767 843.932 L36.1242 843.932 L36.1242 849.82 L14.799 849.82 Q9.64282 849.82 7.19202 851.635 Q4.7094 853.449 4.7094 857.236 Q4.7094 861.724 7.76493 864.366 Q10.7886 867.008 15.9767 867.008 L36.1242 867.008 L36.1242 872.896 L0.4762 872.896 L0.4762 867.008 L6.01437 867.008 Q2.73603 865.003 1.17643 862.202 Q-0.38317 859.401 -0.38317 855.55 Q-0.38317 851.666 1.5902 848.961 Q3.56357 846.224 7.31933 844.919 Z" fill="#000000" fill-rule="nonzero" fill-opacity="1" /><path clip-path="url(#clip690)" d="M4.58208 795.362 Q4.58208 800.072 8.27419 802.81 Q11.9345 805.547 18.332 805.547 Q24.7295 805.547 28.4217 802.842 Q32.0819 800.104 32.0819 795.362 Q32.0819 790.683 28.3898 787.946 Q24.6977 785.209 18.332 785.209 Q11.9981 785.209 8.30602 787.946 Q4.58208 790.683 4.58208 795.362 M-0.38317 795.362 Q-0.38317 787.723 4.58208 783.362 Q9.54733 779.002 18.332 779.002 Q27.0849 779.002 32.0819 783.362 Q37.0472 787.723 37.0472 795.362 Q37.0472 803.032 32.0819 807.393 Q27.0849 811.722 18.332 811.722 Q9.54733 811.722 4.58208 807.393 Q-0.38317 803.032 -0.38317 795.362 Z" fill="#000000" fill-rule="nonzero" fill-opacity="1" /><path clip-path="url(#clip690)" d="M30.777 742.908 L49.6831 742.908 L49.6831 748.797 L0.4762 748.797 L0.4762 742.908 L5.88705 742.908 Q2.7042 741.062 1.17643 738.261 Q-0.38317 735.429 -0.38317 731.514 Q-0.38317 725.021 4.77305 720.979 Q9.92927 716.904 18.332 716.904 Q26.7347 716.904 31.891 720.979 Q37.0472 725.021 37.0472 731.514 Q37.0472 735.429 35.5194 738.261 Q33.9598 741.062 30.777 742.908 M18.332 722.984 Q11.8708 722.984 8.21053 725.657 Q4.51842 728.299 4.51842 732.946 Q4.51842 737.593 8.21053 740.267 Q11.8708 742.908 18.332 742.908 Q24.7932 742.908 28.4853 740.267 Q32.1456 737.593 32.1456 732.946 Q32.1456 728.299 28.4853 725.657 Q24.7932 722.984 18.332 722.984 Z" fill="#000000" fill-rule="nonzero" fill-opacity="1" /><path clip-path="url(#clip690)" d="M5.95071 686.54 Q5.37779 687.527 5.12317 688.704 Q4.83671 689.85 4.83671 691.251 Q4.83671 696.216 8.08322 698.89 Q11.2979 701.531 17.3453 701.531 L36.1242 701.531 L36.1242 707.42 L0.4762 707.42 L0.4762 701.531 L6.01437 701.531 Q2.76785 699.685 1.20826 696.725 Q-0.38317 693.765 -0.38317 689.532 Q-0.38317 688.927 -0.287684 688.195 Q-0.224027 687.463 -0.0648847 686.572 L5.95071 686.54 Z" fill="#000000" fill-rule="nonzero" fill-opacity="1" /><path clip-path="url(#clip690)" d="M16.8361 651.338 L19.7006 651.338 L19.7006 678.265 Q25.7481 677.883 28.9309 674.636 Q32.0819 671.358 32.0819 665.533 Q32.0819 662.159 31.2544 659.008 Q30.4269 655.826 28.7718 652.706 L34.3099 652.706 Q35.6467 655.857 36.347 659.168 Q37.0472 662.478 37.0472 665.883 Q37.0472 674.413 32.0819 679.41 Q27.1167 684.376 18.6503 684.376 Q9.89745 684.376 4.77305 679.665 Q-0.38317 674.923 -0.38317 666.902 Q-0.38317 659.709 4.2638 655.539 Q8.87893 651.338 16.8361 651.338 M15.1173 657.194 Q10.3112 657.258 7.44665 659.9 Q4.58208 662.51 4.58208 666.838 Q4.58208 671.74 7.35116 674.7 Q10.1202 677.628 15.1492 678.074 L15.1173 657.194 Z" fill="#000000" fill-rule="nonzero" fill-opacity="1" /><path clip-path="url(#clip690)" d="M5.88705 618.268 L-13.401 618.268 L-13.401 612.411 L36.1242 612.411 L36.1242 618.268 L30.777 618.268 Q33.9598 620.114 35.5194 622.947 Q37.0472 625.748 37.0472 629.694 Q37.0472 636.155 31.891 640.23 Q26.7347 644.272 18.332 644.272 Q9.92927 644.272 4.77305 640.23 Q-0.38317 636.155 -0.38317 629.694 Q-0.38317 625.748 1.17643 622.947 Q2.7042 620.114 5.88705 618.268 M18.332 638.224 Q24.7932 638.224 28.4853 635.583 Q32.1456 632.909 32.1456 628.262 Q32.1456 623.615 28.4853 620.941 Q24.7932 618.268 18.332 618.268 Q11.8708 618.268 8.21053 620.941 Q4.51842 623.615 4.51842 628.262 Q4.51842 632.909 8.21053 635.583 Q11.8708 638.224 18.332 638.224 Z" fill="#000000" fill-rule="nonzero" fill-opacity="1" /><path clip-path="url(#clip690)" d="M0.4762 600.348 L0.4762 594.492 L36.1242 594.492 L36.1242 600.348 L0.4762 600.348 M-13.401 600.348 L-13.401 594.492 L-5.98499 594.492 L-5.98499 600.348 L-13.401 600.348 Z" fill="#000000" fill-rule="nonzero" fill-opacity="1" /><path clip-path="url(#clip690)" d="M1.84483 556.584 L7.31933 556.584 Q5.95071 559.067 5.28231 561.581 Q4.58208 564.064 4.58208 566.61 Q4.58208 572.307 8.21053 575.458 Q11.8072 578.61 18.332 578.61 Q24.8569 578.61 28.4853 575.458 Q32.0819 572.307 32.0819 566.61 Q32.0819 564.064 31.4135 561.581 Q30.7133 559.067 29.3447 556.584 L34.7555 556.584 Q35.9014 559.035 36.4743 561.677 Q37.0472 564.287 37.0472 567.247 Q37.0472 575.299 31.9864 580.042 Q26.9257 584.784 18.332 584.784 Q9.61099 584.784 4.61391 580.01 Q-0.38317 575.204 -0.38317 566.865 Q-0.38317 564.159 0.189744 561.581 Q0.730829 559.003 1.84483 556.584 Z" fill="#000000" fill-rule="nonzero" fill-opacity="1" /><path clip-path="url(#clip690)" d="M14.6081 516.767 L36.1242 516.767 L36.1242 522.623 L14.799 522.623 Q9.7383 522.623 7.22385 524.596 Q4.7094 526.57 4.7094 530.517 Q4.7094 535.259 7.73311 537.996 Q10.7568 540.734 15.9767 540.734 L36.1242 540.734 L36.1242 546.622 L-13.401 546.622 L-13.401 540.734 L6.01437 540.734 Q2.79968 538.633 1.20826 535.8 Q-0.38317 532.936 -0.38317 529.212 Q-0.38317 523.069 3.43625 519.918 Q7.22385 516.767 14.6081 516.767 Z" fill="#000000" fill-rule="nonzero" fill-opacity="1" /><path clip-path="url(#clip690)" d="M4.58208 491.272 Q4.58208 495.983 8.27419 498.72 Q11.9345 501.457 18.332 501.457 Q24.7295 501.457 28.4217 498.752 Q32.0819 496.014 32.0819 491.272 Q32.0819 486.593 28.3898 483.856 Q24.6977 481.119 18.332 481.119 Q11.9981 481.119 8.30602 483.856 Q4.58208 486.593 4.58208 491.272 M-0.38317 491.272 Q-0.38317 483.633 4.58208 479.273 Q9.54733 474.912 18.332 474.912 Q27.0849 474.912 32.0819 479.273 Q37.0472 483.633 37.0472 491.272 Q37.0472 498.943 32.0819 503.303 Q27.0849 507.632 18.332 507.632 Q9.54733 507.632 4.58208 503.303 Q-0.38317 498.943 -0.38317 491.272 Z" fill="#000000" fill-rule="nonzero" fill-opacity="1" /><path clip-path="url(#clip690)" d="M1117.18 16.7545 L1117.18 25.383 Q1113.05 21.5346 1108.35 19.6307 Q1103.69 17.7268 1098.43 17.7268 Q1088.06 17.7268 1082.55 24.0867 Q1077.04 30.4061 1077.04 42.3968 Q1077.04 54.3469 1082.55 60.7069 Q1088.06 67.0263 1098.43 67.0263 Q1103.69 67.0263 1108.35 65.1223 Q1113.05 63.2184 1117.18 59.3701 L1117.18 67.9175 Q1112.89 70.8341 1108.07 72.2924 Q1103.29 73.7508 1097.94 73.7508 Q1084.21 73.7508 1076.31 65.3654 Q1068.41 56.9395 1068.41 42.3968 Q1068.41 27.8135 1076.31 19.4281 Q1084.21 11.0023 1097.94 11.0023 Q1103.37 11.0023 1108.15 12.4606 Q1112.97 13.8784 1117.18 16.7545 Z" fill="#000000" fill-rule="nonzero" fill-opacity="1" /><path clip-path="url(#clip690)" d="M1147.08 32.4315 Q1141.08 32.4315 1137.6 37.1306 Q1134.12 41.7891 1134.12 49.9314 Q1134.12 58.0738 1137.56 62.7728 Q1141.04 67.4314 1147.08 67.4314 Q1153.03 67.4314 1156.52 62.7323 Q1160 58.0333 1160 49.9314 Q1160 41.8701 1156.52 37.1711 Q1153.03 32.4315 1147.08 32.4315 M1147.08 26.1121 Q1156.8 26.1121 1162.35 32.4315 Q1167.9 38.7509 1167.9 49.9314 Q1167.9 61.0714 1162.35 67.4314 Q1156.8 73.7508 1147.08 73.7508 Q1137.32 73.7508 1131.77 67.4314 Q1126.26 61.0714 1126.26 49.9314 Q1126.26 38.7509 1131.77 32.4315 Q1137.32 26.1121 1147.08 26.1121 Z" fill="#000000" fill-rule="nonzero" fill-opacity="1" /><path clip-path="url(#clip690)" d="M1215.58 35.9153 Q1218.38 30.8922 1222.26 28.5022 Q1226.15 26.1121 1231.42 26.1121 Q1238.51 26.1121 1242.36 31.0947 Q1246.21 36.0368 1246.21 45.1919 L1246.21 72.576 L1238.71 72.576 L1238.71 45.4349 Q1238.71 38.913 1236.4 35.7533 Q1234.09 32.5936 1229.35 32.5936 Q1223.56 32.5936 1220.2 36.4419 Q1216.84 40.2903 1216.84 46.9338 L1216.84 72.576 L1209.34 72.576 L1209.34 45.4349 Q1209.34 38.8725 1207.03 35.7533 Q1204.72 32.5936 1199.9 32.5936 Q1194.19 32.5936 1190.83 36.4824 Q1187.47 40.3308 1187.47 46.9338 L1187.47 72.576 L1179.97 72.576 L1179.97 27.2059 L1187.47 27.2059 L1187.47 34.2544 Q1190.02 30.082 1193.58 28.0971 Q1197.15 26.1121 1202.05 26.1121 Q1206.99 26.1121 1210.44 28.6237 Q1213.92 31.1352 1215.58 35.9153 Z" fill="#000000" fill-rule="nonzero" fill-opacity="1" /><path clip-path="url(#clip690)" d="M1268.28 65.7705 L1268.28 89.8329 L1260.79 89.8329 L1260.79 27.2059 L1268.28 27.2059 L1268.28 34.0924 Q1270.63 30.0415 1274.2 28.0971 Q1277.8 26.1121 1282.78 26.1121 Q1291.05 26.1121 1296.19 32.6746 Q1301.38 39.2371 1301.38 49.9314 Q1301.38 60.6258 1296.19 67.1883 Q1291.05 73.7508 1282.78 73.7508 Q1277.8 73.7508 1274.2 71.8063 Q1270.63 69.8214 1268.28 65.7705 M1293.64 49.9314 Q1293.64 41.7081 1290.24 37.0496 Q1286.88 32.3505 1280.96 32.3505 Q1275.05 32.3505 1271.64 37.0496 Q1268.28 41.7081 1268.28 49.9314 Q1268.28 58.1548 1271.64 62.8538 Q1275.05 67.5124 1280.96 67.5124 Q1286.88 67.5124 1290.24 62.8538 Q1293.64 58.1548 1293.64 49.9314 Z" fill="#000000" fill-rule="nonzero" fill-opacity="1" /><path clip-path="url(#clip690)" d="M1334.35 49.7694 Q1325.32 49.7694 1321.84 51.8354 Q1318.35 53.9013 1318.35 58.8839 Q1318.35 62.8538 1320.94 65.2034 Q1323.58 67.5124 1328.07 67.5124 Q1334.27 67.5124 1338 63.1374 Q1341.77 58.7219 1341.77 51.4303 L1341.77 49.7694 L1334.35 49.7694 M1349.22 46.6907 L1349.22 72.576 L1341.77 72.576 L1341.77 65.6895 Q1339.21 69.8214 1335.41 71.8063 Q1331.6 73.7508 1326.09 73.7508 Q1319.12 73.7508 1314.99 69.8619 Q1310.9 65.9325 1310.9 59.3701 Q1310.9 51.7138 1316 47.825 Q1321.15 43.9361 1331.31 43.9361 L1341.77 43.9361 L1341.77 43.2069 Q1341.77 38.0623 1338.36 35.2672 Q1335 32.4315 1328.88 32.4315 Q1325 32.4315 1321.31 33.3632 Q1317.62 34.295 1314.22 36.1584 L1314.22 29.2718 Q1318.31 27.692 1322.16 26.9223 Q1326.01 26.1121 1329.65 26.1121 Q1339.5 26.1121 1344.36 31.2163 Q1349.22 36.3204 1349.22 46.6907 Z" fill="#000000" fill-rule="nonzero" fill-opacity="1" /><path clip-path="url(#clip690)" d="M1390.86 34.1734 Q1389.61 33.4443 1388.11 33.1202 Q1386.65 32.7556 1384.87 32.7556 Q1378.55 32.7556 1375.15 36.8875 Q1371.78 40.9789 1371.78 48.6757 L1371.78 72.576 L1364.29 72.576 L1364.29 27.2059 L1371.78 27.2059 L1371.78 34.2544 Q1374.13 30.1225 1377.9 28.1376 Q1381.67 26.1121 1387.05 26.1121 Q1387.82 26.1121 1388.76 26.2337 Q1389.69 26.3147 1390.82 26.5172 L1390.86 34.1734 Z" fill="#000000" fill-rule="nonzero" fill-opacity="1" /><path clip-path="url(#clip690)" d="M1419.3 49.7694 Q1410.27 49.7694 1406.78 51.8354 Q1403.3 53.9013 1403.3 58.8839 Q1403.3 62.8538 1405.89 65.2034 Q1408.52 67.5124 1413.02 67.5124 Q1419.22 67.5124 1422.95 63.1374 Q1426.71 58.7219 1426.71 51.4303 L1426.71 49.7694 L1419.3 49.7694 M1434.17 46.6907 L1434.17 72.576 L1426.71 72.576 L1426.71 65.6895 Q1424.16 69.8214 1420.35 71.8063 Q1416.55 73.7508 1411.04 73.7508 Q1404.07 73.7508 1399.94 69.8619 Q1395.85 65.9325 1395.85 59.3701 Q1395.85 51.7138 1400.95 47.825 Q1406.09 43.9361 1416.26 43.9361 L1426.71 43.9361 L1426.71 43.2069 Q1426.71 38.0623 1423.31 35.2672 Q1419.95 32.4315 1413.83 32.4315 Q1409.94 32.4315 1406.26 33.3632 Q1402.57 34.295 1399.17 36.1584 L1399.17 29.2718 Q1403.26 27.692 1407.11 26.9223 Q1410.96 26.1121 1414.6 26.1121 Q1424.44 26.1121 1429.31 31.2163 Q1434.17 36.3204 1434.17 46.6907 Z" fill="#000000" fill-rule="nonzero" fill-opacity="1" /><path clip-path="url(#clip690)" d="M1482.17 28.9478 L1482.17 35.9153 Q1479.01 34.1734 1475.81 33.3227 Q1472.65 32.4315 1469.41 32.4315 Q1462.16 32.4315 1458.15 37.0496 Q1454.14 41.6271 1454.14 49.9314 Q1454.14 58.2358 1458.15 62.8538 Q1462.16 67.4314 1469.41 67.4314 Q1472.65 67.4314 1475.81 66.5807 Q1479.01 65.6895 1482.17 63.9476 L1482.17 70.8341 Q1479.05 72.2924 1475.69 73.0216 Q1472.37 73.7508 1468.6 73.7508 Q1458.35 73.7508 1452.32 67.3098 Q1446.28 60.8689 1446.28 49.9314 Q1446.28 38.832 1452.36 32.472 Q1458.47 26.1121 1469.09 26.1121 Q1472.53 26.1121 1475.81 26.8413 Q1479.09 27.5299 1482.17 28.9478 Z" fill="#000000" fill-rule="nonzero" fill-opacity="1" /><path clip-path="url(#clip690)" d="M1495.13 27.2059 L1502.59 27.2059 L1502.59 72.576 L1495.13 72.576 L1495.13 27.2059 M1495.13 9.54393 L1502.59 9.54393 L1502.59 18.9825 L1495.13 18.9825 L1495.13 9.54393 Z" fill="#000000" fill-rule="nonzero" fill-opacity="1" /><path clip-path="url(#clip690)" d="M1535.76 32.4315 Q1529.77 32.4315 1526.28 37.1306 Q1522.8 41.7891 1522.8 49.9314 Q1522.8 58.0738 1526.24 62.7728 Q1529.73 67.4314 1535.76 67.4314 Q1541.72 67.4314 1545.2 62.7323 Q1548.69 58.0333 1548.69 49.9314 Q1548.69 41.8701 1545.2 37.1711 Q1541.72 32.4315 1535.76 32.4315 M1535.76 26.1121 Q1545.49 26.1121 1551.04 32.4315 Q1556.59 38.7509 1556.59 49.9314 Q1556.59 61.0714 1551.04 67.4314 Q1545.49 73.7508 1535.76 73.7508 Q1526 73.7508 1520.45 67.4314 Q1514.94 61.0714 1514.94 49.9314 Q1514.94 38.7509 1520.45 32.4315 Q1526 26.1121 1535.76 26.1121 M1541.39 6.22219 L1549.46 6.22219 L1536.25 21.4536 L1530.05 21.4536 L1541.39 6.22219 Z" fill="#000000" fill-rule="nonzero" fill-opacity="1" /><path clip-path="url(#clip690)" d="M1606.65 45.1919 L1606.65 72.576 L1599.2 72.576 L1599.2 45.4349 Q1599.2 38.994 1596.69 35.7938 Q1594.18 32.5936 1589.15 32.5936 Q1583.12 32.5936 1579.63 36.4419 Q1576.15 40.2903 1576.15 46.9338 L1576.15 72.576 L1568.66 72.576 L1568.66 27.2059 L1576.15 27.2059 L1576.15 34.2544 Q1578.82 30.163 1582.43 28.1376 Q1586.08 26.1121 1590.82 26.1121 Q1598.63 26.1121 1602.64 30.9732 Q1606.65 35.7938 1606.65 45.1919 Z" fill="#000000" fill-rule="nonzero" fill-opacity="1" /><path clip-path="url(#clip690)" d="M1677.75 34.0924 L1677.75 9.54393 L1685.2 9.54393 L1685.2 72.576 L1677.75 72.576 L1677.75 65.7705 Q1675.4 69.8214 1671.79 71.8063 Q1668.23 73.7508 1663.21 73.7508 Q1654.98 73.7508 1649.8 67.1883 Q1644.65 60.6258 1644.65 49.9314 Q1644.65 39.2371 1649.8 32.6746 Q1654.98 26.1121 1663.21 26.1121 Q1668.23 26.1121 1671.79 28.0971 Q1675.4 30.0415 1677.75 34.0924 M1652.35 49.9314 Q1652.35 58.1548 1655.71 62.8538 Q1659.11 67.5124 1665.03 67.5124 Q1670.94 67.5124 1674.35 62.8538 Q1677.75 58.1548 1677.75 49.9314 Q1677.75 41.7081 1674.35 37.0496 Q1670.94 32.3505 1665.03 32.3505 Q1659.11 32.3505 1655.71 37.0496 Q1652.35 41.7081 1652.35 49.9314 Z" fill="#000000" fill-rule="nonzero" fill-opacity="1" /><path clip-path="url(#clip690)" d="M1739.36 48.0275 L1739.36 51.6733 L1705.09 51.6733 Q1705.58 59.3701 1709.71 63.421 Q1713.88 67.4314 1721.3 67.4314 Q1725.59 67.4314 1729.6 66.3781 Q1733.65 65.3249 1737.62 63.2184 L1737.62 70.267 Q1733.61 71.9684 1729.4 72.8596 Q1725.18 73.7508 1720.85 73.7508 Q1709.99 73.7508 1703.63 67.4314 Q1697.31 61.1119 1697.31 50.3365 Q1697.31 39.1965 1703.31 32.6746 Q1709.34 26.1121 1719.55 26.1121 Q1728.71 26.1121 1734.01 32.0264 Q1739.36 37.9003 1739.36 48.0275 M1731.91 45.84 Q1731.83 39.7232 1728.47 36.0774 Q1725.14 32.4315 1719.63 32.4315 Q1713.4 32.4315 1709.63 35.9558 Q1705.9 39.4801 1705.33 45.8805 L1731.91 45.84 Z" fill="#000000" fill-rule="nonzero" fill-opacity="1" /><path clip-path="url(#clip690)" d="M1786.47 18.8205 L1786.47 41.5461 L1796.76 41.5461 Q1802.48 41.5461 1805.59 38.5889 Q1808.71 35.6318 1808.71 30.163 Q1808.71 24.7348 1805.59 21.7777 Q1802.48 18.8205 1796.76 18.8205 L1786.47 18.8205 M1778.29 12.096 L1796.76 12.096 Q1806.93 12.096 1812.12 16.714 Q1817.34 21.2916 1817.34 30.163 Q1817.34 39.1155 1812.12 43.6931 Q1806.93 48.2706 1796.76 48.2706 L1786.47 48.2706 L1786.47 72.576 L1778.29 72.576 L1778.29 12.096 Z" fill="#000000" fill-rule="nonzero" fill-opacity="1" /><path clip-path="url(#clip690)" d="M1852.83 34.1734 Q1851.57 33.4443 1850.07 33.1202 Q1848.61 32.7556 1846.83 32.7556 Q1840.51 32.7556 1837.11 36.8875 Q1833.75 40.9789 1833.75 48.6757 L1833.75 72.576 L1826.25 72.576 L1826.25 27.2059 L1833.75 27.2059 L1833.75 34.2544 Q1836.1 30.1225 1839.87 28.1376 Q1843.63 26.1121 1849.02 26.1121 Q1849.79 26.1121 1850.72 26.2337 Q1851.65 26.3147 1852.79 26.5172 L1852.83 34.1734 Z" fill="#000000" fill-rule="nonzero" fill-opacity="1" /><path clip-path="url(#clip690)" d="M1897.63 48.0275 L1897.63 51.6733 L1863.36 51.6733 Q1863.85 59.3701 1867.98 63.421 Q1872.15 67.4314 1879.56 67.4314 Q1883.86 67.4314 1887.87 66.3781 Q1891.92 65.3249 1895.89 63.2184 L1895.89 70.267 Q1891.88 71.9684 1887.67 72.8596 Q1883.45 73.7508 1879.12 73.7508 Q1868.26 73.7508 1861.9 67.4314 Q1855.58 61.1119 1855.58 50.3365 Q1855.58 39.1965 1861.58 32.6746 Q1867.61 26.1121 1877.82 26.1121 Q1886.98 26.1121 1892.28 32.0264 Q1897.63 37.9003 1897.63 48.0275 M1890.18 45.84 Q1890.1 39.7232 1886.73 36.0774 Q1883.41 32.4315 1877.9 32.4315 Q1871.66 32.4315 1867.9 35.9558 Q1864.17 39.4801 1863.6 45.8805 L1890.18 45.84 Z" fill="#000000" fill-rule="nonzero" fill-opacity="1" /><path clip-path="url(#clip690)" d="M1939.72 34.0924 L1939.72 9.54393 L1947.17 9.54393 L1947.17 72.576 L1939.72 72.576 L1939.72 65.7705 Q1937.37 69.8214 1933.77 71.8063 Q1930.2 73.7508 1925.18 73.7508 Q1916.95 73.7508 1911.77 67.1883 Q1906.62 60.6258 1906.62 49.9314 Q1906.62 39.2371 1911.77 32.6746 Q1916.95 26.1121 1925.18 26.1121 Q1930.2 26.1121 1933.77 28.0971 Q1937.37 30.0415 1939.72 34.0924 M1914.32 49.9314 Q1914.32 58.1548 1917.68 62.8538 Q1921.09 67.5124 1927 67.5124 Q1932.91 67.5124 1936.32 62.8538 Q1939.72 58.1548 1939.72 49.9314 Q1939.72 41.7081 1936.32 37.0496 Q1932.91 32.3505 1927 32.3505 Q1921.09 32.3505 1917.68 37.0496 Q1914.32 41.7081 1914.32 49.9314 Z" fill="#000000" fill-rule="nonzero" fill-opacity="1" /><path clip-path="url(#clip690)" d="M1962.53 27.2059 L1969.98 27.2059 L1969.98 72.576 L1962.53 72.576 L1962.53 27.2059 M1962.53 9.54393 L1969.98 9.54393 L1969.98 18.9825 L1962.53 18.9825 L1962.53 9.54393 Z" fill="#000000" fill-rule="nonzero" fill-opacity="1" /><path clip-path="url(#clip690)" d="M2018.23 28.9478 L2018.23 35.9153 Q2015.07 34.1734 2011.87 33.3227 Q2008.71 32.4315 2005.47 32.4315 Q1998.21 32.4315 1994.2 37.0496 Q1990.19 41.6271 1990.19 49.9314 Q1990.19 58.2358 1994.2 62.8538 Q1998.21 67.4314 2005.47 67.4314 Q2008.71 67.4314 2011.87 66.5807 Q2015.07 65.6895 2018.23 63.9476 L2018.23 70.8341 Q2015.11 72.2924 2011.74 73.0216 Q2008.42 73.7508 2004.66 73.7508 Q1994.41 73.7508 1988.37 67.3098 Q1982.34 60.8689 1982.34 49.9314 Q1982.34 38.832 1988.41 32.472 Q1994.53 26.1121 2005.14 26.1121 Q2008.59 26.1121 2011.87 26.8413 Q2015.15 27.5299 2018.23 28.9478 Z" fill="#000000" fill-rule="nonzero" fill-opacity="1" /><path clip-path="url(#clip690)" d="M2063.84 28.9478 L2063.84 35.9153 Q2060.68 34.1734 2057.48 33.3227 Q2054.32 32.4315 2051.08 32.4315 Q2043.83 32.4315 2039.82 37.0496 Q2035.81 41.6271 2035.81 49.9314 Q2035.81 58.2358 2039.82 62.8538 Q2043.83 67.4314 2051.08 67.4314 Q2054.32 67.4314 2057.48 66.5807 Q2060.68 65.6895 2063.84 63.9476 L2063.84 70.8341 Q2060.72 72.2924 2057.36 73.0216 Q2054.04 73.7508 2050.27 73.7508 Q2040.02 73.7508 2033.98 67.3098 Q2027.95 60.8689 2027.95 49.9314 Q2027.95 38.832 2034.02 32.472 Q2040.14 26.1121 2050.76 26.1121 Q2054.2 26.1121 2057.48 26.8413 Q2060.76 27.5299 2063.84 28.9478 Z" fill="#000000" fill-rule="nonzero" fill-opacity="1" /><path clip-path="url(#clip690)" d="M2076.8 27.2059 L2084.26 27.2059 L2084.26 72.576 L2076.8 72.576 L2076.8 27.2059 M2076.8 9.54393 L2084.26 9.54393 L2084.26 18.9825 L2076.8 18.9825 L2076.8 9.54393 Z" fill="#000000" fill-rule="nonzero" fill-opacity="1" /><path clip-path="url(#clip690)" d="M2117.43 32.4315 Q2111.44 32.4315 2107.95 37.1306 Q2104.47 41.7891 2104.47 49.9314 Q2104.47 58.0738 2107.91 62.7728 Q2111.4 67.4314 2117.43 67.4314 Q2123.39 67.4314 2126.87 62.7323 Q2130.36 58.0333 2130.36 49.9314 Q2130.36 41.8701 2126.87 37.1711 Q2123.39 32.4315 2117.43 32.4315 M2117.43 26.1121 Q2127.16 26.1121 2132.7 32.4315 Q2138.25 38.7509 2138.25 49.9314 Q2138.25 61.0714 2132.7 67.4314 Q2127.16 73.7508 2117.43 73.7508 Q2107.67 73.7508 2102.12 67.4314 Q2096.61 61.0714 2096.61 49.9314 Q2096.61 38.7509 2102.12 32.4315 Q2107.67 26.1121 2117.43 26.1121 Z" fill="#000000" fill-rule="nonzero" fill-opacity="1" /><path clip-path="url(#clip690)" d="M2188.32 45.1919 L2188.32 72.576 L2180.87 72.576 L2180.87 45.4349 Q2180.87 38.994 2178.36 35.7938 Q2175.85 32.5936 2170.82 32.5936 Q2164.79 32.5936 2161.3 36.4419 Q2157.82 40.2903 2157.82 46.9338 L2157.82 72.576 L2150.33 72.576 L2150.33 27.2059 L2157.82 27.2059 L2157.82 34.2544 Q2160.49 30.163 2164.1 28.1376 Q2167.75 26.1121 2172.48 26.1121 Q2180.3 26.1121 2184.31 30.9732 Q2188.32 35.7938 2188.32 45.1919 Z" fill="#000000" fill-rule="nonzero" fill-opacity="1" /><path clip-path="url(#clip690)" d="M2242 48.0275 L2242 51.6733 L2207.73 51.6733 Q2208.21 59.3701 2212.35 63.421 Q2216.52 67.4314 2223.93 67.4314 Q2228.23 67.4314 2232.24 66.3781 Q2236.29 65.3249 2240.26 63.2184 L2240.26 70.267 Q2236.25 71.9684 2232.03 72.8596 Q2227.82 73.7508 2223.49 73.7508 Q2212.63 73.7508 2206.27 67.4314 Q2199.95 61.1119 2199.95 50.3365 Q2199.95 39.1965 2205.95 32.6746 Q2211.98 26.1121 2222.19 26.1121 Q2231.34 26.1121 2236.65 32.0264 Q2242 37.9003 2242 48.0275 M2234.54 45.84 Q2234.46 39.7232 2231.1 36.0774 Q2227.78 32.4315 2222.27 32.4315 Q2216.03 32.4315 2212.26 35.9558 Q2208.54 39.4801 2207.97 45.8805 L2234.54 45.84 Z" fill="#000000" fill-rule="nonzero" fill-opacity="1" /><path clip-path="url(#clip690)" d="M2283.16 28.5427 L2283.16 35.5912 Q2280 33.9709 2276.59 33.1607 Q2273.19 32.3505 2269.54 32.3505 Q2263.99 32.3505 2261.2 34.0519 Q2258.44 35.7533 2258.44 39.156 Q2258.44 41.7486 2260.43 43.2475 Q2262.41 44.7058 2268.41 46.0426 L2270.96 46.6097 Q2278.9 48.3111 2282.22 51.4303 Q2285.59 54.509 2285.59 60.0587 Q2285.59 66.3781 2280.56 70.0644 Q2275.58 73.7508 2266.83 73.7508 Q2263.18 73.7508 2259.21 73.0216 Q2255.29 72.3329 2250.91 70.9151 L2250.91 63.2184 Q2255.04 65.3654 2259.05 66.4591 Q2263.06 67.5124 2266.99 67.5124 Q2272.26 67.5124 2275.09 65.73 Q2277.93 63.9071 2277.93 60.6258 Q2277.93 57.5877 2275.86 55.9673 Q2273.84 54.3469 2266.91 52.8481 L2264.32 52.2405 Q2257.39 50.7821 2254.31 47.7845 Q2251.23 44.7463 2251.23 39.4801 Q2251.23 33.0797 2255.77 29.5959 Q2260.31 26.1121 2268.65 26.1121 Q2272.79 26.1121 2276.43 26.7198 Q2280.08 27.3274 2283.16 28.5427 Z" fill="#000000" fill-rule="nonzero" fill-opacity="1" /><circle clip-path="url(#clip692)" cx="1871.4" cy="412.799" r="14.4" fill="#009af9" fill-rule="evenodd" fill-opacity="0.7" stroke="#000000" stroke-opacity="0.7" stroke-width="3.2"/>
<circle clip-path="url(#clip692)" cx="660.341" cy="1258.27" r="14.4" fill="#009af9" fill-rule="evenodd" fill-opacity="0.7" stroke="#000000" stroke-opacity="0.7" stroke-width="3.2"/>
<circle clip-path="url(#clip692)" cx="1635.08" cy="657.038" r="14.4" fill="#009af9" fill-rule="evenodd" fill-opacity="0.7" stroke="#000000" stroke-opacity="0.7" stroke-width="3.2"/>
<circle clip-path="url(#clip692)" cx="1021.13" cy="1124.3" r="14.4" fill="#009af9" fill-rule="evenodd" fill-opacity="0.7" stroke="#000000" stroke-opacity="0.7" stroke-width="3.2"/>
<circle clip-path="url(#clip692)" cx="485.263" cy="1258.27" r="14.4" fill="#009af9" fill-rule="evenodd" fill-opacity="0.7" stroke="#000000" stroke-opacity="0.7" stroke-width="3.2"/>
<circle clip-path="url(#clip692)" cx="2953.34" cy="386.274" r="14.4" fill="#009af9" fill-rule="evenodd" fill-opacity="0.7" stroke="#000000" stroke-opacity="0.7" stroke-width="3.2"/>
<circle clip-path="url(#clip692)" cx="2536.35" cy="412.799" r="14.4" fill="#009af9" fill-rule="evenodd" fill-opacity="0.7" stroke="#000000" stroke-opacity="0.7" stroke-width="3.2"/>
<circle clip-path="url(#clip692)" cx="922.896" cy="1124.3" r="14.4" fill="#009af9" fill-rule="evenodd" fill-opacity="0.7" stroke="#000000" stroke-opacity="0.7" stroke-width="3.2"/>
<circle clip-path="url(#clip692)" cx="873.809" cy="1124.3" r="14.4" fill="#009af9" fill-rule="evenodd" fill-opacity="0.7" stroke="#000000" stroke-opacity="0.7" stroke-width="3.2"/>
<circle clip-path="url(#clip692)" cx="3069.22" cy="386.274" r="14.4" fill="#009af9" fill-rule="evenodd" fill-opacity="0.7" stroke="#000000" stroke-opacity="0.7" stroke-width="3.2"/>
<circle clip-path="url(#clip692)" cx="2145.53" cy="627.885" r="14.4" fill="#009af9" fill-rule="evenodd" fill-opacity="0.7" stroke="#000000" stroke-opacity="0.7" stroke-width="3.2"/>
<circle clip-path="url(#clip692)" cx="284.774" cy="1258.27" r="14.4" fill="#009af9" fill-rule="evenodd" fill-opacity="0.7" stroke="#000000" stroke-opacity="0.7" stroke-width="3.2"/>
<circle clip-path="url(#clip692)" cx="1688.3" cy="657.038" r="14.4" fill="#009af9" fill-rule="evenodd" fill-opacity="0.7" stroke="#000000" stroke-opacity="0.7" stroke-width="3.2"/>
<circle clip-path="url(#clip692)" cx="625.084" cy="1258.27" r="14.4" fill="#009af9" fill-rule="evenodd" fill-opacity="0.7" stroke="#000000" stroke-opacity="0.7" stroke-width="3.2"/>
<circle clip-path="url(#clip692)" cx="383.303" cy="1258.27" r="14.4" fill="#009af9" fill-rule="evenodd" fill-opacity="0.7" stroke="#000000" stroke-opacity="0.7" stroke-width="3.2"/>
<circle clip-path="url(#clip692)" cx="1871.4" cy="441.696" r="14.4" fill="#e26f46" fill-rule="evenodd" fill-opacity="0.7" stroke="#000000" stroke-opacity="0.7" stroke-width="3.2"/>
<circle clip-path="url(#clip692)" cx="660.341" cy="1243.57" r="14.4" fill="#e26f46" fill-rule="evenodd" fill-opacity="0.7" stroke="#000000" stroke-opacity="0.7" stroke-width="3.2"/>
<circle clip-path="url(#clip692)" cx="1635.08" cy="766.721" r="14.4" fill="#e26f46" fill-rule="evenodd" fill-opacity="0.7" stroke="#000000" stroke-opacity="0.7" stroke-width="3.2"/>
<circle clip-path="url(#clip692)" cx="1021.13" cy="1040.05" r="14.4" fill="#e26f46" fill-rule="evenodd" fill-opacity="0.7" stroke="#000000" stroke-opacity="0.7" stroke-width="3.2"/>
<circle clip-path="url(#clip692)" cx="485.263" cy="1241.07" r="14.4" fill="#e26f46" fill-rule="evenodd" fill-opacity="0.7" stroke="#000000" stroke-opacity="0.7" stroke-width="3.2"/>
<circle clip-path="url(#clip692)" cx="2953.34" cy="389.676" r="14.4" fill="#e26f46" fill-rule="evenodd" fill-opacity="0.7" stroke="#000000" stroke-opacity="0.7" stroke-width="3.2"/>
<circle clip-path="url(#clip692)" cx="2536.35" cy="521.19" r="14.4" fill="#e26f46" fill-rule="evenodd" fill-opacity="0.7" stroke="#000000" stroke-opacity="0.7" stroke-width="3.2"/>
<circle clip-path="url(#clip692)" cx="922.896" cy="1068.46" r="14.4" fill="#e26f46" fill-rule="evenodd" fill-opacity="0.7" stroke="#000000" stroke-opacity="0.7" stroke-width="3.2"/>
<circle clip-path="url(#clip692)" cx="873.809" cy="1087.06" r="14.4" fill="#e26f46" fill-rule="evenodd" fill-opacity="0.7" stroke="#000000" stroke-opacity="0.7" stroke-width="3.2"/>
<circle clip-path="url(#clip692)" cx="3069.22" cy="389.676" r="14.4" fill="#e26f46" fill-rule="evenodd" fill-opacity="0.7" stroke="#000000" stroke-opacity="0.7" stroke-width="3.2"/>
<circle clip-path="url(#clip692)" cx="2145.53" cy="583.403" r="14.4" fill="#e26f46" fill-rule="evenodd" fill-opacity="0.7" stroke="#000000" stroke-opacity="0.7" stroke-width="3.2"/>
<circle clip-path="url(#clip692)" cx="284.774" cy="1232.35" r="14.4" fill="#e26f46" fill-rule="evenodd" fill-opacity="0.7" stroke="#000000" stroke-opacity="0.7" stroke-width="3.2"/>
<circle clip-path="url(#clip692)" cx="1688.3" cy="766.721" r="14.4" fill="#e26f46" fill-rule="evenodd" fill-opacity="0.7" stroke="#000000" stroke-opacity="0.7" stroke-width="3.2"/>
<circle clip-path="url(#clip692)" cx="625.084" cy="1232.35" r="14.4" fill="#e26f46" fill-rule="evenodd" fill-opacity="0.7" stroke="#000000" stroke-opacity="0.7" stroke-width="3.2"/>
<circle clip-path="url(#clip692)" cx="383.303" cy="1232.16" r="14.4" fill="#e26f46" fill-rule="evenodd" fill-opacity="0.7" stroke="#000000" stroke-opacity="0.7" stroke-width="3.2"/>
<polyline clip-path="url(#clip692)" style="stroke:#000000; stroke-linecap:round; stroke-linejoin:round; stroke-width:4; stroke-opacity:1; fill:none" stroke-dasharray="16, 10" points="284.774,1405.91 3069.22,146.145 "/>
<path clip-path="url(#clip690)" d="M299.625 360.224 L1083.25 360.224 L1083.25 152.864 L299.625 152.864  Z" fill="#ffffff" fill-rule="evenodd" fill-opacity="1"/>
<polyline clip-path="url(#clip690)" style="stroke:#000000; stroke-linecap:round; stroke-linejoin:round; stroke-width:4; stroke-opacity:1; fill:none" points="299.625,360.224 1083.25,360.224 1083.25,152.864 299.625,152.864 299.625,360.224 "/>
<circle clip-path="url(#clip690)" cx="430.803" cy="204.704" r="20.48" fill="#009af9" fill-rule="evenodd" fill-opacity="0.7" stroke="#000000" stroke-opacity="0.7" stroke-width="4.55111"/>
<path clip-path="url(#clip690)" d="M577.815 192.03 L571.472 209.229 L584.181 209.229 L577.815 192.03 M575.176 187.424 L580.477 187.424 L593.648 221.984 L588.787 221.984 L585.639 213.118 L570.06 213.118 L566.912 221.984 L561.982 221.984 L575.176 187.424 M579.088 178.026 L583.37 178.026 L578.093 184.137 L574.551 184.137 L579.088 178.026 Z" fill="#000000" fill-rule="nonzero" fill-opacity="1" /><path clip-path="url(#clip690)" d="M613.532 200.039 Q612.815 199.623 611.958 199.438 Q611.125 199.229 610.106 199.229 Q606.495 199.229 604.551 201.59 Q602.63 203.928 602.63 208.326 L602.63 221.984 L598.347 221.984 L598.347 196.058 L602.63 196.058 L602.63 200.086 Q603.972 197.725 606.125 196.59 Q608.278 195.433 611.356 195.433 Q611.796 195.433 612.329 195.502 Q612.861 195.549 613.509 195.664 L613.532 200.039 Z" fill="#000000" fill-rule="nonzero" fill-opacity="1" /><path clip-path="url(#clip690)" d="M636.611 209.044 Q636.611 204.345 634.666 201.683 Q632.745 198.998 629.366 198.998 Q625.986 198.998 624.042 201.683 Q622.12 204.345 622.12 209.044 Q622.12 213.743 624.042 216.428 Q625.986 219.09 629.366 219.09 Q632.745 219.09 634.666 216.428 Q636.611 213.743 636.611 209.044 M622.12 199.993 Q623.463 197.678 625.5 196.567 Q627.56 195.433 630.407 195.433 Q635.129 195.433 638.069 199.183 Q641.032 202.933 641.032 209.044 Q641.032 215.155 638.069 218.905 Q635.129 222.655 630.407 222.655 Q627.56 222.655 625.5 221.544 Q623.463 220.41 622.12 218.095 L622.12 221.984 L617.838 221.984 L617.838 185.965 L622.12 185.965 L622.12 199.993 Z" fill="#000000" fill-rule="nonzero" fill-opacity="1" /><path clip-path="url(#clip690)" d="M658.139 199.044 Q654.713 199.044 652.722 201.729 Q650.731 204.391 650.731 209.044 Q650.731 213.697 652.699 216.382 Q654.69 219.044 658.139 219.044 Q661.541 219.044 663.532 216.359 Q665.523 213.674 665.523 209.044 Q665.523 204.438 663.532 201.752 Q661.541 199.044 658.139 199.044 M658.139 195.433 Q663.694 195.433 666.865 199.044 Q670.037 202.655 670.037 209.044 Q670.037 215.41 666.865 219.044 Q663.694 222.655 658.139 222.655 Q652.56 222.655 649.389 219.044 Q646.24 215.41 646.24 209.044 Q646.24 202.655 649.389 199.044 Q652.56 195.433 658.139 195.433 Z" fill="#000000" fill-rule="nonzero" fill-opacity="1" /><path clip-path="url(#clip690)" d="M677.097 185.965 L681.356 185.965 L681.356 221.984 L677.097 221.984 L677.097 185.965 Z" fill="#000000" fill-rule="nonzero" fill-opacity="1" /><path clip-path="url(#clip690)" d="M704.898 211.752 L704.898 196.058 L709.157 196.058 L709.157 211.59 Q709.157 215.271 710.592 217.123 Q712.027 218.951 714.898 218.951 Q718.347 218.951 720.337 216.752 Q722.351 214.553 722.351 210.757 L722.351 196.058 L726.61 196.058 L726.61 221.984 L722.351 221.984 L722.351 218.002 Q720.8 220.363 718.74 221.521 Q716.703 222.655 713.995 222.655 Q709.527 222.655 707.212 219.877 Q704.898 217.099 704.898 211.752 M715.615 195.433 L715.615 195.433 M718.786 184.067 L723.393 184.067 L715.847 192.771 L712.305 192.771 L718.786 184.067 Z" fill="#000000" fill-rule="nonzero" fill-opacity="1" /><path clip-path="url(#clip690)" d="M756.934 206.336 L756.934 221.984 L752.675 221.984 L752.675 206.475 Q752.675 202.794 751.24 200.965 Q749.805 199.137 746.934 199.137 Q743.485 199.137 741.495 201.336 Q739.504 203.535 739.504 207.331 L739.504 221.984 L735.222 221.984 L735.222 196.058 L739.504 196.058 L739.504 200.086 Q741.032 197.748 743.092 196.59 Q745.175 195.433 747.883 195.433 Q752.351 195.433 754.643 198.211 Q756.934 200.965 756.934 206.336 Z" fill="#000000" fill-rule="nonzero" fill-opacity="1" /><path clip-path="url(#clip690)" d="M765.43 196.058 L769.689 196.058 L769.689 221.984 L765.43 221.984 L765.43 196.058 M765.43 185.965 L769.689 185.965 L769.689 191.359 L765.43 191.359 L765.43 185.965 Z" fill="#000000" fill-rule="nonzero" fill-opacity="1" /><path clip-path="url(#clip690)" d="M797.258 197.053 L797.258 201.035 Q795.453 200.039 793.624 199.553 Q791.818 199.044 789.967 199.044 Q785.823 199.044 783.531 201.683 Q781.24 204.299 781.24 209.044 Q781.24 213.789 783.531 216.428 Q785.823 219.044 789.967 219.044 Q791.818 219.044 793.624 218.558 Q795.453 218.049 797.258 217.053 L797.258 220.988 Q795.476 221.822 793.555 222.238 Q791.656 222.655 789.504 222.655 Q783.647 222.655 780.198 218.974 Q776.749 215.294 776.749 209.044 Q776.749 202.701 780.221 199.067 Q783.717 195.433 789.781 195.433 Q791.749 195.433 793.624 195.85 Q795.499 196.243 797.258 197.053 Z" fill="#000000" fill-rule="nonzero" fill-opacity="1" /><path clip-path="url(#clip690)" d="M814.712 199.044 Q811.286 199.044 809.295 201.729 Q807.304 204.391 807.304 209.044 Q807.304 213.697 809.272 216.382 Q811.263 219.044 814.712 219.044 Q818.115 219.044 820.105 216.359 Q822.096 213.674 822.096 209.044 Q822.096 204.438 820.105 201.752 Q818.115 199.044 814.712 199.044 M814.712 195.433 Q820.267 195.433 823.439 199.044 Q826.61 202.655 826.61 209.044 Q826.61 215.41 823.439 219.044 Q820.267 222.655 814.712 222.655 Q809.133 222.655 805.962 219.044 Q802.814 215.41 802.814 209.044 Q802.814 202.655 805.962 199.044 Q809.133 195.433 814.712 195.433 Z" fill="#000000" fill-rule="nonzero" fill-opacity="1" /><circle clip-path="url(#clip690)" cx="430.803" cy="256.544" r="20.48" fill="#e26f46" fill-rule="evenodd" fill-opacity="0.7" stroke="#000000" stroke-opacity="0.7" stroke-width="4.55111"/>
<path clip-path="url(#clip690)" d="M566.658 257.319 L566.658 269.981 L574.158 269.981 Q577.931 269.981 579.736 268.43 Q581.565 266.856 581.565 263.639 Q581.565 260.398 579.736 258.87 Q577.931 257.319 574.158 257.319 L566.658 257.319 M566.658 243.106 L566.658 253.523 L573.579 253.523 Q577.005 253.523 578.671 252.25 Q580.361 250.953 580.361 248.315 Q580.361 245.699 578.671 244.403 Q577.005 243.106 573.579 243.106 L566.658 243.106 M561.982 239.264 L573.926 239.264 Q579.273 239.264 582.167 241.486 Q585.06 243.708 585.06 247.805 Q585.06 250.977 583.579 252.852 Q582.097 254.727 579.227 255.19 Q582.676 255.93 584.574 258.291 Q586.495 260.629 586.495 264.148 Q586.495 268.777 583.347 271.301 Q580.199 273.824 574.389 273.824 L561.982 273.824 L561.982 239.264 Z" fill="#000000" fill-rule="nonzero" fill-opacity="1" /><path clip-path="url(#clip690)" d="M606.102 260.791 Q600.94 260.791 598.949 261.972 Q596.958 263.152 596.958 266 Q596.958 268.268 598.44 269.611 Q599.944 270.93 602.514 270.93 Q606.056 270.93 608.185 268.43 Q610.338 265.907 610.338 261.74 L610.338 260.791 L606.102 260.791 M614.597 259.032 L614.597 273.824 L610.338 273.824 L610.338 269.889 Q608.88 272.25 606.704 273.384 Q604.528 274.495 601.38 274.495 Q597.398 274.495 595.037 272.273 Q592.699 270.027 592.699 266.277 Q592.699 261.902 595.616 259.68 Q598.556 257.458 604.366 257.458 L610.338 257.458 L610.338 257.041 Q610.338 254.102 608.393 252.504 Q606.472 250.884 602.977 250.884 Q600.755 250.884 598.648 251.416 Q596.542 251.949 594.597 253.014 L594.597 249.078 Q596.935 248.176 599.134 247.736 Q601.333 247.273 603.417 247.273 Q609.042 247.273 611.819 250.19 Q614.597 253.106 614.597 259.032 Z" fill="#000000" fill-rule="nonzero" fill-opacity="1" /><path clip-path="url(#clip690)" d="M640.43 260.56 Q640.43 255.93 638.509 253.384 Q636.611 250.838 633.162 250.838 Q629.736 250.838 627.815 253.384 Q625.917 255.93 625.917 260.56 Q625.917 265.166 627.815 267.713 Q629.736 270.259 633.162 270.259 Q636.611 270.259 638.509 267.713 Q640.43 265.166 640.43 260.56 M644.69 270.606 Q644.69 277.226 641.75 280.444 Q638.81 283.685 632.745 283.685 Q630.5 283.685 628.509 283.338 Q626.518 283.013 624.643 282.319 L624.643 278.176 Q626.518 279.194 628.347 279.68 Q630.176 280.166 632.074 280.166 Q636.264 280.166 638.347 277.967 Q640.43 275.791 640.43 271.37 L640.43 269.264 Q639.111 271.555 637.051 272.689 Q634.991 273.824 632.12 273.824 Q627.352 273.824 624.435 270.189 Q621.518 266.555 621.518 260.56 Q621.518 254.541 624.435 250.907 Q627.352 247.273 632.12 247.273 Q634.991 247.273 637.051 248.407 Q639.111 249.541 640.43 251.833 L640.43 247.898 L644.69 247.898 L644.69 270.606 Z" fill="#000000" fill-rule="nonzero" fill-opacity="1" /><path clip-path="url(#clip690)" d="M670.523 260.56 Q670.523 255.93 668.601 253.384 Q666.703 250.838 663.254 250.838 Q659.828 250.838 657.907 253.384 Q656.009 255.93 656.009 260.56 Q656.009 265.166 657.907 267.713 Q659.828 270.259 663.254 270.259 Q666.703 270.259 668.601 267.713 Q670.523 265.166 670.523 260.56 M674.782 270.606 Q674.782 277.226 671.842 280.444 Q668.902 283.685 662.838 283.685 Q660.592 283.685 658.602 283.338 Q656.611 283.013 654.736 282.319 L654.736 278.176 Q656.611 279.194 658.44 279.68 Q660.268 280.166 662.166 280.166 Q666.356 280.166 668.439 277.967 Q670.523 275.791 670.523 271.37 L670.523 269.264 Q669.203 271.555 667.143 272.689 Q665.083 273.824 662.213 273.824 Q657.444 273.824 654.527 270.189 Q651.611 266.555 651.611 260.56 Q651.611 254.541 654.527 250.907 Q657.444 247.273 662.213 247.273 Q665.083 247.273 667.143 248.407 Q669.203 249.541 670.523 251.833 L670.523 247.898 L674.782 247.898 L674.782 270.606 Z" fill="#000000" fill-rule="nonzero" fill-opacity="1" /><path clip-path="url(#clip690)" d="M683.555 247.898 L687.814 247.898 L687.814 273.824 L683.555 273.824 L683.555 247.898 M683.555 237.805 L687.814 237.805 L687.814 243.199 L683.555 243.199 L683.555 237.805 Z" fill="#000000" fill-rule="nonzero" fill-opacity="1" /><path clip-path="url(#clip690)" d="M718.277 258.176 L718.277 273.824 L714.018 273.824 L714.018 258.315 Q714.018 254.634 712.583 252.805 Q711.148 250.977 708.277 250.977 Q704.828 250.977 702.837 253.176 Q700.847 255.375 700.847 259.171 L700.847 273.824 L696.564 273.824 L696.564 247.898 L700.847 247.898 L700.847 251.926 Q702.374 249.588 704.435 248.43 Q706.518 247.273 709.226 247.273 Q713.694 247.273 715.985 250.051 Q718.277 252.805 718.277 258.176 Z" fill="#000000" fill-rule="nonzero" fill-opacity="1" /><path clip-path="url(#clip690)" d="M743.833 260.56 Q743.833 255.93 741.911 253.384 Q740.013 250.838 736.564 250.838 Q733.138 250.838 731.217 253.384 Q729.319 255.93 729.319 260.56 Q729.319 265.166 731.217 267.713 Q733.138 270.259 736.564 270.259 Q740.013 270.259 741.911 267.713 Q743.833 265.166 743.833 260.56 M748.092 270.606 Q748.092 277.226 745.152 280.444 Q742.212 283.685 736.147 283.685 Q733.902 283.685 731.911 283.338 Q729.921 283.013 728.046 282.319 L728.046 278.176 Q729.921 279.194 731.749 279.68 Q733.578 280.166 735.476 280.166 Q739.666 280.166 741.749 277.967 Q743.833 275.791 743.833 271.37 L743.833 269.264 Q742.513 271.555 740.453 272.689 Q738.393 273.824 735.522 273.824 Q730.754 273.824 727.837 270.189 Q724.921 266.555 724.921 260.56 Q724.921 254.541 727.837 250.907 Q730.754 247.273 735.522 247.273 Q738.393 247.273 740.453 248.407 Q742.513 249.541 743.833 251.833 L743.833 247.898 L748.092 247.898 L748.092 270.606 Z" fill="#000000" fill-rule="nonzero" fill-opacity="1" /><path clip-path="url(#clip690)" d="M782.166 237.852 Q779.064 243.176 777.559 248.384 Q776.055 253.592 776.055 258.94 Q776.055 264.287 777.559 269.541 Q779.087 274.773 782.166 280.074 L778.462 280.074 Q774.99 274.634 773.254 269.379 Q771.541 264.125 771.541 258.94 Q771.541 253.778 773.254 248.546 Q774.967 243.315 778.462 237.852 L782.166 237.852 Z" fill="#000000" fill-rule="nonzero" fill-opacity="1" /><path clip-path="url(#clip690)" d="M791.078 239.264 L809.434 239.264 L809.434 243.199 L795.36 243.199 L795.36 251.671 Q796.379 251.324 797.397 251.162 Q798.416 250.977 799.434 250.977 Q805.221 250.977 808.601 254.148 Q811.98 257.319 811.98 262.736 Q811.98 268.314 808.508 271.416 Q805.036 274.495 798.717 274.495 Q796.541 274.495 794.272 274.125 Q792.027 273.754 789.619 273.014 L789.619 268.314 Q791.703 269.449 793.925 270.004 Q796.147 270.56 798.624 270.56 Q802.629 270.56 804.966 268.453 Q807.304 266.347 807.304 262.736 Q807.304 259.125 804.966 257.018 Q802.629 254.912 798.624 254.912 Q796.749 254.912 794.874 255.328 Q793.022 255.745 791.078 256.625 L791.078 239.264 Z" fill="#000000" fill-rule="nonzero" fill-opacity="1" /><path clip-path="url(#clip690)" d="M831.193 242.342 Q827.582 242.342 825.753 245.907 Q823.948 249.449 823.948 256.578 Q823.948 263.685 825.753 267.25 Q827.582 270.791 831.193 270.791 Q834.827 270.791 836.633 267.25 Q838.462 263.685 838.462 256.578 Q838.462 249.449 836.633 245.907 Q834.827 242.342 831.193 242.342 M831.193 238.639 Q837.003 238.639 840.059 243.245 Q843.138 247.828 843.138 256.578 Q843.138 265.305 840.059 269.912 Q837.003 274.495 831.193 274.495 Q825.383 274.495 822.304 269.912 Q819.249 265.305 819.249 256.578 Q819.249 247.828 822.304 243.245 Q825.383 238.639 831.193 238.639 Z" fill="#000000" fill-rule="nonzero" fill-opacity="1" /><path clip-path="url(#clip690)" d="M877.605 260.791 Q872.443 260.791 870.452 261.972 Q868.462 263.152 868.462 266 Q868.462 268.268 869.943 269.611 Q871.448 270.93 874.017 270.93 Q877.559 270.93 879.688 268.43 Q881.841 265.907 881.841 261.74 L881.841 260.791 L877.605 260.791 M886.1 259.032 L886.1 273.824 L881.841 273.824 L881.841 269.889 Q880.383 272.25 878.207 273.384 Q876.031 274.495 872.883 274.495 Q868.901 274.495 866.54 272.273 Q864.202 270.027 864.202 266.277 Q864.202 261.902 867.119 259.68 Q870.059 257.458 875.869 257.458 L881.841 257.458 L881.841 257.041 Q881.841 254.102 879.897 252.504 Q877.975 250.884 874.48 250.884 Q872.258 250.884 870.151 251.416 Q868.045 251.949 866.1 253.014 L866.1 249.078 Q868.438 248.176 870.637 247.736 Q872.837 247.273 874.92 247.273 Q880.545 247.273 883.323 250.19 Q886.1 253.106 886.1 259.032 M878.323 235.907 L882.929 235.907 L875.383 244.611 L871.841 244.611 L878.323 235.907 Z" fill="#000000" fill-rule="nonzero" fill-opacity="1" /><path clip-path="url(#clip690)" d="M909.896 251.879 Q909.179 251.463 908.322 251.278 Q907.489 251.069 906.471 251.069 Q902.859 251.069 900.915 253.43 Q898.994 255.768 898.994 260.166 L898.994 273.824 L894.711 273.824 L894.711 247.898 L898.994 247.898 L898.994 251.926 Q900.336 249.565 902.489 248.43 Q904.642 247.273 907.721 247.273 Q908.16 247.273 908.693 247.342 Q909.225 247.389 909.873 247.504 L909.896 251.879 Z" fill="#000000" fill-rule="nonzero" fill-opacity="1" /><path clip-path="url(#clip690)" d="M932.975 260.884 Q932.975 256.185 931.031 253.523 Q929.109 250.838 925.73 250.838 Q922.35 250.838 920.406 253.523 Q918.484 256.185 918.484 260.884 Q918.484 265.583 920.406 268.268 Q922.35 270.93 925.73 270.93 Q929.109 270.93 931.031 268.268 Q932.975 265.583 932.975 260.884 M918.484 251.833 Q919.827 249.518 921.864 248.407 Q923.924 247.273 926.771 247.273 Q931.494 247.273 934.433 251.023 Q937.396 254.773 937.396 260.884 Q937.396 266.995 934.433 270.745 Q931.494 274.495 926.771 274.495 Q923.924 274.495 921.864 273.384 Q919.827 272.25 918.484 269.935 L918.484 273.824 L914.202 273.824 L914.202 237.805 L918.484 237.805 L918.484 251.833 Z" fill="#000000" fill-rule="nonzero" fill-opacity="1" /><path clip-path="url(#clip690)" d="M954.503 250.884 Q951.077 250.884 949.086 253.569 Q947.095 256.231 947.095 260.884 Q947.095 265.537 949.063 268.222 Q951.054 270.884 954.503 270.884 Q957.905 270.884 959.896 268.199 Q961.887 265.514 961.887 260.884 Q961.887 256.278 959.896 253.592 Q957.905 250.884 954.503 250.884 M954.503 247.273 Q960.058 247.273 963.23 250.884 Q966.401 254.495 966.401 260.884 Q966.401 267.25 963.23 270.884 Q960.058 274.495 954.503 274.495 Q948.924 274.495 945.753 270.884 Q942.605 267.25 942.605 260.884 Q942.605 254.495 945.753 250.884 Q948.924 247.273 954.503 247.273 Z" fill="#000000" fill-rule="nonzero" fill-opacity="1" /><path clip-path="url(#clip690)" d="M973.461 237.805 L977.72 237.805 L977.72 273.824 L973.461 273.824 L973.461 237.805 Z" fill="#000000" fill-rule="nonzero" fill-opacity="1" /><path clip-path="url(#clip690)" d="M1008.81 259.796 L1008.81 261.879 L989.225 261.879 Q989.503 266.277 991.864 268.592 Q994.248 270.884 998.484 270.884 Q1000.94 270.884 1003.23 270.282 Q1005.54 269.68 1007.81 268.477 L1007.81 272.504 Q1005.52 273.476 1003.11 273.986 Q1000.71 274.495 998.229 274.495 Q992.026 274.495 988.391 270.884 Q984.78 267.273 984.78 261.115 Q984.78 254.75 988.206 251.023 Q991.655 247.273 997.489 247.273 Q1002.72 247.273 1005.75 250.653 Q1008.81 254.009 1008.81 259.796 M1004.55 258.546 Q1004.5 255.051 1002.58 252.967 Q1000.68 250.884 997.535 250.884 Q993.97 250.884 991.817 252.898 Q989.688 254.912 989.364 258.569 L1004.55 258.546 Z" fill="#000000" fill-rule="nonzero" fill-opacity="1" /><path clip-path="url(#clip690)" d="M1032.33 248.662 L1032.33 252.69 Q1030.52 251.764 1028.58 251.301 Q1026.63 250.838 1024.55 250.838 Q1021.38 250.838 1019.78 251.81 Q1018.21 252.782 1018.21 254.727 Q1018.21 256.208 1019.34 257.065 Q1020.47 257.898 1023.9 258.662 L1025.36 258.986 Q1029.9 259.958 1031.79 261.74 Q1033.72 263.5 1033.72 266.671 Q1033.72 270.282 1030.84 272.389 Q1028 274.495 1023 274.495 Q1020.91 274.495 1018.65 274.078 Q1016.4 273.685 1013.9 272.875 L1013.9 268.477 Q1016.26 269.703 1018.55 270.328 Q1020.84 270.93 1023.09 270.93 Q1026.1 270.93 1027.72 269.912 Q1029.34 268.87 1029.34 266.995 Q1029.34 265.259 1028.16 264.333 Q1027 263.407 1023.04 262.551 L1021.56 262.203 Q1017.6 261.37 1015.84 259.657 Q1014.09 257.921 1014.09 254.912 Q1014.09 251.254 1016.68 249.264 Q1019.27 247.273 1024.04 247.273 Q1026.4 247.273 1028.48 247.62 Q1030.57 247.967 1032.33 248.662 Z" fill="#000000" fill-rule="nonzero" fill-opacity="1" /><path clip-path="url(#clip690)" d="M1039.83 237.852 L1043.53 237.852 Q1047 243.315 1048.72 248.546 Q1050.45 253.778 1050.45 258.94 Q1050.45 264.125 1048.72 269.379 Q1047 274.634 1043.53 280.074 L1039.83 280.074 Q1042.91 274.773 1044.41 269.541 Q1045.94 264.287 1045.94 258.94 Q1045.94 253.592 1044.41 248.384 Q1042.91 243.176 1039.83 237.852 Z" fill="#000000" fill-rule="nonzero" fill-opacity="1" /><polyline clip-path="url(#clip690)" style="stroke:#000000; stroke-linecap:round; stroke-linejoin:round; stroke-width:4; stroke-opacity:1; fill:none" stroke-dasharray="16, 10" points="332.419,308.384 529.187,308.384 "/>
<path clip-path="url(#clip690)" d="M561.982 291.104 L566.658 291.104 L566.658 321.729 L583.486 321.729 L583.486 325.664 L561.982 325.664 L561.982 291.104 Z" fill="#000000" fill-rule="nonzero" fill-opacity="1" /><path clip-path="url(#clip690)" d="M593.556 287.747 L598.162 287.747 L590.616 296.451 L587.074 296.451 L593.556 287.747 M588.208 299.738 L592.468 299.738 L592.468 325.664 L588.208 325.664 L588.208 299.738 M590.338 299.113 L590.338 299.113 Z" fill="#000000" fill-rule="nonzero" fill-opacity="1" /><path clip-path="url(#clip690)" d="M622.93 310.016 L622.93 325.664 L618.671 325.664 L618.671 310.155 Q618.671 306.474 617.236 304.645 Q615.801 302.817 612.93 302.817 Q609.481 302.817 607.491 305.016 Q605.5 307.215 605.5 311.011 L605.5 325.664 L601.218 325.664 L601.218 299.738 L605.5 299.738 L605.5 303.766 Q607.028 301.428 609.088 300.27 Q611.171 299.113 613.88 299.113 Q618.347 299.113 620.639 301.891 Q622.93 304.645 622.93 310.016 Z" fill="#000000" fill-rule="nonzero" fill-opacity="1" /><path clip-path="url(#clip690)" d="M653.602 311.636 L653.602 313.719 L634.018 313.719 Q634.296 318.117 636.657 320.432 Q639.041 322.724 643.278 322.724 Q645.731 322.724 648.023 322.122 Q650.338 321.52 652.606 320.317 L652.606 324.344 Q650.315 325.316 647.907 325.826 Q645.5 326.335 643.023 326.335 Q636.819 326.335 633.185 322.724 Q629.574 319.113 629.574 312.955 Q629.574 306.59 633 302.863 Q636.449 299.113 642.282 299.113 Q647.514 299.113 650.546 302.493 Q653.602 305.849 653.602 311.636 M649.342 310.386 Q649.296 306.891 647.375 304.807 Q645.477 302.724 642.328 302.724 Q638.764 302.724 636.611 304.738 Q634.481 306.752 634.157 310.409 L649.342 310.386 Z" fill="#000000" fill-rule="nonzero" fill-opacity="1" /><path clip-path="url(#clip690)" d="M672.375 312.631 Q667.213 312.631 665.222 313.812 Q663.231 314.992 663.231 317.84 Q663.231 320.108 664.713 321.451 Q666.217 322.77 668.787 322.77 Q672.328 322.77 674.458 320.27 Q676.611 317.747 676.611 313.58 L676.611 312.631 L672.375 312.631 M680.87 310.872 L680.87 325.664 L676.611 325.664 L676.611 321.729 Q675.152 324.09 672.976 325.224 Q670.801 326.335 667.652 326.335 Q663.671 326.335 661.31 324.113 Q658.972 321.867 658.972 318.117 Q658.972 313.742 661.889 311.52 Q664.828 309.298 670.639 309.298 L676.611 309.298 L676.611 308.881 Q676.611 305.942 674.666 304.344 Q672.745 302.724 669.25 302.724 Q667.027 302.724 664.921 303.256 Q662.814 303.789 660.87 304.854 L660.87 300.918 Q663.208 300.016 665.407 299.576 Q667.606 299.113 669.689 299.113 Q675.314 299.113 678.092 302.03 Q680.87 304.946 680.87 310.872 Z" fill="#000000" fill-rule="nonzero" fill-opacity="1" /><path clip-path="url(#clip690)" d="M708.833 321.775 L708.833 335.525 L704.55 335.525 L704.55 299.738 L708.833 299.738 L708.833 303.673 Q710.175 301.358 712.212 300.247 Q714.273 299.113 717.12 299.113 Q721.842 299.113 724.782 302.863 Q727.745 306.613 727.745 312.724 Q727.745 318.835 724.782 322.585 Q721.842 326.335 717.12 326.335 Q714.273 326.335 712.212 325.224 Q710.175 324.09 708.833 321.775 M723.323 312.724 Q723.323 308.025 721.379 305.363 Q719.458 302.678 716.078 302.678 Q712.698 302.678 710.754 305.363 Q708.833 308.025 708.833 312.724 Q708.833 317.423 710.754 320.108 Q712.698 322.77 716.078 322.77 Q719.458 322.77 721.379 320.108 Q723.323 317.423 723.323 312.724 Z" fill="#000000" fill-rule="nonzero" fill-opacity="1" /><path clip-path="url(#clip690)" d="M756.981 311.636 L756.981 313.719 L737.397 313.719 Q737.675 318.117 740.036 320.432 Q742.421 322.724 746.657 322.724 Q749.11 322.724 751.402 322.122 Q753.717 321.52 755.985 320.317 L755.985 324.344 Q753.694 325.316 751.286 325.826 Q748.879 326.335 746.402 326.335 Q740.198 326.335 736.564 322.724 Q732.953 319.113 732.953 312.955 Q732.953 306.59 736.379 302.863 Q739.828 299.113 745.661 299.113 Q750.893 299.113 753.925 302.493 Q756.981 305.849 756.981 311.636 M752.721 310.386 Q752.675 306.891 750.754 304.807 Q748.856 302.724 745.708 302.724 Q742.143 302.724 739.99 304.738 Q737.86 306.752 737.536 310.409 L752.721 310.386 Z" fill="#000000" fill-rule="nonzero" fill-opacity="1" /><path clip-path="url(#clip690)" d="M778.994 303.719 Q778.277 303.303 777.42 303.118 Q776.587 302.909 775.569 302.909 Q771.957 302.909 770.013 305.27 Q768.092 307.608 768.092 312.006 L768.092 325.664 L763.809 325.664 L763.809 299.738 L768.092 299.738 L768.092 303.766 Q769.434 301.405 771.587 300.27 Q773.74 299.113 776.819 299.113 Q777.258 299.113 777.791 299.182 Q778.323 299.229 778.971 299.344 L778.994 303.719 Z" fill="#000000" fill-rule="nonzero" fill-opacity="1" /><path clip-path="url(#clip690)" d="M796.587 289.645 L796.587 293.187 L792.513 293.187 Q790.221 293.187 789.318 294.113 Q788.439 295.039 788.439 297.446 L788.439 299.738 L795.453 299.738 L795.453 303.048 L788.439 303.048 L788.439 325.664 L784.156 325.664 L784.156 303.048 L780.082 303.048 L780.082 299.738 L784.156 299.738 L784.156 297.932 Q784.156 293.604 786.17 291.636 Q788.184 289.645 792.559 289.645 L796.587 289.645 Z" fill="#000000" fill-rule="nonzero" fill-opacity="1" /><path clip-path="url(#clip690)" d="M822.328 311.636 L822.328 313.719 L802.744 313.719 Q803.022 318.117 805.383 320.432 Q807.767 322.724 812.003 322.724 Q814.457 322.724 816.749 322.122 Q819.064 321.52 821.332 320.317 L821.332 324.344 Q819.04 325.316 816.633 325.826 Q814.226 326.335 811.749 326.335 Q805.545 326.335 801.911 322.724 Q798.3 319.113 798.3 312.955 Q798.3 306.59 801.726 302.863 Q805.175 299.113 811.008 299.113 Q816.24 299.113 819.272 302.493 Q822.328 305.849 822.328 311.636 M818.068 310.386 Q818.022 306.891 816.101 304.807 Q814.203 302.724 811.054 302.724 Q807.49 302.724 805.337 304.738 Q803.207 306.752 802.883 310.409 L818.068 310.386 Z" fill="#000000" fill-rule="nonzero" fill-opacity="1" /><path clip-path="url(#clip690)" d="M847.976 300.733 L847.976 304.715 Q846.17 303.719 844.341 303.233 Q842.536 302.724 840.684 302.724 Q836.54 302.724 834.249 305.363 Q831.957 307.979 831.957 312.724 Q831.957 317.469 834.249 320.108 Q836.54 322.724 840.684 322.724 Q842.536 322.724 844.341 322.238 Q846.17 321.729 847.976 320.733 L847.976 324.668 Q846.193 325.502 844.272 325.918 Q842.374 326.335 840.221 326.335 Q834.364 326.335 830.915 322.654 Q827.466 318.974 827.466 312.724 Q827.466 306.381 830.939 302.747 Q834.434 299.113 840.499 299.113 Q842.466 299.113 844.341 299.53 Q846.216 299.923 847.976 300.733 Z" fill="#000000" fill-rule="nonzero" fill-opacity="1" /><path clip-path="url(#clip690)" d="M859.596 292.377 L859.596 299.738 L868.369 299.738 L868.369 303.048 L859.596 303.048 L859.596 317.122 Q859.596 320.293 860.452 321.196 Q861.332 322.099 863.994 322.099 L868.369 322.099 L868.369 325.664 L863.994 325.664 Q859.063 325.664 857.188 323.835 Q855.313 321.983 855.313 317.122 L855.313 303.048 L852.188 303.048 L852.188 299.738 L855.313 299.738 L855.313 292.377 L859.596 292.377 Z" fill="#000000" fill-rule="nonzero" fill-opacity="1" /><path clip-path="url(#clip690)" d="M885.753 312.631 Q880.591 312.631 878.6 313.812 Q876.61 314.992 876.61 317.84 Q876.61 320.108 878.091 321.451 Q879.596 322.77 882.165 322.77 Q885.707 322.77 887.836 320.27 Q889.989 317.747 889.989 313.58 L889.989 312.631 L885.753 312.631 M894.248 310.872 L894.248 325.664 L889.989 325.664 L889.989 321.729 Q888.531 324.09 886.355 325.224 Q884.179 326.335 881.031 326.335 Q877.049 326.335 874.688 324.113 Q872.35 321.867 872.35 318.117 Q872.35 313.742 875.267 311.52 Q878.207 309.298 884.017 309.298 L889.989 309.298 L889.989 308.881 Q889.989 305.942 888.045 304.344 Q886.123 302.724 882.628 302.724 Q880.406 302.724 878.299 303.256 Q876.193 303.789 874.249 304.854 L874.249 300.918 Q876.586 300.016 878.786 299.576 Q880.985 299.113 883.068 299.113 Q888.693 299.113 891.471 302.03 Q894.248 304.946 894.248 310.872 Z" fill="#000000" fill-rule="nonzero" fill-opacity="1" /></svg>
