<?xml version="1.0" encoding="utf-8"?>
<svg xmlns="http://www.w3.org/2000/svg" xmlns:xlink="http://www.w3.org/1999/xlink" width="800" height="400" viewBox="0 0 3200 1600">
<defs>
  <clipPath id="clip600">
    <rect x="0" y="0" width="3200" height="1600"/>
  </clipPath>
</defs>
<path clip-path="url(#clip600)" d="M0 1600 L3200 1600 L3200 0 L0 0  Z" fill="#ffffff" fill-rule="evenodd" fill-opacity="1"/>
<defs>
  <clipPath id="clip601">
    <rect x="640" y="0" width="2241" height="1600"/>
  </clipPath>
</defs>
<path clip-path="url(#clip600)" d="M228.509 1443.7 L3152.76 1443.7 L3152.76 108.352 L228.509 108.352  Z" fill="#ffffff" fill-rule="evenodd" fill-opacity="1"/>
<defs>
  <clipPath id="clip602">
    <rect x="228" y="108" width="2925" height="1336"/>
  </clipPath>
</defs>
<polyline clip-path="url(#clip602)" style="stroke:#000000; stroke-linecap:round; stroke-linejoin:round; stroke-width:2; stroke-opacity:0.1; fill:none" points="714.669,1443.7 714.669,108.352 "/>
<polyline clip-path="url(#clip602)" style="stroke:#000000; stroke-linecap:round; stroke-linejoin:round; stroke-width:2; stroke-opacity:0.1; fill:none" points="1365.31,1443.7 1365.31,108.352 "/>
<polyline clip-path="url(#clip602)" style="stroke:#000000; stroke-linecap:round; stroke-linejoin:round; stroke-width:2; stroke-opacity:0.1; fill:none" points="2015.95,1443.7 2015.95,108.352 "/>
<polyline clip-path="url(#clip602)" style="stroke:#000000; stroke-linecap:round; stroke-linejoin:round; stroke-width:2; stroke-opacity:0.1; fill:none" points="2666.6,1443.7 2666.6,108.352 "/>
<polyline clip-path="url(#clip602)" style="stroke:#000000; stroke-linecap:round; stroke-linejoin:round; stroke-width:2; stroke-opacity:0.1; fill:none" points="228.509,1443.7 3152.76,1443.7 "/>
<polyline clip-path="url(#clip602)" style="stroke:#000000; stroke-linecap:round; stroke-linejoin:round; stroke-width:2; stroke-opacity:0.1; fill:none" points="228.509,1252.94 3152.76,1252.94 "/>
<polyline clip-path="url(#clip602)" style="stroke:#000000; stroke-linecap:round; stroke-linejoin:round; stroke-width:2; stroke-opacity:0.1; fill:none" points="228.509,1062.17 3152.76,1062.17 "/>
<polyline clip-path="url(#clip602)" style="stroke:#000000; stroke-linecap:round; stroke-linejoin:round; stroke-width:2; stroke-opacity:0.1; fill:none" points="228.509,871.408 3152.76,871.408 "/>
<polyline clip-path="url(#clip602)" style="stroke:#000000; stroke-linecap:round; stroke-linejoin:round; stroke-width:2; stroke-opacity:0.1; fill:none" points="228.509,680.644 3152.76,680.644 "/>
<polyline clip-path="url(#clip602)" style="stroke:#000000; stroke-linecap:round; stroke-linejoin:round; stroke-width:2; stroke-opacity:0.1; fill:none" points="228.509,489.88 3152.76,489.88 "/>
<polyline clip-path="url(#clip602)" style="stroke:#000000; stroke-linecap:round; stroke-linejoin:round; stroke-width:2; stroke-opacity:0.1; fill:none" points="228.509,299.116 3152.76,299.116 "/>
<polyline clip-path="url(#clip602)" style="stroke:#000000; stroke-linecap:round; stroke-linejoin:round; stroke-width:2; stroke-opacity:0.1; fill:none" points="228.509,108.352 3152.76,108.352 "/>
<polyline clip-path="url(#clip600)" style="stroke:#000000; stroke-linecap:round; stroke-linejoin:round; stroke-width:4; stroke-opacity:1; fill:none" points="228.509,1443.7 3152.76,1443.7 "/>
<polyline clip-path="url(#clip600)" style="stroke:#000000; stroke-linecap:round; stroke-linejoin:round; stroke-width:4; stroke-opacity:1; fill:none" points="714.669,1443.7 714.669,1424.8 "/>
<polyline clip-path="url(#clip600)" style="stroke:#000000; stroke-linecap:round; stroke-linejoin:round; stroke-width:4; stroke-opacity:1; fill:none" points="1365.31,1443.7 1365.31,1424.8 "/>
<polyline clip-path="url(#clip600)" style="stroke:#000000; stroke-linecap:round; stroke-linejoin:round; stroke-width:4; stroke-opacity:1; fill:none" points="2015.95,1443.7 2015.95,1424.8 "/>
<polyline clip-path="url(#clip600)" style="stroke:#000000; stroke-linecap:round; stroke-linejoin:round; stroke-width:4; stroke-opacity:1; fill:none" points="2666.6,1443.7 2666.6,1424.8 "/>
<path clip-path="url(#clip600)" d="M686.706 1508.56 L703.026 1508.56 L703.026 1512.5 L681.081 1512.5 L681.081 1508.56 Q683.743 1505.81 688.327 1501.18 Q692.933 1496.53 694.114 1495.19 Q696.359 1492.66 697.239 1490.93 Q698.142 1489.17 698.142 1487.48 Q698.142 1484.72 696.197 1482.99 Q694.276 1481.25 691.174 1481.25 Q688.975 1481.25 686.521 1482.01 Q684.091 1482.78 681.313 1484.33 L681.313 1479.61 Q684.137 1478.47 686.591 1477.89 Q689.044 1477.31 691.081 1477.31 Q696.452 1477.31 699.646 1480 Q702.841 1482.69 702.841 1487.18 Q702.841 1489.31 702.03 1491.23 Q701.243 1493.12 699.137 1495.72 Q698.558 1496.39 695.456 1499.61 Q692.355 1502.8 686.706 1508.56 Z" fill="#000000" fill-rule="nonzero" fill-opacity="1" /><path clip-path="url(#clip600)" d="M712.841 1506.62 L717.725 1506.62 L717.725 1512.5 L712.841 1512.5 L712.841 1506.62 Z" fill="#000000" fill-rule="nonzero" fill-opacity="1" /><path clip-path="url(#clip600)" d="M731.938 1508.56 L748.257 1508.56 L748.257 1512.5 L726.313 1512.5 L726.313 1508.56 Q728.975 1505.81 733.558 1501.18 Q738.164 1496.53 739.345 1495.19 Q741.59 1492.66 742.47 1490.93 Q743.373 1489.17 743.373 1487.48 Q743.373 1484.72 741.428 1482.99 Q739.507 1481.25 736.405 1481.25 Q734.206 1481.25 731.752 1482.01 Q729.322 1482.78 726.544 1484.33 L726.544 1479.61 Q729.368 1478.47 731.822 1477.89 Q734.276 1477.31 736.313 1477.31 Q741.683 1477.31 744.877 1480 Q748.072 1482.69 748.072 1487.18 Q748.072 1489.31 747.262 1491.23 Q746.475 1493.12 744.368 1495.72 Q743.789 1496.39 740.688 1499.61 Q737.586 1502.8 731.938 1508.56 Z" fill="#000000" fill-rule="nonzero" fill-opacity="1" /><path clip-path="url(#clip600)" d="M1336.31 1508.56 L1352.63 1508.56 L1352.63 1512.5 L1330.68 1512.5 L1330.68 1508.56 Q1333.34 1505.81 1337.93 1501.18 Q1342.53 1496.53 1343.71 1495.19 Q1345.96 1492.66 1346.84 1490.93 Q1347.74 1489.17 1347.74 1487.48 Q1347.74 1484.72 1345.8 1482.99 Q1343.88 1481.25 1340.77 1481.25 Q1338.58 1481.25 1336.12 1482.01 Q1333.69 1482.78 1330.91 1484.33 L1330.91 1479.61 Q1333.74 1478.47 1336.19 1477.89 Q1338.64 1477.31 1340.68 1477.31 Q1346.05 1477.31 1349.25 1480 Q1352.44 1482.69 1352.44 1487.18 Q1352.44 1489.31 1351.63 1491.23 Q1350.84 1493.12 1348.74 1495.72 Q1348.16 1496.39 1345.06 1499.61 Q1341.96 1502.8 1336.31 1508.56 Z" fill="#000000" fill-rule="nonzero" fill-opacity="1" /><path clip-path="url(#clip600)" d="M1362.44 1506.62 L1367.33 1506.62 L1367.33 1512.5 L1362.44 1512.5 L1362.44 1506.62 Z" fill="#000000" fill-rule="nonzero" fill-opacity="1" /><path clip-path="url(#clip600)" d="M1390.36 1482.01 L1378.55 1500.46 L1390.36 1500.46 L1390.36 1482.01 M1389.13 1477.94 L1395.01 1477.94 L1395.01 1500.46 L1399.94 1500.46 L1399.94 1504.35 L1395.01 1504.35 L1395.01 1512.5 L1390.36 1512.5 L1390.36 1504.35 L1374.76 1504.35 L1374.76 1499.84 L1389.13 1477.94 Z" fill="#000000" fill-rule="nonzero" fill-opacity="1" /><path clip-path="url(#clip600)" d="M1987.11 1508.56 L2003.43 1508.56 L2003.43 1512.5 L1981.49 1512.5 L1981.49 1508.56 Q1984.15 1505.81 1988.73 1501.18 Q1993.34 1496.53 1994.52 1495.19 Q1996.76 1492.66 1997.64 1490.93 Q1998.55 1489.17 1998.55 1487.48 Q1998.55 1484.72 1996.6 1482.99 Q1994.68 1481.25 1991.58 1481.25 Q1989.38 1481.25 1986.93 1482.01 Q1984.5 1482.78 1981.72 1484.33 L1981.72 1479.61 Q1984.54 1478.47 1987 1477.89 Q1989.45 1477.31 1991.49 1477.31 Q1996.86 1477.31 2000.05 1480 Q2003.25 1482.69 2003.25 1487.18 Q2003.25 1489.31 2002.44 1491.23 Q2001.65 1493.12 1999.54 1495.72 Q1998.96 1496.39 1995.86 1499.61 Q1992.76 1502.8 1987.11 1508.56 Z" fill="#000000" fill-rule="nonzero" fill-opacity="1" /><path clip-path="url(#clip600)" d="M2013.25 1506.62 L2018.13 1506.62 L2018.13 1512.5 L2013.25 1512.5 L2013.25 1506.62 Z" fill="#000000" fill-rule="nonzero" fill-opacity="1" /><path clip-path="url(#clip600)" d="M2038.89 1493.36 Q2035.75 1493.36 2033.89 1495.51 Q2032.06 1497.66 2032.06 1501.41 Q2032.06 1505.14 2033.89 1507.31 Q2035.75 1509.47 2038.89 1509.47 Q2042.04 1509.47 2043.87 1507.31 Q2045.72 1505.14 2045.72 1501.41 Q2045.72 1497.66 2043.87 1495.51 Q2042.04 1493.36 2038.89 1493.36 M2048.18 1478.7 L2048.18 1482.96 Q2046.42 1482.13 2044.61 1481.69 Q2042.83 1481.25 2041.07 1481.25 Q2036.44 1481.25 2033.99 1484.37 Q2031.56 1487.5 2031.21 1493.82 Q2032.57 1491.81 2034.63 1490.74 Q2036.69 1489.65 2039.17 1489.65 Q2044.38 1489.65 2047.39 1492.82 Q2050.42 1495.97 2050.42 1501.41 Q2050.42 1506.74 2047.27 1509.95 Q2044.12 1513.17 2038.89 1513.17 Q2032.9 1513.17 2029.73 1508.59 Q2026.56 1503.98 2026.56 1495.25 Q2026.56 1487.06 2030.44 1482.2 Q2034.33 1477.31 2040.88 1477.31 Q2042.64 1477.31 2044.43 1477.66 Q2046.23 1478.01 2048.18 1478.7 Z" fill="#000000" fill-rule="nonzero" fill-opacity="1" /><path clip-path="url(#clip600)" d="M2637.88 1508.56 L2654.2 1508.56 L2654.2 1512.5 L2632.26 1512.5 L2632.26 1508.56 Q2634.92 1505.81 2639.5 1501.18 Q2644.11 1496.53 2645.29 1495.19 Q2647.53 1492.66 2648.41 1490.93 Q2649.32 1489.17 2649.32 1487.48 Q2649.32 1484.72 2647.37 1482.99 Q2645.45 1481.25 2642.35 1481.25 Q2640.15 1481.25 2637.7 1482.01 Q2635.27 1482.78 2632.49 1484.33 L2632.49 1479.61 Q2635.31 1478.47 2637.77 1477.89 Q2640.22 1477.31 2642.26 1477.31 Q2647.63 1477.31 2650.82 1480 Q2654.02 1482.69 2654.02 1487.18 Q2654.02 1489.31 2653.2 1491.23 Q2652.42 1493.12 2650.31 1495.72 Q2649.73 1496.39 2646.63 1499.61 Q2643.53 1502.8 2637.88 1508.56 Z" fill="#000000" fill-rule="nonzero" fill-opacity="1" /><path clip-path="url(#clip600)" d="M2664.02 1506.62 L2668.9 1506.62 L2668.9 1512.5 L2664.02 1512.5 L2664.02 1506.62 Z" fill="#000000" fill-rule="nonzero" fill-opacity="1" /><path clip-path="url(#clip600)" d="M2689.08 1496.09 Q2685.75 1496.09 2683.83 1497.87 Q2681.93 1499.65 2681.93 1502.78 Q2681.93 1505.9 2683.83 1507.69 Q2685.75 1509.47 2689.08 1509.47 Q2692.42 1509.47 2694.34 1507.69 Q2696.26 1505.88 2696.26 1502.78 Q2696.26 1499.65 2694.34 1497.87 Q2692.44 1496.09 2689.08 1496.09 M2684.41 1494.1 Q2681.4 1493.36 2679.71 1491.3 Q2678.04 1489.24 2678.04 1486.27 Q2678.04 1482.13 2680.98 1479.72 Q2683.95 1477.31 2689.08 1477.31 Q2694.25 1477.31 2697.19 1479.72 Q2700.13 1482.13 2700.13 1486.27 Q2700.13 1489.24 2698.44 1491.3 Q2696.77 1493.36 2693.78 1494.1 Q2697.16 1494.88 2699.04 1497.18 Q2700.94 1499.47 2700.94 1502.78 Q2700.94 1507.8 2697.86 1510.49 Q2694.8 1513.17 2689.08 1513.17 Q2683.37 1513.17 2680.29 1510.49 Q2677.23 1507.8 2677.23 1502.78 Q2677.23 1499.47 2679.13 1497.18 Q2681.03 1494.88 2684.41 1494.1 M2682.7 1486.71 Q2682.7 1489.4 2684.36 1490.9 Q2686.05 1492.41 2689.08 1492.41 Q2692.09 1492.41 2693.78 1490.9 Q2695.5 1489.4 2695.5 1486.71 Q2695.5 1484.03 2693.78 1482.52 Q2692.09 1481.02 2689.08 1481.02 Q2686.05 1481.02 2684.36 1482.52 Q2682.7 1484.03 2682.7 1486.71 Z" fill="#000000" fill-rule="nonzero" fill-opacity="1" /><path clip-path="url(#clip600)" d="M1349.32 1556.7 L1349.32 1563.48 Q1346.07 1560.46 1342.38 1558.96 Q1338.72 1557.47 1334.58 1557.47 Q1326.43 1557.47 1322.11 1562.47 Q1317.78 1567.43 1317.78 1576.85 Q1317.78 1586.24 1322.11 1591.24 Q1326.43 1596.2 1334.58 1596.2 Q1338.72 1596.2 1342.38 1594.71 Q1346.07 1593.21 1349.32 1590.19 L1349.32 1596.9 Q1345.95 1599.2 1342.16 1600.34 Q1338.4 1601.49 1334.2 1601.49 Q1323.41 1601.49 1317.2 1594.9 Q1311 1588.28 1311 1576.85 Q1311 1565.39 1317.2 1558.8 Q1323.41 1552.18 1334.2 1552.18 Q1338.47 1552.18 1342.22 1553.33 Q1346.01 1554.44 1349.32 1556.7 Z" fill="#000000" fill-rule="nonzero" fill-opacity="1" /><path clip-path="url(#clip600)" d="M1372.81 1569.02 Q1368.1 1569.02 1365.36 1572.71 Q1362.62 1576.37 1362.62 1582.77 Q1362.62 1589.17 1365.33 1592.86 Q1368.07 1596.52 1372.81 1596.52 Q1377.49 1596.52 1380.22 1592.83 Q1382.96 1589.14 1382.96 1582.77 Q1382.96 1576.44 1380.22 1572.75 Q1377.49 1569.02 1372.81 1569.02 M1372.81 1564.06 Q1380.45 1564.06 1384.81 1569.02 Q1389.17 1573.99 1389.17 1582.77 Q1389.17 1591.52 1384.81 1596.52 Q1380.45 1601.49 1372.81 1601.49 Q1365.14 1601.49 1360.78 1596.52 Q1356.45 1591.52 1356.45 1582.77 Q1356.45 1573.99 1360.78 1569.02 Q1365.14 1564.06 1372.81 1564.06 Z" fill="#000000" fill-rule="nonzero" fill-opacity="1" /><path clip-path="url(#clip600)" d="M1429.37 1581.28 L1429.37 1584.14 L1402.44 1584.14 Q1402.82 1590.19 1406.07 1593.37 Q1409.35 1596.52 1415.17 1596.52 Q1418.55 1596.52 1421.7 1595.69 Q1424.88 1594.87 1428 1593.21 L1428 1598.75 Q1424.85 1600.09 1421.54 1600.79 Q1418.23 1601.49 1414.82 1601.49 Q1406.29 1601.49 1401.3 1596.52 Q1396.33 1591.56 1396.33 1583.09 Q1396.33 1574.34 1401.04 1569.21 Q1405.78 1564.06 1413.8 1564.06 Q1421 1564.06 1425.17 1568.7 Q1429.37 1573.32 1429.37 1581.28 M1423.51 1579.56 Q1423.45 1574.75 1420.81 1571.89 Q1418.2 1569.02 1413.87 1569.02 Q1408.97 1569.02 1406.01 1571.79 Q1403.08 1574.56 1402.63 1579.59 L1423.51 1579.56 Z" fill="#000000" fill-rule="nonzero" fill-opacity="1" /><path clip-path="url(#clip600)" d="M1457.03 1551.04 L1457.03 1555.91 L1451.43 1555.91 Q1448.27 1555.91 1447.03 1557.18 Q1445.82 1558.45 1445.82 1561.76 L1445.82 1564.92 L1455.47 1564.92 L1455.47 1569.47 L1445.82 1569.47 L1445.82 1600.56 L1439.94 1600.56 L1439.94 1569.47 L1434.33 1569.47 L1434.33 1564.92 L1439.94 1564.92 L1439.94 1562.43 Q1439.94 1556.48 1442.7 1553.78 Q1445.47 1551.04 1451.49 1551.04 L1457.03 1551.04 Z" fill="#000000" fill-rule="nonzero" fill-opacity="1" /><path clip-path="url(#clip600)" d="M1461.93 1564.92 L1467.79 1564.92 L1467.79 1600.56 L1461.93 1600.56 L1461.93 1564.92 M1461.93 1551.04 L1467.79 1551.04 L1467.79 1558.45 L1461.93 1558.45 L1461.93 1551.04 Z" fill="#000000" fill-rule="nonzero" fill-opacity="1" /><path clip-path="url(#clip600)" d="M1505.69 1566.28 L1505.69 1571.76 Q1503.21 1570.39 1500.7 1569.72 Q1498.21 1569.02 1495.67 1569.02 Q1489.97 1569.02 1486.82 1572.65 Q1483.67 1576.25 1483.67 1582.77 Q1483.67 1589.3 1486.82 1592.92 Q1489.97 1596.52 1495.67 1596.52 Q1498.21 1596.52 1500.7 1595.85 Q1503.21 1595.15 1505.69 1593.78 L1505.69 1599.2 Q1503.24 1600.34 1500.6 1600.91 Q1497.99 1601.49 1495.03 1601.49 Q1486.98 1601.49 1482.24 1596.43 Q1477.49 1591.37 1477.49 1582.77 Q1477.49 1574.05 1482.27 1569.05 Q1487.07 1564.06 1495.41 1564.06 Q1498.12 1564.06 1500.7 1564.63 Q1503.27 1565.17 1505.69 1566.28 Z" fill="#000000" fill-rule="nonzero" fill-opacity="1" /><path clip-path="url(#clip600)" d="M1515.88 1564.92 L1521.73 1564.92 L1521.73 1600.56 L1515.88 1600.56 L1515.88 1564.92 M1515.88 1551.04 L1521.73 1551.04 L1521.73 1558.45 L1515.88 1558.45 L1515.88 1551.04 Z" fill="#000000" fill-rule="nonzero" fill-opacity="1" /><path clip-path="url(#clip600)" d="M1564.48 1581.28 L1564.48 1584.14 L1537.55 1584.14 Q1537.94 1590.19 1541.18 1593.37 Q1544.46 1596.52 1550.28 1596.52 Q1553.66 1596.52 1556.81 1595.69 Q1559.99 1594.87 1563.11 1593.21 L1563.11 1598.75 Q1559.96 1600.09 1556.65 1600.79 Q1553.34 1601.49 1549.93 1601.49 Q1541.4 1601.49 1536.41 1596.52 Q1531.44 1591.56 1531.44 1583.09 Q1531.44 1574.34 1536.15 1569.21 Q1540.9 1564.06 1548.92 1564.06 Q1556.11 1564.06 1560.28 1568.7 Q1564.48 1573.32 1564.48 1581.28 M1558.62 1579.56 Q1558.56 1574.75 1555.92 1571.89 Q1553.31 1569.02 1548.98 1569.02 Q1544.08 1569.02 1541.12 1571.79 Q1538.19 1574.56 1537.74 1579.59 L1558.62 1579.56 Z" fill="#000000" fill-rule="nonzero" fill-opacity="1" /><path clip-path="url(#clip600)" d="M1603.72 1579.05 L1603.72 1600.56 L1597.87 1600.56 L1597.87 1579.24 Q1597.87 1574.18 1595.89 1571.66 Q1593.92 1569.15 1589.97 1569.15 Q1585.23 1569.15 1582.5 1572.17 Q1579.76 1575.2 1579.76 1580.42 L1579.76 1600.56 L1573.87 1600.56 L1573.87 1564.92 L1579.76 1564.92 L1579.76 1570.45 Q1581.86 1567.24 1584.69 1565.65 Q1587.56 1564.06 1591.28 1564.06 Q1597.42 1564.06 1600.57 1567.88 Q1603.72 1571.66 1603.72 1579.05 Z" fill="#000000" fill-rule="nonzero" fill-opacity="1" /><path clip-path="url(#clip600)" d="M1621.2 1554.79 L1621.2 1564.92 L1633.26 1564.92 L1633.26 1569.47 L1621.2 1569.47 L1621.2 1588.82 Q1621.2 1593.18 1622.38 1594.42 Q1623.59 1595.66 1627.25 1595.66 L1633.26 1595.66 L1633.26 1600.56 L1627.25 1600.56 Q1620.47 1600.56 1617.89 1598.05 Q1615.31 1595.5 1615.31 1588.82 L1615.31 1569.47 L1611.01 1569.47 L1611.01 1564.92 L1615.31 1564.92 L1615.31 1554.79 L1621.2 1554.79 Z" fill="#000000" fill-rule="nonzero" fill-opacity="1" /><path clip-path="url(#clip600)" d="M1671.46 1581.28 L1671.46 1584.14 L1644.53 1584.14 Q1644.91 1590.19 1648.16 1593.37 Q1651.44 1596.52 1657.26 1596.52 Q1660.63 1596.52 1663.79 1595.69 Q1666.97 1594.87 1670.09 1593.21 L1670.09 1598.75 Q1666.94 1600.09 1663.63 1600.79 Q1660.32 1601.49 1656.91 1601.49 Q1648.38 1601.49 1643.38 1596.52 Q1638.42 1591.56 1638.42 1583.09 Q1638.42 1574.34 1643.13 1569.21 Q1647.87 1564.06 1655.89 1564.06 Q1663.09 1564.06 1667.25 1568.7 Q1671.46 1573.32 1671.46 1581.28 M1665.6 1579.56 Q1665.54 1574.75 1662.89 1571.89 Q1660.28 1569.02 1655.96 1569.02 Q1651.05 1569.02 1648.09 1571.79 Q1645.17 1574.56 1644.72 1579.59 L1665.6 1579.56 Z" fill="#000000" fill-rule="nonzero" fill-opacity="1" /><path clip-path="url(#clip600)" d="M1715.86 1551.1 Q1711.59 1558.42 1709.52 1565.58 Q1707.45 1572.75 1707.45 1580.1 Q1707.45 1587.45 1709.52 1594.68 Q1711.62 1601.87 1715.86 1609.16 L1710.76 1609.16 Q1705.99 1601.68 1703.6 1594.45 Q1701.25 1587.23 1701.25 1580.1 Q1701.25 1573 1703.6 1565.81 Q1705.96 1558.61 1710.76 1551.1 L1715.86 1551.1 Z" fill="#000000" fill-rule="nonzero" fill-opacity="1" /><path clip-path="url(#clip600)" d="M1732.89 1595.22 L1732.89 1614.12 L1727 1614.12 L1727 1564.92 L1732.89 1564.92 L1732.89 1570.33 Q1734.73 1567.14 1737.53 1565.62 Q1740.36 1564.06 1744.28 1564.06 Q1750.77 1564.06 1754.81 1569.21 Q1758.89 1574.37 1758.89 1582.77 Q1758.89 1591.17 1754.81 1596.33 Q1750.77 1601.49 1744.28 1601.49 Q1740.36 1601.49 1737.53 1599.96 Q1734.73 1598.4 1732.89 1595.22 M1752.81 1582.77 Q1752.81 1576.31 1750.14 1572.65 Q1747.49 1568.96 1742.85 1568.96 Q1738.2 1568.96 1735.53 1572.65 Q1732.89 1576.31 1732.89 1582.77 Q1732.89 1589.23 1735.53 1592.92 Q1738.2 1596.59 1742.85 1596.59 Q1747.49 1596.59 1750.14 1592.92 Q1752.81 1589.23 1752.81 1582.77 Z" fill="#000000" fill-rule="nonzero" fill-opacity="1" /><path clip-path="url(#clip600)" d="M1799.09 1581.28 L1799.09 1584.14 L1772.16 1584.14 Q1772.54 1590.19 1775.79 1593.37 Q1779.07 1596.52 1784.89 1596.52 Q1788.27 1596.52 1791.42 1595.69 Q1794.6 1594.87 1797.72 1593.21 L1797.72 1598.75 Q1794.57 1600.09 1791.26 1600.79 Q1787.95 1601.49 1784.54 1601.49 Q1776.01 1601.49 1771.02 1596.52 Q1766.05 1591.56 1766.05 1583.09 Q1766.05 1574.34 1770.76 1569.21 Q1775.5 1564.06 1783.52 1564.06 Q1790.72 1564.06 1794.89 1568.7 Q1799.09 1573.32 1799.09 1581.28 M1793.23 1579.56 Q1793.17 1574.75 1790.53 1571.89 Q1787.92 1569.02 1783.59 1569.02 Q1778.69 1569.02 1775.73 1571.79 Q1772.8 1574.56 1772.35 1579.59 L1793.23 1579.56 Z" fill="#000000" fill-rule="nonzero" fill-opacity="1" /><path clip-path="url(#clip600)" d="M1838.33 1579.05 L1838.33 1600.56 L1832.48 1600.56 L1832.48 1579.24 Q1832.48 1574.18 1830.5 1571.66 Q1828.53 1569.15 1824.58 1569.15 Q1819.84 1569.15 1817.1 1572.17 Q1814.37 1575.2 1814.37 1580.42 L1814.37 1600.56 L1808.48 1600.56 L1808.48 1564.92 L1814.37 1564.92 L1814.37 1570.45 Q1816.47 1567.24 1819.3 1565.65 Q1822.16 1564.06 1825.89 1564.06 Q1832.03 1564.06 1835.18 1567.88 Q1838.33 1571.66 1838.33 1579.05 Z" fill="#000000" fill-rule="nonzero" fill-opacity="1" /><path clip-path="url(#clip600)" d="M1873.47 1570.33 L1873.47 1551.04 L1879.33 1551.04 L1879.33 1600.56 L1873.47 1600.56 L1873.47 1595.22 Q1871.63 1598.4 1868.79 1599.96 Q1865.99 1601.49 1862.05 1601.49 Q1855.58 1601.49 1851.51 1596.33 Q1847.47 1591.17 1847.47 1582.77 Q1847.47 1574.37 1851.51 1569.21 Q1855.58 1564.06 1862.05 1564.06 Q1865.99 1564.06 1868.79 1565.62 Q1871.63 1567.14 1873.47 1570.33 M1853.52 1582.77 Q1853.52 1589.23 1856.16 1592.92 Q1858.83 1596.59 1863.48 1596.59 Q1868.12 1596.59 1870.8 1592.92 Q1873.47 1589.23 1873.47 1582.77 Q1873.47 1576.31 1870.8 1572.65 Q1868.12 1568.96 1863.48 1568.96 Q1858.83 1568.96 1856.16 1572.65 Q1853.52 1576.31 1853.52 1582.77 Z" fill="#000000" fill-rule="nonzero" fill-opacity="1" /><path clip-path="url(#clip600)" d="M1891.39 1564.92 L1897.25 1564.92 L1897.25 1600.56 L1891.39 1600.56 L1891.39 1564.92 M1891.39 1551.04 L1897.25 1551.04 L1897.25 1558.45 L1891.39 1558.45 L1891.39 1551.04 Z" fill="#000000" fill-rule="nonzero" fill-opacity="1" /><path clip-path="url(#clip600)" d="M1939.99 1581.28 L1939.99 1584.14 L1913.07 1584.14 Q1913.45 1590.19 1916.69 1593.37 Q1919.97 1596.52 1925.8 1596.52 Q1929.17 1596.52 1932.32 1595.69 Q1935.51 1594.87 1938.62 1593.21 L1938.62 1598.75 Q1935.47 1600.09 1932.16 1600.79 Q1928.85 1601.49 1925.45 1601.49 Q1916.92 1601.49 1911.92 1596.52 Q1906.96 1591.56 1906.96 1583.09 Q1906.96 1574.34 1911.67 1569.21 Q1916.41 1564.06 1924.43 1564.06 Q1931.62 1564.06 1935.79 1568.7 Q1939.99 1573.32 1939.99 1581.28 M1934.14 1579.56 Q1934.07 1574.75 1931.43 1571.89 Q1928.82 1569.02 1924.49 1569.02 Q1919.59 1569.02 1916.63 1571.79 Q1913.7 1574.56 1913.26 1579.59 L1934.14 1579.56 Z" fill="#000000" fill-rule="nonzero" fill-opacity="1" /><path clip-path="url(#clip600)" d="M1979.24 1579.05 L1979.24 1600.56 L1973.38 1600.56 L1973.38 1579.24 Q1973.38 1574.18 1971.41 1571.66 Q1969.43 1569.15 1965.49 1569.15 Q1960.75 1569.15 1958.01 1572.17 Q1955.27 1575.2 1955.27 1580.42 L1955.27 1600.56 L1949.38 1600.56 L1949.38 1564.92 L1955.27 1564.92 L1955.27 1570.45 Q1957.37 1567.24 1960.2 1565.65 Q1963.07 1564.06 1966.79 1564.06 Q1972.94 1564.06 1976.09 1567.88 Q1979.24 1571.66 1979.24 1579.05 Z" fill="#000000" fill-rule="nonzero" fill-opacity="1" /><path clip-path="url(#clip600)" d="M1996.71 1554.79 L1996.71 1564.92 L2008.77 1564.92 L2008.77 1569.47 L1996.71 1569.47 L1996.71 1588.82 Q1996.71 1593.18 1997.89 1594.42 Q1999.1 1595.66 2002.76 1595.66 L2008.77 1595.66 L2008.77 1600.56 L2002.76 1600.56 Q1995.98 1600.56 1993.4 1598.05 Q1990.82 1595.5 1990.82 1588.82 L1990.82 1569.47 L1986.53 1569.47 L1986.53 1564.92 L1990.82 1564.92 L1990.82 1554.79 L1996.71 1554.79 Z" fill="#000000" fill-rule="nonzero" fill-opacity="1" /><path clip-path="url(#clip600)" d="M2046.97 1581.28 L2046.97 1584.14 L2020.04 1584.14 Q2020.42 1590.19 2023.67 1593.37 Q2026.95 1596.52 2032.77 1596.52 Q2036.15 1596.52 2039.3 1595.69 Q2042.48 1594.87 2045.6 1593.21 L2045.6 1598.75 Q2042.45 1600.09 2039.14 1600.79 Q2035.83 1601.49 2032.42 1601.49 Q2023.89 1601.49 2018.9 1596.52 Q2013.93 1591.56 2013.93 1583.09 Q2013.93 1574.34 2018.64 1569.21 Q2023.38 1564.06 2031.4 1564.06 Q2038.6 1564.06 2042.77 1568.7 Q2046.97 1573.32 2046.97 1581.28 M2041.11 1579.56 Q2041.05 1574.75 2038.41 1571.89 Q2035.8 1569.02 2031.47 1569.02 Q2026.57 1569.02 2023.61 1571.79 Q2020.68 1574.56 2020.23 1579.59 L2041.11 1579.56 Z" fill="#000000" fill-rule="nonzero" fill-opacity="1" /><path clip-path="url(#clip600)" d="M2055.66 1551.1 L2060.75 1551.1 Q2065.53 1558.61 2067.88 1565.81 Q2070.27 1573 2070.27 1580.1 Q2070.27 1587.23 2067.88 1594.45 Q2065.53 1601.68 2060.75 1609.16 L2055.66 1609.16 Q2059.89 1601.87 2061.96 1594.68 Q2064.06 1587.45 2064.06 1580.1 Q2064.06 1572.75 2061.96 1565.58 Q2059.89 1558.42 2055.66 1551.1 Z" fill="#000000" fill-rule="nonzero" fill-opacity="1" /><polyline clip-path="url(#clip600)" style="stroke:#000000; stroke-linecap:round; stroke-linejoin:round; stroke-width:4; stroke-opacity:1; fill:none" points="228.509,1443.7 228.509,108.352 "/>
<polyline clip-path="url(#clip600)" style="stroke:#000000; stroke-linecap:round; stroke-linejoin:round; stroke-width:4; stroke-opacity:1; fill:none" points="228.509,1443.7 247.407,1443.7 "/>
<polyline clip-path="url(#clip600)" style="stroke:#000000; stroke-linecap:round; stroke-linejoin:round; stroke-width:4; stroke-opacity:1; fill:none" points="228.509,1252.94 247.407,1252.94 "/>
<polyline clip-path="url(#clip600)" style="stroke:#000000; stroke-linecap:round; stroke-linejoin:round; stroke-width:4; stroke-opacity:1; fill:none" points="228.509,1062.17 247.407,1062.17 "/>
<polyline clip-path="url(#clip600)" style="stroke:#000000; stroke-linecap:round; stroke-linejoin:round; stroke-width:4; stroke-opacity:1; fill:none" points="228.509,871.408 247.407,871.408 "/>
<polyline clip-path="url(#clip600)" style="stroke:#000000; stroke-linecap:round; stroke-linejoin:round; stroke-width:4; stroke-opacity:1; fill:none" points="228.509,680.644 247.407,680.644 "/>
<polyline clip-path="url(#clip600)" style="stroke:#000000; stroke-linecap:round; stroke-linejoin:round; stroke-width:4; stroke-opacity:1; fill:none" points="228.509,489.88 247.407,489.88 "/>
<polyline clip-path="url(#clip600)" style="stroke:#000000; stroke-linecap:round; stroke-linejoin:round; stroke-width:4; stroke-opacity:1; fill:none" points="228.509,299.116 247.407,299.116 "/>
<polyline clip-path="url(#clip600)" style="stroke:#000000; stroke-linecap:round; stroke-linejoin:round; stroke-width:4; stroke-opacity:1; fill:none" points="228.509,108.352 247.407,108.352 "/>
<path clip-path="url(#clip600)" d="M168.565 1429.5 Q164.954 1429.5 163.125 1433.06 Q161.32 1436.6 161.32 1443.73 Q161.32 1450.84 163.125 1454.41 Q164.954 1457.95 168.565 1457.95 Q172.199 1457.95 174.005 1454.41 Q175.833 1450.84 175.833 1443.73 Q175.833 1436.6 174.005 1433.06 Q172.199 1429.5 168.565 1429.5 M168.565 1425.79 Q174.375 1425.79 177.431 1430.4 Q180.509 1434.98 180.509 1443.73 Q180.509 1452.46 177.431 1457.07 Q174.375 1461.65 168.565 1461.65 Q162.755 1461.65 159.676 1457.07 Q156.621 1452.46 156.621 1443.73 Q156.621 1434.98 159.676 1430.4 Q162.755 1425.79 168.565 1425.79 Z" fill="#000000" fill-rule="nonzero" fill-opacity="1" /><path clip-path="url(#clip600)" d="M133.426 1266.28 L149.746 1266.28 L149.746 1270.22 L127.801 1270.22 L127.801 1266.28 Q130.463 1263.53 135.047 1258.9 Q139.653 1254.24 140.834 1252.9 Q143.079 1250.38 143.959 1248.64 Q144.861 1246.88 144.861 1245.19 Q144.861 1242.44 142.917 1240.7 Q140.996 1238.97 137.894 1238.97 Q135.695 1238.97 133.241 1239.73 Q130.811 1240.49 128.033 1242.04 L128.033 1237.32 Q130.857 1236.19 133.311 1235.61 Q135.764 1235.03 137.801 1235.03 Q143.172 1235.03 146.366 1237.72 Q149.56 1240.4 149.56 1244.89 Q149.56 1247.02 148.75 1248.94 Q147.963 1250.84 145.857 1253.43 Q145.278 1254.1 142.176 1257.32 Q139.074 1260.52 133.426 1266.28 Z" fill="#000000" fill-rule="nonzero" fill-opacity="1" /><path clip-path="url(#clip600)" d="M159.607 1235.66 L177.963 1235.66 L177.963 1239.59 L163.889 1239.59 L163.889 1248.06 Q164.908 1247.72 165.926 1247.55 Q166.945 1247.37 167.963 1247.37 Q173.75 1247.37 177.13 1250.54 Q180.509 1253.71 180.509 1259.13 Q180.509 1264.71 177.037 1267.81 Q173.565 1270.89 167.246 1270.89 Q165.07 1270.89 162.801 1270.52 Q160.556 1270.15 158.148 1269.41 L158.148 1264.71 Q160.232 1265.84 162.454 1266.4 Q164.676 1266.95 167.153 1266.95 Q171.158 1266.95 173.495 1264.85 Q175.833 1262.74 175.833 1259.13 Q175.833 1255.52 173.495 1253.41 Q171.158 1251.3 167.153 1251.3 Q165.278 1251.3 163.403 1251.72 Q161.551 1252.14 159.607 1253.02 L159.607 1235.66 Z" fill="#000000" fill-rule="nonzero" fill-opacity="1" /><path clip-path="url(#clip600)" d="M128.449 1044.89 L146.806 1044.89 L146.806 1048.83 L132.732 1048.83 L132.732 1057.3 Q133.75 1056.95 134.769 1056.79 Q135.787 1056.6 136.806 1056.6 Q142.593 1056.6 145.972 1059.78 Q149.352 1062.95 149.352 1068.36 Q149.352 1073.94 145.88 1077.04 Q142.408 1080.12 136.088 1080.12 Q133.912 1080.12 131.644 1079.75 Q129.399 1079.38 126.991 1078.64 L126.991 1073.94 Q129.074 1075.08 131.297 1075.63 Q133.519 1076.19 135.996 1076.19 Q140 1076.19 142.338 1074.08 Q144.676 1071.98 144.676 1068.36 Q144.676 1064.75 142.338 1062.65 Q140 1060.54 135.996 1060.54 Q134.121 1060.54 132.246 1060.96 Q130.394 1061.37 128.449 1062.25 L128.449 1044.89 Z" fill="#000000" fill-rule="nonzero" fill-opacity="1" /><path clip-path="url(#clip600)" d="M168.565 1047.97 Q164.954 1047.97 163.125 1051.54 Q161.32 1055.08 161.32 1062.21 Q161.32 1069.31 163.125 1072.88 Q164.954 1076.42 168.565 1076.42 Q172.199 1076.42 174.005 1072.88 Q175.833 1069.31 175.833 1062.21 Q175.833 1055.08 174.005 1051.54 Q172.199 1047.97 168.565 1047.97 M168.565 1044.27 Q174.375 1044.27 177.431 1048.87 Q180.509 1053.46 180.509 1062.21 Q180.509 1070.93 177.431 1075.54 Q174.375 1080.12 168.565 1080.12 Q162.755 1080.12 159.676 1075.54 Q156.621 1070.93 156.621 1062.21 Q156.621 1053.46 159.676 1048.87 Q162.755 1044.27 168.565 1044.27 Z" fill="#000000" fill-rule="nonzero" fill-opacity="1" /><path clip-path="url(#clip600)" d="M128.218 854.128 L150.44 854.128 L150.44 856.119 L137.894 888.688 L133.01 888.688 L144.815 858.063 L128.218 858.063 L128.218 854.128 Z" fill="#000000" fill-rule="nonzero" fill-opacity="1" /><path clip-path="url(#clip600)" d="M159.607 854.128 L177.963 854.128 L177.963 858.063 L163.889 858.063 L163.889 866.535 Q164.908 866.188 165.926 866.026 Q166.945 865.841 167.963 865.841 Q173.75 865.841 177.13 869.012 Q180.509 872.183 180.509 877.6 Q180.509 883.179 177.037 886.281 Q173.565 889.359 167.246 889.359 Q165.07 889.359 162.801 888.989 Q160.556 888.619 158.148 887.878 L158.148 883.179 Q160.232 884.313 162.454 884.869 Q164.676 885.424 167.153 885.424 Q171.158 885.424 173.495 883.318 Q175.833 881.211 175.833 877.6 Q175.833 873.989 173.495 871.882 Q171.158 869.776 167.153 869.776 Q165.278 869.776 163.403 870.193 Q161.551 870.609 159.607 871.489 L159.607 854.128 Z" fill="#000000" fill-rule="nonzero" fill-opacity="1" /><path clip-path="url(#clip600)" d="M99.0515 693.989 L106.69 693.989 L106.69 667.623 L98.3802 669.29 L98.3802 665.031 L106.644 663.364 L111.32 663.364 L111.32 693.989 L118.959 693.989 L118.959 697.924 L99.0515 697.924 L99.0515 693.989 Z" fill="#000000" fill-rule="nonzero" fill-opacity="1" /><path clip-path="url(#clip600)" d="M138.403 666.443 Q134.792 666.443 132.963 670.007 Q131.158 673.549 131.158 680.679 Q131.158 687.785 132.963 691.35 Q134.792 694.892 138.403 694.892 Q142.037 694.892 143.843 691.35 Q145.672 687.785 145.672 680.679 Q145.672 673.549 143.843 670.007 Q142.037 666.443 138.403 666.443 M138.403 662.739 Q144.213 662.739 147.269 667.345 Q150.347 671.929 150.347 680.679 Q150.347 689.406 147.269 694.012 Q144.213 698.595 138.403 698.595 Q132.593 698.595 129.514 694.012 Q126.459 689.406 126.459 680.679 Q126.459 671.929 129.514 667.345 Q132.593 662.739 138.403 662.739 Z" fill="#000000" fill-rule="nonzero" fill-opacity="1" /><path clip-path="url(#clip600)" d="M168.565 666.443 Q164.954 666.443 163.125 670.007 Q161.32 673.549 161.32 680.679 Q161.32 687.785 163.125 691.35 Q164.954 694.892 168.565 694.892 Q172.199 694.892 174.005 691.35 Q175.833 687.785 175.833 680.679 Q175.833 673.549 174.005 670.007 Q172.199 666.443 168.565 666.443 M168.565 662.739 Q174.375 662.739 177.431 667.345 Q180.509 671.929 180.509 680.679 Q180.509 689.406 177.431 694.012 Q174.375 698.595 168.565 698.595 Q162.755 698.595 159.676 694.012 Q156.621 689.406 156.621 680.679 Q156.621 671.929 159.676 667.345 Q162.755 662.739 168.565 662.739 Z" fill="#000000" fill-rule="nonzero" fill-opacity="1" /><path clip-path="url(#clip600)" d="M100.047 503.225 L107.686 503.225 L107.686 476.859 L99.3755 478.526 L99.3755 474.267 L107.639 472.6 L112.315 472.6 L112.315 503.225 L119.954 503.225 L119.954 507.16 L100.047 507.16 L100.047 503.225 Z" fill="#000000" fill-rule="nonzero" fill-opacity="1" /><path clip-path="url(#clip600)" d="M133.426 503.225 L149.746 503.225 L149.746 507.16 L127.801 507.16 L127.801 503.225 Q130.463 500.47 135.047 495.841 Q139.653 491.188 140.834 489.845 Q143.079 487.322 143.959 485.586 Q144.861 483.827 144.861 482.137 Q144.861 479.382 142.917 477.646 Q140.996 475.91 137.894 475.91 Q135.695 475.91 133.241 476.674 Q130.811 477.438 128.033 478.989 L128.033 474.267 Q130.857 473.132 133.311 472.554 Q135.764 471.975 137.801 471.975 Q143.172 471.975 146.366 474.66 Q149.56 477.345 149.56 481.836 Q149.56 483.966 148.75 485.887 Q147.963 487.785 145.857 490.378 Q145.278 491.049 142.176 494.267 Q139.074 497.461 133.426 503.225 Z" fill="#000000" fill-rule="nonzero" fill-opacity="1" /><path clip-path="url(#clip600)" d="M159.607 472.6 L177.963 472.6 L177.963 476.535 L163.889 476.535 L163.889 485.007 Q164.908 484.66 165.926 484.498 Q166.945 484.313 167.963 484.313 Q173.75 484.313 177.13 487.484 Q180.509 490.656 180.509 496.072 Q180.509 501.651 177.037 504.753 Q173.565 507.831 167.246 507.831 Q165.07 507.831 162.801 507.461 Q160.556 507.091 158.148 506.35 L158.148 501.651 Q160.232 502.785 162.454 503.341 Q164.676 503.896 167.153 503.896 Q171.158 503.896 173.495 501.79 Q175.833 499.683 175.833 496.072 Q175.833 492.461 173.495 490.355 Q171.158 488.248 167.153 488.248 Q165.278 488.248 163.403 488.665 Q161.551 489.081 159.607 489.961 L159.607 472.6 Z" fill="#000000" fill-rule="nonzero" fill-opacity="1" /><path clip-path="url(#clip600)" d="M99.0515 312.461 L106.69 312.461 L106.69 286.095 L98.3802 287.762 L98.3802 283.503 L106.644 281.836 L111.32 281.836 L111.32 312.461 L118.959 312.461 L118.959 316.396 L99.0515 316.396 L99.0515 312.461 Z" fill="#000000" fill-rule="nonzero" fill-opacity="1" /><path clip-path="url(#clip600)" d="M128.449 281.836 L146.806 281.836 L146.806 285.771 L132.732 285.771 L132.732 294.243 Q133.75 293.896 134.769 293.734 Q135.787 293.549 136.806 293.549 Q142.593 293.549 145.972 296.72 Q149.352 299.892 149.352 305.308 Q149.352 310.887 145.88 313.989 Q142.408 317.067 136.088 317.067 Q133.912 317.067 131.644 316.697 Q129.399 316.327 126.991 315.586 L126.991 310.887 Q129.074 312.021 131.297 312.577 Q133.519 313.132 135.996 313.132 Q140 313.132 142.338 311.026 Q144.676 308.919 144.676 305.308 Q144.676 301.697 142.338 299.591 Q140 297.484 135.996 297.484 Q134.121 297.484 132.246 297.901 Q130.394 298.317 128.449 299.197 L128.449 281.836 Z" fill="#000000" fill-rule="nonzero" fill-opacity="1" /><path clip-path="url(#clip600)" d="M168.565 284.915 Q164.954 284.915 163.125 288.48 Q161.32 292.021 161.32 299.151 Q161.32 306.257 163.125 309.822 Q164.954 313.364 168.565 313.364 Q172.199 313.364 174.005 309.822 Q175.833 306.257 175.833 299.151 Q175.833 292.021 174.005 288.48 Q172.199 284.915 168.565 284.915 M168.565 281.211 Q174.375 281.211 177.431 285.818 Q180.509 290.401 180.509 299.151 Q180.509 307.878 177.431 312.484 Q174.375 317.067 168.565 317.067 Q162.755 317.067 159.676 312.484 Q156.621 307.878 156.621 299.151 Q156.621 290.401 159.676 285.818 Q162.755 281.211 168.565 281.211 Z" fill="#000000" fill-rule="nonzero" fill-opacity="1" /><path clip-path="url(#clip600)" d="M100.047 121.697 L107.686 121.697 L107.686 95.3314 L99.3755 96.998 L99.3755 92.7388 L107.639 91.0721 L112.315 91.0721 L112.315 121.697 L119.954 121.697 L119.954 125.632 L100.047 125.632 L100.047 121.697 Z" fill="#000000" fill-rule="nonzero" fill-opacity="1" /><path clip-path="url(#clip600)" d="M128.218 91.0721 L150.44 91.0721 L150.44 93.0629 L137.894 125.632 L133.01 125.632 L144.815 95.0073 L128.218 95.0073 L128.218 91.0721 Z" fill="#000000" fill-rule="nonzero" fill-opacity="1" /><path clip-path="url(#clip600)" d="M159.607 91.0721 L177.963 91.0721 L177.963 95.0073 L163.889 95.0073 L163.889 103.479 Q164.908 103.132 165.926 102.97 Q166.945 102.785 167.963 102.785 Q173.75 102.785 177.13 105.956 Q180.509 109.128 180.509 114.544 Q180.509 120.123 177.037 123.225 Q173.565 126.303 167.246 126.303 Q165.07 126.303 162.801 125.933 Q160.556 125.563 158.148 124.822 L158.148 120.123 Q160.232 121.257 162.454 121.813 Q164.676 122.368 167.153 122.368 Q171.158 122.368 173.495 120.262 Q175.833 118.155 175.833 114.544 Q175.833 110.933 173.495 108.827 Q171.158 106.72 167.153 106.72 Q165.278 106.72 163.403 107.137 Q161.551 107.554 159.607 108.433 L159.607 91.0721 Z" fill="#000000" fill-rule="nonzero" fill-opacity="1" /><path clip-path="url(#clip600)" d="M-11.3958 945.211 L-11.3958 917.902 L-5.98499 917.902 L-5.98499 938.781 L8.01956 938.781 L8.01956 919.939 L13.4304 919.939 L13.4304 938.781 L36.1242 938.781 L36.1242 945.211 L-11.3958 945.211 Z" fill="#000000" fill-rule="nonzero" fill-opacity="1" /><path clip-path="url(#clip600)" d="M5.95071 892.057 Q5.37779 893.044 5.12317 894.221 Q4.83671 895.367 4.83671 896.768 Q4.83671 901.733 8.08322 904.406 Q11.2979 907.048 17.3453 907.048 L36.1242 907.048 L36.1242 912.936 L0.4762 912.936 L0.4762 907.048 L6.01437 907.048 Q2.76785 905.202 1.20826 902.242 Q-0.38317 899.282 -0.38317 895.049 Q-0.38317 894.444 -0.287684 893.712 Q-0.224027 892.98 -0.0648847 892.089 L5.95071 892.057 Z" fill="#000000" fill-rule="nonzero" fill-opacity="1" /><path clip-path="url(#clip600)" d="M16.8361 856.855 L19.7006 856.855 L19.7006 883.781 Q25.7481 883.4 28.9309 880.153 Q32.0819 876.875 32.0819 871.05 Q32.0819 867.676 31.2544 864.525 Q30.4269 861.342 28.7718 858.223 L34.3099 858.223 Q35.6467 861.374 36.347 864.684 Q37.0472 867.995 37.0472 871.4 Q37.0472 879.93 32.0819 884.927 Q27.1167 889.893 18.6503 889.893 Q9.89745 889.893 4.77305 885.182 Q-0.38317 880.439 -0.38317 872.419 Q-0.38317 865.225 4.2638 861.056 Q8.87893 856.855 16.8361 856.855 M15.1173 862.711 Q10.3112 862.775 7.44665 865.416 Q4.58208 868.026 4.58208 872.355 Q4.58208 877.257 7.35116 880.217 Q10.1202 883.145 15.1492 883.591 L15.1173 862.711 Z" fill="#000000" fill-rule="nonzero" fill-opacity="1" /><path clip-path="url(#clip600)" d="M1.84483 821.589 L7.31933 821.589 Q5.95071 824.071 5.28231 826.586 Q4.58208 829.068 4.58208 831.615 Q4.58208 837.312 8.21053 840.463 Q11.8072 843.614 18.332 843.614 Q24.8569 843.614 28.4853 840.463 Q32.0819 837.312 32.0819 831.615 Q32.0819 829.068 31.4135 826.586 Q30.7133 824.071 29.3447 821.589 L34.7555 821.589 Q35.9014 824.039 36.4743 826.681 Q37.0472 829.291 37.0472 832.251 Q37.0472 840.304 31.9864 845.046 Q26.9257 849.789 18.332 849.789 Q9.61099 849.789 4.61391 845.014 Q-0.38317 840.208 -0.38317 831.869 Q-0.38317 829.164 0.189744 826.586 Q0.730829 824.007 1.84483 821.589 Z" fill="#000000" fill-rule="nonzero" fill-opacity="1" /><path clip-path="url(#clip600)" d="M22.0559 812.008 L0.4762 812.008 L0.4762 806.152 L21.8331 806.152 Q26.8939 806.152 29.4402 804.178 Q31.9546 802.205 31.9546 798.258 Q31.9546 793.516 28.9309 790.779 Q25.9072 788.009 20.6873 788.009 L0.4762 788.009 L0.4762 782.153 L36.1242 782.153 L36.1242 788.009 L30.6496 788.009 Q33.8962 790.142 35.4876 792.975 Q37.0472 795.776 37.0472 799.5 Q37.0472 805.642 33.2278 808.825 Q29.4083 812.008 22.0559 812.008 M-0.38317 797.272 L-0.38317 797.272 Z" fill="#000000" fill-rule="nonzero" fill-opacity="1" /><path clip-path="url(#clip600)" d="M16.8361 739.598 L19.7006 739.598 L19.7006 766.525 Q25.7481 766.143 28.9309 762.897 Q32.0819 759.618 32.0819 753.794 Q32.0819 750.42 31.2544 747.269 Q30.4269 744.086 28.7718 740.967 L34.3099 740.967 Q35.6467 744.118 36.347 747.428 Q37.0472 750.738 37.0472 754.144 Q37.0472 762.674 32.0819 767.671 Q27.1167 772.636 18.6503 772.636 Q9.89745 772.636 4.77305 767.926 Q-0.38317 763.183 -0.38317 755.162 Q-0.38317 747.969 4.2638 743.8 Q8.87893 739.598 16.8361 739.598 M15.1173 745.455 Q10.3112 745.518 7.44665 748.16 Q4.58208 750.77 4.58208 755.099 Q4.58208 760 7.35116 762.96 Q10.1202 765.889 15.1492 766.334 L15.1173 745.455 Z" fill="#000000" fill-rule="nonzero" fill-opacity="1" /><path clip-path="url(#clip600)" d="M14.6081 700.354 L36.1242 700.354 L36.1242 706.21 L14.799 706.21 Q9.7383 706.21 7.22385 708.183 Q4.7094 710.157 4.7094 714.104 Q4.7094 718.846 7.73311 721.583 Q10.7568 724.321 15.9767 724.321 L36.1242 724.321 L36.1242 730.209 L0.4762 730.209 L0.4762 724.321 L6.01437 724.321 Q2.79968 722.22 1.20826 719.387 Q-0.38317 716.523 -0.38317 712.799 Q-0.38317 706.656 3.43625 703.505 Q7.22385 700.354 14.6081 700.354 Z" fill="#000000" fill-rule="nonzero" fill-opacity="1" /><path clip-path="url(#clip600)" d="M1.84483 663.019 L7.31933 663.019 Q5.95071 665.501 5.28231 668.016 Q4.58208 670.498 4.58208 673.045 Q4.58208 678.742 8.21053 681.893 Q11.8072 685.044 18.332 685.044 Q24.8569 685.044 28.4853 681.893 Q32.0819 678.742 32.0819 673.045 Q32.0819 670.498 31.4135 668.016 Q30.7133 665.501 29.3447 663.019 L34.7555 663.019 Q35.9014 665.47 36.4743 668.111 Q37.0472 670.721 37.0472 673.681 Q37.0472 681.734 31.9864 686.476 Q26.9257 691.219 18.332 691.219 Q9.61099 691.219 4.61391 686.445 Q-0.38317 681.638 -0.38317 673.299 Q-0.38317 670.594 0.189744 668.016 Q0.730829 665.438 1.84483 663.019 Z" fill="#000000" fill-rule="nonzero" fill-opacity="1" /><path clip-path="url(#clip600)" d="M0.4762 652.834 L0.4762 646.977 L36.1242 646.977 L36.1242 652.834 L0.4762 652.834 M-13.401 652.834 L-13.401 646.977 L-5.98499 646.977 L-5.98499 652.834 L-13.401 652.834 Z" fill="#000000" fill-rule="nonzero" fill-opacity="1" /><path clip-path="url(#clip600)" d="M18.2047 618.522 Q18.2047 625.62 19.8279 628.358 Q21.4512 631.095 25.3661 631.095 Q28.4853 631.095 30.3314 629.058 Q32.1456 626.989 32.1456 623.456 Q32.1456 618.586 28.7081 615.658 Q25.2388 612.698 19.5097 612.698 L18.2047 612.698 L18.2047 618.522 M15.7857 606.841 L36.1242 606.841 L36.1242 612.698 L30.7133 612.698 Q33.9598 614.703 35.5194 617.695 Q37.0472 620.687 37.0472 625.016 Q37.0472 630.49 33.9916 633.737 Q30.9043 636.951 25.7481 636.951 Q19.7325 636.951 16.6769 632.941 Q13.6214 628.899 13.6214 620.91 L13.6214 612.698 L13.0485 612.698 Q9.00625 612.698 6.81008 615.371 Q4.58208 618.013 4.58208 622.819 Q4.58208 625.875 5.31414 628.771 Q6.04619 631.668 7.51031 634.341 L2.09946 634.341 Q0.858143 631.127 0.253401 628.103 Q-0.38317 625.079 -0.38317 622.215 Q-0.38317 614.48 3.62723 610.661 Q7.63762 606.841 15.7857 606.841 Z" fill="#000000" fill-rule="nonzero" fill-opacity="1" /><path clip-path="url(#clip600)" d="M925.822 18.8205 L925.822 65.8515 L935.706 65.8515 Q948.223 65.8515 954.016 60.1802 Q959.85 54.509 959.85 42.2752 Q959.85 30.1225 954.016 24.4918 Q948.223 18.8205 935.706 18.8205 L925.822 18.8205 M917.639 12.096 L934.45 12.096 Q952.031 12.096 960.255 19.4281 Q968.478 26.7198 968.478 42.2752 Q968.478 57.9117 960.214 65.2439 Q951.95 72.576 934.45 72.576 L917.639 72.576 L917.639 12.096 Z" fill="#000000" fill-rule="nonzero" fill-opacity="1" /><path clip-path="url(#clip600)" d="M981.198 27.2059 L988.651 27.2059 L988.651 72.576 L981.198 72.576 L981.198 27.2059 M981.198 9.54393 L988.651 9.54393 L988.651 18.9825 L981.198 18.9825 L981.198 9.54393 Z" fill="#000000" fill-rule="nonzero" fill-opacity="1" /><path clip-path="url(#clip600)" d="M1033.17 28.5427 L1033.17 35.5912 Q1030.01 33.9709 1026.61 33.1607 Q1023.21 32.3505 1019.56 32.3505 Q1014.01 32.3505 1011.21 34.0519 Q1008.46 35.7533 1008.46 39.156 Q1008.46 41.7486 1010.45 43.2475 Q1012.43 44.7058 1018.43 46.0426 L1020.98 46.6097 Q1028.92 48.3111 1032.24 51.4303 Q1035.6 54.509 1035.6 60.0587 Q1035.6 66.3781 1030.58 70.0644 Q1025.6 73.7508 1016.85 73.7508 Q1013.2 73.7508 1009.23 73.0216 Q1005.3 72.3329 1000.93 70.9151 L1000.93 63.2184 Q1005.06 65.3654 1009.07 66.4591 Q1013.08 67.5124 1017.01 67.5124 Q1022.27 67.5124 1025.11 65.73 Q1027.95 63.9071 1027.95 60.6258 Q1027.95 57.5877 1025.88 55.9673 Q1023.85 54.3469 1016.93 52.8481 L1014.33 52.2405 Q1007.41 50.7821 1004.33 47.7845 Q1001.25 44.7463 1001.25 39.4801 Q1001.25 33.0797 1005.79 29.5959 Q1010.32 26.1121 1018.67 26.1121 Q1022.8 26.1121 1026.45 26.7198 Q1030.09 27.3274 1033.17 28.5427 Z" fill="#000000" fill-rule="nonzero" fill-opacity="1" /><path clip-path="url(#clip600)" d="M1054.84 14.324 L1054.84 27.2059 L1070.2 27.2059 L1070.2 32.9987 L1054.84 32.9987 L1054.84 57.6282 Q1054.84 63.1779 1056.34 64.7578 Q1057.88 66.3376 1062.54 66.3376 L1070.2 66.3376 L1070.2 72.576 L1062.54 72.576 Q1053.91 72.576 1050.63 69.3758 Q1047.35 66.1351 1047.35 57.6282 L1047.35 32.9987 L1041.88 32.9987 L1041.88 27.2059 L1047.35 27.2059 L1047.35 14.324 L1054.84 14.324 Z" fill="#000000" fill-rule="nonzero" fill-opacity="1" /><path clip-path="url(#clip600)" d="M1106.29 34.1734 Q1105.03 33.4443 1103.54 33.1202 Q1102.08 32.7556 1100.29 32.7556 Q1093.97 32.7556 1090.57 36.8875 Q1087.21 40.9789 1087.21 48.6757 L1087.21 72.576 L1079.72 72.576 L1079.72 27.2059 L1087.21 27.2059 L1087.21 34.2544 Q1089.56 30.1225 1093.33 28.1376 Q1097.09 26.1121 1102.48 26.1121 Q1103.25 26.1121 1104.18 26.2337 Q1105.11 26.3147 1106.25 26.5172 L1106.29 34.1734 Z" fill="#000000" fill-rule="nonzero" fill-opacity="1" /><path clip-path="url(#clip600)" d="M1114.11 27.2059 L1121.56 27.2059 L1121.56 72.576 L1114.11 72.576 L1114.11 27.2059 M1114.11 9.54393 L1121.56 9.54393 L1121.56 18.9825 L1114.11 18.9825 L1114.11 9.54393 Z" fill="#000000" fill-rule="nonzero" fill-opacity="1" /><path clip-path="url(#clip600)" d="M1169.73 49.9314 Q1169.73 41.7081 1166.32 37.0496 Q1162.96 32.3505 1157.05 32.3505 Q1151.13 32.3505 1147.73 37.0496 Q1144.37 41.7081 1144.37 49.9314 Q1144.37 58.1548 1147.73 62.8538 Q1151.13 67.5124 1157.05 67.5124 Q1162.96 67.5124 1166.32 62.8538 Q1169.73 58.1548 1169.73 49.9314 M1144.37 34.0924 Q1146.72 30.0415 1150.28 28.0971 Q1153.89 26.1121 1158.87 26.1121 Q1167.13 26.1121 1172.28 32.6746 Q1177.46 39.2371 1177.46 49.9314 Q1177.46 60.6258 1172.28 67.1883 Q1167.13 73.7508 1158.87 73.7508 Q1153.89 73.7508 1150.28 71.8063 Q1146.72 69.8214 1144.37 65.7705 L1144.37 72.576 L1136.87 72.576 L1136.87 9.54393 L1144.37 9.54393 L1144.37 34.0924 Z" fill="#000000" fill-rule="nonzero" fill-opacity="1" /><path clip-path="url(#clip600)" d="M1189.05 54.671 L1189.05 27.2059 L1196.5 27.2059 L1196.5 54.3874 Q1196.5 60.8284 1199.01 64.0691 Q1201.53 67.2693 1206.55 67.2693 Q1212.59 67.2693 1216.07 63.421 Q1219.59 59.5726 1219.59 52.9291 L1219.59 27.2059 L1227.05 27.2059 L1227.05 72.576 L1219.59 72.576 L1219.59 65.6084 Q1216.88 69.7404 1213.27 71.7658 Q1209.71 73.7508 1204.97 73.7508 Q1197.15 73.7508 1193.1 68.8897 Q1189.05 64.0286 1189.05 54.671 M1207.81 26.1121 L1207.81 26.1121 Z" fill="#000000" fill-rule="nonzero" fill-opacity="1" /><path clip-path="url(#clip600)" d="M1275.05 28.9478 L1275.05 35.9153 Q1271.89 34.1734 1268.69 33.3227 Q1265.53 32.4315 1262.29 32.4315 Q1255.04 32.4315 1251.03 37.0496 Q1247.02 41.6271 1247.02 49.9314 Q1247.02 58.2358 1251.03 62.8538 Q1255.04 67.4314 1262.29 67.4314 Q1265.53 67.4314 1268.69 66.5807 Q1271.89 65.6895 1275.05 63.9476 L1275.05 70.8341 Q1271.93 72.2924 1268.57 73.0216 Q1265.25 73.7508 1261.48 73.7508 Q1251.23 73.7508 1245.2 67.3098 Q1239.16 60.8689 1239.16 49.9314 Q1239.16 38.832 1245.24 32.472 Q1251.35 26.1121 1261.97 26.1121 Q1265.41 26.1121 1268.69 26.8413 Q1271.97 27.5299 1275.05 28.9478 Z" fill="#000000" fill-rule="nonzero" fill-opacity="1" /><path clip-path="url(#clip600)" d="M1288.01 27.2059 L1295.47 27.2059 L1295.47 72.576 L1288.01 72.576 L1288.01 27.2059 M1288.01 9.54393 L1295.47 9.54393 L1295.47 18.9825 L1288.01 18.9825 L1288.01 9.54393 Z" fill="#000000" fill-rule="nonzero" fill-opacity="1" /><path clip-path="url(#clip600)" d="M1328.64 32.4315 Q1322.65 32.4315 1319.16 37.1306 Q1315.68 41.7891 1315.68 49.9314 Q1315.68 58.0738 1319.12 62.7728 Q1322.61 67.4314 1328.64 67.4314 Q1334.6 67.4314 1338.08 62.7323 Q1341.57 58.0333 1341.57 49.9314 Q1341.57 41.8701 1338.08 37.1711 Q1334.6 32.4315 1328.64 32.4315 M1328.64 26.1121 Q1338.37 26.1121 1343.92 32.4315 Q1349.47 38.7509 1349.47 49.9314 Q1349.47 61.0714 1343.92 67.4314 Q1338.37 73.7508 1328.64 73.7508 Q1318.88 73.7508 1313.33 67.4314 Q1307.82 61.0714 1307.82 49.9314 Q1307.82 38.7509 1313.33 32.4315 Q1318.88 26.1121 1328.64 26.1121 M1334.27 6.22219 L1342.34 6.22219 L1329.13 21.4536 L1322.93 21.4536 L1334.27 6.22219 Z" fill="#000000" fill-rule="nonzero" fill-opacity="1" /><path clip-path="url(#clip600)" d="M1399.53 45.1919 L1399.53 72.576 L1392.08 72.576 L1392.08 45.4349 Q1392.08 38.994 1389.57 35.7938 Q1387.06 32.5936 1382.03 32.5936 Q1376 32.5936 1372.52 36.4419 Q1369.03 40.2903 1369.03 46.9338 L1369.03 72.576 L1361.54 72.576 L1361.54 27.2059 L1369.03 27.2059 L1369.03 34.2544 Q1371.7 30.163 1375.31 28.1376 Q1378.96 26.1121 1383.7 26.1121 Q1391.51 26.1121 1395.52 30.9732 Q1399.53 35.7938 1399.53 45.1919 Z" fill="#000000" fill-rule="nonzero" fill-opacity="1" /><path clip-path="url(#clip600)" d="M1473.34 49.9314 Q1473.34 41.7081 1469.94 37.0496 Q1466.58 32.3505 1460.66 32.3505 Q1454.75 32.3505 1451.35 37.0496 Q1447.98 41.7081 1447.98 49.9314 Q1447.98 58.1548 1451.35 62.8538 Q1454.75 67.5124 1460.66 67.5124 Q1466.58 67.5124 1469.94 62.8538 Q1473.34 58.1548 1473.34 49.9314 M1447.98 34.0924 Q1450.33 30.0415 1453.9 28.0971 Q1457.5 26.1121 1462.49 26.1121 Q1470.75 26.1121 1475.89 32.6746 Q1481.08 39.2371 1481.08 49.9314 Q1481.08 60.6258 1475.89 67.1883 Q1470.75 73.7508 1462.49 73.7508 Q1457.5 73.7508 1453.9 71.8063 Q1450.33 69.8214 1447.98 65.7705 L1447.98 72.576 L1440.49 72.576 L1440.49 9.54393 L1447.98 9.54393 L1447.98 34.0924 Z" fill="#000000" fill-rule="nonzero" fill-opacity="1" /><path clip-path="url(#clip600)" d="M1511.02 32.4315 Q1505.02 32.4315 1501.54 37.1306 Q1498.05 41.7891 1498.05 49.9314 Q1498.05 58.0738 1501.5 62.7728 Q1504.98 67.4314 1511.02 67.4314 Q1516.97 67.4314 1520.45 62.7323 Q1523.94 58.0333 1523.94 49.9314 Q1523.94 41.8701 1520.45 37.1711 Q1516.97 32.4315 1511.02 32.4315 M1511.02 26.1121 Q1520.74 26.1121 1526.29 32.4315 Q1531.84 38.7509 1531.84 49.9314 Q1531.84 61.0714 1526.29 67.4314 Q1520.74 73.7508 1511.02 73.7508 Q1501.25 73.7508 1495.7 67.4314 Q1490.19 61.0714 1490.19 49.9314 Q1490.19 38.7509 1495.7 32.4315 Q1501.25 26.1121 1511.02 26.1121 Z" fill="#000000" fill-rule="nonzero" fill-opacity="1" /><path clip-path="url(#clip600)" d="M1561.77 32.4315 Q1555.78 32.4315 1552.29 37.1306 Q1548.81 41.7891 1548.81 49.9314 Q1548.81 58.0738 1552.25 62.7728 Q1555.74 67.4314 1561.77 67.4314 Q1567.73 67.4314 1571.21 62.7323 Q1574.7 58.0333 1574.7 49.9314 Q1574.7 41.8701 1571.21 37.1711 Q1567.73 32.4315 1561.77 32.4315 M1561.77 26.1121 Q1571.5 26.1121 1577.05 32.4315 Q1582.6 38.7509 1582.6 49.9314 Q1582.6 61.0714 1577.05 67.4314 Q1571.5 73.7508 1561.77 73.7508 Q1552.01 73.7508 1546.46 67.4314 Q1540.95 61.0714 1540.95 49.9314 Q1540.95 38.7509 1546.46 32.4315 Q1552.01 26.1121 1561.77 26.1121 Z" fill="#000000" fill-rule="nonzero" fill-opacity="1" /><path clip-path="url(#clip600)" d="M1602.32 14.324 L1602.32 27.2059 L1617.68 27.2059 L1617.68 32.9987 L1602.32 32.9987 L1602.32 57.6282 Q1602.32 63.1779 1603.82 64.7578 Q1605.36 66.3376 1610.02 66.3376 L1617.68 66.3376 L1617.68 72.576 L1610.02 72.576 Q1601.39 72.576 1598.11 69.3758 Q1594.83 66.1351 1594.83 57.6282 L1594.83 32.9987 L1589.36 32.9987 L1589.36 27.2059 L1594.83 27.2059 L1594.83 14.324 L1602.32 14.324 Z" fill="#000000" fill-rule="nonzero" fill-opacity="1" /><path clip-path="url(#clip600)" d="M1656.4 28.5427 L1656.4 35.5912 Q1653.24 33.9709 1649.84 33.1607 Q1646.44 32.3505 1642.79 32.3505 Q1637.24 32.3505 1634.45 34.0519 Q1631.69 35.7533 1631.69 39.156 Q1631.69 41.7486 1633.68 43.2475 Q1635.66 44.7058 1641.66 46.0426 L1644.21 46.6097 Q1652.15 48.3111 1655.47 51.4303 Q1658.83 54.509 1658.83 60.0587 Q1658.83 66.3781 1653.81 70.0644 Q1648.83 73.7508 1640.08 73.7508 Q1636.43 73.7508 1632.46 73.0216 Q1628.53 72.3329 1624.16 70.9151 L1624.16 63.2184 Q1628.29 65.3654 1632.3 66.4591 Q1636.31 67.5124 1640.24 67.5124 Q1645.51 67.5124 1648.34 65.73 Q1651.18 63.9071 1651.18 60.6258 Q1651.18 57.5877 1649.11 55.9673 Q1647.09 54.3469 1640.16 52.8481 L1637.57 52.2405 Q1630.64 50.7821 1627.56 47.7845 Q1624.48 44.7463 1624.48 39.4801 Q1624.48 33.0797 1629.02 29.5959 Q1633.56 26.1121 1641.9 26.1121 Q1646.03 26.1121 1649.68 26.7198 Q1653.32 27.3274 1656.4 28.5427 Z" fill="#000000" fill-rule="nonzero" fill-opacity="1" /><path clip-path="url(#clip600)" d="M1678.07 14.324 L1678.07 27.2059 L1693.43 27.2059 L1693.43 32.9987 L1678.07 32.9987 L1678.07 57.6282 Q1678.07 63.1779 1679.57 64.7578 Q1681.11 66.3376 1685.77 66.3376 L1693.43 66.3376 L1693.43 72.576 L1685.77 72.576 Q1677.14 72.576 1673.86 69.3758 Q1670.58 66.1351 1670.58 57.6282 L1670.58 32.9987 L1665.11 32.9987 L1665.11 27.2059 L1670.58 27.2059 L1670.58 14.324 L1678.07 14.324 Z" fill="#000000" fill-rule="nonzero" fill-opacity="1" /><path clip-path="url(#clip600)" d="M1729.52 34.1734 Q1728.27 33.4443 1726.77 33.1202 Q1725.31 32.7556 1723.53 32.7556 Q1717.21 32.7556 1713.8 36.8875 Q1710.44 40.9789 1710.44 48.6757 L1710.44 72.576 L1702.95 72.576 L1702.95 27.2059 L1710.44 27.2059 L1710.44 34.2544 Q1712.79 30.1225 1716.56 28.1376 Q1720.33 26.1121 1725.71 26.1121 Q1726.48 26.1121 1727.41 26.2337 Q1728.35 26.3147 1729.48 26.5172 L1729.52 34.1734 Z" fill="#000000" fill-rule="nonzero" fill-opacity="1" /><path clip-path="url(#clip600)" d="M1757.96 49.7694 Q1748.93 49.7694 1745.44 51.8354 Q1741.96 53.9013 1741.96 58.8839 Q1741.96 62.8538 1744.55 65.2034 Q1747.18 67.5124 1751.68 67.5124 Q1757.88 67.5124 1761.6 63.1374 Q1765.37 58.7219 1765.37 51.4303 L1765.37 49.7694 L1757.96 49.7694 M1772.83 46.6907 L1772.83 72.576 L1765.37 72.576 L1765.37 65.6895 Q1762.82 69.8214 1759.01 71.8063 Q1755.2 73.7508 1749.69 73.7508 Q1742.73 73.7508 1738.6 69.8619 Q1734.5 65.9325 1734.5 59.3701 Q1734.5 51.7138 1739.61 47.825 Q1744.75 43.9361 1754.92 43.9361 L1765.37 43.9361 L1765.37 43.2069 Q1765.37 38.0623 1761.97 35.2672 Q1758.61 32.4315 1752.49 32.4315 Q1748.6 32.4315 1744.91 33.3632 Q1741.23 34.295 1737.83 36.1584 L1737.83 29.2718 Q1741.92 27.692 1745.77 26.9223 Q1749.61 26.1121 1753.26 26.1121 Q1763.1 26.1121 1767.96 31.2163 Q1772.83 36.3204 1772.83 46.6907 Z" fill="#000000" fill-rule="nonzero" fill-opacity="1" /><path clip-path="url(#clip600)" d="M1795.39 65.7705 L1795.39 89.8329 L1787.89 89.8329 L1787.89 27.2059 L1795.39 27.2059 L1795.39 34.0924 Q1797.74 30.0415 1801.3 28.0971 Q1804.91 26.1121 1809.89 26.1121 Q1818.16 26.1121 1823.3 32.6746 Q1828.48 39.2371 1828.48 49.9314 Q1828.48 60.6258 1823.3 67.1883 Q1818.16 73.7508 1809.89 73.7508 Q1804.91 73.7508 1801.3 71.8063 Q1797.74 69.8214 1795.39 65.7705 M1820.75 49.9314 Q1820.75 41.7081 1817.34 37.0496 Q1813.98 32.3505 1808.07 32.3505 Q1802.15 32.3505 1798.75 37.0496 Q1795.39 41.7081 1795.39 49.9314 Q1795.39 58.1548 1798.75 62.8538 Q1802.15 67.5124 1808.07 67.5124 Q1813.98 67.5124 1817.34 62.8538 Q1820.75 58.1548 1820.75 49.9314 Z" fill="#000000" fill-rule="nonzero" fill-opacity="1" /><path clip-path="url(#clip600)" d="M1897.07 34.0924 L1897.07 9.54393 L1904.52 9.54393 L1904.52 72.576 L1897.07 72.576 L1897.07 65.7705 Q1894.72 69.8214 1891.11 71.8063 Q1887.55 73.7508 1882.52 73.7508 Q1874.3 73.7508 1869.12 67.1883 Q1863.97 60.6258 1863.97 49.9314 Q1863.97 39.2371 1869.12 32.6746 Q1874.3 26.1121 1882.52 26.1121 Q1887.55 26.1121 1891.11 28.0971 Q1894.72 30.0415 1897.07 34.0924 M1871.67 49.9314 Q1871.67 58.1548 1875.03 62.8538 Q1878.43 67.5124 1884.35 67.5124 Q1890.26 67.5124 1893.66 62.8538 Q1897.07 58.1548 1897.07 49.9314 Q1897.07 41.7081 1893.66 37.0496 Q1890.26 32.3505 1884.35 32.3505 Q1878.43 32.3505 1875.03 37.0496 Q1871.67 41.7081 1871.67 49.9314 Z" fill="#000000" fill-rule="nonzero" fill-opacity="1" /><path clip-path="url(#clip600)" d="M1958.68 48.0275 L1958.68 51.6733 L1924.41 51.6733 Q1924.9 59.3701 1929.03 63.421 Q1933.2 67.4314 1940.61 67.4314 Q1944.91 67.4314 1948.92 66.3781 Q1952.97 65.3249 1956.94 63.2184 L1956.94 70.267 Q1952.93 71.9684 1948.72 72.8596 Q1944.5 73.7508 1940.17 73.7508 Q1929.31 73.7508 1922.95 67.4314 Q1916.63 61.1119 1916.63 50.3365 Q1916.63 39.1965 1922.63 32.6746 Q1928.66 26.1121 1938.87 26.1121 Q1948.03 26.1121 1953.33 32.0264 Q1958.68 37.9003 1958.68 48.0275 M1951.23 45.84 Q1951.15 39.7232 1947.78 36.0774 Q1944.46 32.4315 1938.95 32.4315 Q1932.71 32.4315 1928.95 35.9558 Q1925.22 39.4801 1924.65 45.8805 L1951.23 45.84 Z" fill="#000000" fill-rule="nonzero" fill-opacity="1" /><path clip-path="url(#clip600)" d="M1970.91 9.54393 L1978.37 9.54393 L1978.37 72.576 L1970.91 72.576 L1970.91 9.54393 Z" fill="#000000" fill-rule="nonzero" fill-opacity="1" /><path clip-path="url(#clip600)" d="M2052.99 28.9478 L2052.99 35.9153 Q2049.83 34.1734 2046.63 33.3227 Q2043.47 32.4315 2040.23 32.4315 Q2032.97 32.4315 2028.96 37.0496 Q2024.95 41.6271 2024.95 49.9314 Q2024.95 58.2358 2028.96 62.8538 Q2032.97 67.4314 2040.23 67.4314 Q2043.47 67.4314 2046.63 66.5807 Q2049.83 65.6895 2052.99 63.9476 L2052.99 70.8341 Q2049.87 72.2924 2046.5 73.0216 Q2043.18 73.7508 2039.42 73.7508 Q2029.17 73.7508 2023.13 67.3098 Q2017.09 60.8689 2017.09 49.9314 Q2017.09 38.832 2023.17 32.472 Q2029.29 26.1121 2039.9 26.1121 Q2043.34 26.1121 2046.63 26.8413 Q2049.91 27.5299 2052.99 28.9478 Z" fill="#000000" fill-rule="nonzero" fill-opacity="1" /><path clip-path="url(#clip600)" d="M2083.53 32.4315 Q2077.53 32.4315 2074.05 37.1306 Q2070.57 41.7891 2070.57 49.9314 Q2070.57 58.0738 2074.01 62.7728 Q2077.49 67.4314 2083.53 67.4314 Q2089.48 67.4314 2092.97 62.7323 Q2096.45 58.0333 2096.45 49.9314 Q2096.45 41.8701 2092.97 37.1711 Q2089.48 32.4315 2083.53 32.4315 M2083.53 26.1121 Q2093.25 26.1121 2098.8 32.4315 Q2104.35 38.7509 2104.35 49.9314 Q2104.35 61.0714 2098.8 67.4314 Q2093.25 73.7508 2083.53 73.7508 Q2073.77 73.7508 2068.22 67.4314 Q2062.71 61.0714 2062.71 49.9314 Q2062.71 38.7509 2068.22 32.4315 Q2073.77 26.1121 2083.53 26.1121 Z" fill="#000000" fill-rule="nonzero" fill-opacity="1" /><path clip-path="url(#clip600)" d="M2155.51 48.0275 L2155.51 51.6733 L2121.24 51.6733 Q2121.73 59.3701 2125.86 63.421 Q2130.03 67.4314 2137.45 67.4314 Q2141.74 67.4314 2145.75 66.3781 Q2149.8 65.3249 2153.77 63.2184 L2153.77 70.267 Q2149.76 71.9684 2145.55 72.8596 Q2141.34 73.7508 2137 73.7508 Q2126.15 73.7508 2119.79 67.4314 Q2113.47 61.1119 2113.47 50.3365 Q2113.47 39.1965 2119.46 32.6746 Q2125.5 26.1121 2135.71 26.1121 Q2144.86 26.1121 2150.17 32.0264 Q2155.51 37.9003 2155.51 48.0275 M2148.06 45.84 Q2147.98 39.7232 2144.62 36.0774 Q2141.3 32.4315 2135.79 32.4315 Q2129.55 32.4315 2125.78 35.9558 Q2122.05 39.4801 2121.49 45.8805 L2148.06 45.84 Z" fill="#000000" fill-rule="nonzero" fill-opacity="1" /><path clip-path="url(#clip600)" d="M2190.72 9.54393 L2190.72 15.7418 L2183.59 15.7418 Q2179.58 15.7418 2178 17.3622 Q2176.46 18.9825 2176.46 23.1955 L2176.46 27.2059 L2188.73 27.2059 L2188.73 32.9987 L2176.46 32.9987 L2176.46 72.576 L2168.96 72.576 L2168.96 32.9987 L2161.83 32.9987 L2161.83 27.2059 L2168.96 27.2059 L2168.96 24.0462 Q2168.96 16.471 2172.49 13.0277 Q2176.01 9.54393 2183.67 9.54393 L2190.72 9.54393 Z" fill="#000000" fill-rule="nonzero" fill-opacity="1" /><path clip-path="url(#clip600)" d="M2196.96 27.2059 L2204.41 27.2059 L2204.41 72.576 L2196.96 72.576 L2196.96 27.2059 M2196.96 9.54393 L2204.41 9.54393 L2204.41 18.9825 L2196.96 18.9825 L2196.96 9.54393 Z" fill="#000000" fill-rule="nonzero" fill-opacity="1" /><path clip-path="url(#clip600)" d="M2252.66 28.9478 L2252.66 35.9153 Q2249.5 34.1734 2246.3 33.3227 Q2243.14 32.4315 2239.89 32.4315 Q2232.64 32.4315 2228.63 37.0496 Q2224.62 41.6271 2224.62 49.9314 Q2224.62 58.2358 2228.63 62.8538 Q2232.64 67.4314 2239.89 67.4314 Q2243.14 67.4314 2246.3 66.5807 Q2249.5 65.6895 2252.66 63.9476 L2252.66 70.8341 Q2249.54 72.2924 2246.17 73.0216 Q2242.85 73.7508 2239.08 73.7508 Q2228.84 73.7508 2222.8 67.3098 Q2216.76 60.8689 2216.76 49.9314 Q2216.76 38.832 2222.84 32.472 Q2228.96 26.1121 2239.57 26.1121 Q2243.01 26.1121 2246.3 26.8413 Q2249.58 27.5299 2252.66 28.9478 Z" fill="#000000" fill-rule="nonzero" fill-opacity="1" /><path clip-path="url(#clip600)" d="M2265.62 27.2059 L2273.07 27.2059 L2273.07 72.576 L2265.62 72.576 L2265.62 27.2059 M2265.62 9.54393 L2273.07 9.54393 L2273.07 18.9825 L2265.62 18.9825 L2265.62 9.54393 Z" fill="#000000" fill-rule="nonzero" fill-opacity="1" /><path clip-path="url(#clip600)" d="M2327.48 48.0275 L2327.48 51.6733 L2293.2 51.6733 Q2293.69 59.3701 2297.82 63.421 Q2302 67.4314 2309.41 67.4314 Q2313.7 67.4314 2317.71 66.3781 Q2321.76 65.3249 2325.73 63.2184 L2325.73 70.267 Q2321.72 71.9684 2317.51 72.8596 Q2313.3 73.7508 2308.96 73.7508 Q2298.11 73.7508 2291.75 67.4314 Q2285.43 61.1119 2285.43 50.3365 Q2285.43 39.1965 2291.42 32.6746 Q2297.46 26.1121 2307.67 26.1121 Q2316.82 26.1121 2322.13 32.0264 Q2327.48 37.9003 2327.48 48.0275 M2320.02 45.84 Q2319.94 39.7232 2316.58 36.0774 Q2313.26 32.4315 2307.75 32.4315 Q2301.51 32.4315 2297.74 35.9558 Q2294.01 39.4801 2293.45 45.8805 L2320.02 45.84 Z" fill="#000000" fill-rule="nonzero" fill-opacity="1" /><path clip-path="url(#clip600)" d="M2377.42 45.1919 L2377.42 72.576 L2369.97 72.576 L2369.97 45.4349 Q2369.97 38.994 2367.46 35.7938 Q2364.95 32.5936 2359.92 32.5936 Q2353.89 32.5936 2350.4 36.4419 Q2346.92 40.2903 2346.92 46.9338 L2346.92 72.576 L2339.43 72.576 L2339.43 27.2059 L2346.92 27.2059 L2346.92 34.2544 Q2349.59 30.163 2353.2 28.1376 Q2356.84 26.1121 2361.58 26.1121 Q2369.4 26.1121 2373.41 30.9732 Q2377.42 35.7938 2377.42 45.1919 Z" fill="#000000" fill-rule="nonzero" fill-opacity="1" /><path clip-path="url(#clip600)" d="M2399.66 14.324 L2399.66 27.2059 L2415.02 27.2059 L2415.02 32.9987 L2399.66 32.9987 L2399.66 57.6282 Q2399.66 63.1779 2401.16 64.7578 Q2402.7 66.3376 2407.36 66.3376 L2415.02 66.3376 L2415.02 72.576 L2407.36 72.576 Q2398.73 72.576 2395.45 69.3758 Q2392.17 66.1351 2392.17 57.6282 L2392.17 32.9987 L2386.7 32.9987 L2386.7 27.2059 L2392.17 27.2059 L2392.17 14.324 L2399.66 14.324 Z" fill="#000000" fill-rule="nonzero" fill-opacity="1" /><path clip-path="url(#clip600)" d="M2463.63 48.0275 L2463.63 51.6733 L2429.36 51.6733 Q2429.84 59.3701 2433.97 63.421 Q2438.15 67.4314 2445.56 67.4314 Q2449.85 67.4314 2453.86 66.3781 Q2457.91 65.3249 2461.88 63.2184 L2461.88 70.267 Q2457.87 71.9684 2453.66 72.8596 Q2449.45 73.7508 2445.11 73.7508 Q2434.26 73.7508 2427.9 67.4314 Q2421.58 61.1119 2421.58 50.3365 Q2421.58 39.1965 2427.57 32.6746 Q2433.61 26.1121 2443.82 26.1121 Q2452.97 26.1121 2458.28 32.0264 Q2463.63 37.9003 2463.63 48.0275 M2456.17 45.84 Q2456.09 39.7232 2452.73 36.0774 Q2449.41 32.4315 2443.9 32.4315 Q2437.66 32.4315 2433.89 35.9558 Q2430.17 39.4801 2429.6 45.8805 L2456.17 45.84 Z" fill="#000000" fill-rule="nonzero" fill-opacity="1" /><path clip-path="url(#clip602)" d="M389.348 1428.44 L389.348 1443.7 L552.009 1443.7 L552.009 1428.44 L389.348 1428.44 L389.348 1428.44  Z" fill="#009af9" fill-rule="evenodd" fill-opacity="0.7"/>
<polyline clip-path="url(#clip602)" style="stroke:#000000; stroke-linecap:round; stroke-linejoin:round; stroke-width:4; stroke-opacity:0.7; fill:none" points="389.348,1428.44 389.348,1443.7 552.009,1443.7 552.009,1428.44 389.348,1428.44 "/>
<path clip-path="url(#clip602)" d="M552.009 1436.07 L552.009 1443.7 L714.669 1443.7 L714.669 1436.07 L552.009 1436.07 L552.009 1436.07  Z" fill="#009af9" fill-rule="evenodd" fill-opacity="0.7"/>
<polyline clip-path="url(#clip602)" style="stroke:#000000; stroke-linecap:round; stroke-linejoin:round; stroke-width:4; stroke-opacity:0.7; fill:none" points="552.009,1436.07 552.009,1443.7 714.669,1443.7 714.669,1436.07 552.009,1436.07 "/>
<path clip-path="url(#clip602)" d="M714.669 1382.66 L714.669 1443.7 L877.33 1443.7 L877.33 1382.66 L714.669 1382.66 L714.669 1382.66  Z" fill="#009af9" fill-rule="evenodd" fill-opacity="0.7"/>
<polyline clip-path="url(#clip602)" style="stroke:#000000; stroke-linecap:round; stroke-linejoin:round; stroke-width:4; stroke-opacity:0.7; fill:none" points="714.669,1382.66 714.669,1443.7 877.33,1443.7 877.33,1382.66 714.669,1382.66 "/>
<path clip-path="url(#clip602)" d="M877.33 1336.87 L877.33 1443.7 L1039.99 1443.7 L1039.99 1336.87 L877.33 1336.87 L877.33 1336.87  Z" fill="#009af9" fill-rule="evenodd" fill-opacity="0.7"/>
<polyline clip-path="url(#clip602)" style="stroke:#000000; stroke-linecap:round; stroke-linejoin:round; stroke-width:4; stroke-opacity:0.7; fill:none" points="877.33,1336.87 877.33,1443.7 1039.99,1443.7 1039.99,1336.87 877.33,1336.87 "/>
<path clip-path="url(#clip602)" d="M1039.99 1138.48 L1039.99 1443.7 L1202.65 1443.7 L1202.65 1138.48 L1039.99 1138.48 L1039.99 1138.48  Z" fill="#009af9" fill-rule="evenodd" fill-opacity="0.7"/>
<polyline clip-path="url(#clip602)" style="stroke:#000000; stroke-linecap:round; stroke-linejoin:round; stroke-width:4; stroke-opacity:0.7; fill:none" points="1039.99,1138.48 1039.99,1443.7 1202.65,1443.7 1202.65,1138.48 1039.99,1138.48 "/>
<path clip-path="url(#clip602)" d="M1202.65 871.408 L1202.65 1443.7 L1365.31 1443.7 L1365.31 871.408 L1202.65 871.408 L1202.65 871.408  Z" fill="#009af9" fill-rule="evenodd" fill-opacity="0.7"/>
<polyline clip-path="url(#clip602)" style="stroke:#000000; stroke-linecap:round; stroke-linejoin:round; stroke-width:4; stroke-opacity:0.7; fill:none" points="1202.65,871.408 1202.65,1443.7 1365.31,1443.7 1365.31,871.408 1202.65,871.408 "/>
<path clip-path="url(#clip602)" d="M1365.31 451.727 L1365.31 1443.7 L1527.97 1443.7 L1527.97 451.727 L1365.31 451.727 L1365.31 451.727  Z" fill="#009af9" fill-rule="evenodd" fill-opacity="0.7"/>
<polyline clip-path="url(#clip602)" style="stroke:#000000; stroke-linecap:round; stroke-linejoin:round; stroke-width:4; stroke-opacity:0.7; fill:none" points="1365.31,451.727 1365.31,1443.7 1527.97,1443.7 1527.97,451.727 1365.31,451.727 "/>
<path clip-path="url(#clip602)" d="M1527.97 238.072 L1527.97 1443.7 L1690.63 1443.7 L1690.63 238.072 L1527.97 238.072 L1527.97 238.072  Z" fill="#009af9" fill-rule="evenodd" fill-opacity="0.7"/>
<polyline clip-path="url(#clip602)" style="stroke:#000000; stroke-linecap:round; stroke-linejoin:round; stroke-width:4; stroke-opacity:0.7; fill:none" points="1527.97,238.072 1527.97,1443.7 1690.63,1443.7 1690.63,238.072 1527.97,238.072 "/>
<path clip-path="url(#clip602)" d="M1690.63 108.352 L1690.63 1443.7 L1853.29 1443.7 L1853.29 108.352 L1690.63 108.352 L1690.63 108.352  Z" fill="#009af9" fill-rule="evenodd" fill-opacity="0.7"/>
<polyline clip-path="url(#clip602)" style="stroke:#000000; stroke-linecap:round; stroke-linejoin:round; stroke-width:4; stroke-opacity:0.7; fill:none" points="1690.63,108.352 1690.63,1443.7 1853.29,1443.7 1853.29,108.352 1690.63,108.352 "/>
<path clip-path="url(#clip602)" d="M1853.29 329.638 L1853.29 1443.7 L2015.95 1443.7 L2015.95 329.638 L1853.29 329.638 L1853.29 329.638  Z" fill="#009af9" fill-rule="evenodd" fill-opacity="0.7"/>
<polyline clip-path="url(#clip602)" style="stroke:#000000; stroke-linecap:round; stroke-linejoin:round; stroke-width:4; stroke-opacity:0.7; fill:none" points="1853.29,329.638 1853.29,1443.7 2015.95,1443.7 2015.95,329.638 1853.29,329.638 "/>
<path clip-path="url(#clip602)" d="M2015.95 680.644 L2015.95 1443.7 L2178.61 1443.7 L2178.61 680.644 L2015.95 680.644 L2015.95 680.644  Z" fill="#009af9" fill-rule="evenodd" fill-opacity="0.7"/>
<polyline clip-path="url(#clip602)" style="stroke:#000000; stroke-linecap:round; stroke-linejoin:round; stroke-width:4; stroke-opacity:0.7; fill:none" points="2015.95,680.644 2015.95,1443.7 2178.61,1443.7 2178.61,680.644 2015.95,680.644 "/>
<path clip-path="url(#clip602)" d="M2178.61 856.147 L2178.61 1443.7 L2341.27 1443.7 L2341.27 856.147 L2178.61 856.147 L2178.61 856.147  Z" fill="#009af9" fill-rule="evenodd" fill-opacity="0.7"/>
<polyline clip-path="url(#clip602)" style="stroke:#000000; stroke-linecap:round; stroke-linejoin:round; stroke-width:4; stroke-opacity:0.7; fill:none" points="2178.61,856.147 2178.61,1443.7 2341.27,1443.7 2341.27,856.147 2178.61,856.147 "/>
<path clip-path="url(#clip602)" d="M2341.27 1107.96 L2341.27 1443.7 L2503.94 1443.7 L2503.94 1107.96 L2341.27 1107.96 L2341.27 1107.96  Z" fill="#009af9" fill-rule="evenodd" fill-opacity="0.7"/>
<polyline clip-path="url(#clip602)" style="stroke:#000000; stroke-linecap:round; stroke-linejoin:round; stroke-width:4; stroke-opacity:0.7; fill:none" points="2341.27,1107.96 2341.27,1443.7 2503.94,1443.7 2503.94,1107.96 2341.27,1107.96 "/>
<path clip-path="url(#clip602)" d="M2503.94 1275.83 L2503.94 1443.7 L2666.6 1443.7 L2666.6 1275.83 L2503.94 1275.83 L2503.94 1275.83  Z" fill="#009af9" fill-rule="evenodd" fill-opacity="0.7"/>
<polyline clip-path="url(#clip602)" style="stroke:#000000; stroke-linecap:round; stroke-linejoin:round; stroke-width:4; stroke-opacity:0.7; fill:none" points="2503.94,1275.83 2503.94,1443.7 2666.6,1443.7 2666.6,1275.83 2503.94,1275.83 "/>
<path clip-path="url(#clip602)" d="M2666.6 1413.18 L2666.6 1443.7 L2829.26 1443.7 L2829.26 1413.18 L2666.6 1413.18 L2666.6 1413.18  Z" fill="#009af9" fill-rule="evenodd" fill-opacity="0.7"/>
<polyline clip-path="url(#clip602)" style="stroke:#000000; stroke-linecap:round; stroke-linejoin:round; stroke-width:4; stroke-opacity:0.7; fill:none" points="2666.6,1413.18 2666.6,1443.7 2829.26,1443.7 2829.26,1413.18 2666.6,1413.18 "/>
<path clip-path="url(#clip602)" d="M2829.26 1413.18 L2829.26 1443.7 L2991.92 1443.7 L2991.92 1413.18 L2829.26 1413.18 L2829.26 1413.18  Z" fill="#009af9" fill-rule="evenodd" fill-opacity="0.7"/>
<polyline clip-path="url(#clip602)" style="stroke:#000000; stroke-linecap:round; stroke-linejoin:round; stroke-width:4; stroke-opacity:0.7; fill:none" points="2829.26,1413.18 2829.26,1443.7 2991.92,1443.7 2991.92,1413.18 2829.26,1413.18 "/>
<circle clip-path="url(#clip602)" style="fill:#009af9; stroke:none; fill-opacity:0" cx="470.678" cy="1428.44" r="2"/>
<circle clip-path="url(#clip602)" style="fill:#009af9; stroke:none; fill-opacity:0" cx="633.339" cy="1436.07" r="2"/>
<circle clip-path="url(#clip602)" style="fill:#009af9; stroke:none; fill-opacity:0" cx="796" cy="1382.66" r="2"/>
<circle clip-path="url(#clip602)" style="fill:#009af9; stroke:none; fill-opacity:0" cx="958.66" cy="1336.87" r="2"/>
<circle clip-path="url(#clip602)" style="fill:#009af9; stroke:none; fill-opacity:0" cx="1121.32" cy="1138.48" r="2"/>
<circle clip-path="url(#clip602)" style="fill:#009af9; stroke:none; fill-opacity:0" cx="1283.98" cy="871.408" r="2"/>
<circle clip-path="url(#clip602)" style="fill:#009af9; stroke:none; fill-opacity:0" cx="1446.64" cy="451.727" r="2"/>
<circle clip-path="url(#clip602)" style="fill:#009af9; stroke:none; fill-opacity:0" cx="1609.3" cy="238.072" r="2"/>
<circle clip-path="url(#clip602)" style="fill:#009af9; stroke:none; fill-opacity:0" cx="1771.96" cy="108.352" r="2"/>
<circle clip-path="url(#clip602)" style="fill:#009af9; stroke:none; fill-opacity:0" cx="1934.62" cy="329.638" r="2"/>
<circle clip-path="url(#clip602)" style="fill:#009af9; stroke:none; fill-opacity:0" cx="2097.28" cy="680.644" r="2"/>
<circle clip-path="url(#clip602)" style="fill:#009af9; stroke:none; fill-opacity:0" cx="2259.94" cy="856.147" r="2"/>
<circle clip-path="url(#clip602)" style="fill:#009af9; stroke:none; fill-opacity:0" cx="2422.61" cy="1107.96" r="2"/>
<circle clip-path="url(#clip602)" style="fill:#009af9; stroke:none; fill-opacity:0" cx="2585.27" cy="1275.83" r="2"/>
<circle clip-path="url(#clip602)" style="fill:#009af9; stroke:none; fill-opacity:0" cx="2747.93" cy="1413.18" r="2"/>
<circle clip-path="url(#clip602)" style="fill:#009af9; stroke:none; fill-opacity:0" cx="2910.59" cy="1413.18" r="2"/>
<polyline clip-path="url(#clip602)" style="stroke:#ff0000; stroke-linecap:round; stroke-linejoin:round; stroke-width:8; stroke-opacity:1; fill:none" stroke-dasharray="32, 20" points="1048.4,2779.05 1048.4,-1227 "/>
<polyline clip-path="url(#clip602)" style="stroke:#ff0000; stroke-linecap:round; stroke-linejoin:round; stroke-width:8; stroke-opacity:1; fill:none" stroke-dasharray="32, 20" points="2553.73,2779.05 2553.73,-1227 "/>
<polyline clip-path="url(#clip602)" style="stroke:#0000ff; stroke-linecap:round; stroke-linejoin:round; stroke-width:8; stroke-opacity:1; fill:none" points="1768.34,2779.05 1768.34,-1227 "/>
</svg>
