<?xml version="1.0" encoding="utf-8"?>
<svg xmlns="http://www.w3.org/2000/svg" xmlns:xlink="http://www.w3.org/1999/xlink" width="800" height="400" viewBox="0 0 3200 1600">
<defs>
  <clipPath id="clip960">
    <rect x="0" y="0" width="3200" height="1600"/>
  </clipPath>
</defs>
<path clip-path="url(#clip960)" d="M0 1600 L3200 1600 L3200 0 L0 0  Z" fill="#ffffff" fill-rule="evenodd" fill-opacity="1"/>
<defs>
  <clipPath id="clip961">
    <rect x="640" y="0" width="2241" height="1600"/>
  </clipPath>
</defs>
<path clip-path="url(#clip960)" d="M201.241 1443.7 L3152.76 1443.7 L3152.76 108.352 L201.241 108.352  Z" fill="#ffffff" fill-rule="evenodd" fill-opacity="1"/>
<defs>
  <clipPath id="clip962">
    <rect x="201" y="108" width="2953" height="1336"/>
  </clipPath>
</defs>
<polyline clip-path="url(#clip962)" style="stroke:#000000; stroke-linecap:round; stroke-linejoin:round; stroke-width:2; stroke-opacity:0.1; fill:none" points="565.644,1443.7 565.644,108.352 "/>
<polyline clip-path="url(#clip962)" style="stroke:#000000; stroke-linecap:round; stroke-linejoin:round; stroke-width:2; stroke-opacity:0.1; fill:none" points="969.773,1443.7 969.773,108.352 "/>
<polyline clip-path="url(#clip962)" style="stroke:#000000; stroke-linecap:round; stroke-linejoin:round; stroke-width:2; stroke-opacity:0.1; fill:none" points="1373.9,1443.7 1373.9,108.352 "/>
<polyline clip-path="url(#clip962)" style="stroke:#000000; stroke-linecap:round; stroke-linejoin:round; stroke-width:2; stroke-opacity:0.1; fill:none" points="1778.03,1443.7 1778.03,108.352 "/>
<polyline clip-path="url(#clip962)" style="stroke:#000000; stroke-linecap:round; stroke-linejoin:round; stroke-width:2; stroke-opacity:0.1; fill:none" points="2182.16,1443.7 2182.16,108.352 "/>
<polyline clip-path="url(#clip962)" style="stroke:#000000; stroke-linecap:round; stroke-linejoin:round; stroke-width:2; stroke-opacity:0.1; fill:none" points="2586.29,1443.7 2586.29,108.352 "/>
<polyline clip-path="url(#clip962)" style="stroke:#000000; stroke-linecap:round; stroke-linejoin:round; stroke-width:2; stroke-opacity:0.1; fill:none" points="2990.42,1443.7 2990.42,108.352 "/>
<polyline clip-path="url(#clip962)" style="stroke:#000000; stroke-linecap:round; stroke-linejoin:round; stroke-width:2; stroke-opacity:0.1; fill:none" points="201.241,1443.7 3152.76,1443.7 "/>
<polyline clip-path="url(#clip962)" style="stroke:#000000; stroke-linecap:round; stroke-linejoin:round; stroke-width:2; stroke-opacity:0.1; fill:none" points="201.241,1125.76 3152.76,1125.76 "/>
<polyline clip-path="url(#clip962)" style="stroke:#000000; stroke-linecap:round; stroke-linejoin:round; stroke-width:2; stroke-opacity:0.1; fill:none" points="201.241,807.82 3152.76,807.82 "/>
<polyline clip-path="url(#clip962)" style="stroke:#000000; stroke-linecap:round; stroke-linejoin:round; stroke-width:2; stroke-opacity:0.1; fill:none" points="201.241,489.88 3152.76,489.88 "/>
<polyline clip-path="url(#clip962)" style="stroke:#000000; stroke-linecap:round; stroke-linejoin:round; stroke-width:2; stroke-opacity:0.1; fill:none" points="201.241,171.94 3152.76,171.94 "/>
<polyline clip-path="url(#clip960)" style="stroke:#000000; stroke-linecap:round; stroke-linejoin:round; stroke-width:4; stroke-opacity:1; fill:none" points="201.241,1443.7 3152.76,1443.7 "/>
<polyline clip-path="url(#clip960)" style="stroke:#000000; stroke-linecap:round; stroke-linejoin:round; stroke-width:4; stroke-opacity:1; fill:none" points="565.644,1443.7 565.644,1424.8 "/>
<polyline clip-path="url(#clip960)" style="stroke:#000000; stroke-linecap:round; stroke-linejoin:round; stroke-width:4; stroke-opacity:1; fill:none" points="969.773,1443.7 969.773,1424.8 "/>
<polyline clip-path="url(#clip960)" style="stroke:#000000; stroke-linecap:round; stroke-linejoin:round; stroke-width:4; stroke-opacity:1; fill:none" points="1373.9,1443.7 1373.9,1424.8 "/>
<polyline clip-path="url(#clip960)" style="stroke:#000000; stroke-linecap:round; stroke-linejoin:round; stroke-width:4; stroke-opacity:1; fill:none" points="1778.03,1443.7 1778.03,1424.8 "/>
<polyline clip-path="url(#clip960)" style="stroke:#000000; stroke-linecap:round; stroke-linejoin:round; stroke-width:4; stroke-opacity:1; fill:none" points="2182.16,1443.7 2182.16,1424.8 "/>
<polyline clip-path="url(#clip960)" style="stroke:#000000; stroke-linecap:round; stroke-linejoin:round; stroke-width:4; stroke-opacity:1; fill:none" points="2586.29,1443.7 2586.29,1424.8 "/>
<polyline clip-path="url(#clip960)" style="stroke:#000000; stroke-linecap:round; stroke-linejoin:round; stroke-width:4; stroke-opacity:1; fill:none" points="2990.42,1443.7 2990.42,1424.8 "/>
<path clip-path="url(#clip960)" d="M528.746 1481.02 Q525.135 1481.02 523.306 1484.58 Q521.501 1488.12 521.501 1495.25 Q521.501 1502.36 523.306 1505.93 Q525.135 1509.47 528.746 1509.47 Q532.38 1509.47 534.186 1505.93 Q536.015 1502.36 536.015 1495.25 Q536.015 1488.12 534.186 1484.58 Q532.38 1481.02 528.746 1481.02 M528.746 1477.31 Q534.556 1477.31 537.612 1481.92 Q540.69 1486.5 540.69 1495.25 Q540.69 1503.98 537.612 1508.59 Q534.556 1513.17 528.746 1513.17 Q522.936 1513.17 519.857 1508.59 Q516.802 1503.98 516.802 1495.25 Q516.802 1486.5 519.857 1481.92 Q522.936 1477.31 528.746 1477.31 Z" fill="#000000" fill-rule="nonzero" fill-opacity="1" /><path clip-path="url(#clip960)" d="M548.908 1506.62 L553.792 1506.62 L553.792 1512.5 L548.908 1512.5 L548.908 1506.62 Z" fill="#000000" fill-rule="nonzero" fill-opacity="1" /><path clip-path="url(#clip960)" d="M573.977 1496.09 Q570.644 1496.09 568.723 1497.87 Q566.825 1499.65 566.825 1502.78 Q566.825 1505.9 568.723 1507.69 Q570.644 1509.47 573.977 1509.47 Q577.311 1509.47 579.232 1507.69 Q581.153 1505.88 581.153 1502.78 Q581.153 1499.65 579.232 1497.87 Q577.334 1496.09 573.977 1496.09 M569.301 1494.1 Q566.292 1493.36 564.602 1491.3 Q562.936 1489.24 562.936 1486.27 Q562.936 1482.13 565.875 1479.72 Q568.838 1477.31 573.977 1477.31 Q579.139 1477.31 582.079 1479.72 Q585.019 1482.13 585.019 1486.27 Q585.019 1489.24 583.329 1491.3 Q581.662 1493.36 578.676 1494.1 Q582.056 1494.88 583.931 1497.18 Q585.829 1499.47 585.829 1502.78 Q585.829 1507.8 582.75 1510.49 Q579.695 1513.17 573.977 1513.17 Q568.26 1513.17 565.181 1510.49 Q562.125 1507.8 562.125 1502.78 Q562.125 1499.47 564.024 1497.18 Q565.922 1494.88 569.301 1494.1 M567.588 1486.71 Q567.588 1489.4 569.255 1490.9 Q570.945 1492.41 573.977 1492.41 Q576.987 1492.41 578.676 1490.9 Q580.389 1489.4 580.389 1486.71 Q580.389 1484.03 578.676 1482.52 Q576.987 1481.02 573.977 1481.02 Q570.945 1481.02 569.255 1482.52 Q567.588 1484.03 567.588 1486.71 Z" fill="#000000" fill-rule="nonzero" fill-opacity="1" /><path clip-path="url(#clip960)" d="M598.167 1508.56 L614.486 1508.56 L614.486 1512.5 L592.542 1512.5 L592.542 1508.56 Q595.204 1505.81 599.787 1501.18 Q604.394 1496.53 605.574 1495.19 Q607.82 1492.66 608.699 1490.93 Q609.602 1489.17 609.602 1487.48 Q609.602 1484.72 607.658 1482.99 Q605.736 1481.25 602.635 1481.25 Q600.435 1481.25 597.982 1482.01 Q595.551 1482.78 592.773 1484.33 L592.773 1479.61 Q595.598 1478.47 598.051 1477.89 Q600.505 1477.31 602.542 1477.31 Q607.912 1477.31 611.107 1480 Q614.301 1482.69 614.301 1487.18 Q614.301 1489.31 613.491 1491.23 Q612.704 1493.12 610.597 1495.72 Q610.019 1496.39 606.917 1499.61 Q603.815 1502.8 598.167 1508.56 Z" fill="#000000" fill-rule="nonzero" fill-opacity="1" /><path clip-path="url(#clip960)" d="M932.4 1481.02 Q928.789 1481.02 926.961 1484.58 Q925.155 1488.12 925.155 1495.25 Q925.155 1502.36 926.961 1505.93 Q928.789 1509.47 932.4 1509.47 Q936.035 1509.47 937.84 1505.93 Q939.669 1502.36 939.669 1495.25 Q939.669 1488.12 937.84 1484.58 Q936.035 1481.02 932.4 1481.02 M932.4 1477.31 Q938.211 1477.31 941.266 1481.92 Q944.345 1486.5 944.345 1495.25 Q944.345 1503.98 941.266 1508.59 Q938.211 1513.17 932.4 1513.17 Q926.59 1513.17 923.512 1508.59 Q920.456 1503.98 920.456 1495.25 Q920.456 1486.5 923.512 1481.92 Q926.59 1477.31 932.4 1477.31 Z" fill="#000000" fill-rule="nonzero" fill-opacity="1" /><path clip-path="url(#clip960)" d="M952.562 1506.62 L957.447 1506.62 L957.447 1512.5 L952.562 1512.5 L952.562 1506.62 Z" fill="#000000" fill-rule="nonzero" fill-opacity="1" /><path clip-path="url(#clip960)" d="M977.632 1496.09 Q974.298 1496.09 972.377 1497.87 Q970.479 1499.65 970.479 1502.78 Q970.479 1505.9 972.377 1507.69 Q974.298 1509.47 977.632 1509.47 Q980.965 1509.47 982.886 1507.69 Q984.808 1505.88 984.808 1502.78 Q984.808 1499.65 982.886 1497.87 Q980.988 1496.09 977.632 1496.09 M972.956 1494.1 Q969.946 1493.36 968.257 1491.3 Q966.59 1489.24 966.59 1486.27 Q966.59 1482.13 969.53 1479.72 Q972.493 1477.31 977.632 1477.31 Q982.794 1477.31 985.733 1479.72 Q988.673 1482.13 988.673 1486.27 Q988.673 1489.24 986.983 1491.3 Q985.317 1493.36 982.331 1494.1 Q985.71 1494.88 987.585 1497.18 Q989.483 1499.47 989.483 1502.78 Q989.483 1507.8 986.405 1510.49 Q983.349 1513.17 977.632 1513.17 Q971.914 1513.17 968.835 1510.49 Q965.78 1507.8 965.78 1502.78 Q965.78 1499.47 967.678 1497.18 Q969.576 1494.88 972.956 1494.1 M971.243 1486.71 Q971.243 1489.4 972.909 1490.9 Q974.599 1492.41 977.632 1492.41 Q980.641 1492.41 982.331 1490.9 Q984.044 1489.4 984.044 1486.71 Q984.044 1484.03 982.331 1482.52 Q980.641 1481.02 977.632 1481.02 Q974.599 1481.02 972.909 1482.52 Q971.243 1484.03 971.243 1486.71 Z" fill="#000000" fill-rule="nonzero" fill-opacity="1" /><path clip-path="url(#clip960)" d="M1011.96 1493.87 Q1015.32 1494.58 1017.19 1496.85 Q1019.09 1499.12 1019.09 1502.45 Q1019.09 1507.57 1015.57 1510.37 Q1012.05 1513.17 1005.57 1513.17 Q1003.4 1513.17 1001.08 1512.73 Q998.789 1512.31 996.335 1511.46 L996.335 1506.94 Q998.28 1508.08 1000.59 1508.66 Q1002.91 1509.24 1005.43 1509.24 Q1009.83 1509.24 1012.12 1507.5 Q1014.44 1505.76 1014.44 1502.45 Q1014.44 1499.4 1012.28 1497.69 Q1010.15 1495.95 1006.34 1495.95 L1002.31 1495.95 L1002.31 1492.11 L1006.52 1492.11 Q1009.97 1492.11 1011.8 1490.74 Q1013.63 1489.35 1013.63 1486.76 Q1013.63 1484.1 1011.73 1482.69 Q1009.85 1481.25 1006.34 1481.25 Q1004.41 1481.25 1002.21 1481.67 Q1000.02 1482.08 997.377 1482.96 L997.377 1478.8 Q1000.04 1478.06 1002.35 1477.69 Q1004.69 1477.31 1006.75 1477.31 Q1012.08 1477.31 1015.18 1479.75 Q1018.28 1482.15 1018.28 1486.27 Q1018.28 1489.14 1016.64 1491.13 Q1014.99 1493.1 1011.96 1493.87 Z" fill="#000000" fill-rule="nonzero" fill-opacity="1" /><path clip-path="url(#clip960)" d="M1335.96 1481.02 Q1332.35 1481.02 1330.52 1484.58 Q1328.72 1488.12 1328.72 1495.25 Q1328.72 1502.36 1330.52 1505.93 Q1332.35 1509.47 1335.96 1509.47 Q1339.6 1509.47 1341.4 1505.93 Q1343.23 1502.36 1343.23 1495.25 Q1343.23 1488.12 1341.4 1484.58 Q1339.6 1481.02 1335.96 1481.02 M1335.96 1477.31 Q1341.77 1477.31 1344.83 1481.92 Q1347.91 1486.5 1347.91 1495.25 Q1347.91 1503.98 1344.83 1508.59 Q1341.77 1513.17 1335.96 1513.17 Q1330.15 1513.17 1327.07 1508.59 Q1324.02 1503.98 1324.02 1495.25 Q1324.02 1486.5 1327.07 1481.92 Q1330.15 1477.31 1335.96 1477.31 Z" fill="#000000" fill-rule="nonzero" fill-opacity="1" /><path clip-path="url(#clip960)" d="M1356.12 1506.62 L1361.01 1506.62 L1361.01 1512.5 L1356.12 1512.5 L1356.12 1506.62 Z" fill="#000000" fill-rule="nonzero" fill-opacity="1" /><path clip-path="url(#clip960)" d="M1381.19 1496.09 Q1377.86 1496.09 1375.94 1497.87 Q1374.04 1499.65 1374.04 1502.78 Q1374.04 1505.9 1375.94 1507.69 Q1377.86 1509.47 1381.19 1509.47 Q1384.53 1509.47 1386.45 1507.69 Q1388.37 1505.88 1388.37 1502.78 Q1388.37 1499.65 1386.45 1497.87 Q1384.55 1496.09 1381.19 1496.09 M1376.52 1494.1 Q1373.51 1493.36 1371.82 1491.3 Q1370.15 1489.24 1370.15 1486.27 Q1370.15 1482.13 1373.09 1479.72 Q1376.05 1477.31 1381.19 1477.31 Q1386.36 1477.31 1389.3 1479.72 Q1392.24 1482.13 1392.24 1486.27 Q1392.24 1489.24 1390.55 1491.3 Q1388.88 1493.36 1385.89 1494.1 Q1389.27 1494.88 1391.15 1497.18 Q1393.05 1499.47 1393.05 1502.78 Q1393.05 1507.8 1389.97 1510.49 Q1386.91 1513.17 1381.19 1513.17 Q1375.48 1513.17 1372.4 1510.49 Q1369.34 1507.8 1369.34 1502.78 Q1369.34 1499.47 1371.24 1497.18 Q1373.14 1494.88 1376.52 1494.1 M1374.8 1486.71 Q1374.8 1489.4 1376.47 1490.9 Q1378.16 1492.41 1381.19 1492.41 Q1384.2 1492.41 1385.89 1490.9 Q1387.61 1489.4 1387.61 1486.71 Q1387.61 1484.03 1385.89 1482.52 Q1384.2 1481.02 1381.19 1481.02 Q1378.16 1481.02 1376.47 1482.52 Q1374.8 1484.03 1374.8 1486.71 Z" fill="#000000" fill-rule="nonzero" fill-opacity="1" /><path clip-path="url(#clip960)" d="M1414.2 1482.01 L1402.4 1500.46 L1414.2 1500.46 L1414.2 1482.01 M1412.98 1477.94 L1418.86 1477.94 L1418.86 1500.46 L1423.79 1500.46 L1423.79 1504.35 L1418.86 1504.35 L1418.86 1512.5 L1414.2 1512.5 L1414.2 1504.35 L1398.6 1504.35 L1398.6 1499.84 L1412.98 1477.94 Z" fill="#000000" fill-rule="nonzero" fill-opacity="1" /><path clip-path="url(#clip960)" d="M1740.83 1481.02 Q1737.22 1481.02 1735.39 1484.58 Q1733.59 1488.12 1733.59 1495.25 Q1733.59 1502.36 1735.39 1505.93 Q1737.22 1509.47 1740.83 1509.47 Q1744.47 1509.47 1746.27 1505.93 Q1748.1 1502.36 1748.1 1495.25 Q1748.1 1488.12 1746.27 1484.58 Q1744.47 1481.02 1740.83 1481.02 M1740.83 1477.31 Q1746.64 1477.31 1749.7 1481.92 Q1752.78 1486.5 1752.78 1495.25 Q1752.78 1503.98 1749.7 1508.59 Q1746.64 1513.17 1740.83 1513.17 Q1735.02 1513.17 1731.94 1508.59 Q1728.89 1503.98 1728.89 1495.25 Q1728.89 1486.5 1731.94 1481.92 Q1735.02 1477.31 1740.83 1477.31 Z" fill="#000000" fill-rule="nonzero" fill-opacity="1" /><path clip-path="url(#clip960)" d="M1760.99 1506.62 L1765.88 1506.62 L1765.88 1512.5 L1760.99 1512.5 L1760.99 1506.62 Z" fill="#000000" fill-rule="nonzero" fill-opacity="1" /><path clip-path="url(#clip960)" d="M1786.06 1496.09 Q1782.73 1496.09 1780.81 1497.87 Q1778.91 1499.65 1778.91 1502.78 Q1778.91 1505.9 1780.81 1507.69 Q1782.73 1509.47 1786.06 1509.47 Q1789.4 1509.47 1791.32 1507.69 Q1793.24 1505.88 1793.24 1502.78 Q1793.24 1499.65 1791.32 1497.87 Q1789.42 1496.09 1786.06 1496.09 M1781.39 1494.1 Q1778.38 1493.36 1776.69 1491.3 Q1775.02 1489.24 1775.02 1486.27 Q1775.02 1482.13 1777.96 1479.72 Q1780.92 1477.31 1786.06 1477.31 Q1791.23 1477.31 1794.16 1479.72 Q1797.1 1482.13 1797.1 1486.27 Q1797.1 1489.24 1795.41 1491.3 Q1793.75 1493.36 1790.76 1494.1 Q1794.14 1494.88 1796.02 1497.18 Q1797.91 1499.47 1797.91 1502.78 Q1797.91 1507.8 1794.84 1510.49 Q1791.78 1513.17 1786.06 1513.17 Q1780.35 1513.17 1777.27 1510.49 Q1774.21 1507.8 1774.21 1502.78 Q1774.21 1499.47 1776.11 1497.18 Q1778.01 1494.88 1781.39 1494.1 M1779.67 1486.71 Q1779.67 1489.4 1781.34 1490.9 Q1783.03 1492.41 1786.06 1492.41 Q1789.07 1492.41 1790.76 1490.9 Q1792.48 1489.4 1792.48 1486.71 Q1792.48 1484.03 1790.76 1482.52 Q1789.07 1481.02 1786.06 1481.02 Q1783.03 1481.02 1781.34 1482.52 Q1779.67 1484.03 1779.67 1486.71 Z" fill="#000000" fill-rule="nonzero" fill-opacity="1" /><path clip-path="url(#clip960)" d="M1806.27 1477.94 L1824.63 1477.94 L1824.63 1481.88 L1810.55 1481.88 L1810.55 1490.35 Q1811.57 1490 1812.59 1489.84 Q1813.61 1489.65 1814.63 1489.65 Q1820.41 1489.65 1823.79 1492.82 Q1827.17 1496 1827.17 1501.41 Q1827.17 1506.99 1823.7 1510.09 Q1820.23 1513.17 1813.91 1513.17 Q1811.73 1513.17 1809.47 1512.8 Q1807.22 1512.43 1804.81 1511.69 L1804.81 1506.99 Q1806.9 1508.12 1809.12 1508.68 Q1811.34 1509.24 1813.82 1509.24 Q1817.82 1509.24 1820.16 1507.13 Q1822.5 1505.02 1822.5 1501.41 Q1822.5 1497.8 1820.16 1495.69 Q1817.82 1493.59 1813.82 1493.59 Q1811.94 1493.59 1810.07 1494 Q1808.22 1494.42 1806.27 1495.3 L1806.27 1477.94 Z" fill="#000000" fill-rule="nonzero" fill-opacity="1" /><path clip-path="url(#clip960)" d="M2144.38 1481.02 Q2140.77 1481.02 2138.94 1484.58 Q2137.14 1488.12 2137.14 1495.25 Q2137.14 1502.36 2138.94 1505.93 Q2140.77 1509.47 2144.38 1509.47 Q2148.02 1509.47 2149.82 1505.93 Q2151.65 1502.36 2151.65 1495.25 Q2151.65 1488.12 2149.82 1484.58 Q2148.02 1481.02 2144.38 1481.02 M2144.38 1477.31 Q2150.19 1477.31 2153.25 1481.92 Q2156.33 1486.5 2156.33 1495.25 Q2156.33 1503.98 2153.25 1508.59 Q2150.19 1513.17 2144.38 1513.17 Q2138.57 1513.17 2135.49 1508.59 Q2132.44 1503.98 2132.44 1495.25 Q2132.44 1486.5 2135.49 1481.92 Q2138.57 1477.31 2144.38 1477.31 Z" fill="#000000" fill-rule="nonzero" fill-opacity="1" /><path clip-path="url(#clip960)" d="M2164.54 1506.62 L2169.43 1506.62 L2169.43 1512.5 L2164.54 1512.5 L2164.54 1506.62 Z" fill="#000000" fill-rule="nonzero" fill-opacity="1" /><path clip-path="url(#clip960)" d="M2189.61 1496.09 Q2186.28 1496.09 2184.36 1497.87 Q2182.46 1499.65 2182.46 1502.78 Q2182.46 1505.9 2184.36 1507.69 Q2186.28 1509.47 2189.61 1509.47 Q2192.95 1509.47 2194.87 1507.69 Q2196.79 1505.88 2196.79 1502.78 Q2196.79 1499.65 2194.87 1497.87 Q2192.97 1496.09 2189.61 1496.09 M2184.94 1494.1 Q2181.93 1493.36 2180.24 1491.3 Q2178.57 1489.24 2178.57 1486.27 Q2178.57 1482.13 2181.51 1479.72 Q2184.47 1477.31 2189.61 1477.31 Q2194.78 1477.31 2197.72 1479.72 Q2200.65 1482.13 2200.65 1486.27 Q2200.65 1489.24 2198.97 1491.3 Q2197.3 1493.36 2194.31 1494.1 Q2197.69 1494.88 2199.57 1497.18 Q2201.47 1499.47 2201.47 1502.78 Q2201.47 1507.8 2198.39 1510.49 Q2195.33 1513.17 2189.61 1513.17 Q2183.9 1513.17 2180.82 1510.49 Q2177.76 1507.8 2177.76 1502.78 Q2177.76 1499.47 2179.66 1497.18 Q2181.56 1494.88 2184.94 1494.1 M2183.22 1486.71 Q2183.22 1489.4 2184.89 1490.9 Q2186.58 1492.41 2189.61 1492.41 Q2192.62 1492.41 2194.31 1490.9 Q2196.03 1489.4 2196.03 1486.71 Q2196.03 1484.03 2194.31 1482.52 Q2192.62 1481.02 2189.61 1481.02 Q2186.58 1481.02 2184.89 1482.52 Q2183.22 1484.03 2183.22 1486.71 Z" fill="#000000" fill-rule="nonzero" fill-opacity="1" /><path clip-path="url(#clip960)" d="M2220.35 1493.36 Q2217.21 1493.36 2215.35 1495.51 Q2213.53 1497.66 2213.53 1501.41 Q2213.53 1505.14 2215.35 1507.31 Q2217.21 1509.47 2220.35 1509.47 Q2223.5 1509.47 2225.33 1507.31 Q2227.18 1505.14 2227.18 1501.41 Q2227.18 1497.66 2225.33 1495.51 Q2223.5 1493.36 2220.35 1493.36 M2229.64 1478.7 L2229.64 1482.96 Q2227.88 1482.13 2226.07 1481.69 Q2224.29 1481.25 2222.53 1481.25 Q2217.9 1481.25 2215.45 1484.37 Q2213.02 1487.5 2212.67 1493.82 Q2214.03 1491.81 2216.09 1490.74 Q2218.15 1489.65 2220.63 1489.65 Q2225.84 1489.65 2228.85 1492.82 Q2231.88 1495.97 2231.88 1501.41 Q2231.88 1506.74 2228.73 1509.95 Q2225.59 1513.17 2220.35 1513.17 Q2214.36 1513.17 2211.19 1508.59 Q2208.02 1503.98 2208.02 1495.25 Q2208.02 1487.06 2211.9 1482.2 Q2215.79 1477.31 2222.34 1477.31 Q2224.1 1477.31 2225.89 1477.66 Q2227.69 1478.01 2229.64 1478.7 Z" fill="#000000" fill-rule="nonzero" fill-opacity="1" /><path clip-path="url(#clip960)" d="M2549.04 1481.02 Q2545.43 1481.02 2543.6 1484.58 Q2541.8 1488.12 2541.8 1495.25 Q2541.8 1502.36 2543.6 1505.93 Q2545.43 1509.47 2549.04 1509.47 Q2552.68 1509.47 2554.48 1505.93 Q2556.31 1502.36 2556.31 1495.25 Q2556.31 1488.12 2554.48 1484.58 Q2552.68 1481.02 2549.04 1481.02 M2549.04 1477.31 Q2554.85 1477.31 2557.91 1481.92 Q2560.99 1486.5 2560.99 1495.25 Q2560.99 1503.98 2557.91 1508.59 Q2554.85 1513.17 2549.04 1513.17 Q2543.23 1513.17 2540.15 1508.59 Q2537.1 1503.98 2537.1 1495.25 Q2537.1 1486.5 2540.15 1481.92 Q2543.23 1477.31 2549.04 1477.31 Z" fill="#000000" fill-rule="nonzero" fill-opacity="1" /><path clip-path="url(#clip960)" d="M2569.21 1506.62 L2574.09 1506.62 L2574.09 1512.5 L2569.21 1512.5 L2569.21 1506.62 Z" fill="#000000" fill-rule="nonzero" fill-opacity="1" /><path clip-path="url(#clip960)" d="M2594.27 1496.09 Q2590.94 1496.09 2589.02 1497.87 Q2587.12 1499.65 2587.12 1502.78 Q2587.12 1505.9 2589.02 1507.69 Q2590.94 1509.47 2594.27 1509.47 Q2597.61 1509.47 2599.53 1507.69 Q2601.45 1505.88 2601.45 1502.78 Q2601.45 1499.65 2599.53 1497.87 Q2597.63 1496.09 2594.27 1496.09 M2589.6 1494.1 Q2586.59 1493.36 2584.9 1491.3 Q2583.23 1489.24 2583.23 1486.27 Q2583.23 1482.13 2586.17 1479.72 Q2589.14 1477.31 2594.27 1477.31 Q2599.44 1477.31 2602.38 1479.72 Q2605.32 1482.13 2605.32 1486.27 Q2605.32 1489.24 2603.63 1491.3 Q2601.96 1493.36 2598.97 1494.1 Q2602.35 1494.88 2604.23 1497.18 Q2606.13 1499.47 2606.13 1502.78 Q2606.13 1507.8 2603.05 1510.49 Q2599.99 1513.17 2594.27 1513.17 Q2588.56 1513.17 2585.48 1510.49 Q2582.42 1507.8 2582.42 1502.78 Q2582.42 1499.47 2584.32 1497.18 Q2586.22 1494.88 2589.6 1494.1 M2587.89 1486.71 Q2587.89 1489.4 2589.55 1490.9 Q2591.24 1492.41 2594.27 1492.41 Q2597.28 1492.41 2598.97 1490.9 Q2600.69 1489.4 2600.69 1486.71 Q2600.69 1484.03 2598.97 1482.52 Q2597.28 1481.02 2594.27 1481.02 Q2591.24 1481.02 2589.55 1482.52 Q2587.89 1484.03 2587.89 1486.71 Z" fill="#000000" fill-rule="nonzero" fill-opacity="1" /><path clip-path="url(#clip960)" d="M2613.26 1477.94 L2635.48 1477.94 L2635.48 1479.93 L2622.93 1512.5 L2618.05 1512.5 L2629.85 1481.88 L2613.26 1481.88 L2613.26 1477.94 Z" fill="#000000" fill-rule="nonzero" fill-opacity="1" /><path clip-path="url(#clip960)" d="M2952.77 1481.02 Q2949.16 1481.02 2947.33 1484.58 Q2945.52 1488.12 2945.52 1495.25 Q2945.52 1502.36 2947.33 1505.93 Q2949.16 1509.47 2952.77 1509.47 Q2956.4 1509.47 2958.21 1505.93 Q2960.04 1502.36 2960.04 1495.25 Q2960.04 1488.12 2958.21 1484.58 Q2956.4 1481.02 2952.77 1481.02 M2952.77 1477.31 Q2958.58 1477.31 2961.63 1481.92 Q2964.71 1486.5 2964.71 1495.25 Q2964.71 1503.98 2961.63 1508.59 Q2958.58 1513.17 2952.77 1513.17 Q2946.96 1513.17 2943.88 1508.59 Q2940.82 1503.98 2940.82 1495.25 Q2940.82 1486.5 2943.88 1481.92 Q2946.96 1477.31 2952.77 1477.31 Z" fill="#000000" fill-rule="nonzero" fill-opacity="1" /><path clip-path="url(#clip960)" d="M2972.93 1506.62 L2977.81 1506.62 L2977.81 1512.5 L2972.93 1512.5 L2972.93 1506.62 Z" fill="#000000" fill-rule="nonzero" fill-opacity="1" /><path clip-path="url(#clip960)" d="M2998 1496.09 Q2994.66 1496.09 2992.74 1497.87 Q2990.85 1499.65 2990.85 1502.78 Q2990.85 1505.9 2992.74 1507.69 Q2994.66 1509.47 2998 1509.47 Q3001.33 1509.47 3003.25 1507.69 Q3005.17 1505.88 3005.17 1502.78 Q3005.17 1499.65 3003.25 1497.87 Q3001.35 1496.09 2998 1496.09 M2993.32 1494.1 Q2990.31 1493.36 2988.62 1491.3 Q2986.96 1489.24 2986.96 1486.27 Q2986.96 1482.13 2989.9 1479.72 Q2992.86 1477.31 2998 1477.31 Q3003.16 1477.31 3006.1 1479.72 Q3009.04 1482.13 3009.04 1486.27 Q3009.04 1489.24 3007.35 1491.3 Q3005.68 1493.36 3002.7 1494.1 Q3006.08 1494.88 3007.95 1497.18 Q3009.85 1499.47 3009.85 1502.78 Q3009.85 1507.8 3006.77 1510.49 Q3003.72 1513.17 2998 1513.17 Q2992.28 1513.17 2989.2 1510.49 Q2986.15 1507.8 2986.15 1502.78 Q2986.15 1499.47 2988.04 1497.18 Q2989.94 1494.88 2993.32 1494.1 M2991.61 1486.71 Q2991.61 1489.4 2993.28 1490.9 Q2994.97 1492.41 2998 1492.41 Q3001.01 1492.41 3002.7 1490.9 Q3004.41 1489.4 3004.41 1486.71 Q3004.41 1484.03 3002.7 1482.52 Q3001.01 1481.02 2998 1481.02 Q2994.97 1481.02 2993.28 1482.52 Q2991.61 1484.03 2991.61 1486.71 Z" fill="#000000" fill-rule="nonzero" fill-opacity="1" /><path clip-path="url(#clip960)" d="M3028.16 1496.09 Q3024.83 1496.09 3022.91 1497.87 Q3021.01 1499.65 3021.01 1502.78 Q3021.01 1505.9 3022.91 1507.69 Q3024.83 1509.47 3028.16 1509.47 Q3031.49 1509.47 3033.41 1507.69 Q3035.34 1505.88 3035.34 1502.78 Q3035.34 1499.65 3033.41 1497.87 Q3031.52 1496.09 3028.16 1496.09 M3023.48 1494.1 Q3020.48 1493.36 3018.79 1491.3 Q3017.12 1489.24 3017.12 1486.27 Q3017.12 1482.13 3020.06 1479.72 Q3023.02 1477.31 3028.16 1477.31 Q3033.32 1477.31 3036.26 1479.72 Q3039.2 1482.13 3039.2 1486.27 Q3039.2 1489.24 3037.51 1491.3 Q3035.85 1493.36 3032.86 1494.1 Q3036.24 1494.88 3038.11 1497.18 Q3040.01 1499.47 3040.01 1502.78 Q3040.01 1507.8 3036.93 1510.49 Q3033.88 1513.17 3028.16 1513.17 Q3022.44 1513.17 3019.36 1510.49 Q3016.31 1507.8 3016.31 1502.78 Q3016.31 1499.47 3018.21 1497.18 Q3020.1 1494.88 3023.48 1494.1 M3021.77 1486.71 Q3021.77 1489.4 3023.44 1490.9 Q3025.13 1492.41 3028.16 1492.41 Q3031.17 1492.41 3032.86 1490.9 Q3034.57 1489.4 3034.57 1486.71 Q3034.57 1484.03 3032.86 1482.52 Q3031.17 1481.02 3028.16 1481.02 Q3025.13 1481.02 3023.44 1482.52 Q3021.77 1484.03 3021.77 1486.71 Z" fill="#000000" fill-rule="nonzero" fill-opacity="1" /><path clip-path="url(#clip960)" d="M1551.2 1559.38 L1542.48 1583.03 L1559.95 1583.03 L1551.2 1559.38 M1547.57 1553.04 L1554.86 1553.04 L1572.97 1600.56 L1566.28 1600.56 L1561.95 1588.37 L1540.53 1588.37 L1536.2 1600.56 L1529.43 1600.56 L1547.57 1553.04 Z" fill="#000000" fill-rule="nonzero" fill-opacity="1" /><path clip-path="url(#clip960)" d="M1604.16 1566.28 L1604.16 1571.76 Q1601.68 1570.39 1599.16 1569.72 Q1596.68 1569.02 1594.13 1569.02 Q1588.44 1569.02 1585.28 1572.65 Q1582.13 1576.25 1582.13 1582.77 Q1582.13 1589.3 1585.28 1592.92 Q1588.44 1596.52 1594.13 1596.52 Q1596.68 1596.52 1599.16 1595.85 Q1601.68 1595.15 1604.16 1593.78 L1604.16 1599.2 Q1601.71 1600.34 1599.07 1600.91 Q1596.46 1601.49 1593.5 1601.49 Q1585.44 1601.49 1580.7 1596.43 Q1575.96 1591.37 1575.96 1582.77 Q1575.96 1574.05 1580.73 1569.05 Q1585.54 1564.06 1593.88 1564.06 Q1596.58 1564.06 1599.16 1564.63 Q1601.74 1565.17 1604.16 1566.28 Z" fill="#000000" fill-rule="nonzero" fill-opacity="1" /><path clip-path="url(#clip960)" d="M1640 1566.28 L1640 1571.76 Q1637.52 1570.39 1635 1569.72 Q1632.52 1569.02 1629.97 1569.02 Q1624.27 1569.02 1621.12 1572.65 Q1617.97 1576.25 1617.97 1582.77 Q1617.97 1589.3 1621.12 1592.92 Q1624.27 1596.52 1629.97 1596.52 Q1632.52 1596.52 1635 1595.85 Q1637.52 1595.15 1640 1593.78 L1640 1599.2 Q1637.55 1600.34 1634.91 1600.91 Q1632.3 1601.49 1629.34 1601.49 Q1621.28 1601.49 1616.54 1596.43 Q1611.8 1591.37 1611.8 1582.77 Q1611.8 1574.05 1616.57 1569.05 Q1621.38 1564.06 1629.72 1564.06 Q1632.42 1564.06 1635 1564.63 Q1637.58 1565.17 1640 1566.28 Z" fill="#000000" fill-rule="nonzero" fill-opacity="1" /><path clip-path="url(#clip960)" d="M1649.58 1586.5 L1649.58 1564.92 L1655.43 1564.92 L1655.43 1586.27 Q1655.43 1591.33 1657.41 1593.88 Q1659.38 1596.39 1663.33 1596.39 Q1668.07 1596.39 1670.81 1593.37 Q1673.58 1590.35 1673.58 1585.13 L1673.58 1564.92 L1679.43 1564.92 L1679.43 1600.56 L1673.58 1600.56 L1673.58 1595.09 Q1671.44 1598.34 1668.61 1599.93 Q1665.81 1601.49 1662.09 1601.49 Q1655.94 1601.49 1652.76 1597.67 Q1649.58 1593.85 1649.58 1586.5 M1664.31 1564.06 L1664.31 1564.06 Z" fill="#000000" fill-rule="nonzero" fill-opacity="1" /><path clip-path="url(#clip960)" d="M1712.15 1570.39 Q1711.17 1569.82 1709.99 1569.56 Q1708.84 1569.28 1707.44 1569.28 Q1702.48 1569.28 1699.8 1572.52 Q1697.16 1575.74 1697.16 1581.79 L1697.16 1600.56 L1691.27 1600.56 L1691.27 1564.92 L1697.16 1564.92 L1697.16 1570.45 Q1699.01 1567.21 1701.97 1565.65 Q1704.93 1564.06 1709.16 1564.06 Q1709.77 1564.06 1710.5 1564.15 Q1711.23 1564.22 1712.12 1564.37 L1712.15 1570.39 Z" fill="#000000" fill-rule="nonzero" fill-opacity="1" /><path clip-path="url(#clip960)" d="M1734.5 1582.64 Q1727.4 1582.64 1724.66 1584.27 Q1721.92 1585.89 1721.92 1589.81 Q1721.92 1592.92 1723.96 1594.77 Q1726.03 1596.59 1729.56 1596.59 Q1734.43 1596.59 1737.36 1593.15 Q1740.32 1589.68 1740.32 1583.95 L1740.32 1582.64 L1734.5 1582.64 M1746.18 1580.23 L1746.18 1600.56 L1740.32 1600.56 L1740.32 1595.15 Q1738.32 1598.4 1735.32 1599.96 Q1732.33 1601.49 1728 1601.49 Q1722.53 1601.49 1719.28 1598.43 Q1716.07 1595.34 1716.07 1590.19 Q1716.07 1584.17 1720.08 1581.12 Q1724.12 1578.06 1732.11 1578.06 L1740.32 1578.06 L1740.32 1577.49 Q1740.32 1573.45 1737.65 1571.25 Q1735.01 1569.02 1730.2 1569.02 Q1727.14 1569.02 1724.25 1569.75 Q1721.35 1570.49 1718.68 1571.95 L1718.68 1566.54 Q1721.89 1565.3 1724.92 1564.69 Q1727.94 1564.06 1730.8 1564.06 Q1738.54 1564.06 1742.36 1568.07 Q1746.18 1572.08 1746.18 1580.23 Z" fill="#000000" fill-rule="nonzero" fill-opacity="1" /><path clip-path="url(#clip960)" d="M1783.89 1566.28 L1783.89 1571.76 Q1781.41 1570.39 1778.9 1569.72 Q1776.41 1569.02 1773.87 1569.02 Q1768.17 1569.02 1765.02 1572.65 Q1761.87 1576.25 1761.87 1582.77 Q1761.87 1589.3 1765.02 1592.92 Q1768.17 1596.52 1773.87 1596.52 Q1776.41 1596.52 1778.9 1595.85 Q1781.41 1595.15 1783.89 1593.78 L1783.89 1599.2 Q1781.44 1600.34 1778.8 1600.91 Q1776.19 1601.49 1773.23 1601.49 Q1765.18 1601.49 1760.44 1596.43 Q1755.69 1591.37 1755.69 1582.77 Q1755.69 1574.05 1760.47 1569.05 Q1765.27 1564.06 1773.61 1564.06 Q1776.32 1564.06 1778.9 1564.63 Q1781.48 1565.17 1783.89 1566.28 Z" fill="#000000" fill-rule="nonzero" fill-opacity="1" /><path clip-path="url(#clip960)" d="M1808.91 1603.87 Q1806.43 1610.24 1804.07 1612.18 Q1801.72 1614.12 1797.77 1614.12 L1793.09 1614.12 L1793.09 1609.22 L1796.53 1609.22 Q1798.95 1609.22 1800.29 1608.08 Q1801.62 1606.93 1803.25 1602.66 L1804.3 1599.99 L1789.88 1564.92 L1796.08 1564.92 L1807.22 1592.8 L1818.36 1564.92 L1824.57 1564.92 L1808.91 1603.87 Z" fill="#000000" fill-rule="nonzero" fill-opacity="1" /><polyline clip-path="url(#clip960)" style="stroke:#000000; stroke-linecap:round; stroke-linejoin:round; stroke-width:4; stroke-opacity:1; fill:none" points="201.241,1443.7 201.241,108.352 "/>
<polyline clip-path="url(#clip960)" style="stroke:#000000; stroke-linecap:round; stroke-linejoin:round; stroke-width:4; stroke-opacity:1; fill:none" points="201.241,1443.7 220.139,1443.7 "/>
<polyline clip-path="url(#clip960)" style="stroke:#000000; stroke-linecap:round; stroke-linejoin:round; stroke-width:4; stroke-opacity:1; fill:none" points="201.241,1125.76 220.139,1125.76 "/>
<polyline clip-path="url(#clip960)" style="stroke:#000000; stroke-linecap:round; stroke-linejoin:round; stroke-width:4; stroke-opacity:1; fill:none" points="201.241,807.82 220.139,807.82 "/>
<polyline clip-path="url(#clip960)" style="stroke:#000000; stroke-linecap:round; stroke-linejoin:round; stroke-width:4; stroke-opacity:1; fill:none" points="201.241,489.88 220.139,489.88 "/>
<polyline clip-path="url(#clip960)" style="stroke:#000000; stroke-linecap:round; stroke-linejoin:round; stroke-width:4; stroke-opacity:1; fill:none" points="201.241,171.94 220.139,171.94 "/>
<path clip-path="url(#clip960)" d="M141.297 1429.5 Q137.686 1429.5 135.857 1433.06 Q134.051 1436.6 134.051 1443.73 Q134.051 1450.84 135.857 1454.41 Q137.686 1457.95 141.297 1457.95 Q144.931 1457.95 146.736 1454.41 Q148.565 1450.84 148.565 1443.73 Q148.565 1436.6 146.736 1433.06 Q144.931 1429.5 141.297 1429.5 M141.297 1425.79 Q147.107 1425.79 150.162 1430.4 Q153.241 1434.98 153.241 1443.73 Q153.241 1452.46 150.162 1457.07 Q147.107 1461.65 141.297 1461.65 Q135.486 1461.65 132.408 1457.07 Q129.352 1452.46 129.352 1443.73 Q129.352 1434.98 132.408 1430.4 Q135.486 1425.79 141.297 1425.79 Z" fill="#000000" fill-rule="nonzero" fill-opacity="1" /><path clip-path="url(#clip960)" d="M101.945 1139.1 L109.584 1139.1 L109.584 1112.74 L101.274 1114.41 L101.274 1110.15 L109.538 1108.48 L114.213 1108.48 L114.213 1139.1 L121.852 1139.1 L121.852 1143.04 L101.945 1143.04 L101.945 1139.1 Z" fill="#000000" fill-rule="nonzero" fill-opacity="1" /><path clip-path="url(#clip960)" d="M141.297 1111.56 Q137.686 1111.56 135.857 1115.12 Q134.051 1118.67 134.051 1125.79 Q134.051 1132.9 135.857 1136.47 Q137.686 1140.01 141.297 1140.01 Q144.931 1140.01 146.736 1136.47 Q148.565 1132.9 148.565 1125.79 Q148.565 1118.67 146.736 1115.12 Q144.931 1111.56 141.297 1111.56 M141.297 1107.85 Q147.107 1107.85 150.162 1112.46 Q153.241 1117.04 153.241 1125.79 Q153.241 1134.52 150.162 1139.13 Q147.107 1143.71 141.297 1143.71 Q135.486 1143.71 132.408 1139.13 Q129.352 1134.52 129.352 1125.79 Q129.352 1117.04 132.408 1112.46 Q135.486 1107.85 141.297 1107.85 Z" fill="#000000" fill-rule="nonzero" fill-opacity="1" /><path clip-path="url(#clip960)" d="M105.163 821.165 L121.482 821.165 L121.482 825.1 L99.5376 825.1 L99.5376 821.165 Q102.2 818.41 106.783 813.781 Q111.389 809.128 112.57 807.785 Q114.815 805.262 115.695 803.526 Q116.598 801.767 116.598 800.077 Q116.598 797.322 114.653 795.586 Q112.732 793.85 109.63 793.85 Q107.431 793.85 104.977 794.614 Q102.547 795.378 99.769 796.929 L99.769 792.207 Q102.593 791.072 105.047 790.494 Q107.5 789.915 109.538 789.915 Q114.908 789.915 118.102 792.6 Q121.297 795.285 121.297 799.776 Q121.297 801.906 120.487 803.827 Q119.699 805.725 117.593 808.318 Q117.014 808.989 113.912 812.207 Q110.811 815.401 105.163 821.165 Z" fill="#000000" fill-rule="nonzero" fill-opacity="1" /><path clip-path="url(#clip960)" d="M141.297 793.619 Q137.686 793.619 135.857 797.183 Q134.051 800.725 134.051 807.855 Q134.051 814.961 135.857 818.526 Q137.686 822.068 141.297 822.068 Q144.931 822.068 146.736 818.526 Q148.565 814.961 148.565 807.855 Q148.565 800.725 146.736 797.183 Q144.931 793.619 141.297 793.619 M141.297 789.915 Q147.107 789.915 150.162 794.521 Q153.241 799.105 153.241 807.855 Q153.241 816.582 150.162 821.188 Q147.107 825.771 141.297 825.771 Q135.486 825.771 132.408 821.188 Q129.352 816.582 129.352 807.855 Q129.352 799.105 132.408 794.521 Q135.486 789.915 141.297 789.915 Z" fill="#000000" fill-rule="nonzero" fill-opacity="1" /><path clip-path="url(#clip960)" d="M115.301 488.526 Q118.658 489.243 120.533 491.512 Q122.431 493.78 122.431 497.114 Q122.431 502.23 118.912 505.03 Q115.394 507.831 108.913 507.831 Q106.737 507.831 104.422 507.392 Q102.13 506.975 99.6764 506.118 L99.6764 501.605 Q101.621 502.739 103.936 503.317 Q106.25 503.896 108.774 503.896 Q113.172 503.896 115.463 502.16 Q117.778 500.424 117.778 497.114 Q117.778 494.058 115.625 492.345 Q113.496 490.609 109.676 490.609 L105.649 490.609 L105.649 486.767 L109.862 486.767 Q113.311 486.767 115.139 485.401 Q116.968 484.012 116.968 481.419 Q116.968 478.757 115.07 477.345 Q113.195 475.91 109.676 475.91 Q107.755 475.91 105.556 476.327 Q103.357 476.744 100.718 477.623 L100.718 473.457 Q103.38 472.716 105.695 472.345 Q108.033 471.975 110.093 471.975 Q115.417 471.975 118.519 474.406 Q121.621 476.813 121.621 480.933 Q121.621 483.804 119.977 485.794 Q118.334 487.762 115.301 488.526 Z" fill="#000000" fill-rule="nonzero" fill-opacity="1" /><path clip-path="url(#clip960)" d="M141.297 475.679 Q137.686 475.679 135.857 479.244 Q134.051 482.785 134.051 489.915 Q134.051 497.021 135.857 500.586 Q137.686 504.128 141.297 504.128 Q144.931 504.128 146.736 500.586 Q148.565 497.021 148.565 489.915 Q148.565 482.785 146.736 479.244 Q144.931 475.679 141.297 475.679 M141.297 471.975 Q147.107 471.975 150.162 476.582 Q153.241 481.165 153.241 489.915 Q153.241 498.642 150.162 503.248 Q147.107 507.831 141.297 507.831 Q135.486 507.831 132.408 503.248 Q129.352 498.642 129.352 489.915 Q129.352 481.165 132.408 476.582 Q135.486 471.975 141.297 471.975 Z" fill="#000000" fill-rule="nonzero" fill-opacity="1" /><path clip-path="url(#clip960)" d="M113.982 158.734 L102.176 177.183 L113.982 177.183 L113.982 158.734 M112.755 154.66 L118.635 154.66 L118.635 177.183 L123.565 177.183 L123.565 181.072 L118.635 181.072 L118.635 189.22 L113.982 189.22 L113.982 181.072 L98.3802 181.072 L98.3802 176.558 L112.755 154.66 Z" fill="#000000" fill-rule="nonzero" fill-opacity="1" /><path clip-path="url(#clip960)" d="M141.297 157.739 Q137.686 157.739 135.857 161.304 Q134.051 164.845 134.051 171.975 Q134.051 179.081 135.857 182.646 Q137.686 186.188 141.297 186.188 Q144.931 186.188 146.736 182.646 Q148.565 179.081 148.565 171.975 Q148.565 164.845 146.736 161.304 Q144.931 157.739 141.297 157.739 M141.297 154.035 Q147.107 154.035 150.162 158.642 Q153.241 163.225 153.241 171.975 Q153.241 180.702 150.162 185.308 Q147.107 189.891 141.297 189.891 Q135.486 189.891 132.408 185.308 Q129.352 180.702 129.352 171.975 Q129.352 163.225 132.408 158.642 Q135.486 154.035 141.297 154.035 Z" fill="#000000" fill-rule="nonzero" fill-opacity="1" /><path clip-path="url(#clip960)" d="M-11.3958 945.211 L-11.3958 917.902 L-5.98499 917.902 L-5.98499 938.781 L8.01956 938.781 L8.01956 919.939 L13.4304 919.939 L13.4304 938.781 L36.1242 938.781 L36.1242 945.211 L-11.3958 945.211 Z" fill="#000000" fill-rule="nonzero" fill-opacity="1" /><path clip-path="url(#clip960)" d="M5.95071 892.057 Q5.37779 893.044 5.12317 894.221 Q4.83671 895.367 4.83671 896.768 Q4.83671 901.733 8.08322 904.406 Q11.2979 907.048 17.3453 907.048 L36.1242 907.048 L36.1242 912.936 L0.4762 912.936 L0.4762 907.048 L6.01437 907.048 Q2.76785 905.202 1.20826 902.242 Q-0.38317 899.282 -0.38317 895.049 Q-0.38317 894.444 -0.287684 893.712 Q-0.224027 892.98 -0.0648847 892.089 L5.95071 892.057 Z" fill="#000000" fill-rule="nonzero" fill-opacity="1" /><path clip-path="url(#clip960)" d="M16.8361 856.855 L19.7006 856.855 L19.7006 883.781 Q25.7481 883.4 28.9309 880.153 Q32.0819 876.875 32.0819 871.05 Q32.0819 867.676 31.2544 864.525 Q30.4269 861.342 28.7718 858.223 L34.3099 858.223 Q35.6467 861.374 36.347 864.684 Q37.0472 867.995 37.0472 871.4 Q37.0472 879.93 32.0819 884.927 Q27.1167 889.893 18.6503 889.893 Q9.89745 889.893 4.77305 885.182 Q-0.38317 880.439 -0.38317 872.419 Q-0.38317 865.225 4.2638 861.056 Q8.87893 856.855 16.8361 856.855 M15.1173 862.711 Q10.3112 862.775 7.44665 865.416 Q4.58208 868.026 4.58208 872.355 Q4.58208 877.257 7.35116 880.217 Q10.1202 883.145 15.1492 883.591 L15.1173 862.711 Z" fill="#000000" fill-rule="nonzero" fill-opacity="1" /><path clip-path="url(#clip960)" d="M1.84483 821.589 L7.31933 821.589 Q5.95071 824.071 5.28231 826.586 Q4.58208 829.068 4.58208 831.615 Q4.58208 837.312 8.21053 840.463 Q11.8072 843.614 18.332 843.614 Q24.8569 843.614 28.4853 840.463 Q32.0819 837.312 32.0819 831.615 Q32.0819 829.068 31.4135 826.586 Q30.7133 824.071 29.3447 821.589 L34.7555 821.589 Q35.9014 824.039 36.4743 826.681 Q37.0472 829.291 37.0472 832.251 Q37.0472 840.304 31.9864 845.046 Q26.9257 849.789 18.332 849.789 Q9.61099 849.789 4.61391 845.014 Q-0.38317 840.208 -0.38317 831.869 Q-0.38317 829.164 0.189744 826.586 Q0.730829 824.007 1.84483 821.589 Z" fill="#000000" fill-rule="nonzero" fill-opacity="1" /><path clip-path="url(#clip960)" d="M22.0559 812.008 L0.4762 812.008 L0.4762 806.152 L21.8331 806.152 Q26.8939 806.152 29.4402 804.178 Q31.9546 802.205 31.9546 798.258 Q31.9546 793.516 28.9309 790.779 Q25.9072 788.009 20.6873 788.009 L0.4762 788.009 L0.4762 782.153 L36.1242 782.153 L36.1242 788.009 L30.6496 788.009 Q33.8962 790.142 35.4876 792.975 Q37.0472 795.776 37.0472 799.5 Q37.0472 805.642 33.2278 808.825 Q29.4083 812.008 22.0559 812.008 M-0.38317 797.272 L-0.38317 797.272 Z" fill="#000000" fill-rule="nonzero" fill-opacity="1" /><path clip-path="url(#clip960)" d="M16.8361 739.598 L19.7006 739.598 L19.7006 766.525 Q25.7481 766.143 28.9309 762.897 Q32.0819 759.618 32.0819 753.794 Q32.0819 750.42 31.2544 747.269 Q30.4269 744.086 28.7718 740.967 L34.3099 740.967 Q35.6467 744.118 36.347 747.428 Q37.0472 750.738 37.0472 754.144 Q37.0472 762.674 32.0819 767.671 Q27.1167 772.636 18.6503 772.636 Q9.89745 772.636 4.77305 767.926 Q-0.38317 763.183 -0.38317 755.162 Q-0.38317 747.969 4.2638 743.8 Q8.87893 739.598 16.8361 739.598 M15.1173 745.455 Q10.3112 745.518 7.44665 748.16 Q4.58208 750.77 4.58208 755.099 Q4.58208 760 7.35116 762.96 Q10.1202 765.889 15.1492 766.334 L15.1173 745.455 Z" fill="#000000" fill-rule="nonzero" fill-opacity="1" /><path clip-path="url(#clip960)" d="M14.6081 700.354 L36.1242 700.354 L36.1242 706.21 L14.799 706.21 Q9.7383 706.21 7.22385 708.183 Q4.7094 710.157 4.7094 714.104 Q4.7094 718.846 7.73311 721.583 Q10.7568 724.321 15.9767 724.321 L36.1242 724.321 L36.1242 730.209 L0.4762 730.209 L0.4762 724.321 L6.01437 724.321 Q2.79968 722.22 1.20826 719.387 Q-0.38317 716.523 -0.38317 712.799 Q-0.38317 706.656 3.43625 703.505 Q7.22385 700.354 14.6081 700.354 Z" fill="#000000" fill-rule="nonzero" fill-opacity="1" /><path clip-path="url(#clip960)" d="M1.84483 663.019 L7.31933 663.019 Q5.95071 665.501 5.28231 668.016 Q4.58208 670.498 4.58208 673.045 Q4.58208 678.742 8.21053 681.893 Q11.8072 685.044 18.332 685.044 Q24.8569 685.044 28.4853 681.893 Q32.0819 678.742 32.0819 673.045 Q32.0819 670.498 31.4135 668.016 Q30.7133 665.501 29.3447 663.019 L34.7555 663.019 Q35.9014 665.47 36.4743 668.111 Q37.0472 670.721 37.0472 673.681 Q37.0472 681.734 31.9864 686.476 Q26.9257 691.219 18.332 691.219 Q9.61099 691.219 4.61391 686.445 Q-0.38317 681.638 -0.38317 673.299 Q-0.38317 670.594 0.189744 668.016 Q0.730829 665.438 1.84483 663.019 Z" fill="#000000" fill-rule="nonzero" fill-opacity="1" /><path clip-path="url(#clip960)" d="M0.4762 652.834 L0.4762 646.977 L36.1242 646.977 L36.1242 652.834 L0.4762 652.834 M-13.401 652.834 L-13.401 646.977 L-5.98499 646.977 L-5.98499 652.834 L-13.401 652.834 Z" fill="#000000" fill-rule="nonzero" fill-opacity="1" /><path clip-path="url(#clip960)" d="M18.2047 618.522 Q18.2047 625.62 19.8279 628.358 Q21.4512 631.095 25.3661 631.095 Q28.4853 631.095 30.3314 629.058 Q32.1456 626.989 32.1456 623.456 Q32.1456 618.586 28.7081 615.658 Q25.2388 612.698 19.5097 612.698 L18.2047 612.698 L18.2047 618.522 M15.7857 606.841 L36.1242 606.841 L36.1242 612.698 L30.7133 612.698 Q33.9598 614.703 35.5194 617.695 Q37.0472 620.687 37.0472 625.016 Q37.0472 630.49 33.9916 633.737 Q30.9043 636.951 25.7481 636.951 Q19.7325 636.951 16.6769 632.941 Q13.6214 628.899 13.6214 620.91 L13.6214 612.698 L13.0485 612.698 Q9.00625 612.698 6.81008 615.371 Q4.58208 618.013 4.58208 622.819 Q4.58208 625.875 5.31414 628.771 Q6.04619 631.668 7.51031 634.341 L2.09946 634.341 Q0.858143 631.127 0.253401 628.103 Q-0.38317 625.079 -0.38317 622.215 Q-0.38317 614.48 3.62723 610.661 Q7.63762 606.841 15.7857 606.841 Z" fill="#000000" fill-rule="nonzero" fill-opacity="1" /><path clip-path="url(#clip960)" d="M947.471 18.8205 L947.471 65.8515 L957.355 65.8515 Q969.873 65.8515 975.665 60.1802 Q981.499 54.509 981.499 42.2752 Q981.499 30.1225 975.665 24.4918 Q969.873 18.8205 957.355 18.8205 L947.471 18.8205 M939.288 12.096 L956.1 12.096 Q973.68 12.096 981.904 19.4281 Q990.127 26.7198 990.127 42.2752 Q990.127 57.9117 981.863 65.2439 Q973.599 72.576 956.1 72.576 L939.288 72.576 L939.288 12.096 Z" fill="#000000" fill-rule="nonzero" fill-opacity="1" /><path clip-path="url(#clip960)" d="M1002.85 27.2059 L1010.3 27.2059 L1010.3 72.576 L1002.85 72.576 L1002.85 27.2059 M1002.85 9.54393 L1010.3 9.54393 L1010.3 18.9825 L1002.85 18.9825 L1002.85 9.54393 Z" fill="#000000" fill-rule="nonzero" fill-opacity="1" /><path clip-path="url(#clip960)" d="M1054.82 28.5427 L1054.82 35.5912 Q1051.66 33.9709 1048.26 33.1607 Q1044.85 32.3505 1041.21 32.3505 Q1035.66 32.3505 1032.86 34.0519 Q1030.11 35.7533 1030.11 39.156 Q1030.11 41.7486 1032.09 43.2475 Q1034.08 44.7058 1040.07 46.0426 L1042.63 46.6097 Q1050.57 48.3111 1053.89 51.4303 Q1057.25 54.509 1057.25 60.0587 Q1057.25 66.3781 1052.23 70.0644 Q1047.24 73.7508 1038.49 73.7508 Q1034.85 73.7508 1030.88 73.0216 Q1026.95 72.3329 1022.57 70.9151 L1022.57 63.2184 Q1026.71 65.3654 1030.72 66.4591 Q1034.73 67.5124 1038.66 67.5124 Q1043.92 67.5124 1046.76 65.73 Q1049.59 63.9071 1049.59 60.6258 Q1049.59 57.5877 1047.53 55.9673 Q1045.5 54.3469 1038.58 52.8481 L1035.98 52.2405 Q1029.06 50.7821 1025.98 47.7845 Q1022.9 44.7463 1022.9 39.4801 Q1022.9 33.0797 1027.44 29.5959 Q1031.97 26.1121 1040.32 26.1121 Q1044.45 26.1121 1048.1 26.7198 Q1051.74 27.3274 1054.82 28.5427 Z" fill="#000000" fill-rule="nonzero" fill-opacity="1" /><path clip-path="url(#clip960)" d="M1076.49 14.324 L1076.49 27.2059 L1091.85 27.2059 L1091.85 32.9987 L1076.49 32.9987 L1076.49 57.6282 Q1076.49 63.1779 1077.99 64.7578 Q1079.53 66.3376 1084.19 66.3376 L1091.85 66.3376 L1091.85 72.576 L1084.19 72.576 Q1075.56 72.576 1072.28 69.3758 Q1069 66.1351 1069 57.6282 L1069 32.9987 L1063.53 32.9987 L1063.53 27.2059 L1069 27.2059 L1069 14.324 L1076.49 14.324 Z" fill="#000000" fill-rule="nonzero" fill-opacity="1" /><path clip-path="url(#clip960)" d="M1127.94 34.1734 Q1126.68 33.4443 1125.18 33.1202 Q1123.73 32.7556 1121.94 32.7556 Q1115.62 32.7556 1112.22 36.8875 Q1108.86 40.9789 1108.86 48.6757 L1108.86 72.576 L1101.36 72.576 L1101.36 27.2059 L1108.86 27.2059 L1108.86 34.2544 Q1111.21 30.1225 1114.98 28.1376 Q1118.74 26.1121 1124.13 26.1121 Q1124.9 26.1121 1125.83 26.2337 Q1126.76 26.3147 1127.9 26.5172 L1127.94 34.1734 Z" fill="#000000" fill-rule="nonzero" fill-opacity="1" /><path clip-path="url(#clip960)" d="M1135.76 27.2059 L1143.21 27.2059 L1143.21 72.576 L1135.76 72.576 L1135.76 27.2059 M1135.76 9.54393 L1143.21 9.54393 L1143.21 18.9825 L1135.76 18.9825 L1135.76 9.54393 Z" fill="#000000" fill-rule="nonzero" fill-opacity="1" /><path clip-path="url(#clip960)" d="M1191.38 49.9314 Q1191.38 41.7081 1187.97 37.0496 Q1184.61 32.3505 1178.7 32.3505 Q1172.78 32.3505 1169.38 37.0496 Q1166.02 41.7081 1166.02 49.9314 Q1166.02 58.1548 1169.38 62.8538 Q1172.78 67.5124 1178.7 67.5124 Q1184.61 67.5124 1187.97 62.8538 Q1191.38 58.1548 1191.38 49.9314 M1166.02 34.0924 Q1168.37 30.0415 1171.93 28.0971 Q1175.54 26.1121 1180.52 26.1121 Q1188.78 26.1121 1193.93 32.6746 Q1199.11 39.2371 1199.11 49.9314 Q1199.11 60.6258 1193.93 67.1883 Q1188.78 73.7508 1180.52 73.7508 Q1175.54 73.7508 1171.93 71.8063 Q1168.37 69.8214 1166.02 65.7705 L1166.02 72.576 L1158.52 72.576 L1158.52 9.54393 L1166.02 9.54393 L1166.02 34.0924 Z" fill="#000000" fill-rule="nonzero" fill-opacity="1" /><path clip-path="url(#clip960)" d="M1210.7 54.671 L1210.7 27.2059 L1218.15 27.2059 L1218.15 54.3874 Q1218.15 60.8284 1220.66 64.0691 Q1223.18 67.2693 1228.2 67.2693 Q1234.23 67.2693 1237.72 63.421 Q1241.24 59.5726 1241.24 52.9291 L1241.24 27.2059 L1248.7 27.2059 L1248.7 72.576 L1241.24 72.576 L1241.24 65.6084 Q1238.53 69.7404 1234.92 71.7658 Q1231.36 73.7508 1226.62 73.7508 Q1218.8 73.7508 1214.75 68.8897 Q1210.7 64.0286 1210.7 54.671 M1229.45 26.1121 L1229.45 26.1121 Z" fill="#000000" fill-rule="nonzero" fill-opacity="1" /><path clip-path="url(#clip960)" d="M1296.7 28.9478 L1296.7 35.9153 Q1293.54 34.1734 1290.34 33.3227 Q1287.18 32.4315 1283.94 32.4315 Q1276.69 32.4315 1272.68 37.0496 Q1268.67 41.6271 1268.67 49.9314 Q1268.67 58.2358 1272.68 62.8538 Q1276.69 67.4314 1283.94 67.4314 Q1287.18 67.4314 1290.34 66.5807 Q1293.54 65.6895 1296.7 63.9476 L1296.7 70.8341 Q1293.58 72.2924 1290.22 73.0216 Q1286.9 73.7508 1283.13 73.7508 Q1272.88 73.7508 1266.84 67.3098 Q1260.81 60.8689 1260.81 49.9314 Q1260.81 38.832 1266.88 32.472 Q1273 26.1121 1283.62 26.1121 Q1287.06 26.1121 1290.34 26.8413 Q1293.62 27.5299 1296.7 28.9478 Z" fill="#000000" fill-rule="nonzero" fill-opacity="1" /><path clip-path="url(#clip960)" d="M1309.66 27.2059 L1317.12 27.2059 L1317.12 72.576 L1309.66 72.576 L1309.66 27.2059 M1309.66 9.54393 L1317.12 9.54393 L1317.12 18.9825 L1309.66 18.9825 L1309.66 9.54393 Z" fill="#000000" fill-rule="nonzero" fill-opacity="1" /><path clip-path="url(#clip960)" d="M1350.29 32.4315 Q1344.3 32.4315 1340.81 37.1306 Q1337.33 41.7891 1337.33 49.9314 Q1337.33 58.0738 1340.77 62.7728 Q1344.26 67.4314 1350.29 67.4314 Q1356.25 67.4314 1359.73 62.7323 Q1363.22 58.0333 1363.22 49.9314 Q1363.22 41.8701 1359.73 37.1711 Q1356.25 32.4315 1350.29 32.4315 M1350.29 26.1121 Q1360.02 26.1121 1365.56 32.4315 Q1371.11 38.7509 1371.11 49.9314 Q1371.11 61.0714 1365.56 67.4314 Q1360.02 73.7508 1350.29 73.7508 Q1340.53 73.7508 1334.98 67.4314 Q1329.47 61.0714 1329.47 49.9314 Q1329.47 38.7509 1334.98 32.4315 Q1340.53 26.1121 1350.29 26.1121 M1355.92 6.22219 L1363.99 6.22219 L1350.78 21.4536 L1344.58 21.4536 L1355.92 6.22219 Z" fill="#000000" fill-rule="nonzero" fill-opacity="1" /><path clip-path="url(#clip960)" d="M1421.18 45.1919 L1421.18 72.576 L1413.73 72.576 L1413.73 45.4349 Q1413.73 38.994 1411.22 35.7938 Q1408.71 32.5936 1403.68 32.5936 Q1397.65 32.5936 1394.16 36.4419 Q1390.68 40.2903 1390.68 46.9338 L1390.68 72.576 L1383.19 72.576 L1383.19 27.2059 L1390.68 27.2059 L1390.68 34.2544 Q1393.35 30.163 1396.96 28.1376 Q1400.61 26.1121 1405.34 26.1121 Q1413.16 26.1121 1417.17 30.9732 Q1421.18 35.7938 1421.18 45.1919 Z" fill="#000000" fill-rule="nonzero" fill-opacity="1" /><path clip-path="url(#clip960)" d="M1470.93 43.6931 L1470.93 65.8515 L1484.05 65.8515 Q1490.66 65.8515 1493.82 63.1374 Q1497.02 60.3828 1497.02 54.752 Q1497.02 49.0808 1493.82 46.4072 Q1490.66 43.6931 1484.05 43.6931 L1470.93 43.6931 M1470.93 18.8205 L1470.93 37.0496 L1483.04 37.0496 Q1489.04 37.0496 1491.95 34.8216 Q1494.91 32.5531 1494.91 27.935 Q1494.91 23.3575 1491.95 21.089 Q1489.04 18.8205 1483.04 18.8205 L1470.93 18.8205 M1462.75 12.096 L1483.65 12.096 Q1493.01 12.096 1498.07 15.9849 Q1503.13 19.8737 1503.13 27.0438 Q1503.13 32.5936 1500.54 35.8748 Q1497.95 39.156 1492.93 39.9662 Q1498.96 41.2625 1502.28 45.3944 Q1505.65 49.4858 1505.65 55.6432 Q1505.65 63.745 1500.14 68.1605 Q1494.63 72.576 1484.46 72.576 L1462.75 72.576 L1462.75 12.096 Z" fill="#000000" fill-rule="nonzero" fill-opacity="1" /><path clip-path="url(#clip960)" d="M1536.92 32.4315 Q1530.92 32.4315 1527.44 37.1306 Q1523.96 41.7891 1523.96 49.9314 Q1523.96 58.0738 1527.4 62.7728 Q1530.88 67.4314 1536.92 67.4314 Q1542.87 67.4314 1546.36 62.7323 Q1549.84 58.0333 1549.84 49.9314 Q1549.84 41.8701 1546.36 37.1711 Q1542.87 32.4315 1536.92 32.4315 M1536.92 26.1121 Q1546.64 26.1121 1552.19 32.4315 Q1557.74 38.7509 1557.74 49.9314 Q1557.74 61.0714 1552.19 67.4314 Q1546.64 73.7508 1536.92 73.7508 Q1527.16 73.7508 1521.61 67.4314 Q1516.1 61.0714 1516.1 49.9314 Q1516.1 38.7509 1521.61 32.4315 Q1527.16 26.1121 1536.92 26.1121 Z" fill="#000000" fill-rule="nonzero" fill-opacity="1" /><path clip-path="url(#clip960)" d="M1587.68 32.4315 Q1581.68 32.4315 1578.2 37.1306 Q1574.71 41.7891 1574.71 49.9314 Q1574.71 58.0738 1578.16 62.7728 Q1581.64 67.4314 1587.68 67.4314 Q1593.63 67.4314 1597.11 62.7323 Q1600.6 58.0333 1600.6 49.9314 Q1600.6 41.8701 1597.11 37.1711 Q1593.63 32.4315 1587.68 32.4315 M1587.68 26.1121 Q1597.4 26.1121 1602.95 32.4315 Q1608.5 38.7509 1608.5 49.9314 Q1608.5 61.0714 1602.95 67.4314 Q1597.4 73.7508 1587.68 73.7508 Q1577.91 73.7508 1572.36 67.4314 Q1566.85 61.0714 1566.85 49.9314 Q1566.85 38.7509 1572.36 32.4315 Q1577.91 26.1121 1587.68 26.1121 Z" fill="#000000" fill-rule="nonzero" fill-opacity="1" /><path clip-path="url(#clip960)" d="M1628.23 14.324 L1628.23 27.2059 L1643.58 27.2059 L1643.58 32.9987 L1628.23 32.9987 L1628.23 57.6282 Q1628.23 63.1779 1629.72 64.7578 Q1631.26 66.3376 1635.92 66.3376 L1643.58 66.3376 L1643.58 72.576 L1635.92 72.576 Q1627.29 72.576 1624.01 69.3758 Q1620.73 66.1351 1620.73 57.6282 L1620.73 32.9987 L1615.26 32.9987 L1615.26 27.2059 L1620.73 27.2059 L1620.73 14.324 L1628.23 14.324 Z" fill="#000000" fill-rule="nonzero" fill-opacity="1" /><path clip-path="url(#clip960)" d="M1682.31 28.5427 L1682.31 35.5912 Q1679.15 33.9709 1675.74 33.1607 Q1672.34 32.3505 1668.69 32.3505 Q1663.14 32.3505 1660.35 34.0519 Q1657.59 35.7533 1657.59 39.156 Q1657.59 41.7486 1659.58 43.2475 Q1661.56 44.7058 1667.56 46.0426 L1670.11 46.6097 Q1678.05 48.3111 1681.37 51.4303 Q1684.74 54.509 1684.74 60.0587 Q1684.74 66.3781 1679.71 70.0644 Q1674.73 73.7508 1665.98 73.7508 Q1662.33 73.7508 1658.36 73.0216 Q1654.43 72.3329 1650.06 70.9151 L1650.06 63.2184 Q1654.19 65.3654 1658.2 66.4591 Q1662.21 67.5124 1666.14 67.5124 Q1671.41 67.5124 1674.24 65.73 Q1677.08 63.9071 1677.08 60.6258 Q1677.08 57.5877 1675.01 55.9673 Q1672.99 54.3469 1666.06 52.8481 L1663.47 52.2405 Q1656.54 50.7821 1653.46 47.7845 Q1650.38 44.7463 1650.38 39.4801 Q1650.38 33.0797 1654.92 29.5959 Q1659.46 26.1121 1667.8 26.1121 Q1671.93 26.1121 1675.58 26.7198 Q1679.23 27.3274 1682.31 28.5427 Z" fill="#000000" fill-rule="nonzero" fill-opacity="1" /><path clip-path="url(#clip960)" d="M1703.98 14.324 L1703.98 27.2059 L1719.33 27.2059 L1719.33 32.9987 L1703.98 32.9987 L1703.98 57.6282 Q1703.98 63.1779 1705.48 64.7578 Q1707.02 66.3376 1711.67 66.3376 L1719.33 66.3376 L1719.33 72.576 L1711.67 72.576 Q1703.05 72.576 1699.76 69.3758 Q1696.48 66.1351 1696.48 57.6282 L1696.48 32.9987 L1691.01 32.9987 L1691.01 27.2059 L1696.48 27.2059 L1696.48 14.324 L1703.98 14.324 Z" fill="#000000" fill-rule="nonzero" fill-opacity="1" /><path clip-path="url(#clip960)" d="M1755.42 34.1734 Q1754.17 33.4443 1752.67 33.1202 Q1751.21 32.7556 1749.43 32.7556 Q1743.11 32.7556 1739.71 36.8875 Q1736.34 40.9789 1736.34 48.6757 L1736.34 72.576 L1728.85 72.576 L1728.85 27.2059 L1736.34 27.2059 L1736.34 34.2544 Q1738.69 30.1225 1742.46 28.1376 Q1746.23 26.1121 1751.62 26.1121 Q1752.39 26.1121 1753.32 26.2337 Q1754.25 26.3147 1755.38 26.5172 L1755.42 34.1734 Z" fill="#000000" fill-rule="nonzero" fill-opacity="1" /><path clip-path="url(#clip960)" d="M1783.86 49.7694 Q1774.83 49.7694 1771.34 51.8354 Q1767.86 53.9013 1767.86 58.8839 Q1767.86 62.8538 1770.45 65.2034 Q1773.09 67.5124 1777.58 67.5124 Q1783.78 67.5124 1787.51 63.1374 Q1791.27 58.7219 1791.27 51.4303 L1791.27 49.7694 L1783.86 49.7694 M1798.73 46.6907 L1798.73 72.576 L1791.27 72.576 L1791.27 65.6895 Q1788.72 69.8214 1784.91 71.8063 Q1781.11 73.7508 1775.6 73.7508 Q1768.63 73.7508 1764.5 69.8619 Q1760.41 65.9325 1760.41 59.3701 Q1760.41 51.7138 1765.51 47.825 Q1770.66 43.9361 1780.82 43.9361 L1791.27 43.9361 L1791.27 43.2069 Q1791.27 38.0623 1787.87 35.2672 Q1784.51 32.4315 1778.39 32.4315 Q1774.5 32.4315 1770.82 33.3632 Q1767.13 34.295 1763.73 36.1584 L1763.73 29.2718 Q1767.82 27.692 1771.67 26.9223 Q1775.52 26.1121 1779.16 26.1121 Q1789.01 26.1121 1793.87 31.2163 Q1798.73 36.3204 1798.73 46.6907 Z" fill="#000000" fill-rule="nonzero" fill-opacity="1" /><path clip-path="url(#clip960)" d="M1821.29 65.7705 L1821.29 89.8329 L1813.8 89.8329 L1813.8 27.2059 L1821.29 27.2059 L1821.29 34.0924 Q1823.64 30.0415 1827.21 28.0971 Q1830.81 26.1121 1835.79 26.1121 Q1844.06 26.1121 1849.2 32.6746 Q1854.39 39.2371 1854.39 49.9314 Q1854.39 60.6258 1849.2 67.1883 Q1844.06 73.7508 1835.79 73.7508 Q1830.81 73.7508 1827.21 71.8063 Q1823.64 69.8214 1821.29 65.7705 M1846.65 49.9314 Q1846.65 41.7081 1843.25 37.0496 Q1839.89 32.3505 1833.97 32.3505 Q1828.06 32.3505 1824.65 37.0496 Q1821.29 41.7081 1821.29 49.9314 Q1821.29 58.1548 1824.65 62.8538 Q1828.06 67.5124 1833.97 67.5124 Q1839.89 67.5124 1843.25 62.8538 Q1846.65 58.1548 1846.65 49.9314 Z" fill="#000000" fill-rule="nonzero" fill-opacity="1" /><path clip-path="url(#clip960)" d="M1922.97 34.0924 L1922.97 9.54393 L1930.42 9.54393 L1930.42 72.576 L1922.97 72.576 L1922.97 65.7705 Q1920.62 69.8214 1917.01 71.8063 Q1913.45 73.7508 1908.43 73.7508 Q1900.2 73.7508 1895.02 67.1883 Q1889.87 60.6258 1889.87 49.9314 Q1889.87 39.2371 1895.02 32.6746 Q1900.2 26.1121 1908.43 26.1121 Q1913.45 26.1121 1917.01 28.0971 Q1920.62 30.0415 1922.97 34.0924 M1897.57 49.9314 Q1897.57 58.1548 1900.93 62.8538 Q1904.34 67.5124 1910.25 67.5124 Q1916.16 67.5124 1919.57 62.8538 Q1922.97 58.1548 1922.97 49.9314 Q1922.97 41.7081 1919.57 37.0496 Q1916.16 32.3505 1910.25 32.3505 Q1904.34 32.3505 1900.93 37.0496 Q1897.57 41.7081 1897.57 49.9314 Z" fill="#000000" fill-rule="nonzero" fill-opacity="1" /><path clip-path="url(#clip960)" d="M1984.58 48.0275 L1984.58 51.6733 L1950.31 51.6733 Q1950.8 59.3701 1954.93 63.421 Q1959.1 67.4314 1966.52 67.4314 Q1970.81 67.4314 1974.82 66.3781 Q1978.87 65.3249 1982.84 63.2184 L1982.84 70.267 Q1978.83 71.9684 1974.62 72.8596 Q1970.41 73.7508 1966.07 73.7508 Q1955.21 73.7508 1948.85 67.4314 Q1942.54 61.1119 1942.54 50.3365 Q1942.54 39.1965 1948.53 32.6746 Q1954.57 26.1121 1964.77 26.1121 Q1973.93 26.1121 1979.24 32.0264 Q1984.58 37.9003 1984.58 48.0275 M1977.13 45.84 Q1977.05 39.7232 1973.69 36.0774 Q1970.36 32.4315 1964.86 32.4315 Q1958.62 32.4315 1954.85 35.9558 Q1951.12 39.4801 1950.56 45.8805 L1977.13 45.84 Z" fill="#000000" fill-rule="nonzero" fill-opacity="1" /><path clip-path="url(#clip960)" d="M1996.82 9.54393 L2004.27 9.54393 L2004.27 72.576 L1996.82 72.576 L1996.82 9.54393 Z" fill="#000000" fill-rule="nonzero" fill-opacity="1" /><path clip-path="url(#clip960)" d="M2066.78 20.1573 L2055.68 50.2555 L2077.92 50.2555 L2066.78 20.1573 M2062.16 12.096 L2071.43 12.096 L2094.48 72.576 L2085.98 72.576 L2080.47 57.061 L2053.21 57.061 L2047.7 72.576 L2039.07 72.576 L2062.16 12.096 Z" fill="#000000" fill-rule="nonzero" fill-opacity="1" /><path clip-path="url(#clip960)" d="M2134.18 28.9478 L2134.18 35.9153 Q2131.02 34.1734 2127.82 33.3227 Q2124.66 32.4315 2121.42 32.4315 Q2114.17 32.4315 2110.16 37.0496 Q2106.15 41.6271 2106.15 49.9314 Q2106.15 58.2358 2110.16 62.8538 Q2114.17 67.4314 2121.42 67.4314 Q2124.66 67.4314 2127.82 66.5807 Q2131.02 65.6895 2134.18 63.9476 L2134.18 70.8341 Q2131.06 72.2924 2127.7 73.0216 Q2124.38 73.7508 2120.61 73.7508 Q2110.36 73.7508 2104.33 67.3098 Q2098.29 60.8689 2098.29 49.9314 Q2098.29 38.832 2104.37 32.472 Q2110.49 26.1121 2121.1 26.1121 Q2124.54 26.1121 2127.82 26.8413 Q2131.1 27.5299 2134.18 28.9478 Z" fill="#000000" fill-rule="nonzero" fill-opacity="1" /><path clip-path="url(#clip960)" d="M2179.8 28.9478 L2179.8 35.9153 Q2176.64 34.1734 2173.44 33.3227 Q2170.28 32.4315 2167.04 32.4315 Q2159.79 32.4315 2155.77 37.0496 Q2151.76 41.6271 2151.76 49.9314 Q2151.76 58.2358 2155.77 62.8538 Q2159.79 67.4314 2167.04 67.4314 Q2170.28 67.4314 2173.44 66.5807 Q2176.64 65.6895 2179.8 63.9476 L2179.8 70.8341 Q2176.68 72.2924 2173.32 73.0216 Q2169.99 73.7508 2166.23 73.7508 Q2155.98 73.7508 2149.94 67.3098 Q2143.91 60.8689 2143.91 49.9314 Q2143.91 38.832 2149.98 32.472 Q2156.1 26.1121 2166.71 26.1121 Q2170.16 26.1121 2173.44 26.8413 Q2176.72 27.5299 2179.8 28.9478 Z" fill="#000000" fill-rule="nonzero" fill-opacity="1" /><path clip-path="url(#clip960)" d="M2191.99 54.671 L2191.99 27.2059 L2199.44 27.2059 L2199.44 54.3874 Q2199.44 60.8284 2201.96 64.0691 Q2204.47 67.2693 2209.49 67.2693 Q2215.53 67.2693 2219.01 63.421 Q2222.53 59.5726 2222.53 52.9291 L2222.53 27.2059 L2229.99 27.2059 L2229.99 72.576 L2222.53 72.576 L2222.53 65.6084 Q2219.82 69.7404 2216.21 71.7658 Q2212.65 73.7508 2207.91 73.7508 Q2200.09 73.7508 2196.04 68.8897 Q2191.99 64.0286 2191.99 54.671 M2210.75 26.1121 L2210.75 26.1121 Z" fill="#000000" fill-rule="nonzero" fill-opacity="1" /><path clip-path="url(#clip960)" d="M2271.63 34.1734 Q2270.37 33.4443 2268.88 33.1202 Q2267.42 32.7556 2265.64 32.7556 Q2259.32 32.7556 2255.91 36.8875 Q2252.55 40.9789 2252.55 48.6757 L2252.55 72.576 L2245.06 72.576 L2245.06 27.2059 L2252.55 27.2059 L2252.55 34.2544 Q2254.9 30.1225 2258.67 28.1376 Q2262.44 26.1121 2267.82 26.1121 Q2268.59 26.1121 2269.52 26.2337 Q2270.46 26.3147 2271.59 26.5172 L2271.63 34.1734 Z" fill="#000000" fill-rule="nonzero" fill-opacity="1" /><path clip-path="url(#clip960)" d="M2300.07 49.7694 Q2291.03 49.7694 2287.55 51.8354 Q2284.07 53.9013 2284.07 58.8839 Q2284.07 62.8538 2286.66 65.2034 Q2289.29 67.5124 2293.79 67.5124 Q2299.99 67.5124 2303.71 63.1374 Q2307.48 58.7219 2307.48 51.4303 L2307.48 49.7694 L2300.07 49.7694 M2314.93 46.6907 L2314.93 72.576 L2307.48 72.576 L2307.48 65.6895 Q2304.93 69.8214 2301.12 71.8063 Q2297.31 73.7508 2291.8 73.7508 Q2284.84 73.7508 2280.7 69.8619 Q2276.61 65.9325 2276.61 59.3701 Q2276.61 51.7138 2281.72 47.825 Q2286.86 43.9361 2297.03 43.9361 L2307.48 43.9361 L2307.48 43.2069 Q2307.48 38.0623 2304.08 35.2672 Q2300.72 32.4315 2294.6 32.4315 Q2290.71 32.4315 2287.02 33.3632 Q2283.34 34.295 2279.94 36.1584 L2279.94 29.2718 Q2284.03 27.692 2287.87 26.9223 Q2291.72 26.1121 2295.37 26.1121 Q2305.21 26.1121 2310.07 31.2163 Q2314.93 36.3204 2314.93 46.6907 Z" fill="#000000" fill-rule="nonzero" fill-opacity="1" /><path clip-path="url(#clip960)" d="M2362.94 28.9478 L2362.94 35.9153 Q2359.78 34.1734 2356.58 33.3227 Q2353.42 32.4315 2350.18 32.4315 Q2342.93 32.4315 2338.92 37.0496 Q2334.91 41.6271 2334.91 49.9314 Q2334.91 58.2358 2338.92 62.8538 Q2342.93 67.4314 2350.18 67.4314 Q2353.42 67.4314 2356.58 66.5807 Q2359.78 65.6895 2362.94 63.9476 L2362.94 70.8341 Q2359.82 72.2924 2356.46 73.0216 Q2353.13 73.7508 2349.37 73.7508 Q2339.12 73.7508 2333.08 67.3098 Q2327.05 60.8689 2327.05 49.9314 Q2327.05 38.832 2333.12 32.472 Q2339.24 26.1121 2349.85 26.1121 Q2353.3 26.1121 2356.58 26.8413 Q2359.86 27.5299 2362.94 28.9478 Z" fill="#000000" fill-rule="nonzero" fill-opacity="1" /><path clip-path="url(#clip960)" d="M2394.78 76.7889 Q2391.62 84.8907 2388.62 87.3618 Q2385.62 89.8329 2380.6 89.8329 L2374.65 89.8329 L2374.65 83.5945 L2379.02 83.5945 Q2382.1 83.5945 2383.8 82.1361 Q2385.5 80.6778 2387.57 75.2496 L2388.9 71.8468 L2370.55 27.2059 L2378.45 27.2059 L2392.63 62.6918 L2406.81 27.2059 L2414.71 27.2059 L2394.78 76.7889 Z" fill="#000000" fill-rule="nonzero" fill-opacity="1" /><path clip-path="url(#clip962)" d="M363.58 1411.91 L363.58 1443.7 L565.644 1443.7 L565.644 1411.91 L363.58 1411.91 L363.58 1411.91  Z" fill="#009af9" fill-rule="evenodd" fill-opacity="0.7"/>
<polyline clip-path="url(#clip962)" style="stroke:#000000; stroke-linecap:round; stroke-linejoin:round; stroke-width:4; stroke-opacity:0.7; fill:none" points="363.58,1411.91 363.58,1443.7 565.644,1443.7 565.644,1411.91 363.58,1411.91 "/>
<path clip-path="url(#clip962)" d="M565.644 1443.7 L565.644 1443.7 L767.708 1443.7 L767.708 1443.7 L565.644 1443.7 L565.644 1443.7  Z" fill="#009af9" fill-rule="evenodd" fill-opacity="0.7"/>
<polyline clip-path="url(#clip962)" style="stroke:#000000; stroke-linecap:round; stroke-linejoin:round; stroke-width:4; stroke-opacity:0.7; fill:none" points="565.644,1443.7 565.644,1443.7 767.708,1443.7 565.644,1443.7 "/>
<path clip-path="url(#clip962)" d="M767.708 1380.11 L767.708 1443.7 L969.773 1443.7 L969.773 1380.11 L767.708 1380.11 L767.708 1380.11  Z" fill="#009af9" fill-rule="evenodd" fill-opacity="0.7"/>
<polyline clip-path="url(#clip962)" style="stroke:#000000; stroke-linecap:round; stroke-linejoin:round; stroke-width:4; stroke-opacity:0.7; fill:none" points="767.708,1380.11 767.708,1443.7 969.773,1443.7 969.773,1380.11 767.708,1380.11 "/>
<path clip-path="url(#clip962)" d="M969.773 1221.14 L969.773 1443.7 L1171.84 1443.7 L1171.84 1221.14 L969.773 1221.14 L969.773 1221.14  Z" fill="#009af9" fill-rule="evenodd" fill-opacity="0.7"/>
<polyline clip-path="url(#clip962)" style="stroke:#000000; stroke-linecap:round; stroke-linejoin:round; stroke-width:4; stroke-opacity:0.7; fill:none" points="969.773,1221.14 969.773,1443.7 1171.84,1443.7 1171.84,1221.14 969.773,1221.14 "/>
<path clip-path="url(#clip962)" d="M1171.84 871.408 L1171.84 1443.7 L1373.9 1443.7 L1373.9 871.408 L1171.84 871.408 L1171.84 871.408  Z" fill="#009af9" fill-rule="evenodd" fill-opacity="0.7"/>
<polyline clip-path="url(#clip962)" style="stroke:#000000; stroke-linecap:round; stroke-linejoin:round; stroke-width:4; stroke-opacity:0.7; fill:none" points="1171.84,871.408 1171.84,1443.7 1373.9,1443.7 1373.9,871.408 1171.84,871.408 "/>
<path clip-path="url(#clip962)" d="M1373.9 744.232 L1373.9 1443.7 L1575.97 1443.7 L1575.97 744.232 L1373.9 744.232 L1373.9 744.232  Z" fill="#009af9" fill-rule="evenodd" fill-opacity="0.7"/>
<polyline clip-path="url(#clip962)" style="stroke:#000000; stroke-linecap:round; stroke-linejoin:round; stroke-width:4; stroke-opacity:0.7; fill:none" points="1373.9,744.232 1373.9,1443.7 1575.97,1443.7 1575.97,744.232 1373.9,744.232 "/>
<path clip-path="url(#clip962)" d="M1575.97 362.704 L1575.97 1443.7 L1778.03 1443.7 L1778.03 362.704 L1575.97 362.704 L1575.97 362.704  Z" fill="#009af9" fill-rule="evenodd" fill-opacity="0.7"/>
<polyline clip-path="url(#clip962)" style="stroke:#000000; stroke-linecap:round; stroke-linejoin:round; stroke-width:4; stroke-opacity:0.7; fill:none" points="1575.97,362.704 1575.97,1443.7 1778.03,1443.7 1778.03,362.704 1575.97,362.704 "/>
<path clip-path="url(#clip962)" d="M1778.03 108.352 L1778.03 1443.7 L1980.1 1443.7 L1980.1 108.352 L1778.03 108.352 L1778.03 108.352  Z" fill="#009af9" fill-rule="evenodd" fill-opacity="0.7"/>
<polyline clip-path="url(#clip962)" style="stroke:#000000; stroke-linecap:round; stroke-linejoin:round; stroke-width:4; stroke-opacity:0.7; fill:none" points="1778.03,108.352 1778.03,1443.7 1980.1,1443.7 1980.1,108.352 1778.03,108.352 "/>
<path clip-path="url(#clip962)" d="M1980.1 458.086 L1980.1 1443.7 L2182.16 1443.7 L2182.16 458.086 L1980.1 458.086 L1980.1 458.086  Z" fill="#009af9" fill-rule="evenodd" fill-opacity="0.7"/>
<polyline clip-path="url(#clip962)" style="stroke:#000000; stroke-linecap:round; stroke-linejoin:round; stroke-width:4; stroke-opacity:0.7; fill:none" points="1980.1,458.086 1980.1,1443.7 2182.16,1443.7 2182.16,458.086 1980.1,458.086 "/>
<path clip-path="url(#clip962)" d="M2182.16 617.056 L2182.16 1443.7 L2384.22 1443.7 L2384.22 617.056 L2182.16 617.056 L2182.16 617.056  Z" fill="#009af9" fill-rule="evenodd" fill-opacity="0.7"/>
<polyline clip-path="url(#clip962)" style="stroke:#000000; stroke-linecap:round; stroke-linejoin:round; stroke-width:4; stroke-opacity:0.7; fill:none" points="2182.16,617.056 2182.16,1443.7 2384.22,1443.7 2384.22,617.056 2182.16,617.056 "/>
<path clip-path="url(#clip962)" d="M2384.22 1062.17 L2384.22 1443.7 L2586.29 1443.7 L2586.29 1062.17 L2384.22 1062.17 L2384.22 1062.17  Z" fill="#009af9" fill-rule="evenodd" fill-opacity="0.7"/>
<polyline clip-path="url(#clip962)" style="stroke:#000000; stroke-linecap:round; stroke-linejoin:round; stroke-width:4; stroke-opacity:0.7; fill:none" points="2384.22,1062.17 2384.22,1443.7 2586.29,1443.7 2586.29,1062.17 2384.22,1062.17 "/>
<path clip-path="url(#clip962)" d="M2586.29 1316.52 L2586.29 1443.7 L2788.35 1443.7 L2788.35 1316.52 L2586.29 1316.52 L2586.29 1316.52  Z" fill="#009af9" fill-rule="evenodd" fill-opacity="0.7"/>
<polyline clip-path="url(#clip962)" style="stroke:#000000; stroke-linecap:round; stroke-linejoin:round; stroke-width:4; stroke-opacity:0.7; fill:none" points="2586.29,1316.52 2586.29,1443.7 2788.35,1443.7 2788.35,1316.52 2586.29,1316.52 "/>
<path clip-path="url(#clip962)" d="M2788.35 1411.91 L2788.35 1443.7 L2990.42 1443.7 L2990.42 1411.91 L2788.35 1411.91 L2788.35 1411.91  Z" fill="#009af9" fill-rule="evenodd" fill-opacity="0.7"/>
<polyline clip-path="url(#clip962)" style="stroke:#000000; stroke-linecap:round; stroke-linejoin:round; stroke-width:4; stroke-opacity:0.7; fill:none" points="2788.35,1411.91 2788.35,1443.7 2990.42,1443.7 2990.42,1411.91 2788.35,1411.91 "/>
<circle clip-path="url(#clip962)" style="fill:#009af9; stroke:none; fill-opacity:0" cx="464.612" cy="1411.91" r="2"/>
<circle clip-path="url(#clip962)" style="fill:#009af9; stroke:none; fill-opacity:0" cx="666.676" cy="1443.7" r="2"/>
<circle clip-path="url(#clip962)" style="fill:#009af9; stroke:none; fill-opacity:0" cx="868.741" cy="1380.11" r="2"/>
<circle clip-path="url(#clip962)" style="fill:#009af9; stroke:none; fill-opacity:0" cx="1070.81" cy="1221.14" r="2"/>
<circle clip-path="url(#clip962)" style="fill:#009af9; stroke:none; fill-opacity:0" cx="1272.87" cy="871.408" r="2"/>
<circle clip-path="url(#clip962)" style="fill:#009af9; stroke:none; fill-opacity:0" cx="1474.93" cy="744.232" r="2"/>
<circle clip-path="url(#clip962)" style="fill:#009af9; stroke:none; fill-opacity:0" cx="1677" cy="362.704" r="2"/>
<circle clip-path="url(#clip962)" style="fill:#009af9; stroke:none; fill-opacity:0" cx="1879.06" cy="108.352" r="2"/>
<circle clip-path="url(#clip962)" style="fill:#009af9; stroke:none; fill-opacity:0" cx="2081.13" cy="458.086" r="2"/>
<circle clip-path="url(#clip962)" style="fill:#009af9; stroke:none; fill-opacity:0" cx="2283.19" cy="617.056" r="2"/>
<circle clip-path="url(#clip962)" style="fill:#009af9; stroke:none; fill-opacity:0" cx="2485.26" cy="1062.17" r="2"/>
<circle clip-path="url(#clip962)" style="fill:#009af9; stroke:none; fill-opacity:0" cx="2687.32" cy="1316.52" r="2"/>
<circle clip-path="url(#clip962)" style="fill:#009af9; stroke:none; fill-opacity:0" cx="2889.39" cy="1411.91" r="2"/>
<polyline clip-path="url(#clip962)" style="stroke:#ff0000; stroke-linecap:round; stroke-linejoin:round; stroke-width:8; stroke-opacity:1; fill:none" stroke-dasharray="32, 20" points="969.773,2779.05 969.773,-1227 "/>
<polyline clip-path="url(#clip962)" style="stroke:#ff0000; stroke-linecap:round; stroke-linejoin:round; stroke-width:8; stroke-opacity:1; fill:none" stroke-dasharray="32, 20" points="2389.28,2779.05 2389.28,-1227 "/>
<polyline clip-path="url(#clip962)" style="stroke:#0000ff; stroke-linecap:round; stroke-linejoin:round; stroke-width:8; stroke-opacity:1; fill:none" points="1740.65,2779.05 1740.65,-1227 "/>
</svg>
