<?xml version="1.0" encoding="utf-8"?>
<svg xmlns="http://www.w3.org/2000/svg" xmlns:xlink="http://www.w3.org/1999/xlink" width="800" height="400" viewBox="0 0 3200 1600">
<defs>
  <clipPath id="clip420">
    <rect x="0" y="0" width="3200" height="1600"/>
  </clipPath>
</defs>
<path clip-path="url(#clip420)" d="M0 1600 L3200 1600 L3200 0 L0 0  Z" fill="#ffffff" fill-rule="evenodd" fill-opacity="1"/>
<defs>
  <clipPath id="clip421">
    <rect x="640" y="0" width="2241" height="1600"/>
  </clipPath>
</defs>
<path clip-path="url(#clip420)" d="M228.509 1443.7 L3152.76 1443.7 L3152.76 108.352 L228.509 108.352  Z" fill="#ffffff" fill-rule="evenodd" fill-opacity="1"/>
<defs>
  <clipPath id="clip422">
    <rect x="228" y="108" width="2925" height="1336"/>
  </clipPath>
</defs>
<polyline clip-path="url(#clip422)" style="stroke:#000000; stroke-linecap:round; stroke-linejoin:round; stroke-width:2; stroke-opacity:0.1; fill:none" points="470.678,1443.7 470.678,108.352 "/>
<polyline clip-path="url(#clip422)" style="stroke:#000000; stroke-linecap:round; stroke-linejoin:round; stroke-width:2; stroke-opacity:0.1; fill:none" points="877.33,1443.7 877.33,108.352 "/>
<polyline clip-path="url(#clip422)" style="stroke:#000000; stroke-linecap:round; stroke-linejoin:round; stroke-width:2; stroke-opacity:0.1; fill:none" points="1283.98,1443.7 1283.98,108.352 "/>
<polyline clip-path="url(#clip422)" style="stroke:#000000; stroke-linecap:round; stroke-linejoin:round; stroke-width:2; stroke-opacity:0.1; fill:none" points="1690.63,1443.7 1690.63,108.352 "/>
<polyline clip-path="url(#clip422)" style="stroke:#000000; stroke-linecap:round; stroke-linejoin:round; stroke-width:2; stroke-opacity:0.1; fill:none" points="2097.28,1443.7 2097.28,108.352 "/>
<polyline clip-path="url(#clip422)" style="stroke:#000000; stroke-linecap:round; stroke-linejoin:round; stroke-width:2; stroke-opacity:0.1; fill:none" points="2503.94,1443.7 2503.94,108.352 "/>
<polyline clip-path="url(#clip422)" style="stroke:#000000; stroke-linecap:round; stroke-linejoin:round; stroke-width:2; stroke-opacity:0.1; fill:none" points="2910.59,1443.7 2910.59,108.352 "/>
<polyline clip-path="url(#clip422)" style="stroke:#000000; stroke-linecap:round; stroke-linejoin:round; stroke-width:2; stroke-opacity:0.1; fill:none" points="228.509,1443.7 3152.76,1443.7 "/>
<polyline clip-path="url(#clip422)" style="stroke:#000000; stroke-linecap:round; stroke-linejoin:round; stroke-width:2; stroke-opacity:0.1; fill:none" points="228.509,1046.27 3152.76,1046.27 "/>
<polyline clip-path="url(#clip422)" style="stroke:#000000; stroke-linecap:round; stroke-linejoin:round; stroke-width:2; stroke-opacity:0.1; fill:none" points="228.509,648.85 3152.76,648.85 "/>
<polyline clip-path="url(#clip422)" style="stroke:#000000; stroke-linecap:round; stroke-linejoin:round; stroke-width:2; stroke-opacity:0.1; fill:none" points="228.509,251.425 3152.76,251.425 "/>
<polyline clip-path="url(#clip420)" style="stroke:#000000; stroke-linecap:round; stroke-linejoin:round; stroke-width:4; stroke-opacity:1; fill:none" points="228.509,1443.7 3152.76,1443.7 "/>
<polyline clip-path="url(#clip420)" style="stroke:#000000; stroke-linecap:round; stroke-linejoin:round; stroke-width:4; stroke-opacity:1; fill:none" points="470.678,1443.7 470.678,1424.8 "/>
<polyline clip-path="url(#clip420)" style="stroke:#000000; stroke-linecap:round; stroke-linejoin:round; stroke-width:4; stroke-opacity:1; fill:none" points="877.33,1443.7 877.33,1424.8 "/>
<polyline clip-path="url(#clip420)" style="stroke:#000000; stroke-linecap:round; stroke-linejoin:round; stroke-width:4; stroke-opacity:1; fill:none" points="1283.98,1443.7 1283.98,1424.8 "/>
<polyline clip-path="url(#clip420)" style="stroke:#000000; stroke-linecap:round; stroke-linejoin:round; stroke-width:4; stroke-opacity:1; fill:none" points="1690.63,1443.7 1690.63,1424.8 "/>
<polyline clip-path="url(#clip420)" style="stroke:#000000; stroke-linecap:round; stroke-linejoin:round; stroke-width:4; stroke-opacity:1; fill:none" points="2097.28,1443.7 2097.28,1424.8 "/>
<polyline clip-path="url(#clip420)" style="stroke:#000000; stroke-linecap:round; stroke-linejoin:round; stroke-width:4; stroke-opacity:1; fill:none" points="2503.94,1443.7 2503.94,1424.8 "/>
<polyline clip-path="url(#clip420)" style="stroke:#000000; stroke-linecap:round; stroke-linejoin:round; stroke-width:4; stroke-opacity:1; fill:none" points="2910.59,1443.7 2910.59,1424.8 "/>
<path clip-path="url(#clip420)" d="M442.415 1508.56 L458.734 1508.56 L458.734 1512.5 L436.79 1512.5 L436.79 1508.56 Q439.452 1505.81 444.035 1501.18 Q448.641 1496.53 449.822 1495.19 Q452.067 1492.66 452.947 1490.93 Q453.85 1489.17 453.85 1487.48 Q453.85 1484.72 451.905 1482.99 Q449.984 1481.25 446.882 1481.25 Q444.683 1481.25 442.229 1482.01 Q439.799 1482.78 437.021 1484.33 L437.021 1479.61 Q439.845 1478.47 442.299 1477.89 Q444.753 1477.31 446.79 1477.31 Q452.16 1477.31 455.354 1480 Q458.549 1482.69 458.549 1487.18 Q458.549 1489.31 457.739 1491.23 Q456.952 1493.12 454.845 1495.72 Q454.266 1496.39 451.165 1499.61 Q448.063 1502.8 442.415 1508.56 Z" fill="#000000" fill-rule="nonzero" fill-opacity="1" /><path clip-path="url(#clip420)" d="M468.549 1506.62 L473.433 1506.62 L473.433 1512.5 L468.549 1512.5 L468.549 1506.62 Z" fill="#000000" fill-rule="nonzero" fill-opacity="1" /><path clip-path="url(#clip420)" d="M483.664 1477.94 L502.021 1477.94 L502.021 1481.88 L487.947 1481.88 L487.947 1490.35 Q488.965 1490 489.984 1489.84 Q491.002 1489.65 492.021 1489.65 Q497.808 1489.65 501.187 1492.82 Q504.567 1496 504.567 1501.41 Q504.567 1506.99 501.095 1510.09 Q497.623 1513.17 491.303 1513.17 Q489.127 1513.17 486.859 1512.8 Q484.614 1512.43 482.206 1511.69 L482.206 1506.99 Q484.289 1508.12 486.512 1508.68 Q488.734 1509.24 491.211 1509.24 Q495.215 1509.24 497.553 1507.13 Q499.891 1505.02 499.891 1501.41 Q499.891 1497.8 497.553 1495.69 Q495.215 1493.59 491.211 1493.59 Q489.336 1493.59 487.461 1494 Q485.609 1494.42 483.664 1495.3 L483.664 1477.94 Z" fill="#000000" fill-rule="nonzero" fill-opacity="1" /><path clip-path="url(#clip420)" d="M858.638 1493.87 Q861.994 1494.58 863.869 1496.85 Q865.767 1499.12 865.767 1502.45 Q865.767 1507.57 862.249 1510.37 Q858.73 1513.17 852.249 1513.17 Q850.073 1513.17 847.758 1512.73 Q845.467 1512.31 843.013 1511.46 L843.013 1506.94 Q844.957 1508.08 847.272 1508.66 Q849.587 1509.24 852.11 1509.24 Q856.508 1509.24 858.8 1507.5 Q861.115 1505.76 861.115 1502.45 Q861.115 1499.4 858.962 1497.69 Q856.832 1495.95 853.013 1495.95 L848.985 1495.95 L848.985 1492.11 L853.198 1492.11 Q856.647 1492.11 858.476 1490.74 Q860.304 1489.35 860.304 1486.76 Q860.304 1484.1 858.406 1482.69 Q856.531 1481.25 853.013 1481.25 Q851.092 1481.25 848.892 1481.67 Q846.693 1482.08 844.055 1482.96 L844.055 1478.8 Q846.717 1478.06 849.031 1477.69 Q851.369 1477.31 853.429 1477.31 Q858.754 1477.31 861.855 1479.75 Q864.957 1482.15 864.957 1486.27 Q864.957 1489.14 863.314 1491.13 Q861.67 1493.1 858.638 1493.87 Z" fill="#000000" fill-rule="nonzero" fill-opacity="1" /><path clip-path="url(#clip420)" d="M874.633 1506.62 L879.517 1506.62 L879.517 1512.5 L874.633 1512.5 L874.633 1506.62 Z" fill="#000000" fill-rule="nonzero" fill-opacity="1" /><path clip-path="url(#clip420)" d="M899.702 1481.02 Q896.091 1481.02 894.263 1484.58 Q892.457 1488.12 892.457 1495.25 Q892.457 1502.36 894.263 1505.93 Q896.091 1509.47 899.702 1509.47 Q903.337 1509.47 905.142 1505.93 Q906.971 1502.36 906.971 1495.25 Q906.971 1488.12 905.142 1484.58 Q903.337 1481.02 899.702 1481.02 M899.702 1477.31 Q905.513 1477.31 908.568 1481.92 Q911.647 1486.5 911.647 1495.25 Q911.647 1503.98 908.568 1508.59 Q905.513 1513.17 899.702 1513.17 Q893.892 1513.17 890.814 1508.59 Q887.758 1503.98 887.758 1495.25 Q887.758 1486.5 890.814 1481.92 Q893.892 1477.31 899.702 1477.31 Z" fill="#000000" fill-rule="nonzero" fill-opacity="1" /><path clip-path="url(#clip420)" d="M1265.79 1493.87 Q1269.14 1494.58 1271.02 1496.85 Q1272.92 1499.12 1272.92 1502.45 Q1272.92 1507.57 1269.4 1510.37 Q1265.88 1513.17 1259.4 1513.17 Q1257.22 1513.17 1254.91 1512.73 Q1252.62 1512.31 1250.16 1511.46 L1250.16 1506.94 Q1252.11 1508.08 1254.42 1508.66 Q1256.74 1509.24 1259.26 1509.24 Q1263.66 1509.24 1265.95 1507.5 Q1268.26 1505.76 1268.26 1502.45 Q1268.26 1499.4 1266.11 1497.69 Q1263.98 1495.95 1260.16 1495.95 L1256.13 1495.95 L1256.13 1492.11 L1260.35 1492.11 Q1263.8 1492.11 1265.62 1490.74 Q1267.45 1489.35 1267.45 1486.76 Q1267.45 1484.1 1265.56 1482.69 Q1263.68 1481.25 1260.16 1481.25 Q1258.24 1481.25 1256.04 1481.67 Q1253.84 1482.08 1251.2 1482.96 L1251.2 1478.8 Q1253.87 1478.06 1256.18 1477.69 Q1258.52 1477.31 1260.58 1477.31 Q1265.9 1477.31 1269 1479.75 Q1272.11 1482.15 1272.11 1486.27 Q1272.11 1489.14 1270.46 1491.13 Q1268.82 1493.1 1265.79 1493.87 Z" fill="#000000" fill-rule="nonzero" fill-opacity="1" /><path clip-path="url(#clip420)" d="M1281.78 1506.62 L1286.67 1506.62 L1286.67 1512.5 L1281.78 1512.5 L1281.78 1506.62 Z" fill="#000000" fill-rule="nonzero" fill-opacity="1" /><path clip-path="url(#clip420)" d="M1296.9 1477.94 L1315.25 1477.94 L1315.25 1481.88 L1301.18 1481.88 L1301.18 1490.35 Q1302.2 1490 1303.22 1489.84 Q1304.24 1489.65 1305.25 1489.65 Q1311.04 1489.65 1314.42 1492.82 Q1317.8 1496 1317.8 1501.41 Q1317.8 1506.99 1314.33 1510.09 Q1310.86 1513.17 1304.54 1513.17 Q1302.36 1513.17 1300.09 1512.8 Q1297.85 1512.43 1295.44 1511.69 L1295.44 1506.99 Q1297.52 1508.12 1299.75 1508.68 Q1301.97 1509.24 1304.44 1509.24 Q1308.45 1509.24 1310.79 1507.13 Q1313.12 1505.02 1313.12 1501.41 Q1313.12 1497.8 1310.79 1495.69 Q1308.45 1493.59 1304.44 1493.59 Q1302.57 1493.59 1300.69 1494 Q1298.84 1494.42 1296.9 1495.3 L1296.9 1477.94 Z" fill="#000000" fill-rule="nonzero" fill-opacity="1" /><path clip-path="url(#clip420)" d="M1671.27 1482.01 L1659.46 1500.46 L1671.27 1500.46 L1671.27 1482.01 M1670.04 1477.94 L1675.92 1477.94 L1675.92 1500.46 L1680.85 1500.46 L1680.85 1504.35 L1675.92 1504.35 L1675.92 1512.5 L1671.27 1512.5 L1671.27 1504.35 L1655.67 1504.35 L1655.67 1499.84 L1670.04 1477.94 Z" fill="#000000" fill-rule="nonzero" fill-opacity="1" /><path clip-path="url(#clip420)" d="M1688.58 1506.62 L1693.47 1506.62 L1693.47 1512.5 L1688.58 1512.5 L1688.58 1506.62 Z" fill="#000000" fill-rule="nonzero" fill-opacity="1" /><path clip-path="url(#clip420)" d="M1713.65 1481.02 Q1710.04 1481.02 1708.21 1484.58 Q1706.41 1488.12 1706.41 1495.25 Q1706.41 1502.36 1708.21 1505.93 Q1710.04 1509.47 1713.65 1509.47 Q1717.29 1509.47 1719.09 1505.93 Q1720.92 1502.36 1720.92 1495.25 Q1720.92 1488.12 1719.09 1484.58 Q1717.29 1481.02 1713.65 1481.02 M1713.65 1477.31 Q1719.46 1477.31 1722.52 1481.92 Q1725.6 1486.5 1725.6 1495.25 Q1725.6 1503.98 1722.52 1508.59 Q1719.46 1513.17 1713.65 1513.17 Q1707.84 1513.17 1704.76 1508.59 Q1701.71 1503.98 1701.71 1495.25 Q1701.71 1486.5 1704.76 1481.92 Q1707.84 1477.31 1713.65 1477.31 Z" fill="#000000" fill-rule="nonzero" fill-opacity="1" /><path clip-path="url(#clip420)" d="M2078.42 1482.01 L2066.61 1500.46 L2078.42 1500.46 L2078.42 1482.01 M2077.19 1477.94 L2083.07 1477.94 L2083.07 1500.46 L2088 1500.46 L2088 1504.35 L2083.07 1504.35 L2083.07 1512.5 L2078.42 1512.5 L2078.42 1504.35 L2062.82 1504.35 L2062.82 1499.84 L2077.19 1477.94 Z" fill="#000000" fill-rule="nonzero" fill-opacity="1" /><path clip-path="url(#clip420)" d="M2095.73 1506.62 L2100.62 1506.62 L2100.62 1512.5 L2095.73 1512.5 L2095.73 1506.62 Z" fill="#000000" fill-rule="nonzero" fill-opacity="1" /><path clip-path="url(#clip420)" d="M2110.85 1477.94 L2129.21 1477.94 L2129.21 1481.88 L2115.13 1481.88 L2115.13 1490.35 Q2116.15 1490 2117.17 1489.84 Q2118.19 1489.65 2119.21 1489.65 Q2124.99 1489.65 2128.37 1492.82 Q2131.75 1496 2131.75 1501.41 Q2131.75 1506.99 2128.28 1510.09 Q2124.81 1513.17 2118.49 1513.17 Q2116.31 1513.17 2114.04 1512.8 Q2111.8 1512.43 2109.39 1511.69 L2109.39 1506.99 Q2111.47 1508.12 2113.7 1508.68 Q2115.92 1509.24 2118.4 1509.24 Q2122.4 1509.24 2124.74 1507.13 Q2127.08 1505.02 2127.08 1501.41 Q2127.08 1497.8 2124.74 1495.69 Q2122.4 1493.59 2118.4 1493.59 Q2116.52 1493.59 2114.65 1494 Q2112.79 1494.42 2110.85 1495.3 L2110.85 1477.94 Z" fill="#000000" fill-rule="nonzero" fill-opacity="1" /><path clip-path="url(#clip420)" d="M2471.1 1477.94 L2489.46 1477.94 L2489.46 1481.88 L2475.38 1481.88 L2475.38 1490.35 Q2476.4 1490 2477.42 1489.84 Q2478.44 1489.65 2479.46 1489.65 Q2485.24 1489.65 2488.62 1492.82 Q2492 1496 2492 1501.41 Q2492 1506.99 2488.53 1510.09 Q2485.06 1513.17 2478.74 1513.17 Q2476.56 1513.17 2474.29 1512.8 Q2472.05 1512.43 2469.64 1511.69 L2469.64 1506.99 Q2471.72 1508.12 2473.95 1508.68 Q2476.17 1509.24 2478.65 1509.24 Q2482.65 1509.24 2484.99 1507.13 Q2487.33 1505.02 2487.33 1501.41 Q2487.33 1497.8 2484.99 1495.69 Q2482.65 1493.59 2478.65 1493.59 Q2476.77 1493.59 2474.9 1494 Q2473.04 1494.42 2471.1 1495.3 L2471.1 1477.94 Z" fill="#000000" fill-rule="nonzero" fill-opacity="1" /><path clip-path="url(#clip420)" d="M2501.22 1506.62 L2506.1 1506.62 L2506.1 1512.5 L2501.22 1512.5 L2501.22 1506.62 Z" fill="#000000" fill-rule="nonzero" fill-opacity="1" /><path clip-path="url(#clip420)" d="M2526.28 1481.02 Q2522.67 1481.02 2520.85 1484.58 Q2519.04 1488.12 2519.04 1495.25 Q2519.04 1502.36 2520.85 1505.93 Q2522.67 1509.47 2526.28 1509.47 Q2529.92 1509.47 2531.72 1505.93 Q2533.55 1502.36 2533.55 1495.25 Q2533.55 1488.12 2531.72 1484.58 Q2529.92 1481.02 2526.28 1481.02 M2526.28 1477.31 Q2532.1 1477.31 2535.15 1481.92 Q2538.23 1486.5 2538.23 1495.25 Q2538.23 1503.98 2535.15 1508.59 Q2532.1 1513.17 2526.28 1513.17 Q2520.47 1513.17 2517.4 1508.59 Q2514.34 1503.98 2514.34 1495.25 Q2514.34 1486.5 2517.4 1481.92 Q2520.47 1477.31 2526.28 1477.31 Z" fill="#000000" fill-rule="nonzero" fill-opacity="1" /><path clip-path="url(#clip420)" d="M2878.25 1477.94 L2896.61 1477.94 L2896.61 1481.88 L2882.53 1481.88 L2882.53 1490.35 Q2883.55 1490 2884.57 1489.84 Q2885.59 1489.65 2886.61 1489.65 Q2892.39 1489.65 2895.77 1492.82 Q2899.15 1496 2899.15 1501.41 Q2899.15 1506.99 2895.68 1510.09 Q2892.21 1513.17 2885.89 1513.17 Q2883.71 1513.17 2881.44 1512.8 Q2879.2 1512.43 2876.79 1511.69 L2876.79 1506.99 Q2878.87 1508.12 2881.1 1508.68 Q2883.32 1509.24 2885.8 1509.24 Q2889.8 1509.24 2892.14 1507.13 Q2894.48 1505.02 2894.48 1501.41 Q2894.48 1497.8 2892.14 1495.69 Q2889.8 1493.59 2885.8 1493.59 Q2883.92 1493.59 2882.05 1494 Q2880.19 1494.42 2878.25 1495.3 L2878.25 1477.94 Z" fill="#000000" fill-rule="nonzero" fill-opacity="1" /><path clip-path="url(#clip420)" d="M2908.36 1506.62 L2913.25 1506.62 L2913.25 1512.5 L2908.36 1512.5 L2908.36 1506.62 Z" fill="#000000" fill-rule="nonzero" fill-opacity="1" /><path clip-path="url(#clip420)" d="M2923.48 1477.94 L2941.84 1477.94 L2941.84 1481.88 L2927.76 1481.88 L2927.76 1490.35 Q2928.78 1490 2929.8 1489.84 Q2930.82 1489.65 2931.84 1489.65 Q2937.62 1489.65 2941 1492.82 Q2944.38 1496 2944.38 1501.41 Q2944.38 1506.99 2940.91 1510.09 Q2937.44 1513.17 2931.12 1513.17 Q2928.94 1513.17 2926.67 1512.8 Q2924.43 1512.43 2922.02 1511.69 L2922.02 1506.99 Q2924.11 1508.12 2926.33 1508.68 Q2928.55 1509.24 2931.03 1509.24 Q2935.03 1509.24 2937.37 1507.13 Q2939.71 1505.02 2939.71 1501.41 Q2939.71 1497.8 2937.37 1495.69 Q2935.03 1493.59 2931.03 1493.59 Q2929.15 1493.59 2927.28 1494 Q2925.42 1494.42 2923.48 1495.3 L2923.48 1477.94 Z" fill="#000000" fill-rule="nonzero" fill-opacity="1" /><path clip-path="url(#clip420)" d="M1598.9 1553.04 L1608.48 1553.04 L1620.61 1585.38 L1632.8 1553.04 L1642.38 1553.04 L1642.38 1600.56 L1636.11 1600.56 L1636.11 1558.84 L1623.86 1591.43 L1617.4 1591.43 L1605.14 1558.84 L1605.14 1600.56 L1598.9 1600.56 L1598.9 1553.04 Z" fill="#000000" fill-rule="nonzero" fill-opacity="1" /><path clip-path="url(#clip420)" d="M1685.38 1581.28 L1685.38 1584.14 L1658.45 1584.14 Q1658.84 1590.19 1662.08 1593.37 Q1665.36 1596.52 1671.19 1596.52 Q1674.56 1596.52 1677.71 1595.69 Q1680.89 1594.87 1684.01 1593.21 L1684.01 1598.75 Q1680.86 1600.09 1677.55 1600.79 Q1674.24 1601.49 1670.84 1601.49 Q1662.31 1601.49 1657.31 1596.52 Q1652.34 1591.56 1652.34 1583.09 Q1652.34 1574.34 1657.05 1569.21 Q1661.8 1564.06 1669.82 1564.06 Q1677.01 1564.06 1681.18 1568.7 Q1685.38 1573.32 1685.38 1581.28 M1679.52 1579.56 Q1679.46 1574.75 1676.82 1571.89 Q1674.21 1569.02 1669.88 1569.02 Q1664.98 1569.02 1662.02 1571.79 Q1659.09 1574.56 1658.64 1579.59 L1679.52 1579.56 Z" fill="#000000" fill-rule="nonzero" fill-opacity="1" /><path clip-path="url(#clip420)" d="M1718.45 1570.33 L1718.45 1551.04 L1724.31 1551.04 L1724.31 1600.56 L1718.45 1600.56 L1718.45 1595.22 Q1716.6 1598.4 1713.77 1599.96 Q1710.97 1601.49 1707.02 1601.49 Q1700.56 1601.49 1696.49 1596.33 Q1692.45 1591.17 1692.45 1582.77 Q1692.45 1574.37 1696.49 1569.21 Q1700.56 1564.06 1707.02 1564.06 Q1710.97 1564.06 1713.77 1565.62 Q1716.6 1567.14 1718.45 1570.33 M1698.49 1582.77 Q1698.49 1589.23 1701.14 1592.92 Q1703.81 1596.59 1708.46 1596.59 Q1713.1 1596.59 1715.78 1592.92 Q1718.45 1589.23 1718.45 1582.77 Q1718.45 1576.31 1715.78 1572.65 Q1713.1 1568.96 1708.46 1568.96 Q1703.81 1568.96 1701.14 1572.65 Q1698.49 1576.31 1698.49 1582.77 Z" fill="#000000" fill-rule="nonzero" fill-opacity="1" /><path clip-path="url(#clip420)" d="M1736.37 1564.92 L1742.23 1564.92 L1742.23 1600.56 L1736.37 1600.56 L1736.37 1564.92 M1736.37 1551.04 L1742.23 1551.04 L1742.23 1558.45 L1736.37 1558.45 L1736.37 1551.04 Z" fill="#000000" fill-rule="nonzero" fill-opacity="1" /><path clip-path="url(#clip420)" d="M1770.68 1582.64 Q1763.58 1582.64 1760.85 1584.27 Q1758.11 1585.89 1758.11 1589.81 Q1758.11 1592.92 1760.15 1594.77 Q1762.21 1596.59 1765.75 1596.59 Q1770.62 1596.59 1773.55 1593.15 Q1776.51 1589.68 1776.51 1583.95 L1776.51 1582.64 L1770.68 1582.64 M1782.36 1580.23 L1782.36 1600.56 L1776.51 1600.56 L1776.51 1595.15 Q1774.5 1598.4 1771.51 1599.96 Q1768.52 1601.49 1764.19 1601.49 Q1758.71 1601.49 1755.47 1598.43 Q1752.25 1595.34 1752.25 1590.19 Q1752.25 1584.17 1756.26 1581.12 Q1760.31 1578.06 1768.29 1578.06 L1776.51 1578.06 L1776.51 1577.49 Q1776.51 1573.45 1773.83 1571.25 Q1771.19 1569.02 1766.38 1569.02 Q1763.33 1569.02 1760.43 1569.75 Q1757.54 1570.49 1754.86 1571.95 L1754.86 1566.54 Q1758.08 1565.3 1761.1 1564.69 Q1764.12 1564.06 1766.99 1564.06 Q1774.72 1564.06 1778.54 1568.07 Q1782.36 1572.08 1782.36 1580.23 Z" fill="#000000" fill-rule="nonzero" fill-opacity="1" /><polyline clip-path="url(#clip420)" style="stroke:#000000; stroke-linecap:round; stroke-linejoin:round; stroke-width:4; stroke-opacity:1; fill:none" points="228.509,1443.7 228.509,108.352 "/>
<polyline clip-path="url(#clip420)" style="stroke:#000000; stroke-linecap:round; stroke-linejoin:round; stroke-width:4; stroke-opacity:1; fill:none" points="228.509,1443.7 247.407,1443.7 "/>
<polyline clip-path="url(#clip420)" style="stroke:#000000; stroke-linecap:round; stroke-linejoin:round; stroke-width:4; stroke-opacity:1; fill:none" points="228.509,1046.27 247.407,1046.27 "/>
<polyline clip-path="url(#clip420)" style="stroke:#000000; stroke-linecap:round; stroke-linejoin:round; stroke-width:4; stroke-opacity:1; fill:none" points="228.509,648.85 247.407,648.85 "/>
<polyline clip-path="url(#clip420)" style="stroke:#000000; stroke-linecap:round; stroke-linejoin:round; stroke-width:4; stroke-opacity:1; fill:none" points="228.509,251.425 247.407,251.425 "/>
<path clip-path="url(#clip420)" d="M168.565 1429.5 Q164.954 1429.5 163.125 1433.06 Q161.32 1436.6 161.32 1443.73 Q161.32 1450.84 163.125 1454.41 Q164.954 1457.95 168.565 1457.95 Q172.199 1457.95 174.005 1454.41 Q175.833 1450.84 175.833 1443.73 Q175.833 1436.6 174.005 1433.06 Q172.199 1429.5 168.565 1429.5 M168.565 1425.79 Q174.375 1425.79 177.431 1430.4 Q180.509 1434.98 180.509 1443.73 Q180.509 1452.46 177.431 1457.07 Q174.375 1461.65 168.565 1461.65 Q162.755 1461.65 159.676 1457.07 Q156.621 1452.46 156.621 1443.73 Q156.621 1434.98 159.676 1430.4 Q162.755 1425.79 168.565 1425.79 Z" fill="#000000" fill-rule="nonzero" fill-opacity="1" /><path clip-path="url(#clip420)" d="M128.449 1028.99 L146.806 1028.99 L146.806 1032.93 L132.732 1032.93 L132.732 1041.4 Q133.75 1041.06 134.769 1040.89 Q135.787 1040.71 136.806 1040.71 Q142.593 1040.71 145.972 1043.88 Q149.352 1047.05 149.352 1052.47 Q149.352 1058.05 145.88 1061.15 Q142.408 1064.23 136.088 1064.23 Q133.912 1064.23 131.644 1063.86 Q129.399 1063.49 126.991 1062.74 L126.991 1058.05 Q129.074 1059.18 131.297 1059.74 Q133.519 1060.29 135.996 1060.29 Q140 1060.29 142.338 1058.18 Q144.676 1056.08 144.676 1052.47 Q144.676 1048.86 142.338 1046.75 Q140 1044.64 135.996 1044.64 Q134.121 1044.64 132.246 1045.06 Q130.394 1045.48 128.449 1046.36 L128.449 1028.99 Z" fill="#000000" fill-rule="nonzero" fill-opacity="1" /><path clip-path="url(#clip420)" d="M168.565 1032.07 Q164.954 1032.07 163.125 1035.64 Q161.32 1039.18 161.32 1046.31 Q161.32 1053.42 163.125 1056.98 Q164.954 1060.52 168.565 1060.52 Q172.199 1060.52 174.005 1056.98 Q175.833 1053.42 175.833 1046.31 Q175.833 1039.18 174.005 1035.64 Q172.199 1032.07 168.565 1032.07 M168.565 1028.37 Q174.375 1028.37 177.431 1032.98 Q180.509 1037.56 180.509 1046.31 Q180.509 1055.04 177.431 1059.64 Q174.375 1064.23 168.565 1064.23 Q162.755 1064.23 159.676 1059.64 Q156.621 1055.04 156.621 1046.31 Q156.621 1037.56 159.676 1032.98 Q162.755 1028.37 168.565 1028.37 Z" fill="#000000" fill-rule="nonzero" fill-opacity="1" /><path clip-path="url(#clip420)" d="M99.0515 662.195 L106.69 662.195 L106.69 635.829 L98.3802 637.496 L98.3802 633.237 L106.644 631.57 L111.32 631.57 L111.32 662.195 L118.959 662.195 L118.959 666.13 L99.0515 666.13 L99.0515 662.195 Z" fill="#000000" fill-rule="nonzero" fill-opacity="1" /><path clip-path="url(#clip420)" d="M138.403 634.649 Q134.792 634.649 132.963 638.213 Q131.158 641.755 131.158 648.885 Q131.158 655.991 132.963 659.556 Q134.792 663.098 138.403 663.098 Q142.037 663.098 143.843 659.556 Q145.672 655.991 145.672 648.885 Q145.672 641.755 143.843 638.213 Q142.037 634.649 138.403 634.649 M138.403 630.945 Q144.213 630.945 147.269 635.551 Q150.347 640.135 150.347 648.885 Q150.347 657.612 147.269 662.218 Q144.213 666.801 138.403 666.801 Q132.593 666.801 129.514 662.218 Q126.459 657.612 126.459 648.885 Q126.459 640.135 129.514 635.551 Q132.593 630.945 138.403 630.945 Z" fill="#000000" fill-rule="nonzero" fill-opacity="1" /><path clip-path="url(#clip420)" d="M168.565 634.649 Q164.954 634.649 163.125 638.213 Q161.32 641.755 161.32 648.885 Q161.32 655.991 163.125 659.556 Q164.954 663.098 168.565 663.098 Q172.199 663.098 174.005 659.556 Q175.833 655.991 175.833 648.885 Q175.833 641.755 174.005 638.213 Q172.199 634.649 168.565 634.649 M168.565 630.945 Q174.375 630.945 177.431 635.551 Q180.509 640.135 180.509 648.885 Q180.509 657.612 177.431 662.218 Q174.375 666.801 168.565 666.801 Q162.755 666.801 159.676 662.218 Q156.621 657.612 156.621 648.885 Q156.621 640.135 159.676 635.551 Q162.755 630.945 168.565 630.945 Z" fill="#000000" fill-rule="nonzero" fill-opacity="1" /><path clip-path="url(#clip420)" d="M99.0515 264.77 L106.69 264.77 L106.69 238.404 L98.3802 240.071 L98.3802 235.812 L106.644 234.145 L111.32 234.145 L111.32 264.77 L118.959 264.77 L118.959 268.705 L99.0515 268.705 L99.0515 264.77 Z" fill="#000000" fill-rule="nonzero" fill-opacity="1" /><path clip-path="url(#clip420)" d="M128.449 234.145 L146.806 234.145 L146.806 238.08 L132.732 238.08 L132.732 246.552 Q133.75 246.205 134.769 246.043 Q135.787 245.858 136.806 245.858 Q142.593 245.858 145.972 249.029 Q149.352 252.201 149.352 257.617 Q149.352 263.196 145.88 266.298 Q142.408 269.376 136.088 269.376 Q133.912 269.376 131.644 269.006 Q129.399 268.636 126.991 267.895 L126.991 263.196 Q129.074 264.33 131.297 264.886 Q133.519 265.441 135.996 265.441 Q140 265.441 142.338 263.335 Q144.676 261.228 144.676 257.617 Q144.676 254.006 142.338 251.9 Q140 249.793 135.996 249.793 Q134.121 249.793 132.246 250.21 Q130.394 250.626 128.449 251.506 L128.449 234.145 Z" fill="#000000" fill-rule="nonzero" fill-opacity="1" /><path clip-path="url(#clip420)" d="M168.565 237.224 Q164.954 237.224 163.125 240.789 Q161.32 244.33 161.32 251.46 Q161.32 258.566 163.125 262.131 Q164.954 265.673 168.565 265.673 Q172.199 265.673 174.005 262.131 Q175.833 258.566 175.833 251.46 Q175.833 244.33 174.005 240.789 Q172.199 237.224 168.565 237.224 M168.565 233.52 Q174.375 233.52 177.431 238.127 Q180.509 242.71 180.509 251.46 Q180.509 260.187 177.431 264.793 Q174.375 269.376 168.565 269.376 Q162.755 269.376 159.676 264.793 Q156.621 260.187 156.621 251.46 Q156.621 242.71 159.676 238.127 Q162.755 233.52 168.565 233.52 Z" fill="#000000" fill-rule="nonzero" fill-opacity="1" /><path clip-path="url(#clip420)" d="M-11.3958 945.211 L-11.3958 917.902 L-5.98499 917.902 L-5.98499 938.781 L8.01956 938.781 L8.01956 919.939 L13.4304 919.939 L13.4304 938.781 L36.1242 938.781 L36.1242 945.211 L-11.3958 945.211 Z" fill="#000000" fill-rule="nonzero" fill-opacity="1" /><path clip-path="url(#clip420)" d="M5.95071 892.057 Q5.37779 893.044 5.12317 894.221 Q4.83671 895.367 4.83671 896.768 Q4.83671 901.733 8.08322 904.406 Q11.2979 907.048 17.3453 907.048 L36.1242 907.048 L36.1242 912.936 L0.4762 912.936 L0.4762 907.048 L6.01437 907.048 Q2.76785 905.202 1.20826 902.242 Q-0.38317 899.282 -0.38317 895.049 Q-0.38317 894.444 -0.287684 893.712 Q-0.224027 892.98 -0.0648847 892.089 L5.95071 892.057 Z" fill="#000000" fill-rule="nonzero" fill-opacity="1" /><path clip-path="url(#clip420)" d="M16.8361 856.855 L19.7006 856.855 L19.7006 883.781 Q25.7481 883.4 28.9309 880.153 Q32.0819 876.875 32.0819 871.05 Q32.0819 867.676 31.2544 864.525 Q30.4269 861.342 28.7718 858.223 L34.3099 858.223 Q35.6467 861.374 36.347 864.684 Q37.0472 867.995 37.0472 871.4 Q37.0472 879.93 32.0819 884.927 Q27.1167 889.893 18.6503 889.893 Q9.89745 889.893 4.77305 885.182 Q-0.38317 880.439 -0.38317 872.419 Q-0.38317 865.225 4.2638 861.056 Q8.87893 856.855 16.8361 856.855 M15.1173 862.711 Q10.3112 862.775 7.44665 865.416 Q4.58208 868.026 4.58208 872.355 Q4.58208 877.257 7.35116 880.217 Q10.1202 883.145 15.1492 883.591 L15.1173 862.711 Z" fill="#000000" fill-rule="nonzero" fill-opacity="1" /><path clip-path="url(#clip420)" d="M1.84483 821.589 L7.31933 821.589 Q5.95071 824.071 5.28231 826.586 Q4.58208 829.068 4.58208 831.615 Q4.58208 837.312 8.21053 840.463 Q11.8072 843.614 18.332 843.614 Q24.8569 843.614 28.4853 840.463 Q32.0819 837.312 32.0819 831.615 Q32.0819 829.068 31.4135 826.586 Q30.7133 824.071 29.3447 821.589 L34.7555 821.589 Q35.9014 824.039 36.4743 826.681 Q37.0472 829.291 37.0472 832.251 Q37.0472 840.304 31.9864 845.046 Q26.9257 849.789 18.332 849.789 Q9.61099 849.789 4.61391 845.014 Q-0.38317 840.208 -0.38317 831.869 Q-0.38317 829.164 0.189744 826.586 Q0.730829 824.007 1.84483 821.589 Z" fill="#000000" fill-rule="nonzero" fill-opacity="1" /><path clip-path="url(#clip420)" d="M22.0559 812.008 L0.4762 812.008 L0.4762 806.152 L21.8331 806.152 Q26.8939 806.152 29.4402 804.178 Q31.9546 802.205 31.9546 798.258 Q31.9546 793.516 28.9309 790.779 Q25.9072 788.009 20.6873 788.009 L0.4762 788.009 L0.4762 782.153 L36.1242 782.153 L36.1242 788.009 L30.6496 788.009 Q33.8962 790.142 35.4876 792.975 Q37.0472 795.776 37.0472 799.5 Q37.0472 805.642 33.2278 808.825 Q29.4083 812.008 22.0559 812.008 M-0.38317 797.272 L-0.38317 797.272 Z" fill="#000000" fill-rule="nonzero" fill-opacity="1" /><path clip-path="url(#clip420)" d="M16.8361 739.598 L19.7006 739.598 L19.7006 766.525 Q25.7481 766.143 28.9309 762.897 Q32.0819 759.618 32.0819 753.794 Q32.0819 750.42 31.2544 747.269 Q30.4269 744.086 28.7718 740.967 L34.3099 740.967 Q35.6467 744.118 36.347 747.428 Q37.0472 750.738 37.0472 754.144 Q37.0472 762.674 32.0819 767.671 Q27.1167 772.636 18.6503 772.636 Q9.89745 772.636 4.77305 767.926 Q-0.38317 763.183 -0.38317 755.162 Q-0.38317 747.969 4.2638 743.8 Q8.87893 739.598 16.8361 739.598 M15.1173 745.455 Q10.3112 745.518 7.44665 748.16 Q4.58208 750.77 4.58208 755.099 Q4.58208 760 7.35116 762.96 Q10.1202 765.889 15.1492 766.334 L15.1173 745.455 Z" fill="#000000" fill-rule="nonzero" fill-opacity="1" /><path clip-path="url(#clip420)" d="M14.6081 700.354 L36.1242 700.354 L36.1242 706.21 L14.799 706.21 Q9.7383 706.21 7.22385 708.183 Q4.7094 710.157 4.7094 714.104 Q4.7094 718.846 7.73311 721.583 Q10.7568 724.321 15.9767 724.321 L36.1242 724.321 L36.1242 730.209 L0.4762 730.209 L0.4762 724.321 L6.01437 724.321 Q2.79968 722.22 1.20826 719.387 Q-0.38317 716.523 -0.38317 712.799 Q-0.38317 706.656 3.43625 703.505 Q7.22385 700.354 14.6081 700.354 Z" fill="#000000" fill-rule="nonzero" fill-opacity="1" /><path clip-path="url(#clip420)" d="M1.84483 663.019 L7.31933 663.019 Q5.95071 665.501 5.28231 668.016 Q4.58208 670.498 4.58208 673.045 Q4.58208 678.742 8.21053 681.893 Q11.8072 685.044 18.332 685.044 Q24.8569 685.044 28.4853 681.893 Q32.0819 678.742 32.0819 673.045 Q32.0819 670.498 31.4135 668.016 Q30.7133 665.501 29.3447 663.019 L34.7555 663.019 Q35.9014 665.47 36.4743 668.111 Q37.0472 670.721 37.0472 673.681 Q37.0472 681.734 31.9864 686.476 Q26.9257 691.219 18.332 691.219 Q9.61099 691.219 4.61391 686.445 Q-0.38317 681.638 -0.38317 673.299 Q-0.38317 670.594 0.189744 668.016 Q0.730829 665.438 1.84483 663.019 Z" fill="#000000" fill-rule="nonzero" fill-opacity="1" /><path clip-path="url(#clip420)" d="M0.4762 652.834 L0.4762 646.977 L36.1242 646.977 L36.1242 652.834 L0.4762 652.834 M-13.401 652.834 L-13.401 646.977 L-5.98499 646.977 L-5.98499 652.834 L-13.401 652.834 Z" fill="#000000" fill-rule="nonzero" fill-opacity="1" /><path clip-path="url(#clip420)" d="M18.2047 618.522 Q18.2047 625.62 19.8279 628.358 Q21.4512 631.095 25.3661 631.095 Q28.4853 631.095 30.3314 629.058 Q32.1456 626.989 32.1456 623.456 Q32.1456 618.586 28.7081 615.658 Q25.2388 612.698 19.5097 612.698 L18.2047 612.698 L18.2047 618.522 M15.7857 606.841 L36.1242 606.841 L36.1242 612.698 L30.7133 612.698 Q33.9598 614.703 35.5194 617.695 Q37.0472 620.687 37.0472 625.016 Q37.0472 630.49 33.9916 633.737 Q30.9043 636.951 25.7481 636.951 Q19.7325 636.951 16.6769 632.941 Q13.6214 628.899 13.6214 620.91 L13.6214 612.698 L13.0485 612.698 Q9.00625 612.698 6.81008 615.371 Q4.58208 618.013 4.58208 622.819 Q4.58208 625.875 5.31414 628.771 Q6.04619 631.668 7.51031 634.341 L2.09946 634.341 Q0.858143 631.127 0.253401 628.103 Q-0.38317 625.079 -0.38317 622.215 Q-0.38317 614.48 3.62723 610.661 Q7.63762 606.841 15.7857 606.841 Z" fill="#000000" fill-rule="nonzero" fill-opacity="1" /><path clip-path="url(#clip420)" d="M1091.71 18.8205 L1091.71 65.8515 L1101.59 65.8515 Q1114.11 65.8515 1119.9 60.1802 Q1125.73 54.509 1125.73 42.2752 Q1125.73 30.1225 1119.9 24.4918 Q1114.11 18.8205 1101.59 18.8205 L1091.71 18.8205 M1083.52 12.096 L1100.33 12.096 Q1117.92 12.096 1126.14 19.4281 Q1134.36 26.7198 1134.36 42.2752 Q1134.36 57.9117 1126.1 65.2439 Q1117.83 72.576 1100.33 72.576 L1083.52 72.576 L1083.52 12.096 Z" fill="#000000" fill-rule="nonzero" fill-opacity="1" /><path clip-path="url(#clip420)" d="M1147.08 27.2059 L1154.54 27.2059 L1154.54 72.576 L1147.08 72.576 L1147.08 27.2059 M1147.08 9.54393 L1154.54 9.54393 L1154.54 18.9825 L1147.08 18.9825 L1147.08 9.54393 Z" fill="#000000" fill-rule="nonzero" fill-opacity="1" /><path clip-path="url(#clip420)" d="M1199.06 28.5427 L1199.06 35.5912 Q1195.9 33.9709 1192.49 33.1607 Q1189.09 32.3505 1185.44 32.3505 Q1179.89 32.3505 1177.1 34.0519 Q1174.34 35.7533 1174.34 39.156 Q1174.34 41.7486 1176.33 43.2475 Q1178.31 44.7058 1184.31 46.0426 L1186.86 46.6097 Q1194.8 48.3111 1198.12 51.4303 Q1201.49 54.509 1201.49 60.0587 Q1201.49 66.3781 1196.46 70.0644 Q1191.48 73.7508 1182.73 73.7508 Q1179.08 73.7508 1175.11 73.0216 Q1171.19 72.3329 1166.81 70.9151 L1166.81 63.2184 Q1170.94 65.3654 1174.95 66.4591 Q1178.96 67.5124 1182.89 67.5124 Q1188.16 67.5124 1190.99 65.73 Q1193.83 63.9071 1193.83 60.6258 Q1193.83 57.5877 1191.76 55.9673 Q1189.74 54.3469 1182.81 52.8481 L1180.22 52.2405 Q1173.29 50.7821 1170.21 47.7845 Q1167.13 44.7463 1167.13 39.4801 Q1167.13 33.0797 1171.67 29.5959 Q1176.21 26.1121 1184.55 26.1121 Q1188.69 26.1121 1192.33 26.7198 Q1195.98 27.3274 1199.06 28.5427 Z" fill="#000000" fill-rule="nonzero" fill-opacity="1" /><path clip-path="url(#clip420)" d="M1220.73 14.324 L1220.73 27.2059 L1236.08 27.2059 L1236.08 32.9987 L1220.73 32.9987 L1220.73 57.6282 Q1220.73 63.1779 1222.23 64.7578 Q1223.77 66.3376 1228.42 66.3376 L1236.08 66.3376 L1236.08 72.576 L1228.42 72.576 Q1219.8 72.576 1216.51 69.3758 Q1213.23 66.1351 1213.23 57.6282 L1213.23 32.9987 L1207.76 32.9987 L1207.76 27.2059 L1213.23 27.2059 L1213.23 14.324 L1220.73 14.324 Z" fill="#000000" fill-rule="nonzero" fill-opacity="1" /><path clip-path="url(#clip420)" d="M1272.17 34.1734 Q1270.92 33.4443 1269.42 33.1202 Q1267.96 32.7556 1266.18 32.7556 Q1259.86 32.7556 1256.46 36.8875 Q1253.09 40.9789 1253.09 48.6757 L1253.09 72.576 L1245.6 72.576 L1245.6 27.2059 L1253.09 27.2059 L1253.09 34.2544 Q1255.44 30.1225 1259.21 28.1376 Q1262.98 26.1121 1268.37 26.1121 Q1269.14 26.1121 1270.07 26.2337 Q1271 26.3147 1272.13 26.5172 L1272.17 34.1734 Z" fill="#000000" fill-rule="nonzero" fill-opacity="1" /><path clip-path="url(#clip420)" d="M1279.99 27.2059 L1287.45 27.2059 L1287.45 72.576 L1279.99 72.576 L1279.99 27.2059 M1279.99 9.54393 L1287.45 9.54393 L1287.45 18.9825 L1279.99 18.9825 L1279.99 9.54393 Z" fill="#000000" fill-rule="nonzero" fill-opacity="1" /><path clip-path="url(#clip420)" d="M1335.61 49.9314 Q1335.61 41.7081 1332.21 37.0496 Q1328.85 32.3505 1322.93 32.3505 Q1317.02 32.3505 1313.61 37.0496 Q1310.25 41.7081 1310.25 49.9314 Q1310.25 58.1548 1313.61 62.8538 Q1317.02 67.5124 1322.93 67.5124 Q1328.85 67.5124 1332.21 62.8538 Q1335.61 58.1548 1335.61 49.9314 M1310.25 34.0924 Q1312.6 30.0415 1316.17 28.0971 Q1319.77 26.1121 1324.75 26.1121 Q1333.02 26.1121 1338.16 32.6746 Q1343.35 39.2371 1343.35 49.9314 Q1343.35 60.6258 1338.16 67.1883 Q1333.02 73.7508 1324.75 73.7508 Q1319.77 73.7508 1316.17 71.8063 Q1312.6 69.8214 1310.25 65.7705 L1310.25 72.576 L1302.76 72.576 L1302.76 9.54393 L1310.25 9.54393 L1310.25 34.0924 Z" fill="#000000" fill-rule="nonzero" fill-opacity="1" /><path clip-path="url(#clip420)" d="M1354.93 54.671 L1354.93 27.2059 L1362.39 27.2059 L1362.39 54.3874 Q1362.39 60.8284 1364.9 64.0691 Q1367.41 67.2693 1372.43 67.2693 Q1378.47 67.2693 1381.95 63.421 Q1385.48 59.5726 1385.48 52.9291 L1385.48 27.2059 L1392.93 27.2059 L1392.93 72.576 L1385.48 72.576 L1385.48 65.6084 Q1382.76 69.7404 1379.16 71.7658 Q1375.59 73.7508 1370.85 73.7508 Q1363.04 73.7508 1358.99 68.8897 Q1354.93 64.0286 1354.93 54.671 M1373.69 26.1121 L1373.69 26.1121 Z" fill="#000000" fill-rule="nonzero" fill-opacity="1" /><path clip-path="url(#clip420)" d="M1440.93 28.9478 L1440.93 35.9153 Q1437.78 34.1734 1434.57 33.3227 Q1431.42 32.4315 1428.17 32.4315 Q1420.92 32.4315 1416.91 37.0496 Q1412.9 41.6271 1412.9 49.9314 Q1412.9 58.2358 1416.91 62.8538 Q1420.92 67.4314 1428.17 67.4314 Q1431.42 67.4314 1434.57 66.5807 Q1437.78 65.6895 1440.93 63.9476 L1440.93 70.8341 Q1437.82 72.2924 1434.45 73.0216 Q1431.13 73.7508 1427.36 73.7508 Q1417.12 73.7508 1411.08 67.3098 Q1405.04 60.8689 1405.04 49.9314 Q1405.04 38.832 1411.12 32.472 Q1417.24 26.1121 1427.85 26.1121 Q1431.29 26.1121 1434.57 26.8413 Q1437.86 27.5299 1440.93 28.9478 Z" fill="#000000" fill-rule="nonzero" fill-opacity="1" /><path clip-path="url(#clip420)" d="M1453.9 27.2059 L1461.35 27.2059 L1461.35 72.576 L1453.9 72.576 L1453.9 27.2059 M1453.9 9.54393 L1461.35 9.54393 L1461.35 18.9825 L1453.9 18.9825 L1453.9 9.54393 Z" fill="#000000" fill-rule="nonzero" fill-opacity="1" /><path clip-path="url(#clip420)" d="M1494.53 32.4315 Q1488.53 32.4315 1485.05 37.1306 Q1481.57 41.7891 1481.57 49.9314 Q1481.57 58.0738 1485.01 62.7728 Q1488.49 67.4314 1494.53 67.4314 Q1500.48 67.4314 1503.97 62.7323 Q1507.45 58.0333 1507.45 49.9314 Q1507.45 41.8701 1503.97 37.1711 Q1500.48 32.4315 1494.53 32.4315 M1494.53 26.1121 Q1504.25 26.1121 1509.8 32.4315 Q1515.35 38.7509 1515.35 49.9314 Q1515.35 61.0714 1509.8 67.4314 Q1504.25 73.7508 1494.53 73.7508 Q1484.77 73.7508 1479.22 67.4314 Q1473.71 61.0714 1473.71 49.9314 Q1473.71 38.7509 1479.22 32.4315 Q1484.77 26.1121 1494.53 26.1121 M1500.16 6.22219 L1508.22 6.22219 L1495.01 21.4536 L1488.82 21.4536 L1500.16 6.22219 Z" fill="#000000" fill-rule="nonzero" fill-opacity="1" /><path clip-path="url(#clip420)" d="M1565.42 45.1919 L1565.42 72.576 L1557.97 72.576 L1557.97 45.4349 Q1557.97 38.994 1555.45 35.7938 Q1552.94 32.5936 1547.92 32.5936 Q1541.88 32.5936 1538.4 36.4419 Q1534.92 40.2903 1534.92 46.9338 L1534.92 72.576 L1527.42 72.576 L1527.42 27.2059 L1534.92 27.2059 L1534.92 34.2544 Q1537.59 30.163 1541.19 28.1376 Q1544.84 26.1121 1549.58 26.1121 Q1557.4 26.1121 1561.41 30.9732 Q1565.42 35.7938 1565.42 45.1919 Z" fill="#000000" fill-rule="nonzero" fill-opacity="1" /><path clip-path="url(#clip420)" d="M1615.16 43.6931 L1615.16 65.8515 L1628.29 65.8515 Q1634.89 65.8515 1638.05 63.1374 Q1641.25 60.3828 1641.25 54.752 Q1641.25 49.0808 1638.05 46.4072 Q1634.89 43.6931 1628.29 43.6931 L1615.16 43.6931 M1615.16 18.8205 L1615.16 37.0496 L1627.28 37.0496 Q1633.27 37.0496 1636.19 34.8216 Q1639.15 32.5531 1639.15 27.935 Q1639.15 23.3575 1636.19 21.089 Q1633.27 18.8205 1627.28 18.8205 L1615.16 18.8205 M1606.98 12.096 L1627.88 12.096 Q1637.24 12.096 1642.31 15.9849 Q1647.37 19.8737 1647.37 27.0438 Q1647.37 32.5936 1644.78 35.8748 Q1642.18 39.156 1637.16 39.9662 Q1643.2 41.2625 1646.52 45.3944 Q1649.88 49.4858 1649.88 55.6432 Q1649.88 63.745 1644.37 68.1605 Q1638.86 72.576 1628.69 72.576 L1606.98 72.576 L1606.98 12.096 Z" fill="#000000" fill-rule="nonzero" fill-opacity="1" /><path clip-path="url(#clip420)" d="M1681.15 32.4315 Q1675.16 32.4315 1671.67 37.1306 Q1668.19 41.7891 1668.19 49.9314 Q1668.19 58.0738 1671.63 62.7728 Q1675.12 67.4314 1681.15 67.4314 Q1687.11 67.4314 1690.59 62.7323 Q1694.08 58.0333 1694.08 49.9314 Q1694.08 41.8701 1690.59 37.1711 Q1687.11 32.4315 1681.15 32.4315 M1681.15 26.1121 Q1690.88 26.1121 1696.43 32.4315 Q1701.98 38.7509 1701.98 49.9314 Q1701.98 61.0714 1696.43 67.4314 Q1690.88 73.7508 1681.15 73.7508 Q1671.39 73.7508 1665.84 67.4314 Q1660.33 61.0714 1660.33 49.9314 Q1660.33 38.7509 1665.84 32.4315 Q1671.39 26.1121 1681.15 26.1121 Z" fill="#000000" fill-rule="nonzero" fill-opacity="1" /><path clip-path="url(#clip420)" d="M1731.91 32.4315 Q1725.92 32.4315 1722.43 37.1306 Q1718.95 41.7891 1718.95 49.9314 Q1718.95 58.0738 1722.39 62.7728 Q1725.88 67.4314 1731.91 67.4314 Q1737.87 67.4314 1741.35 62.7323 Q1744.83 58.0333 1744.83 49.9314 Q1744.83 41.8701 1741.35 37.1711 Q1737.87 32.4315 1731.91 32.4315 M1731.91 26.1121 Q1741.63 26.1121 1747.18 32.4315 Q1752.73 38.7509 1752.73 49.9314 Q1752.73 61.0714 1747.18 67.4314 Q1741.63 73.7508 1731.91 73.7508 Q1722.15 73.7508 1716.6 67.4314 Q1711.09 61.0714 1711.09 49.9314 Q1711.09 38.7509 1716.6 32.4315 Q1722.15 26.1121 1731.91 26.1121 Z" fill="#000000" fill-rule="nonzero" fill-opacity="1" /><path clip-path="url(#clip420)" d="M1772.46 14.324 L1772.46 27.2059 L1787.81 27.2059 L1787.81 32.9987 L1772.46 32.9987 L1772.46 57.6282 Q1772.46 63.1779 1773.96 64.7578 Q1775.5 66.3376 1780.16 66.3376 L1787.81 66.3376 L1787.81 72.576 L1780.16 72.576 Q1771.53 72.576 1768.25 69.3758 Q1764.97 66.1351 1764.97 57.6282 L1764.97 32.9987 L1759.5 32.9987 L1759.5 27.2059 L1764.97 27.2059 L1764.97 14.324 L1772.46 14.324 Z" fill="#000000" fill-rule="nonzero" fill-opacity="1" /><path clip-path="url(#clip420)" d="M1826.54 28.5427 L1826.54 35.5912 Q1823.38 33.9709 1819.98 33.1607 Q1816.58 32.3505 1812.93 32.3505 Q1807.38 32.3505 1804.58 34.0519 Q1801.83 35.7533 1801.83 39.156 Q1801.83 41.7486 1803.81 43.2475 Q1805.8 44.7058 1811.8 46.0426 L1814.35 46.6097 Q1822.29 48.3111 1825.61 51.4303 Q1828.97 54.509 1828.97 60.0587 Q1828.97 66.3781 1823.95 70.0644 Q1818.97 73.7508 1810.22 73.7508 Q1806.57 73.7508 1802.6 73.0216 Q1798.67 72.3329 1794.3 70.9151 L1794.3 63.2184 Q1798.43 65.3654 1802.44 66.4591 Q1806.45 67.5124 1810.38 67.5124 Q1815.64 67.5124 1818.48 65.73 Q1821.31 63.9071 1821.31 60.6258 Q1821.31 57.5877 1819.25 55.9673 Q1817.22 54.3469 1810.3 52.8481 L1807.7 52.2405 Q1800.78 50.7821 1797.7 47.7845 Q1794.62 44.7463 1794.62 39.4801 Q1794.62 33.0797 1799.16 29.5959 Q1803.69 26.1121 1812.04 26.1121 Q1816.17 26.1121 1819.82 26.7198 Q1823.46 27.3274 1826.54 28.5427 Z" fill="#000000" fill-rule="nonzero" fill-opacity="1" /><path clip-path="url(#clip420)" d="M1848.21 14.324 L1848.21 27.2059 L1863.57 27.2059 L1863.57 32.9987 L1848.21 32.9987 L1848.21 57.6282 Q1848.21 63.1779 1849.71 64.7578 Q1851.25 66.3376 1855.91 66.3376 L1863.57 66.3376 L1863.57 72.576 L1855.91 72.576 Q1847.28 72.576 1844 69.3758 Q1840.72 66.1351 1840.72 57.6282 L1840.72 32.9987 L1835.25 32.9987 L1835.25 27.2059 L1840.72 27.2059 L1840.72 14.324 L1848.21 14.324 Z" fill="#000000" fill-rule="nonzero" fill-opacity="1" /><path clip-path="url(#clip420)" d="M1899.66 34.1734 Q1898.4 33.4443 1896.9 33.1202 Q1895.45 32.7556 1893.66 32.7556 Q1887.34 32.7556 1883.94 36.8875 Q1880.58 40.9789 1880.58 48.6757 L1880.58 72.576 L1873.09 72.576 L1873.09 27.2059 L1880.58 27.2059 L1880.58 34.2544 Q1882.93 30.1225 1886.7 28.1376 Q1890.46 26.1121 1895.85 26.1121 Q1896.62 26.1121 1897.55 26.2337 Q1898.48 26.3147 1899.62 26.5172 L1899.66 34.1734 Z" fill="#000000" fill-rule="nonzero" fill-opacity="1" /><path clip-path="url(#clip420)" d="M1928.1 49.7694 Q1919.06 49.7694 1915.58 51.8354 Q1912.1 53.9013 1912.1 58.8839 Q1912.1 62.8538 1914.69 65.2034 Q1917.32 67.5124 1921.82 67.5124 Q1928.02 67.5124 1931.74 63.1374 Q1935.51 58.7219 1935.51 51.4303 L1935.51 49.7694 L1928.1 49.7694 M1942.96 46.6907 L1942.96 72.576 L1935.51 72.576 L1935.51 65.6895 Q1932.96 69.8214 1929.15 71.8063 Q1925.34 73.7508 1919.83 73.7508 Q1912.87 73.7508 1908.73 69.8619 Q1904.64 65.9325 1904.64 59.3701 Q1904.64 51.7138 1909.75 47.825 Q1914.89 43.9361 1925.06 43.9361 L1935.51 43.9361 L1935.51 43.2069 Q1935.51 38.0623 1932.11 35.2672 Q1928.74 32.4315 1922.63 32.4315 Q1918.74 32.4315 1915.05 33.3632 Q1911.37 34.295 1907.96 36.1584 L1907.96 29.2718 Q1912.06 27.692 1915.9 26.9223 Q1919.75 26.1121 1923.4 26.1121 Q1933.24 26.1121 1938.1 31.2163 Q1942.96 36.3204 1942.96 46.6907 Z" fill="#000000" fill-rule="nonzero" fill-opacity="1" /><path clip-path="url(#clip420)" d="M1965.53 65.7705 L1965.53 89.8329 L1958.03 89.8329 L1958.03 27.2059 L1965.53 27.2059 L1965.53 34.0924 Q1967.88 30.0415 1971.44 28.0971 Q1975.05 26.1121 1980.03 26.1121 Q1988.29 26.1121 1993.44 32.6746 Q1998.62 39.2371 1998.62 49.9314 Q1998.62 60.6258 1993.44 67.1883 Q1988.29 73.7508 1980.03 73.7508 Q1975.05 73.7508 1971.44 71.8063 Q1967.88 69.8214 1965.53 65.7705 M1990.89 49.9314 Q1990.89 41.7081 1987.48 37.0496 Q1984.12 32.3505 1978.21 32.3505 Q1972.29 32.3505 1968.89 37.0496 Q1965.53 41.7081 1965.53 49.9314 Q1965.53 58.1548 1968.89 62.8538 Q1972.29 67.5124 1978.21 67.5124 Q1984.12 67.5124 1987.48 62.8538 Q1990.89 58.1548 1990.89 49.9314 Z" fill="#000000" fill-rule="nonzero" fill-opacity="1" /><path clip-path="url(#clip420)" d="M2032 27.2059 L2039.9 27.2059 L2054.08 65.2844 L2068.26 27.2059 L2076.16 27.2059 L2059.14 72.576 L2049.02 72.576 L2032 27.2059 Z" fill="#000000" fill-rule="nonzero" fill-opacity="1" /><path clip-path="url(#clip420)" d="M2115.37 28.5427 L2115.37 35.5912 Q2112.21 33.9709 2108.81 33.1607 Q2105.4 32.3505 2101.76 32.3505 Q2096.21 32.3505 2093.41 34.0519 Q2090.66 35.7533 2090.66 39.156 Q2090.66 41.7486 2092.64 43.2475 Q2094.63 44.7058 2100.62 46.0426 L2103.18 46.6097 Q2111.12 48.3111 2114.44 51.4303 Q2117.8 54.509 2117.8 60.0587 Q2117.8 66.3781 2112.78 70.0644 Q2107.79 73.7508 2099.04 73.7508 Q2095.4 73.7508 2091.43 73.0216 Q2087.5 72.3329 2083.12 70.9151 L2083.12 63.2184 Q2087.26 65.3654 2091.27 66.4591 Q2095.28 67.5124 2099.21 67.5124 Q2104.47 67.5124 2107.31 65.73 Q2110.14 63.9071 2110.14 60.6258 Q2110.14 57.5877 2108.08 55.9673 Q2106.05 54.3469 2099.13 52.8481 L2096.53 52.2405 Q2089.61 50.7821 2086.53 47.7845 Q2083.45 44.7463 2083.45 39.4801 Q2083.45 33.0797 2087.99 29.5959 Q2092.52 26.1121 2100.87 26.1121 Q2105 26.1121 2108.65 26.7198 Q2112.29 27.3274 2115.37 28.5427 Z" fill="#000000" fill-rule="nonzero" fill-opacity="1" /><path clip-path="url(#clip420)" d="M2147.98 12.096 L2199.14 12.096 L2199.14 18.9825 L2177.67 18.9825 L2177.67 72.576 L2169.45 72.576 L2169.45 18.9825 L2147.98 18.9825 L2147.98 12.096 Z" fill="#000000" fill-rule="nonzero" fill-opacity="1" /><path clip-path="url(#clip420)" d="M2247.47 16.7545 L2247.47 25.383 Q2243.34 21.5346 2238.64 19.6307 Q2233.98 17.7268 2228.71 17.7268 Q2218.34 17.7268 2212.83 24.0867 Q2207.33 30.4061 2207.33 42.3968 Q2207.33 54.3469 2212.83 60.7069 Q2218.34 67.0263 2228.71 67.0263 Q2233.98 67.0263 2238.64 65.1223 Q2243.34 63.2184 2247.47 59.3701 L2247.47 67.9175 Q2243.18 70.8341 2238.36 72.2924 Q2233.58 73.7508 2228.23 73.7508 Q2214.5 73.7508 2206.6 65.3654 Q2198.7 56.9395 2198.7 42.3968 Q2198.7 27.8135 2206.6 19.4281 Q2214.5 11.0023 2228.23 11.0023 Q2233.66 11.0023 2238.44 12.4606 Q2243.26 13.8784 2247.47 16.7545 Z" fill="#000000" fill-rule="nonzero" fill-opacity="1" /><path clip-path="url(#clip420)" d="M2260.11 12.096 L2268.29 12.096 L2268.29 65.6895 L2297.74 65.6895 L2297.74 72.576 L2260.11 72.576 L2260.11 12.096 Z" fill="#000000" fill-rule="nonzero" fill-opacity="1" /><path clip-path="url(#clip422)" d="M389.348 1435.75 L389.348 1443.7 L552.009 1443.7 L552.009 1435.75 L389.348 1435.75 L389.348 1435.75  Z" fill="#009af9" fill-rule="evenodd" fill-opacity="0.7"/>
<polyline clip-path="url(#clip422)" style="stroke:#000000; stroke-linecap:round; stroke-linejoin:round; stroke-width:4; stroke-opacity:0.7; fill:none" points="389.348,1435.75 389.348,1443.7 552.009,1443.7 552.009,1435.75 389.348,1435.75 "/>
<path clip-path="url(#clip422)" d="M552.009 1435.75 L552.009 1443.7 L714.669 1443.7 L714.669 1435.75 L552.009 1435.75 L552.009 1435.75  Z" fill="#009af9" fill-rule="evenodd" fill-opacity="0.7"/>
<polyline clip-path="url(#clip422)" style="stroke:#000000; stroke-linecap:round; stroke-linejoin:round; stroke-width:4; stroke-opacity:0.7; fill:none" points="552.009,1435.75 552.009,1443.7 714.669,1443.7 714.669,1435.75 552.009,1435.75 "/>
<path clip-path="url(#clip422)" d="M714.669 1411.91 L714.669 1443.7 L877.33 1443.7 L877.33 1411.91 L714.669 1411.91 L714.669 1411.91  Z" fill="#009af9" fill-rule="evenodd" fill-opacity="0.7"/>
<polyline clip-path="url(#clip422)" style="stroke:#000000; stroke-linecap:round; stroke-linejoin:round; stroke-width:4; stroke-opacity:0.7; fill:none" points="714.669,1411.91 714.669,1443.7 877.33,1443.7 877.33,1411.91 714.669,1411.91 "/>
<path clip-path="url(#clip422)" d="M877.33 1276.78 L877.33 1443.7 L1039.99 1443.7 L1039.99 1276.78 L877.33 1276.78 L877.33 1276.78  Z" fill="#009af9" fill-rule="evenodd" fill-opacity="0.7"/>
<polyline clip-path="url(#clip422)" style="stroke:#000000; stroke-linecap:round; stroke-linejoin:round; stroke-width:4; stroke-opacity:0.7; fill:none" points="877.33,1276.78 877.33,1443.7 1039.99,1443.7 1039.99,1276.78 877.33,1276.78 "/>
<path clip-path="url(#clip422)" d="M1039.99 1046.27 L1039.99 1443.7 L1202.65 1443.7 L1202.65 1046.27 L1039.99 1046.27 L1039.99 1046.27  Z" fill="#009af9" fill-rule="evenodd" fill-opacity="0.7"/>
<polyline clip-path="url(#clip422)" style="stroke:#000000; stroke-linecap:round; stroke-linejoin:round; stroke-width:4; stroke-opacity:0.7; fill:none" points="1039.99,1046.27 1039.99,1443.7 1202.65,1443.7 1202.65,1046.27 1039.99,1046.27 "/>
<path clip-path="url(#clip422)" d="M1202.65 744.232 L1202.65 1443.7 L1365.31 1443.7 L1365.31 744.232 L1202.65 744.232 L1202.65 744.232  Z" fill="#009af9" fill-rule="evenodd" fill-opacity="0.7"/>
<polyline clip-path="url(#clip422)" style="stroke:#000000; stroke-linecap:round; stroke-linejoin:round; stroke-width:4; stroke-opacity:0.7; fill:none" points="1202.65,744.232 1202.65,1443.7 1365.31,1443.7 1365.31,744.232 1202.65,744.232 "/>
<path clip-path="url(#clip422)" d="M1365.31 108.352 L1365.31 1443.7 L1527.97 1443.7 L1527.97 108.352 L1365.31 108.352 L1365.31 108.352  Z" fill="#009af9" fill-rule="evenodd" fill-opacity="0.7"/>
<polyline clip-path="url(#clip422)" style="stroke:#000000; stroke-linecap:round; stroke-linejoin:round; stroke-width:4; stroke-opacity:0.7; fill:none" points="1365.31,108.352 1365.31,1443.7 1527.97,1443.7 1527.97,108.352 1365.31,108.352 "/>
<path clip-path="url(#clip422)" d="M1527.97 330.91 L1527.97 1443.7 L1690.63 1443.7 L1690.63 330.91 L1527.97 330.91 L1527.97 330.91  Z" fill="#009af9" fill-rule="evenodd" fill-opacity="0.7"/>
<polyline clip-path="url(#clip422)" style="stroke:#000000; stroke-linecap:round; stroke-linejoin:round; stroke-width:4; stroke-opacity:0.7; fill:none" points="1527.97,330.91 1527.97,1443.7 1690.63,1443.7 1690.63,330.91 1527.97,330.91 "/>
<path clip-path="url(#clip422)" d="M1690.63 116.301 L1690.63 1443.7 L1853.29 1443.7 L1853.29 116.301 L1690.63 116.301 L1690.63 116.301  Z" fill="#009af9" fill-rule="evenodd" fill-opacity="0.7"/>
<polyline clip-path="url(#clip422)" style="stroke:#000000; stroke-linecap:round; stroke-linejoin:round; stroke-width:4; stroke-opacity:0.7; fill:none" points="1690.63,116.301 1690.63,1443.7 1853.29,1443.7 1853.29,116.301 1690.63,116.301 "/>
<path clip-path="url(#clip422)" d="M1853.29 227.58 L1853.29 1443.7 L2015.95 1443.7 L2015.95 227.58 L1853.29 227.58 L1853.29 227.58  Z" fill="#009af9" fill-rule="evenodd" fill-opacity="0.7"/>
<polyline clip-path="url(#clip422)" style="stroke:#000000; stroke-linecap:round; stroke-linejoin:round; stroke-width:4; stroke-opacity:0.7; fill:none" points="1853.29,227.58 1853.29,1443.7 2015.95,1443.7 2015.95,227.58 1853.29,227.58 "/>
<path clip-path="url(#clip422)" d="M2015.95 505.777 L2015.95 1443.7 L2178.61 1443.7 L2178.61 505.777 L2015.95 505.777 L2015.95 505.777  Z" fill="#009af9" fill-rule="evenodd" fill-opacity="0.7"/>
<polyline clip-path="url(#clip422)" style="stroke:#000000; stroke-linecap:round; stroke-linejoin:round; stroke-width:4; stroke-opacity:0.7; fill:none" points="2015.95,505.777 2015.95,1443.7 2178.61,1443.7 2178.61,505.777 2015.95,505.777 "/>
<path clip-path="url(#clip422)" d="M2178.61 942.944 L2178.61 1443.7 L2341.27 1443.7 L2341.27 942.944 L2178.61 942.944 L2178.61 942.944  Z" fill="#009af9" fill-rule="evenodd" fill-opacity="0.7"/>
<polyline clip-path="url(#clip422)" style="stroke:#000000; stroke-linecap:round; stroke-linejoin:round; stroke-width:4; stroke-opacity:0.7; fill:none" points="2178.61,942.944 2178.61,1443.7 2341.27,1443.7 2341.27,942.944 2178.61,942.944 "/>
<path clip-path="url(#clip422)" d="M2341.27 1316.52 L2341.27 1443.7 L2503.94 1443.7 L2503.94 1316.52 L2341.27 1316.52 L2341.27 1316.52  Z" fill="#009af9" fill-rule="evenodd" fill-opacity="0.7"/>
<polyline clip-path="url(#clip422)" style="stroke:#000000; stroke-linecap:round; stroke-linejoin:round; stroke-width:4; stroke-opacity:0.7; fill:none" points="2341.27,1316.52 2341.27,1443.7 2503.94,1443.7 2503.94,1316.52 2341.27,1316.52 "/>
<path clip-path="url(#clip422)" d="M2503.94 1372.16 L2503.94 1443.7 L2666.6 1443.7 L2666.6 1372.16 L2503.94 1372.16 L2503.94 1372.16  Z" fill="#009af9" fill-rule="evenodd" fill-opacity="0.7"/>
<polyline clip-path="url(#clip422)" style="stroke:#000000; stroke-linecap:round; stroke-linejoin:round; stroke-width:4; stroke-opacity:0.7; fill:none" points="2503.94,1372.16 2503.94,1443.7 2666.6,1443.7 2666.6,1372.16 2503.94,1372.16 "/>
<path clip-path="url(#clip422)" d="M2666.6 1443.7 L2666.6 1443.7 L2829.26 1443.7 L2829.26 1443.7 L2666.6 1443.7 L2666.6 1443.7  Z" fill="#009af9" fill-rule="evenodd" fill-opacity="0.7"/>
<polyline clip-path="url(#clip422)" style="stroke:#000000; stroke-linecap:round; stroke-linejoin:round; stroke-width:4; stroke-opacity:0.7; fill:none" points="2666.6,1443.7 2666.6,1443.7 2829.26,1443.7 2666.6,1443.7 "/>
<path clip-path="url(#clip422)" d="M2829.26 1435.75 L2829.26 1443.7 L2991.92 1443.7 L2991.92 1435.75 L2829.26 1435.75 L2829.26 1435.75  Z" fill="#009af9" fill-rule="evenodd" fill-opacity="0.7"/>
<polyline clip-path="url(#clip422)" style="stroke:#000000; stroke-linecap:round; stroke-linejoin:round; stroke-width:4; stroke-opacity:0.7; fill:none" points="2829.26,1435.75 2829.26,1443.7 2991.92,1443.7 2991.92,1435.75 2829.26,1435.75 "/>
<circle clip-path="url(#clip422)" style="fill:#009af9; stroke:none; fill-opacity:0" cx="470.678" cy="1435.75" r="2"/>
<circle clip-path="url(#clip422)" style="fill:#009af9; stroke:none; fill-opacity:0" cx="633.339" cy="1435.75" r="2"/>
<circle clip-path="url(#clip422)" style="fill:#009af9; stroke:none; fill-opacity:0" cx="796" cy="1411.91" r="2"/>
<circle clip-path="url(#clip422)" style="fill:#009af9; stroke:none; fill-opacity:0" cx="958.66" cy="1276.78" r="2"/>
<circle clip-path="url(#clip422)" style="fill:#009af9; stroke:none; fill-opacity:0" cx="1121.32" cy="1046.27" r="2"/>
<circle clip-path="url(#clip422)" style="fill:#009af9; stroke:none; fill-opacity:0" cx="1283.98" cy="744.232" r="2"/>
<circle clip-path="url(#clip422)" style="fill:#009af9; stroke:none; fill-opacity:0" cx="1446.64" cy="108.352" r="2"/>
<circle clip-path="url(#clip422)" style="fill:#009af9; stroke:none; fill-opacity:0" cx="1609.3" cy="330.91" r="2"/>
<circle clip-path="url(#clip422)" style="fill:#009af9; stroke:none; fill-opacity:0" cx="1771.96" cy="116.301" r="2"/>
<circle clip-path="url(#clip422)" style="fill:#009af9; stroke:none; fill-opacity:0" cx="1934.62" cy="227.58" r="2"/>
<circle clip-path="url(#clip422)" style="fill:#009af9; stroke:none; fill-opacity:0" cx="2097.28" cy="505.777" r="2"/>
<circle clip-path="url(#clip422)" style="fill:#009af9; stroke:none; fill-opacity:0" cx="2259.94" cy="942.944" r="2"/>
<circle clip-path="url(#clip422)" style="fill:#009af9; stroke:none; fill-opacity:0" cx="2422.61" cy="1316.52" r="2"/>
<circle clip-path="url(#clip422)" style="fill:#009af9; stroke:none; fill-opacity:0" cx="2585.27" cy="1372.16" r="2"/>
<circle clip-path="url(#clip422)" style="fill:#009af9; stroke:none; fill-opacity:0" cx="2747.93" cy="1443.7" r="2"/>
<circle clip-path="url(#clip422)" style="fill:#009af9; stroke:none; fill-opacity:0" cx="2910.59" cy="1435.75" r="2"/>
<polyline clip-path="url(#clip422)" style="stroke:#ff0000; stroke-linecap:round; stroke-linejoin:round; stroke-width:8; stroke-opacity:1; fill:none" stroke-dasharray="32, 20" points="999.325,2779.05 999.325,-1227 "/>
<polyline clip-path="url(#clip422)" style="stroke:#ff0000; stroke-linecap:round; stroke-linejoin:round; stroke-width:8; stroke-opacity:1; fill:none" stroke-dasharray="32, 20" points="2341.27,2779.05 2341.27,-1227 "/>
<polyline clip-path="url(#clip422)" style="stroke:#0000ff; stroke-linecap:round; stroke-linejoin:round; stroke-width:8; stroke-opacity:1; fill:none" stroke-dasharray="32, 20" points="996.755,2779.05 996.755,-1227 "/>
<polyline clip-path="url(#clip422)" style="stroke:#0000ff; stroke-linecap:round; stroke-linejoin:round; stroke-width:8; stroke-opacity:1; fill:none" stroke-dasharray="32, 20" points="2384.51,2779.05 2384.51,-1227 "/>
<polyline clip-path="url(#clip422)" style="stroke:#000000; stroke-linecap:round; stroke-linejoin:round; stroke-width:8; stroke-opacity:1; fill:none" points="1690.63,2779.05 1690.63,-1227 "/>
<path clip-path="url(#clip420)" d="M2239.94 412.064 L3055.28 412.064 L3055.28 152.864 L2239.94 152.864  Z" fill="#ffffff" fill-rule="evenodd" fill-opacity="1"/>
<polyline clip-path="url(#clip420)" style="stroke:#000000; stroke-linecap:round; stroke-linejoin:round; stroke-width:4; stroke-opacity:1; fill:none" points="2239.94,412.064 3055.28,412.064 3055.28,152.864 2239.94,152.864 2239.94,412.064 "/>
<path clip-path="url(#clip420)" d="M2272.43 225.44 L2467.38 225.44 L2467.38 183.968 L2272.43 183.968 L2272.43 225.44  Z" fill="#009af9" fill-rule="evenodd" fill-opacity="0.7"/>
<polyline clip-path="url(#clip420)" style="stroke:#000000; stroke-linecap:round; stroke-linejoin:round; stroke-width:4; stroke-opacity:1; fill:none" points="2272.43,225.44 2467.38,225.44 2467.38,183.968 2272.43,183.968 2272.43,225.44 "/>
<path clip-path="url(#clip420)" d="M2504.55 191.266 L2504.55 218.141 L2510.2 218.141 Q2517.35 218.141 2520.66 214.9 Q2524 211.66 2524 204.669 Q2524 197.725 2520.66 194.507 Q2517.35 191.266 2510.2 191.266 L2504.55 191.266 M2499.88 187.424 L2509.48 187.424 Q2519.53 187.424 2524.23 191.614 Q2528.93 195.78 2528.93 204.669 Q2528.93 213.604 2524.2 217.794 Q2519.48 221.984 2509.48 221.984 L2499.88 221.984 L2499.88 187.424 Z" fill="#000000" fill-rule="nonzero" fill-opacity="1" /><path clip-path="url(#clip420)" d="M2536.19 196.058 L2540.45 196.058 L2540.45 221.984 L2536.19 221.984 L2536.19 196.058 M2536.19 185.965 L2540.45 185.965 L2540.45 191.359 L2536.19 191.359 L2536.19 185.965 Z" fill="#000000" fill-rule="nonzero" fill-opacity="1" /><path clip-path="url(#clip420)" d="M2565.89 196.822 L2565.89 200.85 Q2564.09 199.924 2562.14 199.461 Q2560.2 198.998 2558.12 198.998 Q2554.94 198.998 2553.35 199.97 Q2551.77 200.942 2551.77 202.887 Q2551.77 204.368 2552.91 205.225 Q2554.04 206.058 2557.47 206.822 L2558.93 207.146 Q2563.46 208.118 2565.36 209.9 Q2567.28 211.66 2567.28 214.831 Q2567.28 218.442 2564.41 220.549 Q2561.57 222.655 2556.57 222.655 Q2554.48 222.655 2552.21 222.238 Q2549.97 221.845 2547.47 221.035 L2547.47 216.637 Q2549.83 217.863 2552.12 218.488 Q2554.41 219.09 2556.66 219.09 Q2559.67 219.09 2561.29 218.072 Q2562.91 217.03 2562.91 215.155 Q2562.91 213.419 2561.73 212.493 Q2560.57 211.567 2556.61 210.711 L2555.13 210.363 Q2551.17 209.53 2549.41 207.817 Q2547.65 206.081 2547.65 203.072 Q2547.65 199.414 2550.25 197.424 Q2552.84 195.433 2557.61 195.433 Q2559.97 195.433 2562.05 195.78 Q2564.13 196.127 2565.89 196.822 Z" fill="#000000" fill-rule="nonzero" fill-opacity="1" /><path clip-path="url(#clip420)" d="M2578.28 188.697 L2578.28 196.058 L2587.05 196.058 L2587.05 199.368 L2578.28 199.368 L2578.28 213.442 Q2578.28 216.613 2579.13 217.516 Q2580.01 218.419 2582.68 218.419 L2587.05 218.419 L2587.05 221.984 L2582.68 221.984 Q2577.75 221.984 2575.87 220.155 Q2574 218.303 2574 213.442 L2574 199.368 L2570.87 199.368 L2570.87 196.058 L2574 196.058 L2574 188.697 L2578.28 188.697 Z" fill="#000000" fill-rule="nonzero" fill-opacity="1" /><path clip-path="url(#clip420)" d="M2607.68 200.039 Q2606.96 199.623 2606.1 199.438 Q2605.27 199.229 2604.25 199.229 Q2600.64 199.229 2598.69 201.59 Q2596.77 203.928 2596.77 208.326 L2596.77 221.984 L2592.49 221.984 L2592.49 196.058 L2596.77 196.058 L2596.77 200.086 Q2598.12 197.725 2600.27 196.59 Q2602.42 195.433 2605.5 195.433 Q2605.94 195.433 2606.47 195.502 Q2607 195.549 2607.65 195.664 L2607.68 200.039 Z" fill="#000000" fill-rule="nonzero" fill-opacity="1" /><path clip-path="url(#clip420)" d="M2612.14 196.058 L2616.4 196.058 L2616.4 221.984 L2612.14 221.984 L2612.14 196.058 M2612.14 185.965 L2616.4 185.965 L2616.4 191.359 L2612.14 191.359 L2612.14 185.965 Z" fill="#000000" fill-rule="nonzero" fill-opacity="1" /><path clip-path="url(#clip420)" d="M2643.93 209.044 Q2643.93 204.345 2641.98 201.683 Q2640.06 198.998 2636.68 198.998 Q2633.3 198.998 2631.36 201.683 Q2629.44 204.345 2629.44 209.044 Q2629.44 213.743 2631.36 216.428 Q2633.3 219.09 2636.68 219.09 Q2640.06 219.09 2641.98 216.428 Q2643.93 213.743 2643.93 209.044 M2629.44 199.993 Q2630.78 197.678 2632.81 196.567 Q2634.87 195.433 2637.72 195.433 Q2642.44 195.433 2645.38 199.183 Q2648.35 202.933 2648.35 209.044 Q2648.35 215.155 2645.38 218.905 Q2642.44 222.655 2637.72 222.655 Q2634.87 222.655 2632.81 221.544 Q2630.78 220.41 2629.44 218.095 L2629.44 221.984 L2625.15 221.984 L2625.15 185.965 L2629.44 185.965 L2629.44 199.993 Z" fill="#000000" fill-rule="nonzero" fill-opacity="1" /><path clip-path="url(#clip420)" d="M2654.97 211.752 L2654.97 196.058 L2659.23 196.058 L2659.23 211.59 Q2659.23 215.271 2660.66 217.123 Q2662.1 218.951 2664.97 218.951 Q2668.42 218.951 2670.41 216.752 Q2672.42 214.553 2672.42 210.757 L2672.42 196.058 L2676.68 196.058 L2676.68 221.984 L2672.42 221.984 L2672.42 218.002 Q2670.87 220.363 2668.81 221.521 Q2666.77 222.655 2664.06 222.655 Q2659.6 222.655 2657.28 219.877 Q2654.97 217.099 2654.97 211.752 M2665.68 195.433 L2665.68 195.433 Z" fill="#000000" fill-rule="nonzero" fill-opacity="1" /><path clip-path="url(#clip420)" d="M2704.11 197.053 L2704.11 201.035 Q2702.3 200.039 2700.48 199.553 Q2698.67 199.044 2696.82 199.044 Q2692.68 199.044 2690.38 201.683 Q2688.09 204.299 2688.09 209.044 Q2688.09 213.789 2690.38 216.428 Q2692.68 219.044 2696.82 219.044 Q2698.67 219.044 2700.48 218.558 Q2702.3 218.049 2704.11 217.053 L2704.11 220.988 Q2702.33 221.822 2700.41 222.238 Q2698.51 222.655 2696.36 222.655 Q2690.5 222.655 2687.05 218.974 Q2683.6 215.294 2683.6 209.044 Q2683.6 202.701 2687.07 199.067 Q2690.57 195.433 2696.63 195.433 Q2698.6 195.433 2700.48 195.85 Q2702.35 196.243 2704.11 197.053 Z" fill="#000000" fill-rule="nonzero" fill-opacity="1" /><path clip-path="url(#clip420)" d="M2711.52 196.058 L2715.78 196.058 L2715.78 221.984 L2711.52 221.984 L2711.52 196.058 M2711.52 185.965 L2715.78 185.965 L2715.78 191.359 L2711.52 191.359 L2711.52 185.965 Z" fill="#000000" fill-rule="nonzero" fill-opacity="1" /><path clip-path="url(#clip420)" d="M2734.74 199.044 Q2731.31 199.044 2729.32 201.729 Q2727.33 204.391 2727.33 209.044 Q2727.33 213.697 2729.3 216.382 Q2731.29 219.044 2734.74 219.044 Q2738.14 219.044 2740.13 216.359 Q2742.12 213.674 2742.12 209.044 Q2742.12 204.438 2740.13 201.752 Q2738.14 199.044 2734.74 199.044 M2734.74 195.433 Q2740.29 195.433 2743.46 199.044 Q2746.63 202.655 2746.63 209.044 Q2746.63 215.41 2743.46 219.044 Q2740.29 222.655 2734.74 222.655 Q2729.16 222.655 2725.99 219.044 Q2722.84 215.41 2722.84 209.044 Q2722.84 202.655 2725.99 199.044 Q2729.16 195.433 2734.74 195.433 M2737.95 184.067 L2742.56 184.067 L2735.01 192.771 L2731.47 192.771 L2737.95 184.067 Z" fill="#000000" fill-rule="nonzero" fill-opacity="1" /><path clip-path="url(#clip420)" d="M2775.24 206.336 L2775.24 221.984 L2770.99 221.984 L2770.99 206.475 Q2770.99 202.794 2769.55 200.965 Q2768.11 199.137 2765.24 199.137 Q2761.8 199.137 2759.8 201.336 Q2757.81 203.535 2757.81 207.331 L2757.81 221.984 L2753.53 221.984 L2753.53 196.058 L2757.81 196.058 L2757.81 200.086 Q2759.34 197.748 2761.4 196.59 Q2763.49 195.433 2766.19 195.433 Q2770.66 195.433 2772.95 198.211 Q2775.24 200.965 2775.24 206.336 Z" fill="#000000" fill-rule="nonzero" fill-opacity="1" /><path clip-path="url(#clip420)" d="M2803.67 205.479 L2803.67 218.141 L2811.17 218.141 Q2814.94 218.141 2816.75 216.59 Q2818.58 215.016 2818.58 211.799 Q2818.58 208.558 2816.75 207.03 Q2814.94 205.479 2811.17 205.479 L2803.67 205.479 M2803.67 191.266 L2803.67 201.683 L2810.59 201.683 Q2814.02 201.683 2815.68 200.41 Q2817.37 199.113 2817.37 196.475 Q2817.37 193.859 2815.68 192.563 Q2814.02 191.266 2810.59 191.266 L2803.67 191.266 M2798.99 187.424 L2810.94 187.424 Q2816.29 187.424 2819.18 189.646 Q2822.07 191.868 2822.07 195.965 Q2822.07 199.137 2820.59 201.012 Q2819.11 202.887 2816.24 203.35 Q2819.69 204.09 2821.59 206.451 Q2823.51 208.789 2823.51 212.308 Q2823.51 216.937 2820.36 219.461 Q2817.21 221.984 2811.4 221.984 L2798.99 221.984 L2798.99 187.424 Z" fill="#000000" fill-rule="nonzero" fill-opacity="1" /><path clip-path="url(#clip420)" d="M2841.38 199.044 Q2837.95 199.044 2835.96 201.729 Q2833.97 204.391 2833.97 209.044 Q2833.97 213.697 2835.94 216.382 Q2837.93 219.044 2841.38 219.044 Q2844.78 219.044 2846.77 216.359 Q2848.76 213.674 2848.76 209.044 Q2848.76 204.438 2846.77 201.752 Q2844.78 199.044 2841.38 199.044 M2841.38 195.433 Q2846.93 195.433 2850.11 199.044 Q2853.28 202.655 2853.28 209.044 Q2853.28 215.41 2850.11 219.044 Q2846.93 222.655 2841.38 222.655 Q2835.8 222.655 2832.63 219.044 Q2829.48 215.41 2829.48 209.044 Q2829.48 202.655 2832.63 199.044 Q2835.8 195.433 2841.38 195.433 Z" fill="#000000" fill-rule="nonzero" fill-opacity="1" /><path clip-path="url(#clip420)" d="M2870.38 199.044 Q2866.96 199.044 2864.97 201.729 Q2862.98 204.391 2862.98 209.044 Q2862.98 213.697 2864.94 216.382 Q2866.93 219.044 2870.38 219.044 Q2873.79 219.044 2875.78 216.359 Q2877.77 213.674 2877.77 209.044 Q2877.77 204.438 2875.78 201.752 Q2873.79 199.044 2870.38 199.044 M2870.38 195.433 Q2875.94 195.433 2879.11 199.044 Q2882.28 202.655 2882.28 209.044 Q2882.28 215.41 2879.11 219.044 Q2875.94 222.655 2870.38 222.655 Q2864.8 222.655 2861.63 219.044 Q2858.48 215.41 2858.48 209.044 Q2858.48 202.655 2861.63 199.044 Q2864.8 195.433 2870.38 195.433 Z" fill="#000000" fill-rule="nonzero" fill-opacity="1" /><path clip-path="url(#clip420)" d="M2893.55 188.697 L2893.55 196.058 L2902.33 196.058 L2902.33 199.368 L2893.55 199.368 L2893.55 213.442 Q2893.55 216.613 2894.41 217.516 Q2895.29 218.419 2897.95 218.419 L2902.33 218.419 L2902.33 221.984 L2897.95 221.984 Q2893.02 221.984 2891.15 220.155 Q2889.27 218.303 2889.27 213.442 L2889.27 199.368 L2886.15 199.368 L2886.15 196.058 L2889.27 196.058 L2889.27 188.697 L2893.55 188.697 Z" fill="#000000" fill-rule="nonzero" fill-opacity="1" /><path clip-path="url(#clip420)" d="M2924.46 196.822 L2924.46 200.85 Q2922.65 199.924 2920.71 199.461 Q2918.76 198.998 2916.68 198.998 Q2913.51 198.998 2911.91 199.97 Q2910.34 200.942 2910.34 202.887 Q2910.34 204.368 2911.47 205.225 Q2912.6 206.058 2916.03 206.822 L2917.49 207.146 Q2922.03 208.118 2923.92 209.9 Q2925.85 211.66 2925.85 214.831 Q2925.85 218.442 2922.98 220.549 Q2920.13 222.655 2915.13 222.655 Q2913.04 222.655 2910.78 222.238 Q2908.53 221.845 2906.03 221.035 L2906.03 216.637 Q2908.39 217.863 2910.68 218.488 Q2912.98 219.09 2915.22 219.09 Q2918.23 219.09 2919.85 218.072 Q2921.47 217.03 2921.47 215.155 Q2921.47 213.419 2920.29 212.493 Q2919.13 211.567 2915.17 210.711 L2913.69 210.363 Q2909.73 209.53 2907.98 207.817 Q2906.22 206.081 2906.22 203.072 Q2906.22 199.414 2908.81 197.424 Q2911.4 195.433 2916.17 195.433 Q2918.53 195.433 2920.61 195.78 Q2922.7 196.127 2924.46 196.822 Z" fill="#000000" fill-rule="nonzero" fill-opacity="1" /><path clip-path="url(#clip420)" d="M2936.84 188.697 L2936.84 196.058 L2945.61 196.058 L2945.61 199.368 L2936.84 199.368 L2936.84 213.442 Q2936.84 216.613 2937.7 217.516 Q2938.58 218.419 2941.24 218.419 L2945.61 218.419 L2945.61 221.984 L2941.24 221.984 Q2936.31 221.984 2934.43 220.155 Q2932.56 218.303 2932.56 213.442 L2932.56 199.368 L2929.43 199.368 L2929.43 196.058 L2932.56 196.058 L2932.56 188.697 L2936.84 188.697 Z" fill="#000000" fill-rule="nonzero" fill-opacity="1" /><path clip-path="url(#clip420)" d="M2966.24 200.039 Q2965.52 199.623 2964.66 199.438 Q2963.83 199.229 2962.81 199.229 Q2959.2 199.229 2957.26 201.59 Q2955.34 203.928 2955.34 208.326 L2955.34 221.984 L2951.05 221.984 L2951.05 196.058 L2955.34 196.058 L2955.34 200.086 Q2956.68 197.725 2958.83 196.59 Q2960.98 195.433 2964.06 195.433 Q2964.5 195.433 2965.04 195.502 Q2965.57 195.549 2966.22 195.664 L2966.24 200.039 Z" fill="#000000" fill-rule="nonzero" fill-opacity="1" /><path clip-path="url(#clip420)" d="M2982.49 208.951 Q2977.33 208.951 2975.34 210.132 Q2973.35 211.312 2973.35 214.16 Q2973.35 216.428 2974.83 217.771 Q2976.33 219.09 2978.9 219.09 Q2982.44 219.09 2984.57 216.59 Q2986.72 214.067 2986.72 209.9 L2986.72 208.951 L2982.49 208.951 M2990.98 207.192 L2990.98 221.984 L2986.72 221.984 L2986.72 218.049 Q2985.27 220.41 2983.09 221.544 Q2980.91 222.655 2977.77 222.655 Q2973.79 222.655 2971.42 220.433 Q2969.09 218.187 2969.09 214.437 Q2969.09 210.062 2972 207.84 Q2974.94 205.618 2980.75 205.618 L2986.72 205.618 L2986.72 205.201 Q2986.72 202.262 2984.78 200.664 Q2982.86 199.044 2979.36 199.044 Q2977.14 199.044 2975.04 199.576 Q2972.93 200.109 2970.98 201.174 L2970.98 197.238 Q2973.32 196.336 2975.52 195.896 Q2977.72 195.433 2979.8 195.433 Q2985.43 195.433 2988.21 198.35 Q2990.98 201.266 2990.98 207.192 Z" fill="#000000" fill-rule="nonzero" fill-opacity="1" /><path clip-path="url(#clip420)" d="M3003.88 218.095 L3003.88 231.845 L2999.6 231.845 L2999.6 196.058 L3003.88 196.058 L3003.88 199.993 Q3005.22 197.678 3007.26 196.567 Q3009.32 195.433 3012.16 195.433 Q3016.89 195.433 3019.83 199.183 Q3022.79 202.933 3022.79 209.044 Q3022.79 215.155 3019.83 218.905 Q3016.89 222.655 3012.16 222.655 Q3009.32 222.655 3007.26 221.544 Q3005.22 220.41 3003.88 218.095 M3018.37 209.044 Q3018.37 204.345 3016.42 201.683 Q3014.5 198.998 3011.12 198.998 Q3007.74 198.998 3005.8 201.683 Q3003.88 204.345 3003.88 209.044 Q3003.88 213.743 3005.8 216.428 Q3007.74 219.09 3011.12 219.09 Q3014.5 219.09 3016.42 216.428 Q3018.37 213.743 3018.37 209.044 Z" fill="#000000" fill-rule="nonzero" fill-opacity="1" /><polyline clip-path="url(#clip420)" style="stroke:#ff0000; stroke-linecap:round; stroke-linejoin:round; stroke-width:8; stroke-opacity:1; fill:none" stroke-dasharray="32, 20" points="2272.43,256.544 2467.38,256.544 "/>
<path clip-path="url(#clip420)" d="M2499.88 239.264 L2504.55 239.264 L2504.55 269.889 L2521.38 269.889 L2521.38 273.824 L2499.88 273.824 L2499.88 239.264 Z" fill="#000000" fill-rule="nonzero" fill-opacity="1" /><path clip-path="url(#clip420)" d="M2531.45 235.907 L2536.06 235.907 L2528.51 244.611 L2524.97 244.611 L2531.45 235.907 M2526.1 247.898 L2530.36 247.898 L2530.36 273.824 L2526.1 273.824 L2526.1 247.898 M2528.23 247.273 L2528.23 247.273 Z" fill="#000000" fill-rule="nonzero" fill-opacity="1" /><path clip-path="url(#clip420)" d="M2559.46 252.875 Q2561.06 250.004 2563.28 248.639 Q2565.5 247.273 2568.51 247.273 Q2572.56 247.273 2574.76 250.12 Q2576.96 252.944 2576.96 258.176 L2576.96 273.824 L2572.68 273.824 L2572.68 258.315 Q2572.68 254.588 2571.36 252.782 Q2570.04 250.977 2567.33 250.977 Q2564.02 250.977 2562.1 253.176 Q2560.18 255.375 2560.18 259.171 L2560.18 273.824 L2555.89 273.824 L2555.89 258.315 Q2555.89 254.565 2554.57 252.782 Q2553.25 250.977 2550.5 250.977 Q2547.24 250.977 2545.32 253.199 Q2543.39 255.398 2543.39 259.171 L2543.39 273.824 L2539.11 273.824 L2539.11 247.898 L2543.39 247.898 L2543.39 251.926 Q2544.85 249.541 2546.89 248.407 Q2548.93 247.273 2551.73 247.273 Q2554.55 247.273 2556.52 248.708 Q2558.51 250.143 2559.46 252.875 Z" fill="#000000" fill-rule="nonzero" fill-opacity="1" /><path clip-path="url(#clip420)" d="M2585.45 247.898 L2589.71 247.898 L2589.71 273.824 L2585.45 273.824 L2585.45 247.898 M2585.45 237.805 L2589.71 237.805 L2589.71 243.199 L2585.45 243.199 L2585.45 237.805 Z" fill="#000000" fill-rule="nonzero" fill-opacity="1" /><path clip-path="url(#clip420)" d="M2602.84 240.537 L2602.84 247.898 L2611.61 247.898 L2611.61 251.208 L2602.84 251.208 L2602.84 265.282 Q2602.84 268.453 2603.69 269.356 Q2604.57 270.259 2607.24 270.259 L2611.61 270.259 L2611.61 273.824 L2607.24 273.824 Q2602.31 273.824 2600.43 271.995 Q2598.56 270.143 2598.56 265.282 L2598.56 251.208 L2595.43 251.208 L2595.43 247.898 L2598.56 247.898 L2598.56 240.537 L2602.84 240.537 Z" fill="#000000" fill-rule="nonzero" fill-opacity="1" /><path clip-path="url(#clip420)" d="M2639.39 259.796 L2639.39 261.879 L2619.81 261.879 Q2620.08 266.277 2622.44 268.592 Q2624.83 270.884 2629.06 270.884 Q2631.52 270.884 2633.81 270.282 Q2636.12 269.68 2638.39 268.477 L2638.39 272.504 Q2636.1 273.476 2633.69 273.986 Q2631.29 274.495 2628.81 274.495 Q2622.61 274.495 2618.97 270.884 Q2615.36 267.273 2615.36 261.115 Q2615.36 254.75 2618.79 251.023 Q2622.24 247.273 2628.07 247.273 Q2633.3 247.273 2636.33 250.653 Q2639.39 254.009 2639.39 259.796 M2635.13 258.546 Q2635.08 255.051 2633.16 252.967 Q2631.26 250.884 2628.12 250.884 Q2624.55 250.884 2622.4 252.898 Q2620.27 254.912 2619.94 258.569 L2635.13 258.546 Z" fill="#000000" fill-rule="nonzero" fill-opacity="1" /><path clip-path="url(#clip420)" d="M2662.91 248.662 L2662.91 252.69 Q2661.1 251.764 2659.16 251.301 Q2657.21 250.838 2655.13 250.838 Q2651.96 250.838 2650.36 251.81 Q2648.79 252.782 2648.79 254.727 Q2648.79 256.208 2649.92 257.065 Q2651.06 257.898 2654.48 258.662 L2655.94 258.986 Q2660.48 259.958 2662.37 261.74 Q2664.3 263.5 2664.3 266.671 Q2664.3 270.282 2661.43 272.389 Q2658.58 274.495 2653.58 274.495 Q2651.5 274.495 2649.23 274.078 Q2646.98 273.685 2644.48 272.875 L2644.48 268.477 Q2646.84 269.703 2649.13 270.328 Q2651.43 270.93 2653.67 270.93 Q2656.68 270.93 2658.3 269.912 Q2659.92 268.87 2659.92 266.995 Q2659.92 265.259 2658.74 264.333 Q2657.58 263.407 2653.62 262.551 L2652.14 262.203 Q2648.18 261.37 2646.43 259.657 Q2644.67 257.921 2644.67 254.912 Q2644.67 251.254 2647.26 249.264 Q2649.85 247.273 2654.62 247.273 Q2656.98 247.273 2659.06 247.62 Q2661.15 247.967 2662.91 248.662 Z" fill="#000000" fill-rule="nonzero" fill-opacity="1" /><path clip-path="url(#clip420)" d="M2691.01 257.319 L2691.01 269.981 L2698.51 269.981 Q2702.28 269.981 2704.09 268.43 Q2705.92 266.856 2705.92 263.639 Q2705.92 260.398 2704.09 258.87 Q2702.28 257.319 2698.51 257.319 L2691.01 257.319 M2691.01 243.106 L2691.01 253.523 L2697.93 253.523 Q2701.36 253.523 2703.02 252.25 Q2704.71 250.953 2704.71 248.315 Q2704.71 245.699 2703.02 244.403 Q2701.36 243.106 2697.93 243.106 L2691.01 243.106 M2686.33 239.264 L2698.28 239.264 Q2703.62 239.264 2706.52 241.486 Q2709.41 243.708 2709.41 247.805 Q2709.41 250.977 2707.93 252.852 Q2706.45 254.727 2703.58 255.19 Q2707.03 255.93 2708.93 258.291 Q2710.85 260.629 2710.85 264.148 Q2710.85 268.777 2707.7 271.301 Q2704.55 273.824 2698.74 273.824 L2686.33 273.824 L2686.33 239.264 Z" fill="#000000" fill-rule="nonzero" fill-opacity="1" /><path clip-path="url(#clip420)" d="M2728.72 250.884 Q2725.29 250.884 2723.3 253.569 Q2721.31 256.231 2721.31 260.884 Q2721.31 265.537 2723.28 268.222 Q2725.27 270.884 2728.72 270.884 Q2732.12 270.884 2734.11 268.199 Q2736.1 265.514 2736.1 260.884 Q2736.1 256.278 2734.11 253.592 Q2732.12 250.884 2728.72 250.884 M2728.72 247.273 Q2734.27 247.273 2737.44 250.884 Q2740.61 254.495 2740.61 260.884 Q2740.61 267.25 2737.44 270.884 Q2734.27 274.495 2728.72 274.495 Q2723.14 274.495 2719.97 270.884 Q2716.82 267.25 2716.82 260.884 Q2716.82 254.495 2719.97 250.884 Q2723.14 247.273 2728.72 247.273 Z" fill="#000000" fill-rule="nonzero" fill-opacity="1" /><path clip-path="url(#clip420)" d="M2757.72 250.884 Q2754.3 250.884 2752.3 253.569 Q2750.31 256.231 2750.31 260.884 Q2750.31 265.537 2752.28 268.222 Q2754.27 270.884 2757.72 270.884 Q2761.12 270.884 2763.11 268.199 Q2765.11 265.514 2765.11 260.884 Q2765.11 256.278 2763.11 253.592 Q2761.12 250.884 2757.72 250.884 M2757.72 247.273 Q2763.28 247.273 2766.45 250.884 Q2769.62 254.495 2769.62 260.884 Q2769.62 267.25 2766.45 270.884 Q2763.28 274.495 2757.72 274.495 Q2752.14 274.495 2748.97 270.884 Q2745.82 267.25 2745.82 260.884 Q2745.82 254.495 2748.97 250.884 Q2752.14 247.273 2757.72 247.273 Z" fill="#000000" fill-rule="nonzero" fill-opacity="1" /><path clip-path="url(#clip420)" d="M2780.89 240.537 L2780.89 247.898 L2789.67 247.898 L2789.67 251.208 L2780.89 251.208 L2780.89 265.282 Q2780.89 268.453 2781.75 269.356 Q2782.63 270.259 2785.29 270.259 L2789.67 270.259 L2789.67 273.824 L2785.29 273.824 Q2780.36 273.824 2778.49 271.995 Q2776.61 270.143 2776.61 265.282 L2776.61 251.208 L2773.49 251.208 L2773.49 247.898 L2776.61 247.898 L2776.61 240.537 L2780.89 240.537 Z" fill="#000000" fill-rule="nonzero" fill-opacity="1" /><path clip-path="url(#clip420)" d="M2811.8 248.662 L2811.8 252.69 Q2809.99 251.764 2808.05 251.301 Q2806.1 250.838 2804.02 250.838 Q2800.85 250.838 2799.25 251.81 Q2797.67 252.782 2797.67 254.727 Q2797.67 256.208 2798.81 257.065 Q2799.94 257.898 2803.37 258.662 L2804.83 258.986 Q2809.36 259.958 2811.26 261.74 Q2813.18 263.5 2813.18 266.671 Q2813.18 270.282 2810.31 272.389 Q2807.47 274.495 2802.47 274.495 Q2800.38 274.495 2798.11 274.078 Q2795.87 273.685 2793.37 272.875 L2793.37 268.477 Q2795.73 269.703 2798.02 270.328 Q2800.31 270.93 2802.56 270.93 Q2805.57 270.93 2807.19 269.912 Q2808.81 268.87 2808.81 266.995 Q2808.81 265.259 2807.63 264.333 Q2806.47 263.407 2802.51 262.551 L2801.03 262.203 Q2797.07 261.37 2795.31 259.657 Q2793.55 257.921 2793.55 254.912 Q2793.55 251.254 2796.15 249.264 Q2798.74 247.273 2803.51 247.273 Q2805.87 247.273 2807.95 247.62 Q2810.04 247.967 2811.8 248.662 Z" fill="#000000" fill-rule="nonzero" fill-opacity="1" /><path clip-path="url(#clip420)" d="M2824.18 240.537 L2824.18 247.898 L2832.95 247.898 L2832.95 251.208 L2824.18 251.208 L2824.18 265.282 Q2824.18 268.453 2825.04 269.356 Q2825.92 270.259 2828.58 270.259 L2832.95 270.259 L2832.95 273.824 L2828.58 273.824 Q2823.65 273.824 2821.77 271.995 Q2819.9 270.143 2819.9 265.282 L2819.9 251.208 L2816.77 251.208 L2816.77 247.898 L2819.9 247.898 L2819.9 240.537 L2824.18 240.537 Z" fill="#000000" fill-rule="nonzero" fill-opacity="1" /><path clip-path="url(#clip420)" d="M2853.58 251.879 Q2852.86 251.463 2852 251.278 Q2851.17 251.069 2850.15 251.069 Q2846.54 251.069 2844.6 253.43 Q2842.67 255.768 2842.67 260.166 L2842.67 273.824 L2838.39 273.824 L2838.39 247.898 L2842.67 247.898 L2842.67 251.926 Q2844.02 249.565 2846.17 248.43 Q2848.32 247.273 2851.4 247.273 Q2851.84 247.273 2852.37 247.342 Q2852.91 247.389 2853.55 247.504 L2853.58 251.879 Z" fill="#000000" fill-rule="nonzero" fill-opacity="1" /><path clip-path="url(#clip420)" d="M2869.83 260.791 Q2864.67 260.791 2862.67 261.972 Q2860.68 263.152 2860.68 266 Q2860.68 268.268 2862.17 269.611 Q2863.67 270.93 2866.24 270.93 Q2869.78 270.93 2871.91 268.43 Q2874.06 265.907 2874.06 261.74 L2874.06 260.791 L2869.83 260.791 M2878.32 259.032 L2878.32 273.824 L2874.06 273.824 L2874.06 269.889 Q2872.61 272.25 2870.43 273.384 Q2868.25 274.495 2865.11 274.495 Q2861.12 274.495 2858.76 272.273 Q2856.42 270.027 2856.42 266.277 Q2856.42 261.902 2859.34 259.68 Q2862.28 257.458 2868.09 257.458 L2874.06 257.458 L2874.06 257.041 Q2874.06 254.102 2872.12 252.504 Q2870.2 250.884 2866.7 250.884 Q2864.48 250.884 2862.37 251.416 Q2860.27 251.949 2858.32 253.014 L2858.32 249.078 Q2860.66 248.176 2862.86 247.736 Q2865.06 247.273 2867.14 247.273 Q2872.77 247.273 2875.54 250.19 Q2878.32 253.106 2878.32 259.032 Z" fill="#000000" fill-rule="nonzero" fill-opacity="1" /><path clip-path="url(#clip420)" d="M2891.22 269.935 L2891.22 283.685 L2886.93 283.685 L2886.93 247.898 L2891.22 247.898 L2891.22 251.833 Q2892.56 249.518 2894.6 248.407 Q2896.66 247.273 2899.5 247.273 Q2904.23 247.273 2907.17 251.023 Q2910.13 254.773 2910.13 260.884 Q2910.13 266.995 2907.17 270.745 Q2904.23 274.495 2899.5 274.495 Q2896.66 274.495 2894.6 273.384 Q2892.56 272.25 2891.22 269.935 M2905.71 260.884 Q2905.71 256.185 2903.76 253.523 Q2901.84 250.838 2898.46 250.838 Q2895.08 250.838 2893.14 253.523 Q2891.22 256.185 2891.22 260.884 Q2891.22 265.583 2893.14 268.268 Q2895.08 270.93 2898.46 270.93 Q2901.84 270.93 2903.76 268.268 Q2905.71 265.583 2905.71 260.884 Z" fill="#000000" fill-rule="nonzero" fill-opacity="1" /><polyline clip-path="url(#clip420)" style="stroke:#0000ff; stroke-linecap:round; stroke-linejoin:round; stroke-width:8; stroke-opacity:1; fill:none" stroke-dasharray="32, 20" points="2272.43,308.384 2467.38,308.384 "/>
<path clip-path="url(#clip420)" d="M2499.88 291.104 L2504.55 291.104 L2504.55 321.729 L2521.38 321.729 L2521.38 325.664 L2499.88 325.664 L2499.88 291.104 Z" fill="#000000" fill-rule="nonzero" fill-opacity="1" /><path clip-path="url(#clip420)" d="M2531.45 287.747 L2536.06 287.747 L2528.51 296.451 L2524.97 296.451 L2531.45 287.747 M2526.1 299.738 L2530.36 299.738 L2530.36 325.664 L2526.1 325.664 L2526.1 299.738 M2528.23 299.113 L2528.23 299.113 Z" fill="#000000" fill-rule="nonzero" fill-opacity="1" /><path clip-path="url(#clip420)" d="M2559.46 304.715 Q2561.06 301.844 2563.28 300.479 Q2565.5 299.113 2568.51 299.113 Q2572.56 299.113 2574.76 301.96 Q2576.96 304.784 2576.96 310.016 L2576.96 325.664 L2572.68 325.664 L2572.68 310.155 Q2572.68 306.428 2571.36 304.622 Q2570.04 302.817 2567.33 302.817 Q2564.02 302.817 2562.1 305.016 Q2560.18 307.215 2560.18 311.011 L2560.18 325.664 L2555.89 325.664 L2555.89 310.155 Q2555.89 306.405 2554.57 304.622 Q2553.25 302.817 2550.5 302.817 Q2547.24 302.817 2545.32 305.039 Q2543.39 307.238 2543.39 311.011 L2543.39 325.664 L2539.11 325.664 L2539.11 299.738 L2543.39 299.738 L2543.39 303.766 Q2544.85 301.381 2546.89 300.247 Q2548.93 299.113 2551.73 299.113 Q2554.55 299.113 2556.52 300.548 Q2558.51 301.983 2559.46 304.715 Z" fill="#000000" fill-rule="nonzero" fill-opacity="1" /><path clip-path="url(#clip420)" d="M2585.45 299.738 L2589.71 299.738 L2589.71 325.664 L2585.45 325.664 L2585.45 299.738 M2585.45 289.645 L2589.71 289.645 L2589.71 295.039 L2585.45 295.039 L2585.45 289.645 Z" fill="#000000" fill-rule="nonzero" fill-opacity="1" /><path clip-path="url(#clip420)" d="M2602.84 292.377 L2602.84 299.738 L2611.61 299.738 L2611.61 303.048 L2602.84 303.048 L2602.84 317.122 Q2602.84 320.293 2603.69 321.196 Q2604.57 322.099 2607.24 322.099 L2611.61 322.099 L2611.61 325.664 L2607.24 325.664 Q2602.31 325.664 2600.43 323.835 Q2598.56 321.983 2598.56 317.122 L2598.56 303.048 L2595.43 303.048 L2595.43 299.738 L2598.56 299.738 L2598.56 292.377 L2602.84 292.377 Z" fill="#000000" fill-rule="nonzero" fill-opacity="1" /><path clip-path="url(#clip420)" d="M2639.39 311.636 L2639.39 313.719 L2619.81 313.719 Q2620.08 318.117 2622.44 320.432 Q2624.83 322.724 2629.06 322.724 Q2631.52 322.724 2633.81 322.122 Q2636.12 321.52 2638.39 320.317 L2638.39 324.344 Q2636.1 325.316 2633.69 325.826 Q2631.29 326.335 2628.81 326.335 Q2622.61 326.335 2618.97 322.724 Q2615.36 319.113 2615.36 312.955 Q2615.36 306.59 2618.79 302.863 Q2622.24 299.113 2628.07 299.113 Q2633.3 299.113 2636.33 302.493 Q2639.39 305.849 2639.39 311.636 M2635.13 310.386 Q2635.08 306.891 2633.16 304.807 Q2631.26 302.724 2628.12 302.724 Q2624.55 302.724 2622.4 304.738 Q2620.27 306.752 2619.94 310.409 L2635.13 310.386 Z" fill="#000000" fill-rule="nonzero" fill-opacity="1" /><path clip-path="url(#clip420)" d="M2662.91 300.502 L2662.91 304.53 Q2661.1 303.604 2659.16 303.141 Q2657.21 302.678 2655.13 302.678 Q2651.96 302.678 2650.36 303.65 Q2648.79 304.622 2648.79 306.567 Q2648.79 308.048 2649.92 308.905 Q2651.06 309.738 2654.48 310.502 L2655.94 310.826 Q2660.48 311.798 2662.37 313.58 Q2664.3 315.34 2664.3 318.511 Q2664.3 322.122 2661.43 324.229 Q2658.58 326.335 2653.58 326.335 Q2651.5 326.335 2649.23 325.918 Q2646.98 325.525 2644.48 324.715 L2644.48 320.317 Q2646.84 321.543 2649.13 322.168 Q2651.43 322.77 2653.67 322.77 Q2656.68 322.77 2658.3 321.752 Q2659.92 320.71 2659.92 318.835 Q2659.92 317.099 2658.74 316.173 Q2657.58 315.247 2653.62 314.391 L2652.14 314.043 Q2648.18 313.21 2646.43 311.497 Q2644.67 309.761 2644.67 306.752 Q2644.67 303.094 2647.26 301.104 Q2649.85 299.113 2654.62 299.113 Q2656.98 299.113 2659.06 299.46 Q2661.15 299.807 2662.91 300.502 Z" fill="#000000" fill-rule="nonzero" fill-opacity="1" /><path clip-path="url(#clip420)" d="M2681.54 291.104 L2710.78 291.104 L2710.78 295.039 L2698.51 295.039 L2698.51 325.664 L2693.81 325.664 L2693.81 295.039 L2681.54 295.039 L2681.54 291.104 Z" fill="#000000" fill-rule="nonzero" fill-opacity="1" /><path clip-path="url(#clip420)" d="M2738.39 293.766 L2738.39 298.696 Q2736.03 296.497 2733.35 295.409 Q2730.68 294.321 2727.68 294.321 Q2721.75 294.321 2718.6 297.956 Q2715.45 301.567 2715.45 308.418 Q2715.45 315.247 2718.6 318.881 Q2721.75 322.492 2727.68 322.492 Q2730.68 322.492 2733.35 321.404 Q2736.03 320.317 2738.39 318.117 L2738.39 323.002 Q2735.94 324.668 2733.18 325.502 Q2730.45 326.335 2727.4 326.335 Q2719.55 326.335 2715.04 321.543 Q2710.52 316.729 2710.52 308.418 Q2710.52 300.085 2715.04 295.294 Q2719.55 290.479 2727.4 290.479 Q2730.5 290.479 2733.23 291.312 Q2735.99 292.122 2738.39 293.766 Z" fill="#000000" fill-rule="nonzero" fill-opacity="1" /><path clip-path="url(#clip420)" d="M2745.61 291.104 L2750.29 291.104 L2750.29 321.729 L2767.12 321.729 L2767.12 325.664 L2745.61 325.664 L2745.61 291.104 Z" fill="#000000" fill-rule="nonzero" fill-opacity="1" /><polyline clip-path="url(#clip420)" style="stroke:#000000; stroke-linecap:round; stroke-linejoin:round; stroke-width:8; stroke-opacity:1; fill:none" points="2272.43,360.224 2467.38,360.224 "/>
<path clip-path="url(#clip420)" d="M2499.88 342.944 L2506.84 342.944 L2515.66 366.462 L2524.53 342.944 L2531.5 342.944 L2531.5 377.504 L2526.94 377.504 L2526.94 347.157 L2518.02 370.86 L2513.32 370.86 L2504.41 347.157 L2504.41 377.504 L2499.88 377.504 L2499.88 342.944 Z" fill="#000000" fill-rule="nonzero" fill-opacity="1" /><path clip-path="url(#clip420)" d="M2562.77 363.476 L2562.77 365.559 L2543.19 365.559 Q2543.46 369.957 2545.82 372.272 Q2548.21 374.564 2552.44 374.564 Q2554.9 374.564 2557.19 373.962 Q2559.5 373.36 2561.77 372.157 L2561.77 376.184 Q2559.48 377.156 2557.07 377.666 Q2554.67 378.175 2552.19 378.175 Q2545.99 378.175 2542.35 374.564 Q2538.74 370.953 2538.74 364.795 Q2538.74 358.43 2542.17 354.703 Q2545.62 350.953 2551.45 350.953 Q2556.68 350.953 2559.71 354.333 Q2562.77 357.689 2562.77 363.476 M2558.51 362.226 Q2558.46 358.731 2556.54 356.647 Q2554.64 354.564 2551.5 354.564 Q2547.93 354.564 2545.78 356.578 Q2543.65 358.592 2543.32 362.249 L2558.51 362.226 Z" fill="#000000" fill-rule="nonzero" fill-opacity="1" /><path clip-path="url(#clip420)" d="M2586.82 355.513 L2586.82 341.485 L2591.08 341.485 L2591.08 377.504 L2586.82 377.504 L2586.82 373.615 Q2585.48 375.93 2583.42 377.064 Q2581.38 378.175 2578.51 378.175 Q2573.81 378.175 2570.85 374.425 Q2567.91 370.675 2567.91 364.564 Q2567.91 358.453 2570.85 354.703 Q2573.81 350.953 2578.51 350.953 Q2581.38 350.953 2583.42 352.087 Q2585.48 353.198 2586.82 355.513 M2572.31 364.564 Q2572.31 369.263 2574.23 371.948 Q2576.17 374.61 2579.55 374.61 Q2582.93 374.61 2584.88 371.948 Q2586.82 369.263 2586.82 364.564 Q2586.82 359.865 2584.88 357.203 Q2582.93 354.518 2579.55 354.518 Q2576.17 354.518 2574.23 357.203 Q2572.31 359.865 2572.31 364.564 Z" fill="#000000" fill-rule="nonzero" fill-opacity="1" /><path clip-path="url(#clip420)" d="M2599.85 351.578 L2604.11 351.578 L2604.11 377.504 L2599.85 377.504 L2599.85 351.578 M2599.85 341.485 L2604.11 341.485 L2604.11 346.879 L2599.85 346.879 L2599.85 341.485 Z" fill="#000000" fill-rule="nonzero" fill-opacity="1" /><path clip-path="url(#clip420)" d="M2624.81 364.471 Q2619.64 364.471 2617.65 365.652 Q2615.66 366.832 2615.66 369.68 Q2615.66 371.948 2617.14 373.291 Q2618.65 374.61 2621.22 374.61 Q2624.76 374.61 2626.89 372.11 Q2629.04 369.587 2629.04 365.42 L2629.04 364.471 L2624.81 364.471 M2633.3 362.712 L2633.3 377.504 L2629.04 377.504 L2629.04 373.569 Q2627.58 375.93 2625.41 377.064 Q2623.23 378.175 2620.08 378.175 Q2616.1 378.175 2613.74 375.953 Q2611.4 373.707 2611.4 369.957 Q2611.4 365.582 2614.32 363.36 Q2617.26 361.138 2623.07 361.138 L2629.04 361.138 L2629.04 360.721 Q2629.04 357.782 2627.1 356.184 Q2625.18 354.564 2621.68 354.564 Q2619.46 354.564 2617.35 355.096 Q2615.25 355.629 2613.3 356.694 L2613.3 352.758 Q2615.64 351.856 2617.84 351.416 Q2620.04 350.953 2622.12 350.953 Q2627.75 350.953 2630.52 353.87 Q2633.3 356.786 2633.3 362.712 Z" fill="#000000" fill-rule="nonzero" fill-opacity="1" /><path clip-path="url(#clip420)" d="M2677.33 356.555 Q2678.93 353.684 2681.15 352.319 Q2683.37 350.953 2686.38 350.953 Q2690.43 350.953 2692.63 353.8 Q2694.83 356.624 2694.83 361.856 L2694.83 377.504 L2690.55 377.504 L2690.55 361.995 Q2690.55 358.268 2689.23 356.462 Q2687.91 354.657 2685.2 354.657 Q2681.89 354.657 2679.97 356.856 Q2678.05 359.055 2678.05 362.851 L2678.05 377.504 L2673.76 377.504 L2673.76 361.995 Q2673.76 358.245 2672.44 356.462 Q2671.12 354.657 2668.37 354.657 Q2665.11 354.657 2663.18 356.879 Q2661.26 359.078 2661.26 362.851 L2661.26 377.504 L2656.98 377.504 L2656.98 351.578 L2661.26 351.578 L2661.26 355.606 Q2662.72 353.221 2664.76 352.087 Q2666.8 350.953 2669.6 350.953 Q2672.42 350.953 2674.39 352.388 Q2676.38 353.823 2677.33 356.555 Z" fill="#000000" fill-rule="nonzero" fill-opacity="1" /><path clip-path="url(#clip420)" d="M2702.88 367.272 L2702.88 351.578 L2707.14 351.578 L2707.14 367.11 Q2707.14 370.791 2708.58 372.643 Q2710.01 374.471 2712.88 374.471 Q2716.33 374.471 2718.32 372.272 Q2720.34 370.073 2720.34 366.277 L2720.34 351.578 L2724.6 351.578 L2724.6 377.504 L2720.34 377.504 L2720.34 373.522 Q2718.79 375.883 2716.73 377.041 Q2714.69 378.175 2711.98 378.175 Q2707.51 378.175 2705.2 375.397 Q2702.88 372.619 2702.88 367.272 M2713.6 350.953 L2713.6 350.953 Z" fill="#000000" fill-rule="nonzero" fill-opacity="1" /><path clip-path="url(#clip420)" d="M2755.55 363.476 L2755.55 365.559 L2735.96 365.559 Q2736.24 369.957 2738.6 372.272 Q2740.99 374.564 2745.22 374.564 Q2747.68 374.564 2749.97 373.962 Q2752.28 373.36 2754.55 372.157 L2754.55 376.184 Q2752.26 377.156 2749.85 377.666 Q2747.44 378.175 2744.97 378.175 Q2738.76 378.175 2735.13 374.564 Q2731.52 370.953 2731.52 364.795 Q2731.52 358.43 2734.94 354.703 Q2738.39 350.953 2744.23 350.953 Q2749.46 350.953 2752.49 354.333 Q2755.55 357.689 2755.55 363.476 M2751.29 362.226 Q2751.24 358.731 2749.32 356.647 Q2747.42 354.564 2744.27 354.564 Q2740.71 354.564 2738.55 356.578 Q2736.43 358.592 2736.1 362.249 L2751.29 362.226 Z" fill="#000000" fill-rule="nonzero" fill-opacity="1" /><path clip-path="url(#clip420)" d="M2779.06 352.342 L2779.06 356.37 Q2777.26 355.444 2775.31 354.981 Q2773.37 354.518 2771.29 354.518 Q2768.11 354.518 2766.52 355.49 Q2764.94 356.462 2764.94 358.407 Q2764.94 359.888 2766.08 360.745 Q2767.21 361.578 2770.64 362.342 L2772.1 362.666 Q2776.63 363.638 2778.53 365.42 Q2780.45 367.18 2780.45 370.351 Q2780.45 373.962 2777.58 376.069 Q2774.74 378.175 2769.74 378.175 Q2767.65 378.175 2765.38 377.758 Q2763.14 377.365 2760.64 376.555 L2760.64 372.157 Q2763 373.383 2765.29 374.008 Q2767.58 374.61 2769.83 374.61 Q2772.84 374.61 2774.46 373.592 Q2776.08 372.55 2776.08 370.675 Q2776.08 368.939 2774.9 368.013 Q2773.74 367.087 2769.78 366.231 L2768.3 365.883 Q2764.34 365.05 2762.58 363.337 Q2760.82 361.601 2760.82 358.592 Q2760.82 354.934 2763.42 352.944 Q2766.01 350.953 2770.78 350.953 Q2773.14 350.953 2775.22 351.3 Q2777.3 351.647 2779.06 352.342 Z" fill="#000000" fill-rule="nonzero" fill-opacity="1" /><path clip-path="url(#clip420)" d="M2791.45 344.217 L2791.45 351.578 L2800.22 351.578 L2800.22 354.888 L2791.45 354.888 L2791.45 368.962 Q2791.45 372.133 2792.3 373.036 Q2793.18 373.939 2795.85 373.939 L2800.22 373.939 L2800.22 377.504 L2795.85 377.504 Q2790.92 377.504 2789.04 375.675 Q2787.17 373.823 2787.17 368.962 L2787.17 354.888 L2784.04 354.888 L2784.04 351.578 L2787.17 351.578 L2787.17 344.217 L2791.45 344.217 Z" fill="#000000" fill-rule="nonzero" fill-opacity="1" /><path clip-path="url(#clip420)" d="M2820.85 355.559 Q2820.13 355.143 2819.27 354.958 Q2818.44 354.749 2817.42 354.749 Q2813.81 354.749 2811.86 357.11 Q2809.94 359.448 2809.94 363.846 L2809.94 377.504 L2805.66 377.504 L2805.66 351.578 L2809.94 351.578 L2809.94 355.606 Q2811.29 353.245 2813.44 352.11 Q2815.59 350.953 2818.67 350.953 Q2819.11 350.953 2819.64 351.022 Q2820.17 351.069 2820.82 351.184 L2820.85 355.559 Z" fill="#000000" fill-rule="nonzero" fill-opacity="1" /><path clip-path="url(#clip420)" d="M2837.1 364.471 Q2831.93 364.471 2829.94 365.652 Q2827.95 366.832 2827.95 369.68 Q2827.95 371.948 2829.43 373.291 Q2830.94 374.61 2833.51 374.61 Q2837.05 374.61 2839.18 372.11 Q2841.33 369.587 2841.33 365.42 L2841.33 364.471 L2837.1 364.471 M2845.59 362.712 L2845.59 377.504 L2841.33 377.504 L2841.33 373.569 Q2839.87 375.93 2837.7 377.064 Q2835.52 378.175 2832.37 378.175 Q2828.39 378.175 2826.03 375.953 Q2823.69 373.707 2823.69 369.957 Q2823.69 365.582 2826.61 363.36 Q2829.55 361.138 2835.36 361.138 L2841.33 361.138 L2841.33 360.721 Q2841.33 357.782 2839.39 356.184 Q2837.47 354.564 2833.97 354.564 Q2831.75 354.564 2829.64 355.096 Q2827.54 355.629 2825.59 356.694 L2825.59 352.758 Q2827.93 351.856 2830.13 351.416 Q2832.33 350.953 2834.41 350.953 Q2840.04 350.953 2842.81 353.87 Q2845.59 356.786 2845.59 362.712 Z" fill="#000000" fill-rule="nonzero" fill-opacity="1" /><path clip-path="url(#clip420)" d="M2854.36 341.485 L2858.62 341.485 L2858.62 377.504 L2854.36 377.504 L2854.36 341.485 Z" fill="#000000" fill-rule="nonzero" fill-opacity="1" /></svg>
