<?xml version="1.0" encoding="utf-8"?>
<svg xmlns="http://www.w3.org/2000/svg" xmlns:xlink="http://www.w3.org/1999/xlink" width="800" height="400" viewBox="0 0 3200 1600">
<defs>
  <clipPath id="clip510">
    <rect x="0" y="0" width="3200" height="1600"/>
  </clipPath>
</defs>
<path clip-path="url(#clip510)" d="M0 1600 L3200 1600 L3200 0 L0 0  Z" fill="#ffffff" fill-rule="evenodd" fill-opacity="1"/>
<defs>
  <clipPath id="clip511">
    <rect x="640" y="0" width="2241" height="1600"/>
  </clipPath>
</defs>
<path clip-path="url(#clip510)" d="M201.241 1443.7 L3152.76 1443.7 L3152.76 108.352 L201.241 108.352  Z" fill="#ffffff" fill-rule="evenodd" fill-opacity="1"/>
<defs>
  <clipPath id="clip512">
    <rect x="201" y="108" width="2953" height="1336"/>
  </clipPath>
</defs>
<polyline clip-path="url(#clip512)" style="stroke:#000000; stroke-linecap:round; stroke-linejoin:round; stroke-width:2; stroke-opacity:0.1; fill:none" points="284.774,1443.7 284.774,108.352 "/>
<polyline clip-path="url(#clip512)" style="stroke:#000000; stroke-linecap:round; stroke-linejoin:round; stroke-width:2; stroke-opacity:0.1; fill:none" points="980.886,1443.7 980.886,108.352 "/>
<polyline clip-path="url(#clip512)" style="stroke:#000000; stroke-linecap:round; stroke-linejoin:round; stroke-width:2; stroke-opacity:0.1; fill:none" points="1677,1443.7 1677,108.352 "/>
<polyline clip-path="url(#clip512)" style="stroke:#000000; stroke-linecap:round; stroke-linejoin:round; stroke-width:2; stroke-opacity:0.1; fill:none" points="2373.11,1443.7 2373.11,108.352 "/>
<polyline clip-path="url(#clip512)" style="stroke:#000000; stroke-linecap:round; stroke-linejoin:round; stroke-width:2; stroke-opacity:0.1; fill:none" points="3069.22,1443.7 3069.22,108.352 "/>
<polyline clip-path="url(#clip512)" style="stroke:#000000; stroke-linecap:round; stroke-linejoin:round; stroke-width:2; stroke-opacity:0.1; fill:none" points="201.241,1277.44 3152.76,1277.44 "/>
<polyline clip-path="url(#clip512)" style="stroke:#000000; stroke-linecap:round; stroke-linejoin:round; stroke-width:2; stroke-opacity:0.1; fill:none" points="201.241,1041.19 3152.76,1041.19 "/>
<polyline clip-path="url(#clip512)" style="stroke:#000000; stroke-linecap:round; stroke-linejoin:round; stroke-width:2; stroke-opacity:0.1; fill:none" points="201.241,804.944 3152.76,804.944 "/>
<polyline clip-path="url(#clip512)" style="stroke:#000000; stroke-linecap:round; stroke-linejoin:round; stroke-width:2; stroke-opacity:0.1; fill:none" points="201.241,568.697 3152.76,568.697 "/>
<polyline clip-path="url(#clip512)" style="stroke:#000000; stroke-linecap:round; stroke-linejoin:round; stroke-width:2; stroke-opacity:0.1; fill:none" points="201.241,332.451 3152.76,332.451 "/>
<polyline clip-path="url(#clip510)" style="stroke:#000000; stroke-linecap:round; stroke-linejoin:round; stroke-width:4; stroke-opacity:1; fill:none" points="201.241,1443.7 3152.76,1443.7 "/>
<polyline clip-path="url(#clip510)" style="stroke:#000000; stroke-linecap:round; stroke-linejoin:round; stroke-width:4; stroke-opacity:1; fill:none" points="284.774,1443.7 284.774,1424.8 "/>
<polyline clip-path="url(#clip510)" style="stroke:#000000; stroke-linecap:round; stroke-linejoin:round; stroke-width:4; stroke-opacity:1; fill:none" points="980.886,1443.7 980.886,1424.8 "/>
<polyline clip-path="url(#clip510)" style="stroke:#000000; stroke-linecap:round; stroke-linejoin:round; stroke-width:4; stroke-opacity:1; fill:none" points="1677,1443.7 1677,1424.8 "/>
<polyline clip-path="url(#clip510)" style="stroke:#000000; stroke-linecap:round; stroke-linejoin:round; stroke-width:4; stroke-opacity:1; fill:none" points="2373.11,1443.7 2373.11,1424.8 "/>
<polyline clip-path="url(#clip510)" style="stroke:#000000; stroke-linecap:round; stroke-linejoin:round; stroke-width:4; stroke-opacity:1; fill:none" points="3069.22,1443.7 3069.22,1424.8 "/>
<path clip-path="url(#clip510)" d="M259.462 1508.56 L267.101 1508.56 L267.101 1482.2 L258.791 1483.87 L258.791 1479.61 L267.055 1477.94 L271.731 1477.94 L271.731 1508.56 L279.369 1508.56 L279.369 1512.5 L259.462 1512.5 L259.462 1508.56 Z" fill="#000000" fill-rule="nonzero" fill-opacity="1" /><path clip-path="url(#clip510)" d="M298.814 1481.02 Q295.203 1481.02 293.374 1484.58 Q291.568 1488.12 291.568 1495.25 Q291.568 1502.36 293.374 1505.93 Q295.203 1509.47 298.814 1509.47 Q302.448 1509.47 304.253 1505.93 Q306.082 1502.36 306.082 1495.25 Q306.082 1488.12 304.253 1484.58 Q302.448 1481.02 298.814 1481.02 M298.814 1477.31 Q304.624 1477.31 307.679 1481.92 Q310.758 1486.5 310.758 1495.25 Q310.758 1503.98 307.679 1508.59 Q304.624 1513.17 298.814 1513.17 Q293.004 1513.17 289.925 1508.59 Q286.869 1503.98 286.869 1495.25 Q286.869 1486.5 289.925 1481.92 Q293.004 1477.31 298.814 1477.31 Z" fill="#000000" fill-rule="nonzero" fill-opacity="1" /><path clip-path="url(#clip510)" d="M956.072 1508.56 L963.711 1508.56 L963.711 1482.2 L955.4 1483.87 L955.4 1479.61 L963.664 1477.94 L968.34 1477.94 L968.34 1508.56 L975.979 1508.56 L975.979 1512.5 L956.072 1512.5 L956.072 1508.56 Z" fill="#000000" fill-rule="nonzero" fill-opacity="1" /><path clip-path="url(#clip510)" d="M985.47 1477.94 L1003.83 1477.94 L1003.83 1481.88 L989.752 1481.88 L989.752 1490.35 Q990.771 1490 991.789 1489.84 Q992.808 1489.65 993.826 1489.65 Q999.613 1489.65 1002.99 1492.82 Q1006.37 1496 1006.37 1501.41 Q1006.37 1506.99 1002.9 1510.09 Q999.428 1513.17 993.109 1513.17 Q990.933 1513.17 988.664 1512.8 Q986.419 1512.43 984.011 1511.69 L984.011 1506.99 Q986.095 1508.12 988.317 1508.68 Q990.539 1509.24 993.016 1509.24 Q997.021 1509.24 999.359 1507.13 Q1001.7 1505.02 1001.7 1501.41 Q1001.7 1497.8 999.359 1495.69 Q997.021 1493.59 993.016 1493.59 Q991.141 1493.59 989.266 1494 Q987.414 1494.42 985.47 1495.3 L985.47 1477.94 Z" fill="#000000" fill-rule="nonzero" fill-opacity="1" /><path clip-path="url(#clip510)" d="M1655.77 1508.56 L1672.09 1508.56 L1672.09 1512.5 L1650.15 1512.5 L1650.15 1508.56 Q1652.81 1505.81 1657.39 1501.18 Q1662 1496.53 1663.18 1495.19 Q1665.42 1492.66 1666.3 1490.93 Q1667.21 1489.17 1667.21 1487.48 Q1667.21 1484.72 1665.26 1482.99 Q1663.34 1481.25 1660.24 1481.25 Q1658.04 1481.25 1655.59 1482.01 Q1653.16 1482.78 1650.38 1484.33 L1650.38 1479.61 Q1653.2 1478.47 1655.66 1477.89 Q1658.11 1477.31 1660.15 1477.31 Q1665.52 1477.31 1668.71 1480 Q1671.91 1482.69 1671.91 1487.18 Q1671.91 1489.31 1671.1 1491.23 Q1670.31 1493.12 1668.2 1495.72 Q1667.62 1496.39 1664.52 1499.61 Q1661.42 1502.8 1655.77 1508.56 Z" fill="#000000" fill-rule="nonzero" fill-opacity="1" /><path clip-path="url(#clip510)" d="M1691.91 1481.02 Q1688.29 1481.02 1686.47 1484.58 Q1684.66 1488.12 1684.66 1495.25 Q1684.66 1502.36 1686.47 1505.93 Q1688.29 1509.47 1691.91 1509.47 Q1695.54 1509.47 1697.35 1505.93 Q1699.17 1502.36 1699.17 1495.25 Q1699.17 1488.12 1697.35 1484.58 Q1695.54 1481.02 1691.91 1481.02 M1691.91 1477.31 Q1697.72 1477.31 1700.77 1481.92 Q1703.85 1486.5 1703.85 1495.25 Q1703.85 1503.98 1700.77 1508.59 Q1697.72 1513.17 1691.91 1513.17 Q1686.1 1513.17 1683.02 1508.59 Q1679.96 1503.98 1679.96 1495.25 Q1679.96 1486.5 1683.02 1481.92 Q1686.1 1477.31 1691.91 1477.31 Z" fill="#000000" fill-rule="nonzero" fill-opacity="1" /><path clip-path="url(#clip510)" d="M2352.38 1508.56 L2368.7 1508.56 L2368.7 1512.5 L2346.76 1512.5 L2346.76 1508.56 Q2349.42 1505.81 2354 1501.18 Q2358.61 1496.53 2359.79 1495.19 Q2362.03 1492.66 2362.91 1490.93 Q2363.82 1489.17 2363.82 1487.48 Q2363.82 1484.72 2361.87 1482.99 Q2359.95 1481.25 2356.85 1481.25 Q2354.65 1481.25 2352.2 1482.01 Q2349.77 1482.78 2346.99 1484.33 L2346.99 1479.61 Q2349.81 1478.47 2352.27 1477.89 Q2354.72 1477.31 2356.76 1477.31 Q2362.13 1477.31 2365.32 1480 Q2368.52 1482.69 2368.52 1487.18 Q2368.52 1489.31 2367.71 1491.23 Q2366.92 1493.12 2364.81 1495.72 Q2364.23 1496.39 2361.13 1499.61 Q2358.03 1502.8 2352.38 1508.56 Z" fill="#000000" fill-rule="nonzero" fill-opacity="1" /><path clip-path="url(#clip510)" d="M2378.56 1477.94 L2396.92 1477.94 L2396.92 1481.88 L2382.84 1481.88 L2382.84 1490.35 Q2383.86 1490 2384.88 1489.84 Q2385.9 1489.65 2386.92 1489.65 Q2392.71 1489.65 2396.08 1492.82 Q2399.46 1496 2399.46 1501.41 Q2399.46 1506.99 2395.99 1510.09 Q2392.52 1513.17 2386.2 1513.17 Q2384.02 1513.17 2381.76 1512.8 Q2379.51 1512.43 2377.1 1511.69 L2377.1 1506.99 Q2379.19 1508.12 2381.41 1508.68 Q2383.63 1509.24 2386.11 1509.24 Q2390.11 1509.24 2392.45 1507.13 Q2394.79 1505.02 2394.79 1501.41 Q2394.79 1497.8 2392.45 1495.69 Q2390.11 1493.59 2386.11 1493.59 Q2384.23 1493.59 2382.36 1494 Q2380.51 1494.42 2378.56 1495.3 L2378.56 1477.94 Z" fill="#000000" fill-rule="nonzero" fill-opacity="1" /><path clip-path="url(#clip510)" d="M3058.07 1493.87 Q3061.42 1494.58 3063.3 1496.85 Q3065.19 1499.12 3065.19 1502.45 Q3065.19 1507.57 3061.68 1510.37 Q3058.16 1513.17 3051.68 1513.17 Q3049.5 1513.17 3047.19 1512.73 Q3044.89 1512.31 3042.44 1511.46 L3042.44 1506.94 Q3044.38 1508.08 3046.7 1508.66 Q3049.01 1509.24 3051.54 1509.24 Q3055.94 1509.24 3058.23 1507.5 Q3060.54 1505.76 3060.54 1502.45 Q3060.54 1499.4 3058.39 1497.69 Q3056.26 1495.95 3052.44 1495.95 L3048.41 1495.95 L3048.41 1492.11 L3052.63 1492.11 Q3056.07 1492.11 3057.9 1490.74 Q3059.73 1489.35 3059.73 1486.76 Q3059.73 1484.1 3057.83 1482.69 Q3055.96 1481.25 3052.44 1481.25 Q3050.52 1481.25 3048.32 1481.67 Q3046.12 1482.08 3043.48 1482.96 L3043.48 1478.8 Q3046.14 1478.06 3048.46 1477.69 Q3050.8 1477.31 3052.86 1477.31 Q3058.18 1477.31 3061.28 1479.75 Q3064.38 1482.15 3064.38 1486.27 Q3064.38 1489.14 3062.74 1491.13 Q3061.1 1493.1 3058.07 1493.87 Z" fill="#000000" fill-rule="nonzero" fill-opacity="1" /><path clip-path="url(#clip510)" d="M3084.06 1481.02 Q3080.45 1481.02 3078.62 1484.58 Q3076.82 1488.12 3076.82 1495.25 Q3076.82 1502.36 3078.62 1505.93 Q3080.45 1509.47 3084.06 1509.47 Q3087.69 1509.47 3089.5 1505.93 Q3091.33 1502.36 3091.33 1495.25 Q3091.33 1488.12 3089.5 1484.58 Q3087.69 1481.02 3084.06 1481.02 M3084.06 1477.31 Q3089.87 1477.31 3092.93 1481.92 Q3096 1486.5 3096 1495.25 Q3096 1503.98 3092.93 1508.59 Q3089.87 1513.17 3084.06 1513.17 Q3078.25 1513.17 3075.17 1508.59 Q3072.12 1503.98 3072.12 1495.25 Q3072.12 1486.5 3075.17 1481.92 Q3078.25 1477.31 3084.06 1477.31 Z" fill="#000000" fill-rule="nonzero" fill-opacity="1" /><path clip-path="url(#clip510)" d="M1397.77 1553.04 L1437.97 1553.04 L1437.97 1558.45 L1421.1 1558.45 L1421.1 1600.56 L1414.64 1600.56 L1414.64 1558.45 L1397.77 1558.45 L1397.77 1553.04 Z" fill="#000000" fill-rule="nonzero" fill-opacity="1" /><path clip-path="url(#clip510)" d="M1463.33 1581.28 L1463.33 1584.14 L1436.41 1584.14 Q1436.79 1590.19 1440.04 1593.37 Q1443.31 1596.52 1449.14 1596.52 Q1452.51 1596.52 1455.66 1595.69 Q1458.85 1594.87 1461.96 1593.21 L1461.96 1598.75 Q1458.81 1600.09 1455.5 1600.79 Q1452.19 1601.49 1448.79 1601.49 Q1440.26 1601.49 1435.26 1596.52 Q1430.3 1591.56 1430.3 1583.09 Q1430.3 1574.34 1435.01 1569.21 Q1439.75 1564.06 1447.77 1564.06 Q1454.96 1564.06 1459.13 1568.7 Q1463.33 1573.32 1463.33 1581.28 M1457.48 1579.56 Q1457.41 1574.75 1454.77 1571.89 Q1452.16 1569.02 1447.83 1569.02 Q1442.93 1569.02 1439.97 1571.79 Q1437.04 1574.56 1436.6 1579.59 L1457.48 1579.56 Z" fill="#000000" fill-rule="nonzero" fill-opacity="1" /><path clip-path="url(#clip510)" d="M1500.7 1571.76 Q1502.9 1567.81 1505.95 1565.93 Q1509.01 1564.06 1513.15 1564.06 Q1518.72 1564.06 1521.74 1567.97 Q1524.76 1571.85 1524.76 1579.05 L1524.76 1600.56 L1518.87 1600.56 L1518.87 1579.24 Q1518.87 1574.11 1517.06 1571.63 Q1515.25 1569.15 1511.52 1569.15 Q1506.97 1569.15 1504.33 1572.17 Q1501.69 1575.2 1501.69 1580.42 L1501.69 1600.56 L1495.8 1600.56 L1495.8 1579.24 Q1495.8 1574.08 1493.98 1571.63 Q1492.17 1569.15 1488.38 1569.15 Q1483.89 1569.15 1481.25 1572.2 Q1478.61 1575.23 1478.61 1580.42 L1478.61 1600.56 L1472.72 1600.56 L1472.72 1564.92 L1478.61 1564.92 L1478.61 1570.45 Q1480.62 1567.18 1483.42 1565.62 Q1486.22 1564.06 1490.07 1564.06 Q1493.95 1564.06 1496.66 1566.03 Q1499.4 1568 1500.7 1571.76 Z" fill="#000000" fill-rule="nonzero" fill-opacity="1" /><path clip-path="url(#clip510)" d="M1542.11 1595.22 L1542.11 1614.12 L1536.22 1614.12 L1536.22 1564.92 L1542.11 1564.92 L1542.11 1570.33 Q1543.96 1567.14 1546.76 1565.62 Q1549.59 1564.06 1553.5 1564.06 Q1560 1564.06 1564.04 1569.21 Q1568.11 1574.37 1568.11 1582.77 Q1568.11 1591.17 1564.04 1596.33 Q1560 1601.49 1553.5 1601.49 Q1549.59 1601.49 1546.76 1599.96 Q1543.96 1598.4 1542.11 1595.22 M1562.03 1582.77 Q1562.03 1576.31 1559.36 1572.65 Q1556.72 1568.96 1552.07 1568.96 Q1547.42 1568.96 1544.75 1572.65 Q1542.11 1576.31 1542.11 1582.77 Q1542.11 1589.23 1544.75 1592.92 Q1547.42 1596.59 1552.07 1596.59 Q1556.72 1596.59 1559.36 1592.92 Q1562.03 1589.23 1562.03 1582.77 Z" fill="#000000" fill-rule="nonzero" fill-opacity="1" /><path clip-path="url(#clip510)" d="M1608.31 1581.28 L1608.31 1584.14 L1581.39 1584.14 Q1581.77 1590.19 1585.01 1593.37 Q1588.29 1596.52 1594.12 1596.52 Q1597.49 1596.52 1600.64 1595.69 Q1603.82 1594.87 1606.94 1593.21 L1606.94 1598.75 Q1603.79 1600.09 1600.48 1600.79 Q1597.17 1601.49 1593.77 1601.49 Q1585.24 1601.49 1580.24 1596.52 Q1575.27 1591.56 1575.27 1583.09 Q1575.27 1574.34 1579.99 1569.21 Q1584.73 1564.06 1592.75 1564.06 Q1599.94 1564.06 1604.11 1568.7 Q1608.31 1573.32 1608.31 1581.28 M1602.46 1579.56 Q1602.39 1574.75 1599.75 1571.89 Q1597.14 1569.02 1592.81 1569.02 Q1587.91 1569.02 1584.95 1571.79 Q1582.02 1574.56 1581.58 1579.59 L1602.46 1579.56 Z" fill="#000000" fill-rule="nonzero" fill-opacity="1" /><path clip-path="url(#clip510)" d="M1638.58 1570.39 Q1637.59 1569.82 1636.42 1569.56 Q1635.27 1569.28 1633.87 1569.28 Q1628.91 1569.28 1626.23 1572.52 Q1623.59 1575.74 1623.59 1581.79 L1623.59 1600.56 L1617.7 1600.56 L1617.7 1564.92 L1623.59 1564.92 L1623.59 1570.45 Q1625.44 1567.21 1628.4 1565.65 Q1631.36 1564.06 1635.59 1564.06 Q1636.19 1564.06 1636.93 1564.15 Q1637.66 1564.22 1638.55 1564.37 L1638.58 1570.39 Z" fill="#000000" fill-rule="nonzero" fill-opacity="1" /><path clip-path="url(#clip510)" d="M1660.93 1582.64 Q1653.83 1582.64 1651.09 1584.27 Q1648.35 1585.89 1648.35 1589.81 Q1648.35 1592.92 1650.39 1594.77 Q1652.46 1596.59 1655.99 1596.59 Q1660.86 1596.59 1663.79 1593.15 Q1666.75 1589.68 1666.75 1583.95 L1666.75 1582.64 L1660.93 1582.64 M1672.61 1580.23 L1672.61 1600.56 L1666.75 1600.56 L1666.75 1595.15 Q1664.74 1598.4 1661.75 1599.96 Q1658.76 1601.49 1654.43 1601.49 Q1648.96 1601.49 1645.71 1598.43 Q1642.5 1595.34 1642.5 1590.19 Q1642.5 1584.17 1646.51 1581.12 Q1650.55 1578.06 1658.54 1578.06 L1666.75 1578.06 L1666.75 1577.49 Q1666.75 1573.45 1664.08 1571.25 Q1661.43 1569.02 1656.63 1569.02 Q1653.57 1569.02 1650.68 1569.75 Q1647.78 1570.49 1645.11 1571.95 L1645.11 1566.54 Q1648.32 1565.3 1651.34 1564.69 Q1654.37 1564.06 1657.23 1564.06 Q1664.97 1564.06 1668.79 1568.07 Q1672.61 1572.08 1672.61 1580.23 Z" fill="#000000" fill-rule="nonzero" fill-opacity="1" /><path clip-path="url(#clip510)" d="M1690.46 1554.79 L1690.46 1564.92 L1702.52 1564.92 L1702.52 1569.47 L1690.46 1569.47 L1690.46 1588.82 Q1690.46 1593.18 1691.64 1594.42 Q1692.85 1595.66 1696.51 1595.66 L1702.52 1595.66 L1702.52 1600.56 L1696.51 1600.56 Q1689.73 1600.56 1687.15 1598.05 Q1684.57 1595.5 1684.57 1588.82 L1684.57 1569.47 L1680.28 1569.47 L1680.28 1564.92 L1684.57 1564.92 L1684.57 1554.79 L1690.46 1554.79 Z" fill="#000000" fill-rule="nonzero" fill-opacity="1" /><path clip-path="url(#clip510)" d="M1709.62 1586.5 L1709.62 1564.92 L1715.48 1564.92 L1715.48 1586.27 Q1715.48 1591.33 1717.45 1593.88 Q1719.43 1596.39 1723.37 1596.39 Q1728.12 1596.39 1730.85 1593.37 Q1733.62 1590.35 1733.62 1585.13 L1733.62 1564.92 L1739.48 1564.92 L1739.48 1600.56 L1733.62 1600.56 L1733.62 1595.09 Q1731.49 1598.34 1728.66 1599.93 Q1725.86 1601.49 1722.13 1601.49 Q1715.99 1601.49 1712.81 1597.67 Q1709.62 1593.85 1709.62 1586.5 M1724.36 1564.06 L1724.36 1564.06 Z" fill="#000000" fill-rule="nonzero" fill-opacity="1" /><path clip-path="url(#clip510)" d="M1772.2 1570.39 Q1771.21 1569.82 1770.03 1569.56 Q1768.89 1569.28 1767.49 1569.28 Q1762.52 1569.28 1759.85 1572.52 Q1757.21 1575.74 1757.21 1581.79 L1757.21 1600.56 L1751.32 1600.56 L1751.32 1564.92 L1757.21 1564.92 L1757.21 1570.45 Q1759.05 1567.21 1762.01 1565.65 Q1764.97 1564.06 1769.21 1564.06 Q1769.81 1564.06 1770.54 1564.15 Q1771.27 1564.22 1772.17 1564.37 L1772.2 1570.39 Z" fill="#000000" fill-rule="nonzero" fill-opacity="1" /><path clip-path="url(#clip510)" d="M1794.54 1582.64 Q1787.44 1582.64 1784.71 1584.27 Q1781.97 1585.89 1781.97 1589.81 Q1781.97 1592.92 1784.01 1594.77 Q1786.07 1596.59 1789.61 1596.59 Q1794.48 1596.59 1797.41 1593.15 Q1800.37 1589.68 1800.37 1583.95 L1800.37 1582.64 L1794.54 1582.64 M1806.22 1580.23 L1806.22 1600.56 L1800.37 1600.56 L1800.37 1595.15 Q1798.36 1598.4 1795.37 1599.96 Q1792.38 1601.49 1788.05 1601.49 Q1782.57 1601.49 1779.33 1598.43 Q1776.11 1595.34 1776.11 1590.19 Q1776.11 1584.17 1780.12 1581.12 Q1784.17 1578.06 1792.15 1578.06 L1800.37 1578.06 L1800.37 1577.49 Q1800.37 1573.45 1797.69 1571.25 Q1795.05 1569.02 1790.24 1569.02 Q1787.19 1569.02 1784.29 1569.75 Q1781.4 1570.49 1778.72 1571.95 L1778.72 1566.54 Q1781.94 1565.3 1784.96 1564.69 Q1787.98 1564.06 1790.85 1564.06 Q1798.58 1564.06 1802.4 1568.07 Q1806.22 1572.08 1806.22 1580.23 Z" fill="#000000" fill-rule="nonzero" fill-opacity="1" /><path clip-path="url(#clip510)" d="M1853.07 1551.1 Q1848.81 1558.42 1846.74 1565.58 Q1844.67 1572.75 1844.67 1580.1 Q1844.67 1587.45 1846.74 1594.68 Q1848.84 1601.87 1853.07 1609.16 L1847.98 1609.16 Q1843.21 1601.68 1840.82 1594.45 Q1838.46 1587.23 1838.46 1580.1 Q1838.46 1573 1840.82 1565.81 Q1843.18 1558.61 1847.98 1551.1 L1853.07 1551.1 Z" fill="#000000" fill-rule="nonzero" fill-opacity="1" /><path clip-path="url(#clip510)" d="M1874.59 1556.29 Q1872.04 1556.29 1870.29 1558.07 Q1868.54 1559.82 1868.54 1562.37 Q1868.54 1564.88 1870.29 1566.63 Q1872.04 1568.35 1874.59 1568.35 Q1877.14 1568.35 1878.89 1566.63 Q1880.64 1564.88 1880.64 1562.37 Q1880.64 1559.86 1878.85 1558.07 Q1877.1 1556.29 1874.59 1556.29 M1874.59 1552.18 Q1876.63 1552.18 1878.5 1552.98 Q1880.38 1553.74 1881.75 1555.21 Q1883.22 1556.64 1883.95 1558.45 Q1884.68 1560.27 1884.68 1562.37 Q1884.68 1566.57 1881.72 1569.5 Q1878.79 1572.4 1874.53 1572.4 Q1870.23 1572.4 1867.36 1569.53 Q1864.5 1566.67 1864.5 1562.37 Q1864.5 1558.1 1867.43 1555.14 Q1870.36 1552.18 1874.59 1552.18 Z" fill="#000000" fill-rule="nonzero" fill-opacity="1" /><path clip-path="url(#clip510)" d="M1932.87 1556.7 L1932.87 1563.48 Q1929.62 1560.46 1925.93 1558.96 Q1922.27 1557.47 1918.13 1557.47 Q1909.98 1557.47 1905.65 1562.47 Q1901.33 1567.43 1901.33 1576.85 Q1901.33 1586.24 1905.65 1591.24 Q1909.98 1596.2 1918.13 1596.2 Q1922.27 1596.2 1925.93 1594.71 Q1929.62 1593.21 1932.87 1590.19 L1932.87 1596.9 Q1929.49 1599.2 1925.71 1600.34 Q1921.95 1601.49 1917.75 1601.49 Q1906.96 1601.49 1900.75 1594.9 Q1894.55 1588.28 1894.55 1576.85 Q1894.55 1565.39 1900.75 1558.8 Q1906.96 1552.18 1917.75 1552.18 Q1922.01 1552.18 1925.77 1553.33 Q1929.56 1554.44 1932.87 1556.7 Z" fill="#000000" fill-rule="nonzero" fill-opacity="1" /><path clip-path="url(#clip510)" d="M1941.62 1551.1 L1946.71 1551.1 Q1951.49 1558.61 1953.84 1565.81 Q1956.23 1573 1956.23 1580.1 Q1956.23 1587.23 1953.84 1594.45 Q1951.49 1601.68 1946.71 1609.16 L1941.62 1609.16 Q1945.85 1601.87 1947.92 1594.68 Q1950.02 1587.45 1950.02 1580.1 Q1950.02 1572.75 1947.92 1565.58 Q1945.85 1558.42 1941.62 1551.1 Z" fill="#000000" fill-rule="nonzero" fill-opacity="1" /><polyline clip-path="url(#clip510)" style="stroke:#000000; stroke-linecap:round; stroke-linejoin:round; stroke-width:4; stroke-opacity:1; fill:none" points="201.241,1443.7 201.241,108.352 "/>
<polyline clip-path="url(#clip510)" style="stroke:#000000; stroke-linecap:round; stroke-linejoin:round; stroke-width:4; stroke-opacity:1; fill:none" points="201.241,1277.44 220.139,1277.44 "/>
<polyline clip-path="url(#clip510)" style="stroke:#000000; stroke-linecap:round; stroke-linejoin:round; stroke-width:4; stroke-opacity:1; fill:none" points="201.241,1041.19 220.139,1041.19 "/>
<polyline clip-path="url(#clip510)" style="stroke:#000000; stroke-linecap:round; stroke-linejoin:round; stroke-width:4; stroke-opacity:1; fill:none" points="201.241,804.944 220.139,804.944 "/>
<polyline clip-path="url(#clip510)" style="stroke:#000000; stroke-linecap:round; stroke-linejoin:round; stroke-width:4; stroke-opacity:1; fill:none" points="201.241,568.697 220.139,568.697 "/>
<polyline clip-path="url(#clip510)" style="stroke:#000000; stroke-linecap:round; stroke-linejoin:round; stroke-width:4; stroke-opacity:1; fill:none" points="201.241,332.451 220.139,332.451 "/>
<path clip-path="url(#clip510)" d="M115.301 1276.08 Q118.658 1276.8 120.533 1279.07 Q122.431 1281.34 122.431 1284.67 Q122.431 1289.79 118.912 1292.59 Q115.394 1295.39 108.913 1295.39 Q106.737 1295.39 104.422 1294.95 Q102.13 1294.53 99.6764 1293.68 L99.6764 1289.16 Q101.621 1290.3 103.936 1290.88 Q106.25 1291.45 108.774 1291.45 Q113.172 1291.45 115.463 1289.72 Q117.778 1287.98 117.778 1284.67 Q117.778 1281.62 115.625 1279.9 Q113.496 1278.17 109.676 1278.17 L105.649 1278.17 L105.649 1274.32 L109.862 1274.32 Q113.311 1274.32 115.139 1272.96 Q116.968 1271.57 116.968 1268.98 Q116.968 1266.32 115.07 1264.9 Q113.195 1263.47 109.676 1263.47 Q107.755 1263.47 105.556 1263.88 Q103.357 1264.3 100.718 1265.18 L100.718 1261.01 Q103.38 1260.27 105.695 1259.9 Q108.033 1259.53 110.093 1259.53 Q115.417 1259.53 118.519 1261.96 Q121.621 1264.37 121.621 1268.49 Q121.621 1271.36 119.977 1273.35 Q118.334 1275.32 115.301 1276.08 Z" fill="#000000" fill-rule="nonzero" fill-opacity="1" /><path clip-path="url(#clip510)" d="M141.297 1263.24 Q137.686 1263.24 135.857 1266.8 Q134.051 1270.34 134.051 1277.47 Q134.051 1284.58 135.857 1288.14 Q137.686 1291.69 141.297 1291.69 Q144.931 1291.69 146.736 1288.14 Q148.565 1284.58 148.565 1277.47 Q148.565 1270.34 146.736 1266.8 Q144.931 1263.24 141.297 1263.24 M141.297 1259.53 Q147.107 1259.53 150.162 1264.14 Q153.241 1268.72 153.241 1277.47 Q153.241 1286.2 150.162 1290.81 Q147.107 1295.39 141.297 1295.39 Q135.486 1295.39 132.408 1290.81 Q129.352 1286.2 129.352 1277.47 Q129.352 1268.72 132.408 1264.14 Q135.486 1259.53 141.297 1259.53 Z" fill="#000000" fill-rule="nonzero" fill-opacity="1" /><path clip-path="url(#clip510)" d="M113.982 1027.99 L102.176 1046.43 L113.982 1046.43 L113.982 1027.99 M112.755 1023.91 L118.635 1023.91 L118.635 1046.43 L123.565 1046.43 L123.565 1050.32 L118.635 1050.32 L118.635 1058.47 L113.982 1058.47 L113.982 1050.32 L98.3802 1050.32 L98.3802 1045.81 L112.755 1023.91 Z" fill="#000000" fill-rule="nonzero" fill-opacity="1" /><path clip-path="url(#clip510)" d="M141.297 1026.99 Q137.686 1026.99 135.857 1030.55 Q134.051 1034.1 134.051 1041.23 Q134.051 1048.33 135.857 1051.9 Q137.686 1055.44 141.297 1055.44 Q144.931 1055.44 146.736 1051.9 Q148.565 1048.33 148.565 1041.23 Q148.565 1034.1 146.736 1030.55 Q144.931 1026.99 141.297 1026.99 M141.297 1023.29 Q147.107 1023.29 150.162 1027.89 Q153.241 1032.48 153.241 1041.23 Q153.241 1049.95 150.162 1054.56 Q147.107 1059.14 141.297 1059.14 Q135.486 1059.14 132.408 1054.56 Q129.352 1049.95 129.352 1041.23 Q129.352 1032.48 132.408 1027.89 Q135.486 1023.29 141.297 1023.29 Z" fill="#000000" fill-rule="nonzero" fill-opacity="1" /><path clip-path="url(#clip510)" d="M101.181 787.664 L119.537 787.664 L119.537 791.599 L105.463 791.599 L105.463 800.072 Q106.482 799.724 107.5 799.562 Q108.519 799.377 109.538 799.377 Q115.325 799.377 118.704 802.549 Q122.084 805.72 122.084 811.136 Q122.084 816.715 118.612 819.817 Q115.139 822.896 108.82 822.896 Q106.644 822.896 104.375 822.525 Q102.13 822.155 99.7227 821.414 L99.7227 816.715 Q101.806 817.849 104.028 818.405 Q106.25 818.96 108.727 818.96 Q112.732 818.96 115.07 816.854 Q117.408 814.748 117.408 811.136 Q117.408 807.525 115.07 805.419 Q112.732 803.312 108.727 803.312 Q106.852 803.312 104.977 803.729 Q103.126 804.146 101.181 805.025 L101.181 787.664 Z" fill="#000000" fill-rule="nonzero" fill-opacity="1" /><path clip-path="url(#clip510)" d="M141.297 790.743 Q137.686 790.743 135.857 794.308 Q134.051 797.849 134.051 804.979 Q134.051 812.085 135.857 815.65 Q137.686 819.192 141.297 819.192 Q144.931 819.192 146.736 815.65 Q148.565 812.085 148.565 804.979 Q148.565 797.849 146.736 794.308 Q144.931 790.743 141.297 790.743 M141.297 787.039 Q147.107 787.039 150.162 791.646 Q153.241 796.229 153.241 804.979 Q153.241 813.706 150.162 818.312 Q147.107 822.896 141.297 822.896 Q135.486 822.896 132.408 818.312 Q129.352 813.706 129.352 804.979 Q129.352 796.229 132.408 791.646 Q135.486 787.039 141.297 787.039 Z" fill="#000000" fill-rule="nonzero" fill-opacity="1" /><path clip-path="url(#clip510)" d="M111.713 566.834 Q108.565 566.834 106.713 568.987 Q104.885 571.14 104.885 574.89 Q104.885 578.616 106.713 580.792 Q108.565 582.945 111.713 582.945 Q114.862 582.945 116.69 580.792 Q118.542 578.616 118.542 574.89 Q118.542 571.14 116.69 568.987 Q114.862 566.834 111.713 566.834 M120.996 552.181 L120.996 556.441 Q119.237 555.607 117.431 555.167 Q115.649 554.728 113.889 554.728 Q109.26 554.728 106.806 557.853 Q104.375 560.978 104.028 567.297 Q105.394 565.283 107.454 564.218 Q109.514 563.13 111.991 563.13 Q117.2 563.13 120.209 566.302 Q123.241 569.45 123.241 574.89 Q123.241 580.214 120.093 583.431 Q116.945 586.649 111.713 586.649 Q105.718 586.649 102.547 582.065 Q99.3755 577.459 99.3755 568.732 Q99.3755 560.538 103.264 555.677 Q107.153 550.792 113.704 550.792 Q115.463 550.792 117.246 551.14 Q119.051 551.487 120.996 552.181 Z" fill="#000000" fill-rule="nonzero" fill-opacity="1" /><path clip-path="url(#clip510)" d="M141.297 554.496 Q137.686 554.496 135.857 558.061 Q134.051 561.603 134.051 568.732 Q134.051 575.839 135.857 579.403 Q137.686 582.945 141.297 582.945 Q144.931 582.945 146.736 579.403 Q148.565 575.839 148.565 568.732 Q148.565 561.603 146.736 558.061 Q144.931 554.496 141.297 554.496 M141.297 550.792 Q147.107 550.792 150.162 555.399 Q153.241 559.982 153.241 568.732 Q153.241 577.459 150.162 582.065 Q147.107 586.649 141.297 586.649 Q135.486 586.649 132.408 582.065 Q129.352 577.459 129.352 568.732 Q129.352 559.982 132.408 555.399 Q135.486 550.792 141.297 550.792 Z" fill="#000000" fill-rule="nonzero" fill-opacity="1" /><path clip-path="url(#clip510)" d="M99.9542 315.171 L122.176 315.171 L122.176 317.161 L109.63 349.731 L104.746 349.731 L116.551 319.106 L99.9542 319.106 L99.9542 315.171 Z" fill="#000000" fill-rule="nonzero" fill-opacity="1" /><path clip-path="url(#clip510)" d="M141.297 318.249 Q137.686 318.249 135.857 321.814 Q134.051 325.356 134.051 332.485 Q134.051 339.592 135.857 343.156 Q137.686 346.698 141.297 346.698 Q144.931 346.698 146.736 343.156 Q148.565 339.592 148.565 332.485 Q148.565 325.356 146.736 321.814 Q144.931 318.249 141.297 318.249 M141.297 314.546 Q147.107 314.546 150.162 319.152 Q153.241 323.735 153.241 332.485 Q153.241 341.212 150.162 345.818 Q147.107 350.402 141.297 350.402 Q135.486 350.402 132.408 345.818 Q129.352 341.212 129.352 332.485 Q129.352 323.735 132.408 319.152 Q135.486 314.546 141.297 314.546 Z" fill="#000000" fill-rule="nonzero" fill-opacity="1" /><path clip-path="url(#clip510)" d="M-7.73556 1071.16 L-0.956084 1071.16 Q-3.97979 1074.4 -5.47574 1078.09 Q-6.97168 1081.75 -6.97168 1085.89 Q-6.97168 1094.04 -1.9746 1098.37 Q2.99065 1102.7 12.4119 1102.7 Q21.8013 1102.7 26.7984 1098.37 Q31.7636 1094.04 31.7636 1085.89 Q31.7636 1081.75 30.2677 1078.09 Q28.7718 1074.4 25.7481 1071.16 L32.4639 1071.16 Q34.7555 1074.53 35.9014 1078.32 Q37.0472 1082.07 37.0472 1086.27 Q37.0472 1097.06 30.4587 1103.27 Q23.8383 1109.48 12.4119 1109.48 Q0.953628 1109.48 -5.63488 1103.27 Q-12.2552 1097.06 -12.2552 1086.27 Q-12.2552 1082.01 -11.1094 1078.25 Q-9.99539 1074.47 -7.73556 1071.16 Z" fill="#000000" fill-rule="nonzero" fill-opacity="1" /><path clip-path="url(#clip510)" d="M4.58208 1047.67 Q4.58208 1052.38 8.27419 1055.11 Q11.9345 1057.85 18.332 1057.85 Q24.7295 1057.85 28.4217 1055.15 Q32.0819 1052.41 32.0819 1047.67 Q32.0819 1042.99 28.3898 1040.25 Q24.6977 1037.51 18.332 1037.51 Q11.9981 1037.51 8.30602 1040.25 Q4.58208 1042.99 4.58208 1047.67 M-0.38317 1047.67 Q-0.38317 1040.03 4.58208 1035.67 Q9.54733 1031.31 18.332 1031.31 Q27.0849 1031.31 32.0819 1035.67 Q37.0472 1040.03 37.0472 1047.67 Q37.0472 1055.34 32.0819 1059.7 Q27.0849 1064.03 18.332 1064.03 Q9.54733 1064.03 4.58208 1059.7 Q-0.38317 1055.34 -0.38317 1047.67 Z" fill="#000000" fill-rule="nonzero" fill-opacity="1" /><path clip-path="url(#clip510)" d="M14.6081 991.967 L36.1242 991.967 L36.1242 997.823 L14.799 997.823 Q9.7383 997.823 7.22385 999.796 Q4.7094 1001.77 4.7094 1005.72 Q4.7094 1010.46 7.73311 1013.2 Q10.7568 1015.93 15.9767 1015.93 L36.1242 1015.93 L36.1242 1021.82 L0.4762 1021.82 L0.4762 1015.93 L6.01437 1015.93 Q2.79968 1013.83 1.20826 1011 Q-0.38317 1008.14 -0.38317 1004.41 Q-0.38317 998.269 3.43625 995.118 Q7.22385 991.967 14.6081 991.967 Z" fill="#000000" fill-rule="nonzero" fill-opacity="1" /><path clip-path="url(#clip510)" d="M1.52654 957.56 L7.06471 957.56 Q5.79157 960.043 5.15499 962.716 Q4.51842 965.39 4.51842 968.254 Q4.51842 972.615 5.85522 974.811 Q7.19202 976.975 9.86562 976.975 Q11.9026 976.975 13.0803 975.416 Q14.2261 973.856 15.2765 969.146 L15.7221 967.14 Q17.0589 960.902 19.5097 958.292 Q21.9286 955.65 26.2891 955.65 Q31.2544 955.65 34.1508 959.597 Q37.0472 963.512 37.0472 970.387 Q37.0472 973.251 36.4743 976.371 Q35.9332 979.458 34.8192 982.896 L28.7718 982.896 Q30.4587 979.649 31.318 976.498 Q32.1456 973.347 32.1456 970.26 Q32.1456 966.122 30.7451 963.894 Q29.3129 961.666 26.7347 961.666 Q24.3476 961.666 23.0745 963.289 Q21.8013 964.881 20.6237 970.323 L20.1462 972.36 Q19.0004 977.803 16.6451 980.222 Q14.258 982.641 10.1202 982.641 Q5.09134 982.641 2.35408 979.076 Q-0.38317 975.511 -0.38317 968.955 Q-0.38317 965.708 0.0942579 962.844 Q0.571686 959.979 1.52654 957.56 Z" fill="#000000" fill-rule="nonzero" fill-opacity="1" /><path clip-path="url(#clip510)" d="M22.0559 946.929 L0.4762 946.929 L0.4762 941.073 L21.8331 941.073 Q26.8939 941.073 29.4402 939.099 Q31.9546 937.126 31.9546 933.179 Q31.9546 928.437 28.9309 925.7 Q25.9072 922.931 20.6873 922.931 L0.4762 922.931 L0.4762 917.074 L36.1242 917.074 L36.1242 922.931 L30.6496 922.931 Q33.8962 925.063 35.4876 927.896 Q37.0472 930.697 37.0472 934.421 Q37.0472 940.564 33.2278 943.746 Q29.4083 946.929 22.0559 946.929 M-0.38317 932.193 L-0.38317 932.193 Z" fill="#000000" fill-rule="nonzero" fill-opacity="1" /><path clip-path="url(#clip510)" d="M7.31933 877.257 Q3.3726 875.06 1.49471 872.005 Q-0.38317 868.949 -0.38317 864.812 Q-0.38317 859.242 3.53174 856.218 Q7.41482 853.194 14.6081 853.194 L36.1242 853.194 L36.1242 859.083 L14.799 859.083 Q9.67465 859.083 7.19202 860.897 Q4.7094 862.711 4.7094 866.435 Q4.7094 870.986 7.73311 873.628 Q10.7568 876.27 15.9767 876.27 L36.1242 876.27 L36.1242 882.158 L14.799 882.158 Q9.64282 882.158 7.19202 883.972 Q4.7094 885.787 4.7094 889.574 Q4.7094 894.062 7.76493 896.704 Q10.7886 899.346 15.9767 899.346 L36.1242 899.346 L36.1242 905.234 L0.4762 905.234 L0.4762 899.346 L6.01437 899.346 Q2.73603 897.34 1.17643 894.54 Q-0.38317 891.739 -0.38317 887.887 Q-0.38317 884.004 1.5902 881.299 Q3.56357 878.562 7.31933 877.257 Z" fill="#000000" fill-rule="nonzero" fill-opacity="1" /><path clip-path="url(#clip510)" d="M4.58208 827.7 Q4.58208 832.41 8.27419 835.147 Q11.9345 837.885 18.332 837.885 Q24.7295 837.885 28.4217 835.179 Q32.0819 832.442 32.0819 827.7 Q32.0819 823.021 28.3898 820.284 Q24.6977 817.546 18.332 817.546 Q11.9981 817.546 8.30602 820.284 Q4.58208 823.021 4.58208 827.7 M-0.38317 827.7 Q-0.38317 820.061 4.58208 815.7 Q9.54733 811.34 18.332 811.34 Q27.0849 811.34 32.0819 815.7 Q37.0472 820.061 37.0472 827.7 Q37.0472 835.37 32.0819 839.731 Q27.0849 844.059 18.332 844.059 Q9.54733 844.059 4.58208 839.731 Q-0.38317 835.37 -0.38317 827.7 Z" fill="#000000" fill-rule="nonzero" fill-opacity="1" /><path clip-path="url(#clip510)" d="M16.8361 750.42 L19.7006 750.42 L19.7006 777.347 Q25.7481 776.965 28.9309 773.718 Q32.0819 770.44 32.0819 764.615 Q32.0819 761.242 31.2544 758.091 Q30.4269 754.908 28.7718 751.789 L34.3099 751.789 Q35.6467 754.94 36.347 758.25 Q37.0472 761.56 37.0472 764.966 Q37.0472 773.496 32.0819 778.493 Q27.1167 783.458 18.6503 783.458 Q9.89745 783.458 4.77305 778.747 Q-0.38317 774.005 -0.38317 765.984 Q-0.38317 758.791 4.2638 754.621 Q8.87893 750.42 16.8361 750.42 M15.1173 756.276 Q10.3112 756.34 7.44665 758.982 Q4.58208 761.592 4.58208 765.92 Q4.58208 770.822 7.35116 773.782 Q10.1202 776.71 15.1492 777.156 L15.1173 756.276 Z" fill="#000000" fill-rule="nonzero" fill-opacity="1" /><path clip-path="url(#clip510)" d="M14.6081 711.175 L36.1242 711.175 L36.1242 717.032 L14.799 717.032 Q9.7383 717.032 7.22385 719.005 Q4.7094 720.979 4.7094 724.925 Q4.7094 729.668 7.73311 732.405 Q10.7568 735.142 15.9767 735.142 L36.1242 735.142 L36.1242 741.031 L0.4762 741.031 L0.4762 735.142 L6.01437 735.142 Q2.79968 733.042 1.20826 730.209 Q-0.38317 727.344 -0.38317 723.62 Q-0.38317 717.477 3.43625 714.326 Q7.22385 711.175 14.6081 711.175 Z" fill="#000000" fill-rule="nonzero" fill-opacity="1" /><path clip-path="url(#clip510)" d="M16.8361 669.003 L19.7006 669.003 L19.7006 695.929 Q25.7481 695.548 28.9309 692.301 Q32.0819 689.023 32.0819 683.198 Q32.0819 679.824 31.2544 676.673 Q30.4269 673.49 28.7718 670.371 L34.3099 670.371 Q35.6467 673.522 36.347 676.832 Q37.0472 680.143 37.0472 683.548 Q37.0472 692.078 32.0819 697.075 Q27.1167 702.041 18.6503 702.041 Q9.89745 702.041 4.77305 697.33 Q-0.38317 692.587 -0.38317 684.567 Q-0.38317 677.373 4.2638 673.204 Q8.87893 669.003 16.8361 669.003 M15.1173 674.859 Q10.3112 674.923 7.44665 677.564 Q4.58208 680.174 4.58208 684.503 Q4.58208 689.405 7.35116 692.365 Q10.1202 695.293 15.1492 695.739 L15.1173 674.859 Z" fill="#000000" fill-rule="nonzero" fill-opacity="1" /><path clip-path="url(#clip510)" d="M5.95071 638.734 Q5.37779 639.72 5.12317 640.898 Q4.83671 642.044 4.83671 643.444 Q4.83671 648.409 8.08322 651.083 Q11.2979 653.725 17.3453 653.725 L36.1242 653.725 L36.1242 659.613 L0.4762 659.613 L0.4762 653.725 L6.01437 653.725 Q2.76785 651.879 1.20826 648.919 Q-0.38317 645.959 -0.38317 641.725 Q-0.38317 641.121 -0.287684 640.389 Q-0.224027 639.657 -0.0648847 638.765 L5.95071 638.734 Z" fill="#000000" fill-rule="nonzero" fill-opacity="1" /><path clip-path="url(#clip510)" d="M17.8864 610.279 Q11.5207 610.279 8.01956 612.921 Q4.51842 615.531 4.51842 620.273 Q4.51842 624.984 8.01956 627.625 Q11.5207 630.235 17.8864 630.235 Q24.2203 630.235 27.7214 627.625 Q31.2226 624.984 31.2226 620.273 Q31.2226 615.531 27.7214 612.921 Q24.2203 610.279 17.8864 610.279 M31.7 604.422 Q40.803 604.422 45.2271 608.465 Q49.6831 612.507 49.6831 620.846 Q49.6831 623.933 49.2057 626.671 Q48.7601 629.408 47.8052 631.986 L42.1079 631.986 Q43.5084 629.408 44.1768 626.893 Q44.8452 624.379 44.8452 621.769 Q44.8452 616.008 41.8215 613.143 Q38.8296 610.279 32.7503 610.279 L29.8539 610.279 Q33.005 612.093 34.5646 614.926 Q36.1242 617.759 36.1242 621.705 Q36.1242 628.262 31.1271 632.272 Q26.13 636.283 17.8864 636.283 Q9.61099 636.283 4.61391 632.272 Q-0.38317 628.262 -0.38317 621.705 Q-0.38317 617.759 1.17643 614.926 Q2.73603 612.093 5.88705 610.279 L0.4762 610.279 L0.4762 604.422 L31.7 604.422 Z" fill="#000000" fill-rule="nonzero" fill-opacity="1" /><path clip-path="url(#clip510)" d="M16.8361 561.868 L19.7006 561.868 L19.7006 588.795 Q25.7481 588.413 28.9309 585.166 Q32.0819 581.888 32.0819 576.063 Q32.0819 572.689 31.2544 569.538 Q30.4269 566.356 28.7718 563.236 L34.3099 563.236 Q35.6467 566.387 36.347 569.698 Q37.0472 573.008 37.0472 576.413 Q37.0472 584.943 32.0819 589.94 Q27.1167 594.906 18.6503 594.906 Q9.89745 594.906 4.77305 590.195 Q-0.38317 585.453 -0.38317 577.432 Q-0.38317 570.239 4.2638 566.069 Q8.87893 561.868 16.8361 561.868 M15.1173 567.724 Q10.3112 567.788 7.44665 570.43 Q4.58208 573.04 4.58208 577.368 Q4.58208 582.27 7.35116 585.23 Q10.1202 588.158 15.1492 588.604 L15.1173 567.724 M-16.011 573.358 L-16.011 567.024 L-4.04345 577.4 L-4.04345 582.27 L-16.011 573.358 Z" fill="#000000" fill-rule="nonzero" fill-opacity="1" /><path clip-path="url(#clip510)" d="M-9.64527 546.463 L0.4762 546.463 L0.4762 534.4 L5.02768 534.4 L5.02768 546.463 L24.3794 546.463 Q28.7399 546.463 29.9813 545.285 Q31.2226 544.076 31.2226 540.415 L31.2226 534.4 L36.1242 534.4 L36.1242 540.415 Q36.1242 547.195 33.6097 549.773 Q31.0634 552.351 24.3794 552.351 L5.02768 552.351 L5.02768 556.648 L0.4762 556.648 L0.4762 552.351 L-9.64527 552.351 L-9.64527 546.463 Z" fill="#000000" fill-rule="nonzero" fill-opacity="1" /><path clip-path="url(#clip510)" d="M0.4762 526.697 L0.4762 520.841 L36.1242 520.841 L36.1242 526.697 L0.4762 526.697 M-13.401 526.697 L-13.401 520.841 L-5.98499 520.841 L-5.98499 526.697 L-13.401 526.697 Z" fill="#000000" fill-rule="nonzero" fill-opacity="1" /><path clip-path="url(#clip510)" d="M1.84483 482.933 L7.31933 482.933 Q5.95071 485.416 5.28231 487.93 Q4.58208 490.413 4.58208 492.959 Q4.58208 498.656 8.21053 501.807 Q11.8072 504.958 18.332 504.958 Q24.8569 504.958 28.4853 501.807 Q32.0819 498.656 32.0819 492.959 Q32.0819 490.413 31.4135 487.93 Q30.7133 485.416 29.3447 482.933 L34.7555 482.933 Q35.9014 485.384 36.4743 488.026 Q37.0472 490.635 37.0472 493.595 Q37.0472 501.648 31.9864 506.391 Q26.9257 511.133 18.332 511.133 Q9.61099 511.133 4.61391 506.359 Q-0.38317 501.553 -0.38317 493.214 Q-0.38317 490.508 0.189744 487.93 Q0.730829 485.352 1.84483 482.933 Z" fill="#000000" fill-rule="nonzero" fill-opacity="1" /><path clip-path="url(#clip510)" d="M4.58208 458.934 Q4.58208 463.645 8.27419 466.382 Q11.9345 469.119 18.332 469.119 Q24.7295 469.119 28.4217 466.414 Q32.0819 463.677 32.0819 458.934 Q32.0819 454.255 28.3898 451.518 Q24.6977 448.781 18.332 448.781 Q11.9981 448.781 8.30602 451.518 Q4.58208 454.255 4.58208 458.934 M-0.38317 458.934 Q-0.38317 451.295 4.58208 446.935 Q9.54733 442.574 18.332 442.574 Q27.0849 442.574 32.0819 446.935 Q37.0472 451.295 37.0472 458.934 Q37.0472 466.605 32.0819 470.965 Q27.0849 475.294 18.332 475.294 Q9.54733 475.294 4.58208 470.965 Q-0.38317 466.605 -0.38317 458.934 Z" fill="#000000" fill-rule="nonzero" fill-opacity="1" /><path clip-path="url(#clip510)" d="M1050.55 44.2197 Q1053.18 45.1109 1055.65 48.0275 Q1058.16 50.9442 1060.67 56.0483 L1068.98 72.576 L1060.19 72.576 L1052.45 57.061 Q1049.45 50.9847 1046.62 48.9997 Q1043.82 47.0148 1038.96 47.0148 L1030.05 47.0148 L1030.05 72.576 L1021.87 72.576 L1021.87 12.096 L1040.34 12.096 Q1050.71 12.096 1055.81 16.4305 Q1060.92 20.7649 1060.92 29.5149 Q1060.92 35.2267 1058.24 38.994 Q1055.61 42.7613 1050.55 44.2197 M1030.05 18.8205 L1030.05 40.2903 L1040.34 40.2903 Q1046.25 40.2903 1049.25 37.5762 Q1052.29 34.8216 1052.29 29.5149 Q1052.29 24.2082 1049.25 21.5346 Q1046.25 18.8205 1040.34 18.8205 L1030.05 18.8205 Z" fill="#000000" fill-rule="nonzero" fill-opacity="1" /><path clip-path="url(#clip510)" d="M1114.27 48.0275 L1114.27 51.6733 L1080 51.6733 Q1080.48 59.3701 1084.61 63.421 Q1088.79 67.4314 1096.2 67.4314 Q1100.49 67.4314 1104.5 66.3781 Q1108.56 65.3249 1112.53 63.2184 L1112.53 70.267 Q1108.51 71.9684 1104.3 72.8596 Q1100.09 73.7508 1095.75 73.7508 Q1084.9 73.7508 1078.54 67.4314 Q1072.22 61.1119 1072.22 50.3365 Q1072.22 39.1965 1078.21 32.6746 Q1084.25 26.1121 1094.46 26.1121 Q1103.61 26.1121 1108.92 32.0264 Q1114.27 37.9003 1114.27 48.0275 M1106.81 45.84 Q1106.73 39.7232 1103.37 36.0774 Q1100.05 32.4315 1094.54 32.4315 Q1088.3 32.4315 1084.53 35.9558 Q1080.81 39.4801 1080.24 45.8805 L1106.81 45.84 Z" fill="#000000" fill-rule="nonzero" fill-opacity="1" /><path clip-path="url(#clip510)" d="M1126.5 9.54393 L1133.95 9.54393 L1133.95 72.576 L1126.5 72.576 L1126.5 9.54393 Z" fill="#000000" fill-rule="nonzero" fill-opacity="1" /><path clip-path="url(#clip510)" d="M1170.17 49.7694 Q1161.14 49.7694 1157.65 51.8354 Q1154.17 53.9013 1154.17 58.8839 Q1154.17 62.8538 1156.76 65.2034 Q1159.39 67.5124 1163.89 67.5124 Q1170.09 67.5124 1173.82 63.1374 Q1177.58 58.7219 1177.58 51.4303 L1177.58 49.7694 L1170.17 49.7694 M1185.04 46.6907 L1185.04 72.576 L1177.58 72.576 L1177.58 65.6895 Q1175.03 69.8214 1171.22 71.8063 Q1167.41 73.7508 1161.91 73.7508 Q1154.94 73.7508 1150.81 69.8619 Q1146.71 65.9325 1146.71 59.3701 Q1146.71 51.7138 1151.82 47.825 Q1156.96 43.9361 1167.13 43.9361 L1177.58 43.9361 L1177.58 43.2069 Q1177.58 38.0623 1174.18 35.2672 Q1170.82 32.4315 1164.7 32.4315 Q1160.81 32.4315 1157.13 33.3632 Q1153.44 34.295 1150.04 36.1584 L1150.04 29.2718 Q1154.13 27.692 1157.98 26.9223 Q1161.82 26.1121 1165.47 26.1121 Q1175.31 26.1121 1180.18 31.2163 Q1185.04 36.3204 1185.04 46.6907 Z" fill="#000000" fill-rule="nonzero" fill-opacity="1" /><path clip-path="url(#clip510)" d="M1233.04 28.9478 L1233.04 35.9153 Q1229.88 34.1734 1226.68 33.3227 Q1223.52 32.4315 1220.28 32.4315 Q1213.03 32.4315 1209.02 37.0496 Q1205.01 41.6271 1205.01 49.9314 Q1205.01 58.2358 1209.02 62.8538 Q1213.03 67.4314 1220.28 67.4314 Q1223.52 67.4314 1226.68 66.5807 Q1229.88 65.6895 1233.04 63.9476 L1233.04 70.8341 Q1229.92 72.2924 1226.56 73.0216 Q1223.24 73.7508 1219.47 73.7508 Q1209.22 73.7508 1203.18 67.3098 Q1197.15 60.8689 1197.15 49.9314 Q1197.15 38.832 1203.22 32.472 Q1209.34 26.1121 1219.96 26.1121 Q1223.4 26.1121 1226.68 26.8413 Q1229.96 27.5299 1233.04 28.9478 Z" fill="#000000" fill-rule="nonzero" fill-opacity="1" /><path clip-path="url(#clip510)" d="M1246 27.2059 L1253.46 27.2059 L1253.46 72.576 L1246 72.576 L1246 27.2059 M1246 9.54393 L1253.46 9.54393 L1253.46 18.9825 L1246 18.9825 L1246 9.54393 Z" fill="#000000" fill-rule="nonzero" fill-opacity="1" /><path clip-path="url(#clip510)" d="M1286.63 32.4315 Q1280.64 32.4315 1277.15 37.1306 Q1273.67 41.7891 1273.67 49.9314 Q1273.67 58.0738 1277.11 62.7728 Q1280.6 67.4314 1286.63 67.4314 Q1292.59 67.4314 1296.07 62.7323 Q1299.56 58.0333 1299.56 49.9314 Q1299.56 41.8701 1296.07 37.1711 Q1292.59 32.4315 1286.63 32.4315 M1286.63 26.1121 Q1296.36 26.1121 1301.9 32.4315 Q1307.45 38.7509 1307.45 49.9314 Q1307.45 61.0714 1301.9 67.4314 Q1296.36 73.7508 1286.63 73.7508 Q1276.87 73.7508 1271.32 67.4314 Q1265.81 61.0714 1265.81 49.9314 Q1265.81 38.7509 1271.32 32.4315 Q1276.87 26.1121 1286.63 26.1121 M1292.26 6.22219 L1300.33 6.22219 L1287.12 21.4536 L1280.92 21.4536 L1292.26 6.22219 Z" fill="#000000" fill-rule="nonzero" fill-opacity="1" /><path clip-path="url(#clip510)" d="M1357.52 45.1919 L1357.52 72.576 L1350.07 72.576 L1350.07 45.4349 Q1350.07 38.994 1347.56 35.7938 Q1345.05 32.5936 1340.02 32.5936 Q1333.99 32.5936 1330.5 36.4419 Q1327.02 40.2903 1327.02 46.9338 L1327.02 72.576 L1319.53 72.576 L1319.53 27.2059 L1327.02 27.2059 L1327.02 34.2544 Q1329.69 30.163 1333.3 28.1376 Q1336.95 26.1121 1341.68 26.1121 Q1349.5 26.1121 1353.51 30.9732 Q1357.52 35.7938 1357.52 45.1919 Z" fill="#000000" fill-rule="nonzero" fill-opacity="1" /><path clip-path="url(#clip510)" d="M1390.7 12.096 L1441.86 12.096 L1441.86 18.9825 L1420.39 18.9825 L1420.39 72.576 L1412.17 72.576 L1412.17 18.9825 L1390.7 18.9825 L1390.7 12.096 Z" fill="#000000" fill-rule="nonzero" fill-opacity="1" /><path clip-path="url(#clip510)" d="M1474.15 48.0275 L1474.15 51.6733 L1439.88 51.6733 Q1440.36 59.3701 1444.5 63.421 Q1448.67 67.4314 1456.08 67.4314 Q1460.38 67.4314 1464.39 66.3781 Q1468.44 65.3249 1472.41 63.2184 L1472.41 70.267 Q1468.4 71.9684 1464.18 72.8596 Q1459.97 73.7508 1455.64 73.7508 Q1444.78 73.7508 1438.42 67.4314 Q1432.1 61.1119 1432.1 50.3365 Q1432.1 39.1965 1438.1 32.6746 Q1444.13 26.1121 1454.34 26.1121 Q1463.5 26.1121 1468.8 32.0264 Q1474.15 37.9003 1474.15 48.0275 M1466.7 45.84 Q1466.61 39.7232 1463.25 36.0774 Q1459.93 32.4315 1454.42 32.4315 Q1448.18 32.4315 1444.42 35.9558 Q1440.69 39.4801 1440.12 45.8805 L1466.7 45.84 Z" fill="#000000" fill-rule="nonzero" fill-opacity="1" /><path clip-path="url(#clip510)" d="M1521.71 35.9153 Q1524.5 30.8922 1528.39 28.5022 Q1532.28 26.1121 1537.55 26.1121 Q1544.64 26.1121 1548.48 31.0947 Q1552.33 36.0368 1552.33 45.1919 L1552.33 72.576 L1544.84 72.576 L1544.84 45.4349 Q1544.84 38.913 1542.53 35.7533 Q1540.22 32.5936 1535.48 32.5936 Q1529.69 32.5936 1526.33 36.4419 Q1522.96 40.2903 1522.96 46.9338 L1522.96 72.576 L1515.47 72.576 L1515.47 45.4349 Q1515.47 38.8725 1513.16 35.7533 Q1510.85 32.5936 1506.03 32.5936 Q1500.32 32.5936 1496.96 36.4824 Q1493.59 40.3308 1493.59 46.9338 L1493.59 72.576 L1486.1 72.576 L1486.1 27.2059 L1493.59 27.2059 L1493.59 34.2544 Q1496.15 30.082 1499.71 28.0971 Q1503.28 26.1121 1508.18 26.1121 Q1513.12 26.1121 1516.56 28.6237 Q1520.05 31.1352 1521.71 35.9153 Z" fill="#000000" fill-rule="nonzero" fill-opacity="1" /><path clip-path="url(#clip510)" d="M1574.41 65.7705 L1574.41 89.8329 L1566.92 89.8329 L1566.92 27.2059 L1574.41 27.2059 L1574.41 34.0924 Q1576.76 30.0415 1580.32 28.0971 Q1583.93 26.1121 1588.91 26.1121 Q1597.18 26.1121 1602.32 32.6746 Q1607.51 39.2371 1607.51 49.9314 Q1607.51 60.6258 1602.32 67.1883 Q1597.18 73.7508 1588.91 73.7508 Q1583.93 73.7508 1580.32 71.8063 Q1576.76 69.8214 1574.41 65.7705 M1599.77 49.9314 Q1599.77 41.7081 1596.37 37.0496 Q1593 32.3505 1587.09 32.3505 Q1581.17 32.3505 1577.77 37.0496 Q1574.41 41.7081 1574.41 49.9314 Q1574.41 58.1548 1577.77 62.8538 Q1581.17 67.5124 1587.09 67.5124 Q1593 67.5124 1596.37 62.8538 Q1599.77 58.1548 1599.77 49.9314 Z" fill="#000000" fill-rule="nonzero" fill-opacity="1" /><path clip-path="url(#clip510)" d="M1658.67 48.0275 L1658.67 51.6733 L1624.4 51.6733 Q1624.88 59.3701 1629.02 63.421 Q1633.19 67.4314 1640.6 67.4314 Q1644.9 67.4314 1648.91 66.3781 Q1652.96 65.3249 1656.93 63.2184 L1656.93 70.267 Q1652.92 71.9684 1648.7 72.8596 Q1644.49 73.7508 1640.16 73.7508 Q1629.3 73.7508 1622.94 67.4314 Q1616.62 61.1119 1616.62 50.3365 Q1616.62 39.1965 1622.62 32.6746 Q1628.65 26.1121 1638.86 26.1121 Q1648.01 26.1121 1653.32 32.0264 Q1658.67 37.9003 1658.67 48.0275 M1651.21 45.84 Q1651.13 39.7232 1647.77 36.0774 Q1644.45 32.4315 1638.94 32.4315 Q1632.7 32.4315 1628.93 35.9558 Q1625.21 39.4801 1624.64 45.8805 L1651.21 45.84 Z" fill="#000000" fill-rule="nonzero" fill-opacity="1" /><path clip-path="url(#clip510)" d="M1697.19 34.1734 Q1695.94 33.4443 1694.44 33.1202 Q1692.98 32.7556 1691.2 32.7556 Q1684.88 32.7556 1681.47 36.8875 Q1678.11 40.9789 1678.11 48.6757 L1678.11 72.576 L1670.62 72.576 L1670.62 27.2059 L1678.11 27.2059 L1678.11 34.2544 Q1680.46 30.1225 1684.23 28.1376 Q1688 26.1121 1693.38 26.1121 Q1694.15 26.1121 1695.09 26.2337 Q1696.02 26.3147 1697.15 26.5172 L1697.19 34.1734 Z" fill="#000000" fill-rule="nonzero" fill-opacity="1" /><path clip-path="url(#clip510)" d="M1725.63 49.7694 Q1716.6 49.7694 1713.11 51.8354 Q1709.63 53.9013 1709.63 58.8839 Q1709.63 62.8538 1712.22 65.2034 Q1714.85 67.5124 1719.35 67.5124 Q1725.55 67.5124 1729.28 63.1374 Q1733.04 58.7219 1733.04 51.4303 L1733.04 49.7694 L1725.63 49.7694 M1740.5 46.6907 L1740.5 72.576 L1733.04 72.576 L1733.04 65.6895 Q1730.49 69.8214 1726.68 71.8063 Q1722.87 73.7508 1717.37 73.7508 Q1710.4 73.7508 1706.27 69.8619 Q1702.17 65.9325 1702.17 59.3701 Q1702.17 51.7138 1707.28 47.825 Q1712.42 43.9361 1722.59 43.9361 L1733.04 43.9361 L1733.04 43.2069 Q1733.04 38.0623 1729.64 35.2672 Q1726.28 32.4315 1720.16 32.4315 Q1716.27 32.4315 1712.59 33.3632 Q1708.9 34.295 1705.5 36.1584 L1705.5 29.2718 Q1709.59 27.692 1713.44 26.9223 Q1717.28 26.1121 1720.93 26.1121 Q1730.77 26.1121 1735.64 31.2163 Q1740.5 36.3204 1740.5 46.6907 Z" fill="#000000" fill-rule="nonzero" fill-opacity="1" /><path clip-path="url(#clip510)" d="M1763.22 14.324 L1763.22 27.2059 L1778.57 27.2059 L1778.57 32.9987 L1763.22 32.9987 L1763.22 57.6282 Q1763.22 63.1779 1764.72 64.7578 Q1766.26 66.3376 1770.92 66.3376 L1778.57 66.3376 L1778.57 72.576 L1770.92 72.576 Q1762.29 72.576 1759.01 69.3758 Q1755.73 66.1351 1755.73 57.6282 L1755.73 32.9987 L1750.26 32.9987 L1750.26 27.2059 L1755.73 27.2059 L1755.73 14.324 L1763.22 14.324 Z" fill="#000000" fill-rule="nonzero" fill-opacity="1" /><path clip-path="url(#clip510)" d="M1787.61 54.671 L1787.61 27.2059 L1795.06 27.2059 L1795.06 54.3874 Q1795.06 60.8284 1797.57 64.0691 Q1800.09 67.2693 1805.11 67.2693 Q1811.14 67.2693 1814.63 63.421 Q1818.15 59.5726 1818.15 52.9291 L1818.15 27.2059 L1825.61 27.2059 L1825.61 72.576 L1818.15 72.576 L1818.15 65.6084 Q1815.44 69.7404 1811.83 71.7658 Q1808.27 73.7508 1803.53 73.7508 Q1795.71 73.7508 1791.66 68.8897 Q1787.61 64.0286 1787.61 54.671 M1806.36 26.1121 L1806.36 26.1121 Z" fill="#000000" fill-rule="nonzero" fill-opacity="1" /><path clip-path="url(#clip510)" d="M1867.25 34.1734 Q1865.99 33.4443 1864.49 33.1202 Q1863.04 32.7556 1861.25 32.7556 Q1854.93 32.7556 1851.53 36.8875 Q1848.17 40.9789 1848.17 48.6757 L1848.17 72.576 L1840.68 72.576 L1840.68 27.2059 L1848.17 27.2059 L1848.17 34.2544 Q1850.52 30.1225 1854.29 28.1376 Q1858.05 26.1121 1863.44 26.1121 Q1864.21 26.1121 1865.14 26.2337 Q1866.07 26.3147 1867.21 26.5172 L1867.25 34.1734 Z" fill="#000000" fill-rule="nonzero" fill-opacity="1" /><path clip-path="url(#clip510)" d="M1895.69 49.7694 Q1886.65 49.7694 1883.17 51.8354 Q1879.69 53.9013 1879.69 58.8839 Q1879.69 62.8538 1882.28 65.2034 Q1884.91 67.5124 1889.41 67.5124 Q1895.61 67.5124 1899.33 63.1374 Q1903.1 58.7219 1903.1 51.4303 L1903.1 49.7694 L1895.69 49.7694 M1910.55 46.6907 L1910.55 72.576 L1903.1 72.576 L1903.1 65.6895 Q1900.55 69.8214 1896.74 71.8063 Q1892.93 73.7508 1887.42 73.7508 Q1880.46 73.7508 1876.32 69.8619 Q1872.23 65.9325 1872.23 59.3701 Q1872.23 51.7138 1877.34 47.825 Q1882.48 43.9361 1892.65 43.9361 L1903.1 43.9361 L1903.1 43.2069 Q1903.1 38.0623 1899.7 35.2672 Q1896.33 32.4315 1890.22 32.4315 Q1886.33 32.4315 1882.64 33.3632 Q1878.96 34.295 1875.55 36.1584 L1875.55 29.2718 Q1879.64 27.692 1883.49 26.9223 Q1887.34 26.1121 1890.99 26.1121 Q1900.83 26.1121 1905.69 31.2163 Q1910.55 36.3204 1910.55 46.6907 Z" fill="#000000" fill-rule="nonzero" fill-opacity="1" /><path clip-path="url(#clip510)" d="M1922.14 46.5287 L1943.97 46.5287 L1943.97 53.1722 L1922.14 53.1722 L1922.14 46.5287 Z" fill="#000000" fill-rule="nonzero" fill-opacity="1" /><path clip-path="url(#clip510)" d="M2001.46 16.7545 L2001.46 25.383 Q1997.32 21.5346 1992.62 19.6307 Q1987.97 17.7268 1982.7 17.7268 Q1972.33 17.7268 1966.82 24.0867 Q1961.31 30.4061 1961.31 42.3968 Q1961.31 54.3469 1966.82 60.7069 Q1972.33 67.0263 1982.7 67.0263 Q1987.97 67.0263 1992.62 65.1223 Q1997.32 63.2184 2001.46 59.3701 L2001.46 67.9175 Q1997.16 70.8341 1992.34 72.2924 Q1987.56 73.7508 1982.21 73.7508 Q1968.48 73.7508 1960.58 65.3654 Q1952.68 56.9395 1952.68 42.3968 Q1952.68 27.8135 1960.58 19.4281 Q1968.48 11.0023 1982.21 11.0023 Q1987.64 11.0023 1992.42 12.4606 Q1997.24 13.8784 2001.46 16.7545 Z" fill="#000000" fill-rule="nonzero" fill-opacity="1" /><path clip-path="url(#clip510)" d="M2031.35 32.4315 Q2025.36 32.4315 2021.87 37.1306 Q2018.39 41.7891 2018.39 49.9314 Q2018.39 58.0738 2021.83 62.7728 Q2025.32 67.4314 2031.35 67.4314 Q2037.31 67.4314 2040.79 62.7323 Q2044.27 58.0333 2044.27 49.9314 Q2044.27 41.8701 2040.79 37.1711 Q2037.31 32.4315 2031.35 32.4315 M2031.35 26.1121 Q2041.07 26.1121 2046.62 32.4315 Q2052.17 38.7509 2052.17 49.9314 Q2052.17 61.0714 2046.62 67.4314 Q2041.07 73.7508 2031.35 73.7508 Q2021.59 73.7508 2016.04 67.4314 Q2010.53 61.0714 2010.53 49.9314 Q2010.53 38.7509 2016.04 32.4315 Q2021.59 26.1121 2031.35 26.1121 Z" fill="#000000" fill-rule="nonzero" fill-opacity="1" /><path clip-path="url(#clip510)" d="M2102.24 45.1919 L2102.24 72.576 L2094.79 72.576 L2094.79 45.4349 Q2094.79 38.994 2092.28 35.7938 Q2089.77 32.5936 2084.74 32.5936 Q2078.71 32.5936 2075.22 36.4419 Q2071.74 40.2903 2071.74 46.9338 L2071.74 72.576 L2064.24 72.576 L2064.24 27.2059 L2071.74 27.2059 L2071.74 34.2544 Q2074.41 30.163 2078.02 28.1376 Q2081.66 26.1121 2086.4 26.1121 Q2094.22 26.1121 2098.23 30.9732 Q2102.24 35.7938 2102.24 45.1919 Z" fill="#000000" fill-rule="nonzero" fill-opacity="1" /><path clip-path="url(#clip510)" d="M2146.03 28.5427 L2146.03 35.5912 Q2142.87 33.9709 2139.47 33.1607 Q2136.07 32.3505 2132.42 32.3505 Q2126.87 32.3505 2124.08 34.0519 Q2121.32 35.7533 2121.32 39.156 Q2121.32 41.7486 2123.31 43.2475 Q2125.29 44.7058 2131.29 46.0426 L2133.84 46.6097 Q2141.78 48.3111 2145.1 51.4303 Q2148.46 54.509 2148.46 60.0587 Q2148.46 66.3781 2143.44 70.0644 Q2138.46 73.7508 2129.71 73.7508 Q2126.06 73.7508 2122.09 73.0216 Q2118.16 72.3329 2113.79 70.9151 L2113.79 63.2184 Q2117.92 65.3654 2121.93 66.4591 Q2125.94 67.5124 2129.87 67.5124 Q2135.14 67.5124 2137.97 65.73 Q2140.81 63.9071 2140.81 60.6258 Q2140.81 57.5877 2138.74 55.9673 Q2136.72 54.3469 2129.79 52.8481 L2127.2 52.2405 Q2120.27 50.7821 2117.19 47.7845 Q2114.11 44.7463 2114.11 39.4801 Q2114.11 33.0797 2118.65 29.5959 Q2123.19 26.1121 2131.53 26.1121 Q2135.66 26.1121 2139.31 26.7198 Q2142.95 27.3274 2146.03 28.5427 Z" fill="#000000" fill-rule="nonzero" fill-opacity="1" /><path clip-path="url(#clip510)" d="M2159.56 54.671 L2159.56 27.2059 L2167.02 27.2059 L2167.02 54.3874 Q2167.02 60.8284 2169.53 64.0691 Q2172.04 67.2693 2177.06 67.2693 Q2183.1 67.2693 2186.58 63.421 Q2190.11 59.5726 2190.11 52.9291 L2190.11 27.2059 L2197.56 27.2059 L2197.56 72.576 L2190.11 72.576 L2190.11 65.6084 Q2187.39 69.7404 2183.79 71.7658 Q2180.22 73.7508 2175.48 73.7508 Q2167.66 73.7508 2163.61 68.8897 Q2159.56 64.0286 2159.56 54.671 M2178.32 26.1121 L2178.32 26.1121 Z" fill="#000000" fill-rule="nonzero" fill-opacity="1" /><path clip-path="url(#clip510)" d="M2248.24 35.9153 Q2251.03 30.8922 2254.92 28.5022 Q2258.81 26.1121 2264.08 26.1121 Q2271.16 26.1121 2275.01 31.0947 Q2278.86 36.0368 2278.86 45.1919 L2278.86 72.576 L2271.37 72.576 L2271.37 45.4349 Q2271.37 38.913 2269.06 35.7533 Q2266.75 32.5936 2262.01 32.5936 Q2256.22 32.5936 2252.85 36.4419 Q2249.49 40.2903 2249.49 46.9338 L2249.49 72.576 L2242 72.576 L2242 45.4349 Q2242 38.8725 2239.69 35.7533 Q2237.38 32.5936 2232.56 32.5936 Q2226.85 32.5936 2223.49 36.4824 Q2220.12 40.3308 2220.12 46.9338 L2220.12 72.576 L2212.63 72.576 L2212.63 27.2059 L2220.12 27.2059 L2220.12 34.2544 Q2222.68 30.082 2226.24 28.0971 Q2229.81 26.1121 2234.71 26.1121 Q2239.65 26.1121 2243.09 28.6237 Q2246.58 31.1352 2248.24 35.9153 Z" fill="#000000" fill-rule="nonzero" fill-opacity="1" /><path clip-path="url(#clip510)" d="M2311.31 32.4315 Q2305.31 32.4315 2301.83 37.1306 Q2298.35 41.7891 2298.35 49.9314 Q2298.35 58.0738 2301.79 62.7728 Q2305.27 67.4314 2311.31 67.4314 Q2317.26 67.4314 2320.75 62.7323 Q2324.23 58.0333 2324.23 49.9314 Q2324.23 41.8701 2320.75 37.1711 Q2317.26 32.4315 2311.31 32.4315 M2311.31 26.1121 Q2321.03 26.1121 2326.58 32.4315 Q2332.13 38.7509 2332.13 49.9314 Q2332.13 61.0714 2326.58 67.4314 Q2321.03 73.7508 2311.31 73.7508 Q2301.55 73.7508 2296 67.4314 Q2290.49 61.0714 2290.49 49.9314 Q2290.49 38.7509 2296 32.4315 Q2301.55 26.1121 2311.31 26.1121 Z" fill="#000000" fill-rule="nonzero" fill-opacity="1" /><circle clip-path="url(#clip512)" cx="2336.4" cy="502.467" r="14.4" fill="#009af9" fill-rule="evenodd" fill-opacity="0.7" stroke="#000000" stroke-opacity="0.7" stroke-width="3.2"/>
<circle clip-path="url(#clip512)" cx="1650.34" cy="672.807" r="14.4" fill="#009af9" fill-rule="evenodd" fill-opacity="0.7" stroke="#000000" stroke-opacity="0.7" stroke-width="3.2"/>
<circle clip-path="url(#clip512)" cx="2460.86" cy="410.513" r="14.4" fill="#009af9" fill-rule="evenodd" fill-opacity="0.7" stroke="#000000" stroke-opacity="0.7" stroke-width="3.2"/>
<circle clip-path="url(#clip512)" cx="457.689" cy="1093.31" r="14.4" fill="#009af9" fill-rule="evenodd" fill-opacity="0.7" stroke="#000000" stroke-opacity="0.7" stroke-width="3.2"/>
<circle clip-path="url(#clip512)" cx="550.712" cy="1378.27" r="14.4" fill="#009af9" fill-rule="evenodd" fill-opacity="0.7" stroke="#000000" stroke-opacity="0.7" stroke-width="3.2"/>
<circle clip-path="url(#clip512)" cx="2823.31" cy="247.44" r="14.4" fill="#009af9" fill-rule="evenodd" fill-opacity="0.7" stroke="#000000" stroke-opacity="0.7" stroke-width="3.2"/>
<circle clip-path="url(#clip512)" cx="3005.26" cy="262.033" r="14.4" fill="#009af9" fill-rule="evenodd" fill-opacity="0.7" stroke="#000000" stroke-opacity="0.7" stroke-width="3.2"/>
<circle clip-path="url(#clip512)" cx="2196.92" cy="692.923" r="14.4" fill="#009af9" fill-rule="evenodd" fill-opacity="0.7" stroke="#000000" stroke-opacity="0.7" stroke-width="3.2"/>
<circle clip-path="url(#clip512)" cx="2843.79" cy="413.3" r="14.4" fill="#009af9" fill-rule="evenodd" fill-opacity="0.7" stroke="#000000" stroke-opacity="0.7" stroke-width="3.2"/>
<circle clip-path="url(#clip512)" cx="2118.6" cy="586.433" r="14.4" fill="#009af9" fill-rule="evenodd" fill-opacity="0.7" stroke="#000000" stroke-opacity="0.7" stroke-width="3.2"/>
<circle clip-path="url(#clip512)" cx="706.236" cy="1331.19" r="14.4" fill="#009af9" fill-rule="evenodd" fill-opacity="0.7" stroke="#000000" stroke-opacity="0.7" stroke-width="3.2"/>
<circle clip-path="url(#clip512)" cx="935.349" cy="1167.51" r="14.4" fill="#009af9" fill-rule="evenodd" fill-opacity="0.7" stroke="#000000" stroke-opacity="0.7" stroke-width="3.2"/>
<circle clip-path="url(#clip512)" cx="782.141" cy="975.611" r="14.4" fill="#009af9" fill-rule="evenodd" fill-opacity="0.7" stroke="#000000" stroke-opacity="0.7" stroke-width="3.2"/>
<circle clip-path="url(#clip512)" cx="509.527" cy="1264.95" r="14.4" fill="#009af9" fill-rule="evenodd" fill-opacity="0.7" stroke="#000000" stroke-opacity="0.7" stroke-width="3.2"/>
<circle clip-path="url(#clip512)" cx="1711.87" cy="880.119" r="14.4" fill="#009af9" fill-rule="evenodd" fill-opacity="0.7" stroke="#000000" stroke-opacity="0.7" stroke-width="3.2"/>
<circle clip-path="url(#clip512)" cx="1030.83" cy="1060.14" r="14.4" fill="#009af9" fill-rule="evenodd" fill-opacity="0.7" stroke="#000000" stroke-opacity="0.7" stroke-width="3.2"/>
<circle clip-path="url(#clip512)" cx="796.763" cy="1250.2" r="14.4" fill="#009af9" fill-rule="evenodd" fill-opacity="0.7" stroke="#000000" stroke-opacity="0.7" stroke-width="3.2"/>
<circle clip-path="url(#clip512)" cx="508.253" cy="1192.35" r="14.4" fill="#009af9" fill-rule="evenodd" fill-opacity="0.7" stroke="#000000" stroke-opacity="0.7" stroke-width="3.2"/>
<circle clip-path="url(#clip512)" cx="2707.98" cy="228.512" r="14.4" fill="#009af9" fill-rule="evenodd" fill-opacity="0.7" stroke="#000000" stroke-opacity="0.7" stroke-width="3.2"/>
<circle clip-path="url(#clip512)" cx="978.324" cy="1250.43" r="14.4" fill="#009af9" fill-rule="evenodd" fill-opacity="0.7" stroke="#000000" stroke-opacity="0.7" stroke-width="3.2"/>
<circle clip-path="url(#clip512)" cx="1798.27" cy="342.239" r="14.4" fill="#009af9" fill-rule="evenodd" fill-opacity="0.7" stroke="#000000" stroke-opacity="0.7" stroke-width="3.2"/>
<circle clip-path="url(#clip512)" cx="2861.46" cy="489.285" r="14.4" fill="#009af9" fill-rule="evenodd" fill-opacity="0.7" stroke="#000000" stroke-opacity="0.7" stroke-width="3.2"/>
<circle clip-path="url(#clip512)" cx="1194.23" cy="924.307" r="14.4" fill="#009af9" fill-rule="evenodd" fill-opacity="0.7" stroke="#000000" stroke-opacity="0.7" stroke-width="3.2"/>
<circle clip-path="url(#clip512)" cx="654.623" cy="1289.57" r="14.4" fill="#009af9" fill-rule="evenodd" fill-opacity="0.7" stroke="#000000" stroke-opacity="0.7" stroke-width="3.2"/>
<circle clip-path="url(#clip512)" cx="2790.4" cy="519.314" r="14.4" fill="#009af9" fill-rule="evenodd" fill-opacity="0.7" stroke="#000000" stroke-opacity="0.7" stroke-width="3.2"/>
<circle clip-path="url(#clip512)" cx="1988.82" cy="635.124" r="14.4" fill="#009af9" fill-rule="evenodd" fill-opacity="0.7" stroke="#000000" stroke-opacity="0.7" stroke-width="3.2"/>
<circle clip-path="url(#clip512)" cx="953.206" cy="1091.25" r="14.4" fill="#009af9" fill-rule="evenodd" fill-opacity="0.7" stroke="#000000" stroke-opacity="0.7" stroke-width="3.2"/>
<circle clip-path="url(#clip512)" cx="2344.31" cy="508.442" r="14.4" fill="#009af9" fill-rule="evenodd" fill-opacity="0.7" stroke="#000000" stroke-opacity="0.7" stroke-width="3.2"/>
<circle clip-path="url(#clip512)" cx="2048.96" cy="647.445" r="14.4" fill="#009af9" fill-rule="evenodd" fill-opacity="0.7" stroke="#000000" stroke-opacity="0.7" stroke-width="3.2"/>
<circle clip-path="url(#clip512)" cx="1795.78" cy="493.664" r="14.4" fill="#009af9" fill-rule="evenodd" fill-opacity="0.7" stroke="#000000" stroke-opacity="0.7" stroke-width="3.2"/>
<circle clip-path="url(#clip512)" cx="1743.65" cy="896.359" r="14.4" fill="#009af9" fill-rule="evenodd" fill-opacity="0.7" stroke="#000000" stroke-opacity="0.7" stroke-width="3.2"/>
<circle clip-path="url(#clip512)" cx="831.933" cy="1295.18" r="14.4" fill="#009af9" fill-rule="evenodd" fill-opacity="0.7" stroke="#000000" stroke-opacity="0.7" stroke-width="3.2"/>
<circle clip-path="url(#clip512)" cx="1856.67" cy="577.499" r="14.4" fill="#009af9" fill-rule="evenodd" fill-opacity="0.7" stroke="#000000" stroke-opacity="0.7" stroke-width="3.2"/>
<circle clip-path="url(#clip512)" cx="2783.44" cy="414.063" r="14.4" fill="#009af9" fill-rule="evenodd" fill-opacity="0.7" stroke="#000000" stroke-opacity="0.7" stroke-width="3.2"/>
<circle clip-path="url(#clip512)" cx="1193.94" cy="1104.02" r="14.4" fill="#009af9" fill-rule="evenodd" fill-opacity="0.7" stroke="#000000" stroke-opacity="0.7" stroke-width="3.2"/>
<circle clip-path="url(#clip512)" cx="2470.48" cy="688.071" r="14.4" fill="#009af9" fill-rule="evenodd" fill-opacity="0.7" stroke="#000000" stroke-opacity="0.7" stroke-width="3.2"/>
<circle clip-path="url(#clip512)" cx="630.048" cy="1235.99" r="14.4" fill="#009af9" fill-rule="evenodd" fill-opacity="0.7" stroke="#000000" stroke-opacity="0.7" stroke-width="3.2"/>
<circle clip-path="url(#clip512)" cx="1639.46" cy="794.991" r="14.4" fill="#009af9" fill-rule="evenodd" fill-opacity="0.7" stroke="#000000" stroke-opacity="0.7" stroke-width="3.2"/>
<circle clip-path="url(#clip512)" cx="1195.24" cy="1072.76" r="14.4" fill="#009af9" fill-rule="evenodd" fill-opacity="0.7" stroke="#000000" stroke-opacity="0.7" stroke-width="3.2"/>
<circle clip-path="url(#clip512)" cx="546.653" cy="1315.2" r="14.4" fill="#009af9" fill-rule="evenodd" fill-opacity="0.7" stroke="#000000" stroke-opacity="0.7" stroke-width="3.2"/>
<circle clip-path="url(#clip512)" cx="2923.44" cy="198.573" r="14.4" fill="#009af9" fill-rule="evenodd" fill-opacity="0.7" stroke="#000000" stroke-opacity="0.7" stroke-width="3.2"/>
<circle clip-path="url(#clip512)" cx="2337.5" cy="387.233" r="14.4" fill="#009af9" fill-rule="evenodd" fill-opacity="0.7" stroke="#000000" stroke-opacity="0.7" stroke-width="3.2"/>
<circle clip-path="url(#clip512)" cx="1188.61" cy="1117.2" r="14.4" fill="#009af9" fill-rule="evenodd" fill-opacity="0.7" stroke="#000000" stroke-opacity="0.7" stroke-width="3.2"/>
<circle clip-path="url(#clip512)" cx="1005.83" cy="1139.41" r="14.4" fill="#009af9" fill-rule="evenodd" fill-opacity="0.7" stroke="#000000" stroke-opacity="0.7" stroke-width="3.2"/>
<circle clip-path="url(#clip512)" cx="2917.93" cy="146.145" r="14.4" fill="#009af9" fill-rule="evenodd" fill-opacity="0.7" stroke="#000000" stroke-opacity="0.7" stroke-width="3.2"/>
<circle clip-path="url(#clip512)" cx="2146.61" cy="564.051" r="14.4" fill="#009af9" fill-rule="evenodd" fill-opacity="0.7" stroke="#000000" stroke-opacity="0.7" stroke-width="3.2"/>
<circle clip-path="url(#clip512)" cx="459.378" cy="1405.91" r="14.4" fill="#009af9" fill-rule="evenodd" fill-opacity="0.7" stroke="#000000" stroke-opacity="0.7" stroke-width="3.2"/>
<circle clip-path="url(#clip512)" cx="1748.44" cy="770.915" r="14.4" fill="#009af9" fill-rule="evenodd" fill-opacity="0.7" stroke="#000000" stroke-opacity="0.7" stroke-width="3.2"/>
<circle clip-path="url(#clip512)" cx="474.739" cy="1251.94" r="14.4" fill="#009af9" fill-rule="evenodd" fill-opacity="0.7" stroke="#000000" stroke-opacity="0.7" stroke-width="3.2"/>
<circle clip-path="url(#clip512)" cx="727.997" cy="1361.33" r="14.4" fill="#009af9" fill-rule="evenodd" fill-opacity="0.7" stroke="#000000" stroke-opacity="0.7" stroke-width="3.2"/>
<polyline clip-path="url(#clip512)" style="stroke:#ff0000; stroke-linecap:round; stroke-linejoin:round; stroke-width:12; stroke-opacity:1; fill:none" points="284.774,1397.15 312.9,1385.11 341.026,1373.06 369.152,1361.02 397.277,1348.97 425.403,1336.93 453.529,1324.88 481.655,1312.83 509.78,1300.79 537.906,1288.74 566.032,1276.7 594.158,1264.65 622.283,1252.61 650.409,1240.56 678.535,1228.52 706.66,1216.47 734.786,1204.42 762.912,1192.38 791.038,1180.33 819.163,1168.29 847.289,1156.24 875.415,1144.2 903.541,1132.15 931.666,1120.1 959.792,1108.06 987.918,1096.01 1016.04,1083.97 1044.17,1071.92 1072.3,1059.88 1100.42,1047.83 1128.55,1035.78 1156.67,1023.74 1184.8,1011.69 1212.92,999.648 1241.05,987.602 1269.18,975.556 1297.3,963.511 1325.43,951.465 1353.55,939.419 1381.68,927.374 1409.8,915.328 1437.93,903.282 1466.06,891.237 1494.18,879.191 1522.31,867.145 1550.43,855.1 1578.56,843.054 1606.68,831.008 1634.81,818.963 1662.94,806.917 1691.06,794.871 1719.19,782.826 1747.31,770.78 1775.44,758.734 1803.56,746.689 1831.69,734.643 1859.82,722.597 1887.94,710.552 1916.07,698.506 1944.19,686.46 1972.32,674.415 2000.44,662.369 2028.57,650.323 2056.7,638.278 2084.82,626.232 2112.95,614.186 2141.07,602.141 2169.2,590.095 2197.32,578.049 2225.45,566.004 2253.58,553.958 2281.7,541.912 2309.83,529.867 2337.95,517.821 2366.08,505.775 2394.2,493.73 2422.33,481.684 2450.46,469.638 2478.58,457.593 2506.71,445.547 2534.83,433.501 2562.96,421.456 2591.08,409.41 2619.21,397.364 2647.34,385.319 2675.46,373.273 2703.59,361.227 2731.71,349.182 2759.84,337.136 2787.97,325.09 2816.09,313.045 2844.22,300.999 2872.34,288.953 2900.47,276.908 2928.59,264.862 2956.72,252.816 2984.85,240.771 3012.97,228.725 3041.1,216.679 3069.22,204.634 "/>
<path clip-path="url(#clip510)" d="M299.625 308.384 L1278.27 308.384 L1278.27 152.864 L299.625 152.864  Z" fill="#ffffff" fill-rule="evenodd" fill-opacity="1"/>
<polyline clip-path="url(#clip510)" style="stroke:#000000; stroke-linecap:round; stroke-linejoin:round; stroke-width:4; stroke-opacity:1; fill:none" points="299.625,308.384 1278.27,308.384 1278.27,152.864 299.625,152.864 299.625,308.384 "/>
<circle clip-path="url(#clip510)" cx="430.803" cy="204.704" r="20.48" fill="#009af9" fill-rule="evenodd" fill-opacity="0.7" stroke="#000000" stroke-opacity="0.7" stroke-width="4.55111"/>
<path clip-path="url(#clip510)" d="M566.658 191.266 L566.658 218.141 L572.306 218.141 Q579.458 218.141 582.769 214.9 Q586.102 211.66 586.102 204.669 Q586.102 197.725 582.769 194.507 Q579.458 191.266 572.306 191.266 L566.658 191.266 M561.982 187.424 L571.588 187.424 Q581.634 187.424 586.333 191.614 Q591.032 195.78 591.032 204.669 Q591.032 213.604 586.31 217.794 Q581.588 221.984 571.588 221.984 L561.982 221.984 L561.982 187.424 Z" fill="#000000" fill-rule="nonzero" fill-opacity="1" /><path clip-path="url(#clip510)" d="M610.083 208.951 Q604.921 208.951 602.931 210.132 Q600.94 211.312 600.94 214.16 Q600.94 216.428 602.421 217.771 Q603.926 219.09 606.495 219.09 Q610.037 219.09 612.167 216.59 Q614.319 214.067 614.319 209.9 L614.319 208.951 L610.083 208.951 M618.579 207.192 L618.579 221.984 L614.319 221.984 L614.319 218.049 Q612.861 220.41 610.685 221.544 Q608.509 222.655 605.361 222.655 Q601.38 222.655 599.019 220.433 Q596.681 218.187 596.681 214.437 Q596.681 210.062 599.597 207.84 Q602.537 205.618 608.347 205.618 L614.319 205.618 L614.319 205.201 Q614.319 202.262 612.375 200.664 Q610.454 199.044 606.958 199.044 Q604.736 199.044 602.63 199.576 Q600.523 200.109 598.579 201.174 L598.579 197.238 Q600.917 196.336 603.116 195.896 Q605.315 195.433 607.398 195.433 Q613.023 195.433 615.801 198.35 Q618.579 201.266 618.579 207.192 Z" fill="#000000" fill-rule="nonzero" fill-opacity="1" /><path clip-path="url(#clip510)" d="M631.565 188.697 L631.565 196.058 L640.338 196.058 L640.338 199.368 L631.565 199.368 L631.565 213.442 Q631.565 216.613 632.421 217.516 Q633.301 218.419 635.963 218.419 L640.338 218.419 L640.338 221.984 L635.963 221.984 Q631.032 221.984 629.157 220.155 Q627.282 218.303 627.282 213.442 L627.282 199.368 L624.157 199.368 L624.157 196.058 L627.282 196.058 L627.282 188.697 L631.565 188.697 Z" fill="#000000" fill-rule="nonzero" fill-opacity="1" /><path clip-path="url(#clip510)" d="M655.986 199.044 Q652.56 199.044 650.569 201.729 Q648.578 204.391 648.578 209.044 Q648.578 213.697 650.546 216.382 Q652.537 219.044 655.986 219.044 Q659.389 219.044 661.379 216.359 Q663.37 213.674 663.37 209.044 Q663.37 204.438 661.379 201.752 Q659.389 199.044 655.986 199.044 M655.986 195.433 Q661.541 195.433 664.713 199.044 Q667.884 202.655 667.884 209.044 Q667.884 215.41 664.713 219.044 Q661.541 222.655 655.986 222.655 Q650.407 222.655 647.236 219.044 Q644.088 215.41 644.088 209.044 Q644.088 202.655 647.236 199.044 Q650.407 195.433 655.986 195.433 Z" fill="#000000" fill-rule="nonzero" fill-opacity="1" /><path clip-path="url(#clip510)" d="M691.472 196.822 L691.472 200.85 Q689.666 199.924 687.722 199.461 Q685.777 198.998 683.694 198.998 Q680.523 198.998 678.926 199.97 Q677.351 200.942 677.351 202.887 Q677.351 204.368 678.486 205.225 Q679.62 206.058 683.046 206.822 L684.504 207.146 Q689.041 208.118 690.939 209.9 Q692.861 211.66 692.861 214.831 Q692.861 218.442 689.99 220.549 Q687.143 222.655 682.143 222.655 Q680.06 222.655 677.791 222.238 Q675.546 221.845 673.046 221.035 L673.046 216.637 Q675.407 217.863 677.699 218.488 Q679.99 219.09 682.236 219.09 Q685.245 219.09 686.865 218.072 Q688.486 217.03 688.486 215.155 Q688.486 213.419 687.305 212.493 Q686.148 211.567 682.189 210.711 L680.708 210.363 Q676.75 209.53 674.99 207.817 Q673.231 206.081 673.231 203.072 Q673.231 199.414 675.824 197.424 Q678.416 195.433 683.185 195.433 Q685.546 195.433 687.629 195.78 Q689.712 196.127 691.472 196.822 Z" fill="#000000" fill-rule="nonzero" fill-opacity="1" /><path clip-path="url(#clip510)" d="M724.759 199.044 Q721.333 199.044 719.342 201.729 Q717.351 204.391 717.351 209.044 Q717.351 213.697 719.319 216.382 Q721.31 219.044 724.759 219.044 Q728.161 219.044 730.152 216.359 Q732.143 213.674 732.143 209.044 Q732.143 204.438 730.152 201.752 Q728.161 199.044 724.759 199.044 M724.759 195.433 Q730.314 195.433 733.485 199.044 Q736.657 202.655 736.657 209.044 Q736.657 215.41 733.485 219.044 Q730.314 222.655 724.759 222.655 Q719.18 222.655 716.009 219.044 Q712.861 215.41 712.861 209.044 Q712.861 202.655 716.009 199.044 Q719.18 195.433 724.759 195.433 Z" fill="#000000" fill-rule="nonzero" fill-opacity="1" /><path clip-path="url(#clip510)" d="M762.328 209.044 Q762.328 204.345 760.383 201.683 Q758.462 198.998 755.083 198.998 Q751.703 198.998 749.758 201.683 Q747.837 204.345 747.837 209.044 Q747.837 213.743 749.758 216.428 Q751.703 219.09 755.083 219.09 Q758.462 219.09 760.383 216.428 Q762.328 213.743 762.328 209.044 M747.837 199.993 Q749.18 197.678 751.217 196.567 Q753.277 195.433 756.124 195.433 Q760.846 195.433 763.786 199.183 Q766.749 202.933 766.749 209.044 Q766.749 215.155 763.786 218.905 Q760.846 222.655 756.124 222.655 Q753.277 222.655 751.217 221.544 Q749.18 220.41 747.837 218.095 L747.837 221.984 L743.555 221.984 L743.555 185.965 L747.837 185.965 L747.837 199.993 Z" fill="#000000" fill-rule="nonzero" fill-opacity="1" /><path clip-path="url(#clip510)" d="M790.337 196.822 L790.337 200.85 Q788.531 199.924 786.587 199.461 Q784.643 198.998 782.559 198.998 Q779.388 198.998 777.791 199.97 Q776.217 200.942 776.217 202.887 Q776.217 204.368 777.351 205.225 Q778.485 206.058 781.911 206.822 L783.369 207.146 Q787.906 208.118 789.805 209.9 Q791.726 211.66 791.726 214.831 Q791.726 218.442 788.855 220.549 Q786.008 222.655 781.008 222.655 Q778.925 222.655 776.656 222.238 Q774.411 221.845 771.911 221.035 L771.911 216.637 Q774.272 217.863 776.564 218.488 Q778.856 219.09 781.101 219.09 Q784.11 219.09 785.73 218.072 Q787.351 217.03 787.351 215.155 Q787.351 213.419 786.17 212.493 Q785.013 211.567 781.055 210.711 L779.573 210.363 Q775.615 209.53 773.856 207.817 Q772.096 206.081 772.096 203.072 Q772.096 199.414 774.689 197.424 Q777.281 195.433 782.05 195.433 Q784.411 195.433 786.494 195.78 Q788.578 196.127 790.337 196.822 Z" fill="#000000" fill-rule="nonzero" fill-opacity="1" /><path clip-path="url(#clip510)" d="M820.684 207.956 L820.684 210.039 L801.101 210.039 Q801.379 214.437 803.74 216.752 Q806.124 219.044 810.36 219.044 Q812.814 219.044 815.105 218.442 Q817.42 217.84 819.689 216.637 L819.689 220.664 Q817.397 221.636 814.99 222.146 Q812.582 222.655 810.105 222.655 Q803.902 222.655 800.267 219.044 Q796.656 215.433 796.656 209.275 Q796.656 202.91 800.082 199.183 Q803.531 195.433 809.365 195.433 Q814.596 195.433 817.628 198.813 Q820.684 202.169 820.684 207.956 M816.425 206.706 Q816.378 203.211 814.457 201.127 Q812.559 199.044 809.411 199.044 Q805.846 199.044 803.693 201.058 Q801.564 203.072 801.24 206.729 L816.425 206.706 Z" fill="#000000" fill-rule="nonzero" fill-opacity="1" /><path clip-path="url(#clip510)" d="M842.698 200.039 Q841.98 199.623 841.124 199.438 Q840.29 199.229 839.272 199.229 Q835.661 199.229 833.716 201.59 Q831.795 203.928 831.795 208.326 L831.795 221.984 L827.513 221.984 L827.513 196.058 L831.795 196.058 L831.795 200.086 Q833.138 197.725 835.29 196.59 Q837.443 195.433 840.522 195.433 Q840.962 195.433 841.494 195.502 Q842.026 195.549 842.675 195.664 L842.698 200.039 Z" fill="#000000" fill-rule="nonzero" fill-opacity="1" /><path clip-path="url(#clip510)" d="M844.11 196.058 L848.624 196.058 L856.725 217.817 L864.827 196.058 L869.341 196.058 L859.619 221.984 L853.832 221.984 L844.11 196.058 Z" fill="#000000" fill-rule="nonzero" fill-opacity="1" /><path clip-path="url(#clip510)" d="M887.003 208.951 Q881.841 208.951 879.85 210.132 Q877.86 211.312 877.86 214.16 Q877.86 216.428 879.341 217.771 Q880.846 219.09 883.415 219.09 Q886.957 219.09 889.086 216.59 Q891.239 214.067 891.239 209.9 L891.239 208.951 L887.003 208.951 M895.498 207.192 L895.498 221.984 L891.239 221.984 L891.239 218.049 Q889.781 220.41 887.605 221.544 Q885.429 222.655 882.281 222.655 Q878.299 222.655 875.938 220.433 Q873.6 218.187 873.6 214.437 Q873.6 210.062 876.517 207.84 Q879.457 205.618 885.267 205.618 L891.239 205.618 L891.239 205.201 Q891.239 202.262 889.295 200.664 Q887.373 199.044 883.878 199.044 Q881.656 199.044 879.549 199.576 Q877.443 200.109 875.499 201.174 L875.499 197.238 Q877.836 196.336 880.036 195.896 Q882.235 195.433 884.318 195.433 Q889.943 195.433 892.721 198.35 Q895.498 201.266 895.498 207.192 Z" fill="#000000" fill-rule="nonzero" fill-opacity="1" /><path clip-path="url(#clip510)" d="M921.332 199.993 L921.332 185.965 L925.591 185.965 L925.591 221.984 L921.332 221.984 L921.332 218.095 Q919.989 220.41 917.929 221.544 Q915.892 222.655 913.021 222.655 Q908.322 222.655 905.359 218.905 Q902.42 215.155 902.42 209.044 Q902.42 202.933 905.359 199.183 Q908.322 195.433 913.021 195.433 Q915.892 195.433 917.929 196.567 Q919.989 197.678 921.332 199.993 M906.818 209.044 Q906.818 213.743 908.739 216.428 Q910.684 219.09 914.063 219.09 Q917.443 219.09 919.387 216.428 Q921.332 213.743 921.332 209.044 Q921.332 204.345 919.387 201.683 Q917.443 198.998 914.063 198.998 Q910.684 198.998 908.739 201.683 Q906.818 204.345 906.818 209.044 Z" fill="#000000" fill-rule="nonzero" fill-opacity="1" /><path clip-path="url(#clip510)" d="M944.41 199.044 Q940.984 199.044 938.994 201.729 Q937.003 204.391 937.003 209.044 Q937.003 213.697 938.97 216.382 Q940.961 219.044 944.41 219.044 Q947.813 219.044 949.804 216.359 Q951.794 213.674 951.794 209.044 Q951.794 204.438 949.804 201.752 Q947.813 199.044 944.41 199.044 M944.41 195.433 Q949.966 195.433 953.137 199.044 Q956.308 202.655 956.308 209.044 Q956.308 215.41 953.137 219.044 Q949.966 222.655 944.41 222.655 Q938.832 222.655 935.66 219.044 Q932.512 215.41 932.512 209.044 Q932.512 202.655 935.66 199.044 Q938.832 195.433 944.41 195.433 Z" fill="#000000" fill-rule="nonzero" fill-opacity="1" /><path clip-path="url(#clip510)" d="M979.896 196.822 L979.896 200.85 Q978.091 199.924 976.146 199.461 Q974.202 198.998 972.118 198.998 Q968.947 198.998 967.35 199.97 Q965.776 200.942 965.776 202.887 Q965.776 204.368 966.91 205.225 Q968.044 206.058 971.47 206.822 L972.929 207.146 Q977.466 208.118 979.364 209.9 Q981.285 211.66 981.285 214.831 Q981.285 218.442 978.415 220.549 Q975.567 222.655 970.567 222.655 Q968.484 222.655 966.216 222.238 Q963.97 221.845 961.47 221.035 L961.47 216.637 Q963.831 217.863 966.123 218.488 Q968.415 219.09 970.66 219.09 Q973.669 219.09 975.29 218.072 Q976.91 217.03 976.91 215.155 Q976.91 213.419 975.729 212.493 Q974.572 211.567 970.614 210.711 L969.132 210.363 Q965.174 209.53 963.415 207.817 Q961.655 206.081 961.655 203.072 Q961.655 199.414 964.248 197.424 Q966.841 195.433 971.609 195.433 Q973.97 195.433 976.054 195.78 Q978.137 196.127 979.896 196.822 Z" fill="#000000" fill-rule="nonzero" fill-opacity="1" /><polyline clip-path="url(#clip510)" style="stroke:#ff0000; stroke-linecap:round; stroke-linejoin:round; stroke-width:12; stroke-opacity:1; fill:none" points="332.419,256.544 529.187,256.544 "/>
<path clip-path="url(#clip510)" d="M578.37 257.62 Q579.875 258.129 581.287 259.796 Q582.722 261.463 584.157 264.379 L588.903 273.824 L583.88 273.824 L579.458 264.958 Q577.745 261.486 576.125 260.352 Q574.528 259.217 571.75 259.217 L566.658 259.217 L566.658 273.824 L561.982 273.824 L561.982 239.264 L572.537 239.264 Q578.463 239.264 581.38 241.741 Q584.296 244.217 584.296 249.217 Q584.296 252.481 582.769 254.634 Q581.264 256.787 578.37 257.62 M566.658 243.106 L566.658 255.375 L572.537 255.375 Q575.917 255.375 577.63 253.824 Q579.366 252.25 579.366 249.217 Q579.366 246.185 577.63 244.657 Q575.917 243.106 572.537 243.106 L566.658 243.106 Z" fill="#000000" fill-rule="nonzero" fill-opacity="1" /><path clip-path="url(#clip510)" d="M614.782 259.796 L614.782 261.879 L595.199 261.879 Q595.477 266.277 597.838 268.592 Q600.222 270.884 604.458 270.884 Q606.912 270.884 609.204 270.282 Q611.518 269.68 613.787 268.477 L613.787 272.504 Q611.495 273.476 609.088 273.986 Q606.681 274.495 604.204 274.495 Q598 274.495 594.366 270.884 Q590.755 267.273 590.755 261.115 Q590.755 254.75 594.181 251.023 Q597.63 247.273 603.463 247.273 Q608.694 247.273 611.727 250.653 Q614.782 254.009 614.782 259.796 M610.523 258.546 Q610.477 255.051 608.556 252.967 Q606.657 250.884 603.509 250.884 Q599.944 250.884 597.792 252.898 Q595.662 254.912 595.338 258.569 L610.523 258.546 Z" fill="#000000" fill-rule="nonzero" fill-opacity="1" /><path clip-path="url(#clip510)" d="M638.833 260.56 Q638.833 255.93 636.912 253.384 Q635.014 250.838 631.565 250.838 Q628.139 250.838 626.217 253.384 Q624.319 255.93 624.319 260.56 Q624.319 265.166 626.217 267.713 Q628.139 270.259 631.565 270.259 Q635.014 270.259 636.912 267.713 Q638.833 265.166 638.833 260.56 M643.092 270.606 Q643.092 277.226 640.153 280.444 Q637.213 283.685 631.148 283.685 Q628.903 283.685 626.912 283.338 Q624.921 283.013 623.046 282.319 L623.046 278.176 Q624.921 279.194 626.75 279.68 Q628.579 280.166 630.477 280.166 Q634.666 280.166 636.75 277.967 Q638.833 275.791 638.833 271.37 L638.833 269.264 Q637.514 271.555 635.454 272.689 Q633.393 273.824 630.523 273.824 Q625.754 273.824 622.838 270.189 Q619.921 266.555 619.921 260.56 Q619.921 254.541 622.838 250.907 Q625.754 247.273 630.523 247.273 Q633.393 247.273 635.454 248.407 Q637.514 249.541 638.833 251.833 L638.833 247.898 L643.092 247.898 L643.092 270.606 Z" fill="#000000" fill-rule="nonzero" fill-opacity="1" /><path clip-path="url(#clip510)" d="M666.889 251.879 Q666.171 251.463 665.314 251.278 Q664.481 251.069 663.463 251.069 Q659.852 251.069 657.907 253.43 Q655.986 255.768 655.986 260.166 L655.986 273.824 L651.703 273.824 L651.703 247.898 L655.986 247.898 L655.986 251.926 Q657.328 249.565 659.481 248.43 Q661.634 247.273 664.713 247.273 Q665.152 247.273 665.685 247.342 Q666.217 247.389 666.865 247.504 L666.889 251.879 Z" fill="#000000" fill-rule="nonzero" fill-opacity="1" /><path clip-path="url(#clip510)" d="M692.49 259.796 L692.49 261.879 L672.907 261.879 Q673.185 266.277 675.546 268.592 Q677.93 270.884 682.166 270.884 Q684.62 270.884 686.912 270.282 Q689.226 269.68 691.495 268.477 L691.495 272.504 Q689.203 273.476 686.796 273.986 Q684.388 274.495 681.912 274.495 Q675.708 274.495 672.074 270.884 Q668.463 267.273 668.463 261.115 Q668.463 254.75 671.889 251.023 Q675.338 247.273 681.171 247.273 Q686.402 247.273 689.435 250.653 Q692.49 254.009 692.49 259.796 M688.231 258.546 Q688.185 255.051 686.263 252.967 Q684.365 250.884 681.217 250.884 Q677.652 250.884 675.5 252.898 Q673.37 254.912 673.046 258.569 L688.231 258.546 Z" fill="#000000" fill-rule="nonzero" fill-opacity="1" /><path clip-path="url(#clip510)" d="M716.009 248.662 L716.009 252.69 Q714.203 251.764 712.259 251.301 Q710.314 250.838 708.231 250.838 Q705.06 250.838 703.462 251.81 Q701.888 252.782 701.888 254.727 Q701.888 256.208 703.023 257.065 Q704.157 257.898 707.583 258.662 L709.041 258.986 Q713.578 259.958 715.476 261.74 Q717.398 263.5 717.398 266.671 Q717.398 270.282 714.527 272.389 Q711.68 274.495 706.68 274.495 Q704.597 274.495 702.328 274.078 Q700.083 273.685 697.583 272.875 L697.583 268.477 Q699.944 269.703 702.236 270.328 Q704.527 270.93 706.773 270.93 Q709.782 270.93 711.402 269.912 Q713.023 268.87 713.023 266.995 Q713.023 265.259 711.842 264.333 Q710.685 263.407 706.726 262.551 L705.245 262.203 Q701.286 261.37 699.527 259.657 Q697.768 257.921 697.768 254.912 Q697.768 251.254 700.361 249.264 Q702.953 247.273 707.722 247.273 Q710.083 247.273 712.166 247.62 Q714.249 247.967 716.009 248.662 Z" fill="#000000" fill-rule="nonzero" fill-opacity="1" /><path clip-path="url(#clip510)" d="M724.18 247.898 L728.439 247.898 L728.439 273.824 L724.18 273.824 L724.18 247.898 M724.18 237.805 L728.439 237.805 L728.439 243.199 L724.18 243.199 L724.18 237.805 Z" fill="#000000" fill-rule="nonzero" fill-opacity="1" /><path clip-path="url(#clip510)" d="M747.397 250.884 Q743.971 250.884 741.981 253.569 Q739.99 256.231 739.99 260.884 Q739.99 265.537 741.958 268.222 Q743.948 270.884 747.397 270.884 Q750.8 270.884 752.791 268.199 Q754.782 265.514 754.782 260.884 Q754.782 256.278 752.791 253.592 Q750.8 250.884 747.397 250.884 M747.397 247.273 Q752.953 247.273 756.124 250.884 Q759.295 254.495 759.295 260.884 Q759.295 267.25 756.124 270.884 Q752.953 274.495 747.397 274.495 Q741.819 274.495 738.647 270.884 Q735.499 267.25 735.499 260.884 Q735.499 254.495 738.647 250.884 Q741.819 247.273 747.397 247.273 M750.615 235.907 L755.221 235.907 L747.675 244.611 L744.133 244.611 L750.615 235.907 Z" fill="#000000" fill-rule="nonzero" fill-opacity="1" /><path clip-path="url(#clip510)" d="M787.906 258.176 L787.906 273.824 L783.647 273.824 L783.647 258.315 Q783.647 254.634 782.212 252.805 Q780.777 250.977 777.906 250.977 Q774.457 250.977 772.467 253.176 Q770.476 255.375 770.476 259.171 L770.476 273.824 L766.194 273.824 L766.194 247.898 L770.476 247.898 L770.476 251.926 Q772.004 249.588 774.064 248.43 Q776.147 247.273 778.856 247.273 Q783.323 247.273 785.615 250.051 Q787.906 252.805 787.906 258.176 Z" fill="#000000" fill-rule="nonzero" fill-opacity="1" /><path clip-path="url(#clip510)" d="M797.49 267.944 L802.374 267.944 L802.374 273.824 L797.49 273.824 L797.49 267.944 M797.49 249.31 L802.374 249.31 L802.374 255.19 L797.49 255.19 L797.49 249.31 Z" fill="#000000" fill-rule="nonzero" fill-opacity="1" /><path clip-path="url(#clip510)" d="M838.23 276.231 Q836.425 280.861 834.712 282.273 Q832.999 283.685 830.128 283.685 L826.726 283.685 L826.726 280.12 L829.226 280.12 Q830.985 280.12 831.957 279.287 Q832.929 278.453 834.11 275.351 L834.874 273.407 L824.388 247.898 L828.902 247.898 L837.003 268.176 L845.105 247.898 L849.619 247.898 L838.23 276.231 Z" fill="#000000" fill-rule="nonzero" fill-opacity="1" /><path clip-path="url(#clip510)" d="M871.124 252.296 L900.799 252.296 L900.799 256.185 L871.124 256.185 L871.124 252.296 M871.124 261.74 L900.799 261.74 L900.799 265.676 L871.124 265.676 L871.124 261.74 Z" fill="#000000" fill-rule="nonzero" fill-opacity="1" /><path clip-path="url(#clip510)" d="M923.207 258.94 L935.683 258.94 L935.683 262.736 L923.207 262.736 L923.207 258.94 Z" fill="#000000" fill-rule="nonzero" fill-opacity="1" /><path clip-path="url(#clip510)" d="M953.068 242.342 Q949.456 242.342 947.628 245.907 Q945.822 249.449 945.822 256.578 Q945.822 263.685 947.628 267.25 Q949.456 270.791 953.068 270.791 Q956.702 270.791 958.507 267.25 Q960.336 263.685 960.336 256.578 Q960.336 249.449 958.507 245.907 Q956.702 242.342 953.068 242.342 M953.068 238.639 Q958.878 238.639 961.933 243.245 Q965.012 247.828 965.012 256.578 Q965.012 265.305 961.933 269.912 Q958.878 274.495 953.068 274.495 Q947.257 274.495 944.179 269.912 Q941.123 265.305 941.123 256.578 Q941.123 247.828 944.179 243.245 Q947.257 238.639 953.068 238.639 Z" fill="#000000" fill-rule="nonzero" fill-opacity="1" /><path clip-path="url(#clip510)" d="M973.229 267.944 L978.114 267.944 L978.114 273.824 L973.229 273.824 L973.229 267.944 Z" fill="#000000" fill-rule="nonzero" fill-opacity="1" /><path clip-path="url(#clip510)" d="M1002.47 255.19 Q1005.82 255.907 1007.7 258.176 Q1009.6 260.444 1009.6 263.777 Q1009.6 268.893 1006.08 271.694 Q1002.56 274.495 996.077 274.495 Q993.901 274.495 991.586 274.055 Q989.294 273.639 986.841 272.782 L986.841 268.268 Q988.785 269.402 991.1 269.981 Q993.415 270.56 995.938 270.56 Q1000.34 270.56 1002.63 268.824 Q1004.94 267.088 1004.94 263.777 Q1004.94 260.722 1002.79 259.009 Q1000.66 257.273 996.84 257.273 L992.813 257.273 L992.813 253.43 L997.026 253.43 Q1000.47 253.43 1002.3 252.065 Q1004.13 250.676 1004.13 248.083 Q1004.13 245.421 1002.23 244.009 Q1000.36 242.574 996.84 242.574 Q994.919 242.574 992.72 242.991 Q990.521 243.407 987.882 244.287 L987.882 240.12 Q990.544 239.379 992.859 239.009 Q995.197 238.639 997.257 238.639 Q1002.58 238.639 1005.68 241.069 Q1008.78 243.477 1008.78 247.597 Q1008.78 250.467 1007.14 252.458 Q1005.5 254.426 1002.47 255.19 Z" fill="#000000" fill-rule="nonzero" fill-opacity="1" /><path clip-path="url(#clip510)" d="M1019.27 269.889 L1026.91 269.889 L1026.91 243.523 L1018.6 245.19 L1018.6 240.93 L1026.86 239.264 L1031.54 239.264 L1031.54 269.889 L1039.18 269.889 L1039.18 273.824 L1019.27 273.824 L1019.27 269.889 Z" fill="#000000" fill-rule="nonzero" fill-opacity="1" /><path clip-path="url(#clip510)" d="M1080.43 244.102 L1080.43 256.995 L1093.32 256.995 L1093.32 260.93 L1080.43 260.93 L1080.43 273.824 L1076.54 273.824 L1076.54 260.93 L1063.65 260.93 L1063.65 256.995 L1076.54 256.995 L1076.54 244.102 L1080.43 244.102 Z" fill="#000000" fill-rule="nonzero" fill-opacity="1" /><path clip-path="url(#clip510)" d="M1122.51 269.889 L1138.83 269.889 L1138.83 273.824 L1116.89 273.824 L1116.89 269.889 Q1119.55 267.134 1124.13 262.504 Q1128.74 257.852 1129.92 256.509 Q1132.16 253.986 1133.04 252.25 Q1133.95 250.491 1133.95 248.801 Q1133.95 246.046 1132 244.31 Q1130.08 242.574 1126.98 242.574 Q1124.78 242.574 1122.33 243.338 Q1119.9 244.102 1117.12 245.653 L1117.12 240.93 Q1119.94 239.796 1122.4 239.217 Q1124.85 238.639 1126.89 238.639 Q1132.26 238.639 1135.45 241.324 Q1138.65 244.009 1138.65 248.5 Q1138.65 250.629 1137.84 252.551 Q1137.05 254.449 1134.94 257.041 Q1134.36 257.713 1131.26 260.93 Q1128.16 264.125 1122.51 269.889 Z" fill="#000000" fill-rule="nonzero" fill-opacity="1" /><path clip-path="url(#clip510)" d="M1148.65 267.944 L1153.53 267.944 L1153.53 273.824 L1148.65 273.824 L1148.65 267.944 Z" fill="#000000" fill-rule="nonzero" fill-opacity="1" /><path clip-path="url(#clip510)" d="M1163.76 239.264 L1182.12 239.264 L1182.12 243.199 L1168.04 243.199 L1168.04 251.671 Q1169.06 251.324 1170.08 251.162 Q1171.1 250.977 1172.12 250.977 Q1177.9 250.977 1181.28 254.148 Q1184.66 257.319 1184.66 262.736 Q1184.66 268.314 1181.19 271.416 Q1177.72 274.495 1171.4 274.495 Q1169.22 274.495 1166.96 274.125 Q1164.71 273.754 1162.3 273.014 L1162.3 268.314 Q1164.39 269.449 1166.61 270.004 Q1168.83 270.56 1171.31 270.56 Q1175.31 270.56 1177.65 268.453 Q1179.99 266.347 1179.99 262.736 Q1179.99 259.125 1177.65 257.018 Q1175.31 254.912 1171.31 254.912 Q1169.43 254.912 1167.56 255.328 Q1165.71 255.745 1163.76 256.625 L1163.76 239.264 Z" fill="#000000" fill-rule="nonzero" fill-opacity="1" /><path clip-path="url(#clip510)" d="M1197.9 269.889 L1214.22 269.889 L1214.22 273.824 L1192.28 273.824 L1192.28 269.889 Q1194.94 267.134 1199.52 262.504 Q1204.13 257.852 1205.31 256.509 Q1207.56 253.986 1208.44 252.25 Q1209.34 250.491 1209.34 248.801 Q1209.34 246.046 1207.39 244.31 Q1205.47 242.574 1202.37 242.574 Q1200.17 242.574 1197.72 243.338 Q1195.29 244.102 1192.51 245.653 L1192.51 240.93 Q1195.33 239.796 1197.79 239.217 Q1200.24 238.639 1202.28 238.639 Q1207.65 238.639 1210.84 241.324 Q1214.04 244.009 1214.04 248.5 Q1214.04 250.629 1213.23 252.551 Q1212.44 254.449 1210.33 257.041 Q1209.76 257.713 1206.65 260.93 Q1203.55 264.125 1197.9 269.889 Z" fill="#000000" fill-rule="nonzero" fill-opacity="1" /><path clip-path="url(#clip510)" d="M1244.99 247.898 L1235.61 260.514 L1245.47 273.824 L1240.45 273.824 L1232.9 263.639 L1225.36 273.824 L1220.33 273.824 L1230.4 260.259 L1221.19 247.898 L1226.21 247.898 L1233.09 257.134 L1239.96 247.898 L1244.99 247.898 Z" fill="#000000" fill-rule="nonzero" fill-opacity="1" /></svg>
